<svg width="62" height="61" viewBox="0 0 62 61" fill="none" xmlns="http://www.w3.org/2000/svg">
<path d="M45.3726 13.7305C43.7402 13.7305 42.3906 15.0435 42.3906 16.6403V18.5826H48.3473V16.6403C48.3473 15.0435 47.005 13.7305 45.3726 13.7305Z" fill="#FF6B6B"/>
<path d="M3.98229 11.8085C2.34729 11.8085 1.00194 13.1226 1.00194 14.722L1 41.9542H60.6439C60.6439 41.9542 60.6479 34.6009 60.6479 34.1766C60.6478 33.9177 60.5423 33.6696 60.3547 33.4871L56.5531 29.7683L53.6484 20.2794C53.1638 18.696 52.1464 17.645 50.7049 17.645H38.7718V14.722C38.7718 13.1226 37.4284 11.8085 35.7934 11.8085H3.98229Z" fill="#DBE9EE"/>
<path d="M41.3949 21.4925C41.2639 21.492 41.1341 21.5169 41.013 21.5657C40.8919 21.6145 40.7818 21.6863 40.6892 21.7769C40.5965 21.8675 40.5232 21.9752 40.4733 22.0936C40.4234 22.2121 40.3979 22.3391 40.3984 22.4672V30.2365C40.3989 30.364 40.425 30.4902 40.4754 30.6079C40.5257 30.7255 40.5992 30.8323 40.6918 30.9222C40.7843 31.012 40.894 31.0831 41.0147 31.1315C41.1353 31.1799 41.2645 31.2045 41.3949 31.204H51.1395C51.2941 31.2041 51.4465 31.169 51.5847 31.1013C51.7229 31.0336 51.843 30.9353 51.9355 30.8142C52.028 30.6931 52.0903 30.5525 52.1175 30.4037C52.1447 30.2549 52.1359 30.1019 52.092 29.9569L49.7108 22.1877C49.6499 21.9868 49.5243 21.8106 49.3526 21.6853C49.181 21.56 48.9725 21.4923 48.7583 21.4925H41.3949Z" fill="#6CBEBF"/>
<path d="M1 40.9818L1.00199 45.8402C0.999005 46.378 1.44244 46.8162 1.9922 46.8183H59.6499C60.2027 46.8203 60.651 46.3809 60.6478 45.8402L60.6459 40.9818H1Z" fill="#FF6B6B"/>
<path d="M47.3515 38.9732C43.5262 38.9732 40.3984 42.0256 40.3984 45.7677C40.3984 49.5097 43.5262 52.5693 47.3515 52.5693C51.1769 52.5693 54.2973 49.5097 54.2973 45.7677C54.2973 42.0256 51.1769 38.9732 47.3515 38.9732Z" fill="#33658A"/>
<path d="M47.357 42.8578C45.7243 42.8578 44.3751 44.1706 44.375 45.7677C44.375 47.3649 45.7243 48.6848 47.357 48.6848C48.9897 48.6848 50.3317 47.3649 50.3317 45.7677C50.3317 44.1706 48.9897 42.8578 47.357 42.8578Z" fill="#DBE9EE"/>
<path d="M13.6094 38.9732C9.78399 38.9732 6.65625 42.0256 6.65625 45.7677C6.65625 49.5097 9.78399 52.5693 13.6094 52.5693C17.4347 52.5693 20.5552 49.5097 20.5552 45.7677C20.5552 42.0256 17.4347 38.9732 13.6094 38.9732Z" fill="#33658A"/>
<path d="M13.607 42.8578C11.9743 42.8578 10.6251 44.1706 10.625 45.7677C10.625 47.3649 11.9743 48.6848 13.607 48.6848C15.2398 48.6848 16.5817 47.3649 16.5817 45.7677C16.5817 44.1706 15.2397 42.8578 13.607 42.8578Z" fill="#DBE9EE"/>
<path d="M44.375 8.87828V10.8206C44.375 12.1155 46.3606 12.1155 46.3606 10.8206V8.87828C46.3606 7.54598 44.375 7.52447 44.375 8.87828Z" fill="#FF6B6B"/>
<path d="M49.4745 9.68811L48.478 11.3724C47.8134 12.4953 49.5352 13.4701 50.1998 12.3471L51.1889 10.6628C51.8061 9.61188 50.2627 8.56649 49.4745 9.68811Z" fill="#FF6B6B"/>
<path d="M39.5467 10.6629L40.5358 12.3472C41.2001 13.47 42.9219 12.4953 42.2576 11.3724C42.2576 11.3724 41.5994 10.2489 41.2685 9.68816C40.6049 8.5638 38.8635 9.49959 39.5467 10.6629Z" fill="#FF6B6B"/>
<path d="M41.399 33.1464C41.1357 33.1464 40.8832 33.2487 40.697 33.4308C40.5108 33.6129 40.4062 33.8599 40.4062 34.1175C40.4062 34.3751 40.5108 34.6221 40.697 34.8042C40.8832 34.9863 41.1357 35.0887 41.399 35.0887H43.3846C43.6479 35.0887 43.9004 34.9863 44.0866 34.8042C44.2728 34.6221 44.3774 34.3751 44.3774 34.1175C44.3774 33.8599 44.2728 33.6129 44.0866 33.4308C43.9004 33.2487 43.6479 33.1464 43.3846 33.1464H41.399Z" fill="#C8D4D9"/>
</svg>
