<svg width="25" height="24" viewBox="0 0 25 24" fill="none" xmlns="http://www.w3.org/2000/svg">
<g clip-path="url(#clip0_4088_68502)">
<mask id="mask0_4088_68502" style="mask-type:luminance" maskUnits="userSpaceOnUse" x="0" y="0" width="25" height="24">
<path d="M0.5 0H24.5V24H0.5V0Z" fill="white"/>
</mask>
<g mask="url(#mask0_4088_68502)">
<path d="M19.3051 0.124023H5.78011C4.42307 0.124553 3.12174 0.663803 2.16208 1.62328C1.20241 2.58276 0.662904 3.88398 0.662109 5.24102V18.766C0.662904 20.1229 1.20227 21.424 2.16172 22.3834C3.12117 23.3429 4.42224 23.8822 5.77911 23.883H19.3041C20.6612 23.8825 21.9625 23.3432 22.9221 22.3838C23.8818 21.4243 24.4213 20.1231 24.4221 18.766V5.24102C24.4213 3.88415 23.8819 2.58309 22.9225 1.62364C21.963 0.664184 20.662 0.124818 19.3051 0.124023Z" fill="#E14459"/>
<path d="M6.45333 1.67676C6.27433 1.67676 6.10233 1.74776 5.97533 1.87476C5.91251 1.93712 5.86267 2.01131 5.82868 2.09305C5.7947 2.17479 5.77725 2.26245 5.77734 2.35097C5.77744 2.43949 5.79507 2.52711 5.82922 2.60878C5.86338 2.69044 5.91338 2.76453 5.97633 2.82676C6.10333 2.95276 6.27533 3.02376 6.45433 3.02376C6.63333 3.02376 6.80533 2.95276 6.93233 2.82676C6.99513 2.76442 7.04496 2.69026 7.07895 2.60856C7.11293 2.52686 7.1304 2.43924 7.13033 2.35076V2.34976C7.13026 2.2612 7.11264 2.17354 7.07849 2.09184C7.04433 2.01013 6.99431 1.93601 6.93133 1.87376C6.80433 1.74776 6.63233 1.67676 6.45333 1.67676ZM18.5443 1.67676C18.3653 1.67676 18.1933 1.74776 18.0663 1.87476C18.0035 1.93712 17.9537 2.01131 17.9197 2.09305C17.8857 2.17479 17.8683 2.26245 17.8683 2.35097C17.8684 2.43949 17.8861 2.52711 17.9202 2.60878C17.9544 2.69044 18.0044 2.76453 18.0673 2.82676C18.1943 2.95276 18.3663 3.02376 18.5453 3.02376C18.7243 3.02376 18.8963 2.95276 19.0233 2.82676C19.1503 2.70076 19.2213 2.52876 19.2213 2.35076V2.34976C19.2213 2.2612 19.2036 2.17354 19.1695 2.09184C19.1353 2.01013 19.0853 1.93601 19.0223 1.87376C18.8953 1.74776 18.7233 1.67576 18.5443 1.67676Z" fill="#C73148"/>
<path d="M6.42684 2.25721C6.19184 2.27021 6.20384 2.61121 6.20384 2.61121C7.46584 5.06921 9.79084 6.27521 12.4718 6.27521C15.1528 6.27521 17.4968 5.05221 18.7578 2.59721C18.7578 2.59721 18.8078 2.13521 18.3158 2.29521C17.0228 4.43821 14.8508 5.70621 12.4738 5.71021C10.0968 5.71421 7.92684 4.45721 6.63184 2.30921C6.54784 2.26921 6.48084 2.25421 6.42684 2.25721ZM14.9708 11.8132L14.2528 13.9522L13.5538 11.8142H12.8708L13.9728 14.9232H14.5038L15.2238 12.8802L15.9428 14.9232H16.4788L17.5788 11.8142H16.9138L16.2138 13.9522L15.4958 11.8132H14.9728H14.9708ZM11.1558 11.8142L9.76184 14.9232H10.4168L10.6858 14.3212L10.7048 14.2752H12.1528L12.4368 14.9222H13.1098L11.7288 11.8322L11.7168 11.8142H11.1558ZM21.2488 11.8142V14.9202H21.8818V11.8142H21.2488ZM3.08984 11.8142V14.9252H3.73184V13.6622H5.18084V14.9252H5.82284V11.8152H5.18084V13.0702H3.73184V11.8152L3.08984 11.8142ZM8.79384 11.8152V13.5962C8.79384 14.1022 8.53884 14.3722 8.07484 14.3722C7.61084 14.3722 7.35184 14.0952 7.35184 13.5752V11.8182H6.70984V13.5962C6.70984 14.4712 7.20484 14.9732 8.06684 14.9732C8.93684 14.9732 9.43584 14.4622 9.43584 13.5702V11.8152H8.79384ZM18.0958 11.8162V14.9222H20.4848V14.3562H18.7288V13.5862H19.8968V13.0202H18.7288V12.3832H20.4238V11.8162H18.0958ZM11.4278 12.6002L11.8858 13.6412L11.9168 13.7132H10.9458L10.9758 13.6412L11.4268 12.6002H11.4278Z" fill="white"/>
</g>
</g>
<defs>
<clipPath id="clip0_4088_68502">
<rect width="25" height="24" fill="white"/>
</clipPath>
</defs>
</svg>
