<svg width="24" height="24" viewBox="0 0 24 24" fill="none" xmlns="http://www.w3.org/2000/svg">
<path d="M16.6187 0C16.6746 0 16.7304 0 16.7894 0C16.9264 1.69253 16.2804 2.95719 15.4953 3.87301C14.7249 4.78251 13.67 5.6646 11.9637 5.53076C11.8499 3.86247 12.497 2.69161 13.2811 1.77789C14.0083 0.92636 15.3414 0.168621 16.6187 0Z" fill="black"/>
<path d="M21.7837 17.6167C21.7837 17.6335 21.7837 17.6483 21.7837 17.6641C21.3042 19.1163 20.6203 20.361 19.7856 21.516C19.0236 22.5646 18.0899 23.9758 16.4227 23.9758C14.982 23.9758 14.0251 23.0494 12.5486 23.0241C10.9867 22.9988 10.1278 23.7987 8.69982 24C8.53647 24 8.37312 24 8.21293 24C7.16432 23.8482 6.31805 23.0178 5.70153 22.2695C3.88359 20.0585 2.47877 17.2025 2.21741 13.5476C2.21741 13.1893 2.21741 12.832 2.21741 12.4737C2.32806 9.858 3.59904 7.73127 5.28841 6.70057C6.17999 6.15256 7.40566 5.68569 8.77043 5.89436C9.35533 5.98499 9.95288 6.18523 10.4767 6.38336C10.973 6.57411 11.5938 6.9124 12.1818 6.89449C12.5802 6.88289 12.9765 6.67528 13.378 6.52879C14.5541 6.10408 15.7071 5.61718 17.2268 5.84588C19.0531 6.12199 20.3494 6.93348 21.1504 8.18549C19.6054 9.16876 18.3839 10.6505 18.5926 13.1809C18.7781 15.4794 20.1144 16.8241 21.7837 17.6167Z" fill="black"/>
</svg>
