<svg width="21" height="20" viewBox="0 0 21 20" fill="none" xmlns="http://www.w3.org/2000/svg">
<path d="M15.4999 10.0001C15.4959 9.56172 15.3192 9.14255 15.0083 8.83347L11.4333 5.25014C11.2771 5.09493 11.0659 5.00781 10.8458 5.00781C10.6256 5.00781 10.4144 5.09493 10.2583 5.25014C10.1801 5.32761 10.1182 5.41978 10.0758 5.52133C10.0335 5.62288 10.0118 5.7318 10.0118 5.84181C10.0118 5.95182 10.0335 6.06074 10.0758 6.16229C10.1182 6.26384 10.1801 6.356 10.2583 6.43347L12.9999 9.16681H4.66659C4.44557 9.16681 4.23361 9.2546 4.07733 9.41088C3.92105 9.56716 3.83325 9.77913 3.83325 10.0001C3.83325 10.2212 3.92105 10.4331 4.07733 10.5894C4.23361 10.7457 4.44557 10.8335 4.66659 10.8335H12.9999L10.2583 13.5751C10.1013 13.731 10.0127 13.9427 10.012 14.1639C10.0112 14.385 10.0983 14.5974 10.2541 14.7543C10.4099 14.9112 10.6217 14.9998 10.8428 15.0006C11.0639 15.0014 11.2763 14.9143 11.4333 14.7585L15.0083 11.1751C15.3212 10.864 15.4981 10.4415 15.4999 10.0001Z" fill="#222222"/>
</svg>
