<svg width="20" height="20" viewBox="0 0 20 20" fill="none" xmlns="http://www.w3.org/2000/svg">
<g id="arrow-small-right (3) 1">
<path id="Vector" d="M5.00032 9.99998C5.00438 10.4384 5.18103 10.8576 5.49199 11.1666L9.06699 14.75C9.22313 14.9052 9.43434 14.9923 9.65449 14.9923C9.87465 14.9923 10.0859 14.9052 10.242 14.75C10.3201 14.6725 10.3821 14.5803 10.4244 14.4788C10.4667 14.3772 10.4885 14.2683 10.4885 14.1583C10.4885 14.0483 10.4667 13.9394 10.4244 13.8378C10.3821 13.7363 10.3201 13.6441 10.242 13.5666L7.50032 10.8333L15.8337 10.8333C16.0547 10.8333 16.2666 10.7455 16.4229 10.5892C16.5792 10.433 16.667 10.221 16.667 9.99998C16.667 9.77897 16.5792 9.56701 16.4229 9.41073C16.2666 9.25445 16.0547 9.16665 15.8337 9.16665L7.50032 9.16665L10.242 6.42498C10.3989 6.26917 10.4875 6.0574 10.4883 5.83626C10.4891 5.61513 10.402 5.40274 10.2462 5.24582C10.0903 5.0889 9.87857 5.0003 9.65744 4.99952C9.4363 4.99874 9.22391 5.08584 9.06699 5.24165L5.49199 8.82498C5.179 9.13611 5.00218 9.55867 5.00032 9.99998Z" fill="white"/>
</g>
</svg>
