<svg width="44" height="44" viewBox="0 0 44 44" fill="none" xmlns="http://www.w3.org/2000/svg">
<circle cx="22" cy="22" r="22" fill="white"/>
<path d="M12.0002 22.9999L29.5862 22.9999L24.2932 28.2929C24.1977 28.3852 24.1215 28.4955 24.0691 28.6175C24.0167 28.7395 23.9891 28.8707 23.988 29.0035C23.9868 29.1363 24.0121 29.268 24.0624 29.3909C24.1127 29.5138 24.1869 29.6254 24.2808 29.7193C24.3747 29.8132 24.4864 29.8875 24.6093 29.9377C24.7322 29.988 24.8638 30.0133 24.9966 30.0122C25.1294 30.011 25.2606 29.9834 25.3826 29.931C25.5046 29.8786 25.615 29.8024 25.7072 29.7069L32.7072 22.7069C32.8947 22.5194 33 22.2651 33 21.9999C33 21.7348 32.8947 21.4804 32.7072 21.2929L25.7072 14.2929C25.5186 14.1108 25.266 14.01 25.0038 14.0122C24.7416 14.0145 24.4908 14.1197 24.3054 14.3051C24.12 14.4905 24.0148 14.7413 24.0125 15.0035C24.0103 15.2657 24.1111 15.5183 24.2932 15.7069L29.5862 20.9999L12.0002 20.9999C11.735 20.9999 11.4806 21.1053 11.2931 21.2928C11.1056 21.4803 11.0002 21.7347 11.0002 21.9999C11.0002 22.2651 11.1056 22.5195 11.2931 22.707C11.4806 22.8946 11.735 22.9999 12.0002 22.9999Z" fill="#239EA0"/>
</svg>
