<svg width="62" height="61" viewBox="0 0 62 61" fill="none" xmlns="http://www.w3.org/2000/svg">
<path d="M24.2249 7.0181C24.7929 6.52847 25.6397 6.52847 26.2076 7.0181C30.1458 10.4136 44.4716 23.6135 44.4716 35.9552C44.4716 46.4181 35.8506 54.8999 25.2163 54.8999C14.582 54.8999 5.96094 46.4181 5.96094 35.9553C5.96094 23.6137 20.2867 10.4137 24.2249 7.0181Z" fill="#FD8087"/>
<path d="M38.6681 20.6626C38.8968 21.8189 39.0228 22.9765 39.0228 24.1265C39.0228 34.5894 30.4019 43.0711 19.7676 43.0711C14.3833 43.0711 9.51789 40.8945 6.02344 37.3896C6.76925 47.1819 15.0748 54.9002 25.2182 54.9002C35.8526 54.9002 44.4734 46.4183 44.4734 35.9555C44.4734 30.7429 41.9171 25.378 38.6681 20.6626Z" fill="#FE646F"/>
<path d="M41.0181 54.8998H27.0835C26.0709 54.8998 25.25 54.0921 25.25 53.0958V39.386C25.25 38.3897 26.0709 37.582 27.0835 37.582H41.0181C42.0307 37.582 42.8516 38.3897 42.8516 39.386V53.0958C42.8516 54.0921 42.0307 54.8998 41.0181 54.8998Z" fill="#DFF6FD"/>
<path d="M41.0181 37.582H39.8834C39.8834 45.5409 33.3349 51.9941 25.25 52.0126V53.0958C25.25 54.0921 26.0709 54.8998 27.0835 54.8998H41.0181C42.0307 54.8998 42.8516 54.0921 42.8516 53.0958V39.386C42.8516 38.3897 42.0307 37.582 41.0181 37.582Z" fill="#C8EFFE"/>
<path d="M58.6198 54.8998H44.6851C43.6725 54.8998 42.8516 54.0921 42.8516 53.0958V39.386C42.8516 38.3897 43.6725 37.582 44.6851 37.582H58.6197C59.6323 37.582 60.4532 38.3897 60.4532 39.386V53.0958C60.4532 54.0921 59.6323 54.8998 58.6198 54.8998Z" fill="#DFF6FD"/>
<path d="M58.6197 37.582H57.4849C57.4849 45.5409 50.9365 51.9941 42.8516 52.0126V53.0958C42.8516 54.0921 43.6725 54.8998 44.6851 54.8998H58.6197C59.6323 54.8998 60.4532 54.0921 60.4532 53.0958V39.386C60.453 38.3897 59.6321 37.582 58.6197 37.582Z" fill="#C8EFFE"/>
<path d="M49.8072 37.5824H35.8726C34.86 37.5824 34.0391 36.7747 34.0391 35.7784V22.0686C34.0391 21.0723 34.86 20.2646 35.8726 20.2646H49.8072C50.8198 20.2646 51.6407 21.0723 51.6407 22.0686V35.7784C51.6407 36.7747 50.8198 37.5824 49.8072 37.5824Z" fill="#DFF6FD"/>
<path d="M49.8072 20.2646H48.6724C48.6724 28.2235 42.124 34.6767 34.0391 34.6952V35.7784C34.0391 36.7747 34.86 37.5824 35.8726 37.5824H49.8072C50.8198 37.5824 51.6407 36.7747 51.6407 35.7784V22.0686C51.6407 21.0723 50.8198 20.2646 49.8072 20.2646Z" fill="#C8EFFE"/>
</svg>
