<svg width="62" height="61" viewBox="0 0 62 61" fill="none" xmlns="http://www.w3.org/2000/svg">
<g clip-path="url(#clip0_4684_69042)">
<path d="M45.725 5.36134C40.2247 5.36692 35.4358 8.33846 32.909 12.7336L32.9075 12.7332C31.8229 14.0544 30.1593 14.0493 29.0798 12.7369L29.0779 12.7374C26.5411 8.3473 21.7466 5.38554 16.2467 5.39112C8.1065 5.39903 1.51493 11.8982 1.52345 19.9072C1.5471 43.3891 31.0377 55.8737 31.0377 55.8737C31.0377 55.8737 60.5037 43.33 60.48 19.8481C60.471 11.8396 53.8653 5.35342 45.725 5.36134Z" fill="#FF6B6B"/>
<path d="M5.15673 19.9072C5.14869 12.5005 10.7857 6.38566 18.0721 5.50142C17.4738 5.42928 16.865 5.39065 16.2467 5.39112C8.1065 5.39903 1.51493 11.8982 1.52345 19.9072C1.5471 43.3891 31.0377 55.8737 31.0377 55.8737C31.0377 55.8737 31.7098 55.587 32.8498 55.0211C26.4224 51.8443 5.1766 39.8372 5.15673 19.9072Z" fill="#EE5253"/>
<path d="M17.0577 41.3608L12.423 27.3953L10.8289 31.8445C10.7007 32.2019 10.3573 32.4411 9.97226 32.4411H0.908203C0.406799 32.4411 0 32.0409 0 31.5476C0 31.0538 0.406799 30.654 0.908203 30.654H9.32942L11.5999 24.3191C11.8904 23.5079 13.0535 23.5363 13.3198 24.3386L17.7303 37.6288L22.0003 17.6142C22.1999 16.6782 23.5551 16.6643 23.7741 17.5969L26.8407 30.654H36.6853L39.1927 24.293C39.5002 23.5135 40.6459 23.5405 40.9056 24.3465L44.6093 35.8562L47.465 19.0206C47.6272 18.0642 49.0084 18.0204 49.2426 18.9536L52.1772 30.654H61.0918C61.5932 30.654 62 31.0542 62 31.5476C62 32.0413 61.5932 32.4411 61.0918 32.4411H51.4658C51.0481 32.4411 50.6844 32.1609 50.5841 31.7616L48.5326 23.5828L45.7791 39.8157C45.6235 40.7339 44.3052 40.8326 44.0171 39.9381L39.9529 27.3074L38.154 31.871C38.0182 32.2149 37.6819 32.4411 37.3073 32.4411H26.1184C25.6955 32.4411 25.3289 32.154 25.2334 31.7491L22.9317 21.9484L18.8102 41.2673C18.6201 42.1576 17.3472 42.2325 17.0577 41.3608Z" fill="#E4EAF8"/>
</g>
<defs>
<clipPath id="clip0_4684_69042">
<rect width="62" height="61" fill="white"/>
</clipPath>
</defs>
</svg>
