<svg width="33" height="32" viewBox="0 0 33 32" fill="none" xmlns="http://www.w3.org/2000/svg">
<g clip-path="url(#clip0_68_4753)">
<path fill-rule="evenodd" clip-rule="evenodd" d="M8.86762 6.56731C4.86687 7.43018 3.46937 13.6899 6.64087 16.1899C8.91381 14.1701 11.3661 10.5875 12.9234 7.26712C12.1546 5.84437 11.8722 4.42337 12.65 2.89612C13.4579 1.31037 10.4499 -0.317878 9.45543 1.34937C8.59768 3.11231 8.45743 4.85931 8.86762 6.56731Z" fill="#E94444"/>
<path fill-rule="evenodd" clip-rule="evenodd" d="M24.7427 4.35431C19.847 5.17112 16.7945 11.3724 23.3469 13.8245C24.3928 14.2143 25.6838 14.5102 27.25 14.6732C26.9143 13.6225 26.4225 12.6126 25.7885 11.6434C24.9663 10.3854 24.0465 9.38087 23.0663 8.5995C23.592 8.13531 24.2454 7.76318 25.0481 7.24762C25.6678 6.83831 25.6075 6.09062 25.3304 5.53606L24.7427 4.35431Z" fill="#D83131"/>
<path fill-rule="evenodd" clip-rule="evenodd" d="M7.68322 12.6569C7.13809 13.7643 6.77228 14.9585 6.64084 16.1899C6.45972 17.8731 6.71541 19.6289 7.54647 21.3387C9.04697 24.4269 12.3037 27.6799 15.9067 30.3358C16.9934 31.1367 18.0375 31.5194 19.0071 31.5336H19.1101C20.275 31.5176 21.328 30.9631 22.2158 29.9496C27.3228 24.1133 28.6422 19.0407 27.25 14.6732C25.6838 14.5102 24.3928 14.2143 23.347 13.8245C22.8888 13.6526 22.4768 13.4631 22.1093 13.2575C17.2295 10.5307 20.1897 5.11438 24.7427 4.35425L26.2255 3.93963C26.7547 3.79081 27.0973 3.43819 26.879 2.772L26.3569 1.18094C26.2166 0.750376 25.936 0.479314 25.5436 0.468689H25.4548C22.191 0.500564 17.8706 2.88719 15.3082 5.839C14.8235 6.39713 14.7382 6.51406 14.1735 6.71781C13.7492 6.87019 13.3318 7.05444 12.9234 7.26706C10.734 8.40463 8.81972 10.343 7.68322 12.6569Z" fill="#F47C7C"/>
<path fill-rule="evenodd" clip-rule="evenodd" d="M22.7948 3.45956C17.7695 5.28275 15.4557 11.7356 20.3354 14.776C20.703 15.0046 21.115 15.2172 21.5731 15.4085C21.7702 15.49 21.9762 15.5679 22.1893 15.6424C23.1145 15.9631 24.2047 16.2076 25.4762 16.3564C26.8684 21.2253 23.1802 24.9 18.0714 31.4096C18.391 31.4893 18.7017 31.5301 19.0072 31.5336H19.1102C20.2751 31.5176 21.3281 30.9631 22.2159 29.9496C27.3229 24.1133 28.6423 19.0407 27.2501 14.6732C25.6839 14.5102 24.3929 14.2143 23.3471 13.8245C22.8889 13.6526 22.4769 13.4631 22.1094 13.2575C17.2296 10.5307 20.1898 5.11438 24.7428 4.35425L26.2256 3.93963C26.7547 3.79081 27.0974 3.43819 26.8791 2.772L26.7299 2.31663C26.6695 2.34675 26.6056 2.37156 26.5381 2.39106L22.7948 3.45956Z" fill="#EE6161"/>
<path d="M10.1217 24.3763C10.1222 24.3747 10.123 24.3734 10.1235 24.3718C10.4145 23.3856 10.8841 22.4617 11.489 21.6372C12.1274 22.1301 12.9958 22.3869 13.8507 22.3869C14.6651 22.3869 15.4672 22.1538 16.0458 21.6699C16.2444 21.5039 16.2707 21.2082 16.1046 21.0096C15.9385 20.811 15.6428 20.7847 15.4443 20.9507C14.6037 21.6537 12.9859 21.5977 12.0808 20.9099C13.4155 19.4272 15.2181 18.3678 17.178 18.0137C17.4328 17.9677 17.602 17.7239 17.556 17.4691C17.51 17.2143 17.266 17.0451 17.0113 17.0911C15.9434 17.2841 14.9184 17.6676 13.9763 18.2021C13.8575 17.6995 13.6322 17.1988 13.3147 16.7284C13.4235 15.5417 14.727 14.2952 15.9066 14.2952C16.1655 14.2952 16.3754 14.0853 16.3754 13.8264C16.3754 13.5675 16.1655 13.3576 15.9066 13.3576C14.5132 13.3576 13.0874 14.499 12.5715 15.8473C11.6652 14.9743 10.558 14.4738 9.52641 14.4738C9.26747 14.4738 9.05759 14.6837 9.05759 14.9426C9.05759 15.2016 9.26747 15.4114 9.52641 15.4114C11.1487 15.4114 12.9393 17.1106 13.1204 18.7454C11.461 19.9173 10.1393 21.5812 9.42841 23.4939C8.82784 22.6857 8.33884 21.8972 7.96803 21.1339C6.50391 18.1214 7.06153 15.3576 7.78716 13.5694C8.97272 10.6478 11.481 8.19143 14.3327 7.15893C14.9897 6.92187 15.1574 6.72843 15.6059 6.21137L15.6624 6.14625C16.379 5.31975 17.2405 4.53387 18.223 3.81062C18.4315 3.65712 18.4761 3.36368 18.3227 3.15518C18.169 2.94662 17.8757 2.90206 17.6672 3.05556C16.6288 3.82 15.716 4.65318 14.9543 5.53181L14.8977 5.59706C14.476 6.08318 14.4415 6.12293 14.0139 6.27718C13.7165 6.38487 13.4226 6.50712 13.133 6.64231C12.5178 5.32625 12.5008 4.22212 13.0676 3.10906C13.5367 2.18843 13.1072 1.12731 12.023 0.528684C11.0422 -0.0129411 9.70684 0.012559 9.05272 1.10931C9.04597 1.12075 9.03959 1.13243 9.03378 1.14437C8.23547 2.78518 7.99497 4.49412 8.31672 6.2305C6.51547 6.81143 5.11741 8.45862 4.61278 10.6379C4.08628 12.9114 4.67566 15.0879 6.15134 16.3907C6.12709 16.6873 6.11509 16.9841 6.11722 17.2807C6.12759 18.7553 6.46653 20.1896 7.12472 21.5436C7.97172 23.2875 9.37866 25.1381 11.3063 27.0442C11.3977 27.1346 11.5168 27.1796 11.6359 27.1796C11.7568 27.1796 11.8776 27.1332 11.9692 27.0404C12.1512 26.8563 12.1496 26.5595 11.9655 26.3775C11.2809 25.7004 10.666 25.0326 10.1217 24.3763ZM6.31653 15.2129C5.29759 13.9472 5.21428 12.1964 5.52628 10.8492C5.88941 9.28112 6.98384 7.45312 8.96647 7.0255C9.08991 6.99887 9.19734 6.92362 9.26447 6.81675C9.33166 6.70987 9.35297 6.5805 9.32347 6.45775C8.92334 4.79168 9.10641 3.1485 9.86759 1.57368C10.2368 0.977871 11.0064 1.03825 11.5698 1.34925C11.9588 1.56406 12.5362 2.08675 12.2322 2.68337C11.5255 4.07131 11.5453 5.4765 12.3007 7.07406C9.93991 8.42468 7.95759 10.6561 6.91853 13.2167C6.65116 13.8754 6.45041 14.5424 6.31653 15.2129Z" fill="black"/>
<path d="M26.181 11.387C25.4804 10.315 24.6838 9.38312 23.8079 8.61C24.0966 8.40187 24.4228 8.19688 24.7807 7.97194C24.9469 7.86744 25.1205 7.75838 25.3065 7.63881C26.1367 7.0905 26.1275 6.08244 25.7502 5.32731L25.4149 4.65306L26.3524 4.39094C26.9027 4.23619 27.159 3.93969 27.2771 3.71825C27.4437 3.40594 27.4595 3.03844 27.3243 2.62587L26.8024 1.03519C26.5902 0.387 26.1104 0 25.5187 0C23.7627 0 21.6405 0.654 19.5432 1.8415C19.3179 1.96906 19.2387 2.25513 19.3663 2.48044C19.4939 2.70575 19.78 2.78506 20.0052 2.65738C21.9639 1.54838 23.922 0.937625 25.5187 0.937625C25.5844 0.937625 25.7839 0.937625 25.9115 1.32725L26.4335 2.91819C26.4696 3.02825 26.5017 3.17994 26.4499 3.27712C26.4043 3.3625 26.2796 3.43756 26.0993 3.48825L24.638 3.89687C21.5154 4.43112 19.0465 7.02619 19.129 9.694C19.1709 11.0447 19.8576 12.2486 21.1151 13.1756C21.2995 13.3115 21.4965 13.4404 21.7035 13.5634C22.0339 15.0213 21.5076 17.389 20.5474 18.6587C20.3913 18.8652 20.4321 19.1593 20.6386 19.3154C20.7232 19.3794 20.8225 19.4103 20.921 19.4103C21.0629 19.4103 21.2031 19.3461 21.2953 19.2243C21.5958 18.8268 21.8573 18.3512 22.0722 17.8347C22.4611 18.3596 22.6332 19.1844 22.3777 19.6719C22.2576 19.9012 22.346 20.1845 22.5754 20.3047C22.6448 20.3411 22.7192 20.3583 22.7926 20.3583C22.9613 20.3583 23.1244 20.2669 23.2082 20.107C23.7229 19.1247 23.312 17.5819 22.4147 16.8417C22.6739 15.9143 22.7884 14.9355 22.7232 14.0778C23.8661 14.5679 25.2565 14.9121 26.8836 15.104C27.8319 18.4224 27.1133 22.0063 24.7354 25.8194C24.4027 25.2812 23.8782 24.7973 23.2186 24.4347C22.3062 23.9332 21.2834 23.7559 20.4822 23.9604C20.2314 24.0244 20.08 24.2797 20.144 24.5306C20.208 24.7814 20.4632 24.9329 20.7142 24.8689C21.0059 24.7944 21.3308 24.7947 21.6617 24.8528C21.1137 25.5391 19.9783 26.0133 19.2495 25.7671C19.0042 25.6843 18.7382 25.8159 18.6554 26.0613C18.5725 26.3066 18.7042 26.5726 18.9495 26.6554C19.1805 26.7334 19.4314 26.7718 19.6933 26.7718C20.188 26.7718 20.7222 26.6347 21.2359 26.3679C21.8152 26.0671 22.2937 25.6342 22.5872 25.1596C23.3141 25.5142 23.9375 26.1005 24.134 26.7373C23.4789 27.6915 22.7219 28.6596 21.863 29.641C20.2965 31.4314 18.3329 31.5411 16.1847 29.9586C15.2646 29.2806 14.3745 28.5669 13.5389 27.8372C13.344 27.667 13.0479 27.6869 12.8774 27.8819C12.7071 28.0769 12.7272 28.3731 12.9222 28.5434C13.7772 29.2901 14.6877 30.0201 15.6286 30.7134C16.795 31.5725 17.9615 32 19.0648 32C20.3528 32 21.5547 31.4172 22.5686 30.2583C28.6262 23.3368 29.8415 16.9876 26.181 11.387ZM21.6714 12.4208C20.6538 11.6707 20.0987 10.7177 20.0662 9.66494C20.0339 8.62337 20.4997 7.54406 21.3777 6.62594C22.2055 5.76031 23.298 5.15025 24.4826 4.88394L24.9112 5.74556C24.9759 5.875 25.2738 6.53681 24.7948 6.85319C24.6165 6.96775 24.4456 7.07512 24.2818 7.17806C23.6974 7.54537 23.1927 7.86263 22.7561 8.24813C22.6523 8.33988 22.5943 8.47281 22.5978 8.61137C22.6014 8.74988 22.6659 8.87975 22.7742 8.96612C23.7502 9.74406 24.6324 10.7311 25.3962 11.8999C25.8694 12.6239 26.2535 13.3628 26.5492 14.1158C24.4386 13.8215 22.7998 13.2526 21.6714 12.4208Z" fill="black"/>
</g>
<defs>
<clipPath id="clip0_68_4753">
<rect width="32" height="32" fill="white" transform="translate(0.33374)"/>
</clipPath>
</defs>
</svg>
