<svg width="116" height="116" viewBox="0 0 116 116" fill="none" xmlns="http://www.w3.org/2000/svg">
<mask id="mask0_4137_70717" style="mask-type:luminance" maskUnits="userSpaceOnUse" x="0" y="21" width="116" height="74">
<path d="M116 21.2666H0V94.6544H116V21.2666Z" fill="white"/>
</mask>
<g mask="url(#mask0_4137_70717)">
<path d="M100.031 22.5906C100.031 22.5906 103.884 21.5845 105.749 25.0165C107.615 28.4486 100.031 22.5906 100.031 22.5906Z" fill="#2B1710"/>
<path d="M10.9448 74.047C9.73436 72.6828 7.38863 71.5223 5.72946 70.3545C5.41545 70.1388 5.11501 69.9045 4.82983 69.6525C3.25312 68.2402 2.85036 66.2918 3.34139 65.3967C3.72152 64.7042 4.37528 66.1563 5.93448 67.0897C6.43134 67.3902 6.97873 67.5997 7.55059 67.7086C10.3173 68.2257 12.0874 67.1423 15.0511 64.9553C18.0149 62.7681 18.6438 68.5902 18.6438 68.5902C18.6438 68.5902 17.2225 69.5733 16.0646 73.2911C14.9067 77.0087 12.4004 75.6865 10.9448 74.047Z" fill="#9EB9B9"/>
<path d="M5.72945 70.3555C5.41543 70.1399 5.11499 69.9054 4.82983 69.6537C3.25312 68.2414 2.85036 66.293 3.34139 65.3979C3.72152 64.7053 4.37528 66.1575 5.93448 67.0909C5.66777 68.1579 5.59831 69.2639 5.72945 70.3555Z" fill="#E6ECEC"/>
<path d="M7.80017 77.2337C6.58972 75.8698 4.24397 74.709 2.58554 73.542C2.27137 73.3263 1.9707 73.0918 1.68518 72.8401C0.109194 71.4278 -0.294282 69.4795 0.196754 68.5842C0.576888 67.8919 1.23136 69.3438 2.78984 70.2772C3.28684 70.5779 3.83453 70.7874 4.40668 70.8961C7.17342 71.4133 8.94348 70.3298 11.9072 68.1428C14.871 65.9556 15.4992 71.7777 15.4992 71.7777C15.4992 71.7777 14.0786 72.7608 12.9199 76.4786C11.7613 80.1964 9.25577 78.8713 7.80017 77.2337Z" fill="#84A0A0"/>
<path d="M2.58554 73.5422C2.27137 73.3263 1.9707 73.0919 1.68518 72.8402C0.109194 71.4279 -0.294282 69.4795 0.196754 68.5844C0.576888 67.8919 1.23136 69.344 2.78984 70.2774C2.52367 71.3446 2.45448 72.4507 2.58554 73.5422Z" fill="#E6ECEC"/>
<path d="M57.6504 60.8492C57.6504 60.8492 66.9897 51.8938 73.6066 46.7109C74.7673 47.8599 76.1128 48.8105 77.5881 49.5241C79.9081 50.8444 81.8335 52.7476 83.169 55.0409C83.228 55.1474 83.3115 55.2387 83.413 55.3071C83.5145 55.3754 83.6309 55.4189 83.7527 55.4341C84.643 56.2933 85.3495 57.3207 85.8301 58.455C77.9129 62.4303 67.0568 67.7191 65.1991 68.5955C62.5645 69.8377 57.6504 60.8492 57.6504 60.8492Z" fill="#ED705F"/>
<path d="M60.8945 56.3832C62.9804 56.8087 63.4483 70.6086 63.9225 70.9808C64.3968 71.353 80.6068 67.1713 80.6068 67.1713C80.6068 67.1713 86.0739 59.3369 87.1005 57.7313C89.7824 56.3758 91.9968 55.234 93.2096 54.5573C98.0791 51.851 100.991 42.7947 100.187 41.9247C99.3829 41.0547 95.1211 39.9171 95.1211 39.9171C93.4977 39.9071 83.2174 40.3709 77.5146 43.5398L60.8945 56.3832Z" fill="#84A0A0"/>
<path d="M98.9137 43.6109C94.2134 43.5662 88.7931 41.7118 88.1152 41.0898" stroke="#210602" stroke-width="0.451" stroke-linecap="round" stroke-linejoin="round"/>
<path d="M83.9609 49.6131C84.5987 48.623 85.3058 47.6784 86.077 46.7861" stroke="#210602" stroke-width="0.451" stroke-linecap="round" stroke-linejoin="round"/>
<path d="M84.8125 49.1416C88.365 50.5121 91.6316 53.8433 91.6608 55.1214" stroke="#210602" stroke-width="0.451" stroke-linecap="round" stroke-linejoin="round"/>
<path d="M63.7467 55.6913L37.5102 52.7503C35.806 52.5591 34.0855 52.9293 32.6158 53.8034L9.00302 67.8695C8.76843 68.0084 8.57115 68.2011 8.42791 68.4314C8.28467 68.6616 8.19968 68.9228 8.18013 69.1923C8.16059 69.462 8.20707 69.7323 8.31564 69.9806C8.4242 70.2286 8.59166 70.4473 8.80383 70.6178L12.2571 73.4029C13.8694 74.6994 15.9022 75.3749 17.9793 75.3042C20.0564 75.2332 22.0373 74.421 23.5554 73.0176L34.8791 62.525L74.5977 70.0581L64.3261 57.6994" fill="#093435"/>
<path d="M88.7613 41.0417C88.6067 40.7409 93.5958 40.1464 93.7915 39.9929C94.3407 39.56 95.4791 35.4153 95.811 34.0778L101.408 31.6455C101.408 31.6455 102.488 34.6752 102.197 35.3244C101.269 37.3976 100.008 41.0798 99.9575 43.0895C98.3625 44.3187 88.8766 41.2689 88.7613 41.0417Z" fill="#ED705F"/>
<path d="M91.1191 29.3579C90.7172 29.9416 91.6254 30.9918 91.5671 31.1901C91.5415 31.7527 89.6256 34.2146 90.6083 35.5405C91.411 36.6224 92.7972 37.1664 94.0806 37.6554C95.7804 38.1782 97.5904 38.2443 99.3246 37.8474C100.228 37.607 103.04 35.1301 103.603 33.942C104.792 31.4252 98.6525 24.0244 98.6525 24.0244C97.2072 24.2249 94.6395 27.877 94.2615 28.2377C93.6933 28.7779 91.4161 28.9266 91.1191 29.3579Z" fill="#ED705F"/>
<path d="M92.0352 32.3672C92.3414 32.6941 92.666 33.0036 93.0078 33.294" stroke="#210602" stroke-width="0.451" stroke-linecap="round" stroke-linejoin="round"/>
<path d="M98.1463 21.4036C100.525 20.7061 101.67 22.8685 102.936 23.468C103.8 23.8764 104.974 23.9535 106.22 24.822C110.502 27.8039 110.194 32.6543 109.757 33.6223C108.152 37.1899 102.48 38.0715 102.123 38.4032C101.898 38.5755 101.712 38.7934 101.58 39.0422C101.447 39.291 101.369 39.565 101.352 39.8459C100.696 39.5733 97.8406 37.1098 98.6139 32.8958C98.687 32.489 99.0808 32.9839 98.9948 32.5719C98.9343 32.2835 98.7031 31.868 98.8488 31.5751C97.8764 31.9552 97.7975 32.4406 97.1875 32.8526C97.0707 32.9319 96.2732 32.7956 96.3119 32.7084C96.8283 31.8363 97.4097 31.0034 98.0513 30.2167C98.1515 30.087 97.4947 28.8462 97.491 28.4711C97.491 28.1177 97.9032 27.5443 97.9069 27.2989C97.9069 27.0184 96.9584 25.8341 96.698 24.8854C96.223 23.1579 96.9563 21.7528 98.1463 21.4036Z" fill="#2B1710"/>
<path d="M91.5792 30.9355C91.6165 30.9402 91.6542 30.9373 91.6903 30.9268C91.7263 30.9166 91.7597 30.8988 91.7883 30.875C91.8171 30.8512 91.8407 30.8219 91.8574 30.7888C91.8742 30.7555 91.8838 30.7194 91.8858 30.6823C91.9237 30.5034 91.2845 29.5404 91.1341 29.64C90.9058 29.7914 91.5289 30.9377 91.5792 30.9355Z" fill="#D9604E"/>
<path d="M95.4876 27.3709C95.244 27.4119 94.9901 27.8601 94.9434 27.9761C95.3886 28.4455 95.9203 28.8265 96.5099 29.0991C96.7361 29.1123 95.7488 27.3268 95.4876 27.3709Z" fill="#2B1710"/>
<path d="M99.5698 31.0476C99.7643 30.9364 99.9899 30.8904 100.213 30.9161C100.436 30.942 100.645 31.0383 100.808 31.1909C100.972 31.3432 101.081 31.5437 101.12 31.7625C101.159 31.9812 101.126 32.2066 101.025 32.405C100.632 33.3183 98.7568 34.2084 98.1921 33.5383C97.7099 32.9684 98.3367 31.6195 99.5698 31.0476Z" fill="#ED705F"/>
<path d="M99.6341 31.9688C100.03 31.9688 99.6619 33.019 99.0015 32.9418C98.3412 32.8647 98.4907 31.9622 99.6341 31.9688Z" fill="#D9604E"/>
<path d="M98.9316 32.2086C99.6313 31.5586 100.106 31.8107 100.022 32.2136" stroke="#210602" stroke-width="0.451" stroke-linecap="round" stroke-linejoin="round"/>
<path d="M106.506 94.6545H20.837L20.5764 94.5261C12.8111 90.6813 17.064 80.9311 18.6656 77.2609C25.7065 61.1168 44.4993 66.0478 59.5974 70.0109C63.4794 71.1104 67.4155 72.0131 71.3904 72.7158C83.7086 74.5602 103.106 44.2831 109.55 32.4654C109.622 32.3173 109.724 32.1852 109.849 32.0772C109.975 31.9691 110.121 31.8873 110.279 31.8367C110.437 31.786 110.604 31.7674 110.77 31.7823C110.936 31.7972 111.097 31.8452 111.243 31.9231C111.39 32.0012 111.518 32.1077 111.622 32.2363C111.726 32.3648 111.802 32.5129 111.846 32.6715C111.89 32.83 111.901 32.9957 111.879 33.1587C111.857 33.3216 111.801 33.4784 111.716 33.6196C107.552 41.0571 102.922 48.2298 97.8531 55.0958C87.1101 69.4417 78.0803 76.184 71.0234 75.1244C66.9596 74.4104 62.9357 73.4897 58.9678 72.3659C44.0411 68.4484 27.1234 64.01 20.923 78.226C17.5857 85.8774 17.7368 90.2111 21.4273 92.2201H106.501C106.828 92.2201 107.142 92.3482 107.373 92.5768C107.604 92.8053 107.734 93.1152 107.734 93.4383C107.734 93.7615 107.604 94.0712 107.373 94.2998C107.142 94.5283 106.828 94.6566 106.501 94.6566L106.506 94.6545Z" fill="#050E12"/>
<path d="M19.781 83.0251C18.8964 83.0239 18.026 82.8055 17.2479 82.3894C16.4699 81.9734 15.8085 81.3729 15.3231 80.6419C14.8378 79.9107 14.5437 79.0718 14.4673 78.2007C14.3908 77.3295 14.5344 76.4531 14.8852 75.6502C16.2724 72.3193 18.4756 69.3814 21.2964 67.101C24.1171 64.8206 27.4672 63.2695 31.0448 62.5869C40.4292 60.6976 49.9144 63.2245 58.2832 65.455C59.0722 65.6651 59.854 65.872 60.6289 66.0759C61.6592 66.3458 62.7163 66.6567 63.7387 66.9568C66.9986 67.9153 70.3673 68.9044 72.8882 68.5991C76.8565 68.1152 80.6273 64.7891 84.1098 61.2668C91.6978 53.5934 98.646 43.8213 105.978 30.5121C106.309 29.8957 106.761 29.3503 107.307 28.9078C107.853 28.4651 108.482 28.1341 109.158 27.9334C109.835 27.7329 110.544 27.667 111.246 27.7395C111.949 27.812 112.629 28.0216 113.249 28.3558C113.869 28.6903 114.415 29.1429 114.857 29.6875C115.298 30.2321 115.626 30.8578 115.821 31.5286C116.017 32.1993 116.076 32.9017 115.994 33.5952C115.913 34.2885 115.694 34.9589 115.349 35.5679C107.533 49.7528 100.031 60.2657 91.738 68.6525C86.8977 73.5475 81.4225 78.1995 74.1934 79.0801C69.464 79.6572 64.8082 78.2867 60.6991 77.0799C59.7104 76.7914 58.7758 76.5144 57.901 76.2865C57.1104 76.0796 56.3127 75.8683 55.5077 75.6523C47.9277 73.6326 40.0901 71.5407 33.174 72.9358C31.2861 73.2879 29.5183 74.1047 28.0342 75.3107C26.55 76.5167 25.3974 78.0732 24.6826 79.8361C24.27 80.783 23.5858 81.5896 22.7149 82.1562C21.8437 82.7231 20.8237 83.0251 19.781 83.0251Z" fill="#209092"/>
<path d="M58.8677 59.5889L57.9648 73.0677L60.3892 73.2264L61.2919 59.7474L58.8677 59.5889Z" fill="#050E12"/>
<path d="M53.8809 60.9415C53.6783 60.8023 53.5159 60.6134 53.4095 60.3934C53.3034 60.1732 53.2572 59.9296 53.2753 59.6864V59.6632C53.2506 58.9664 53.5468 58.4175 53.9321 58.4593C53.9321 58.4593 78.2001 61.3078 90.4205 62.7151C90.8572 62.7797 91.2723 62.945 91.6321 63.1979C91.9921 63.4509 92.2863 63.784 92.4915 64.1707C92.6966 64.5572 92.8066 64.986 92.8124 65.4225C92.8184 65.8589 92.72 66.2906 92.5255 66.6825L92.4984 66.7322C92.2734 67.1629 91.9119 67.5088 91.4693 67.7172C91.0266 67.9256 90.527 67.985 90.047 67.8864L53.8809 60.9415Z" fill="#050E12"/>
<path d="M56.5245 72.5422C56.4864 73.0663 56.6065 73.5899 56.8696 74.0463C57.1327 74.503 57.5271 74.8721 58.0025 75.1068C58.4781 75.3415 59.0133 75.4314 59.5407 75.3651C60.0679 75.2987 60.5634 75.0793 60.9642 74.7342C61.3652 74.3893 61.6534 73.9344 61.7926 73.4271C61.9316 72.92 61.9154 72.3835 61.7456 71.8854C61.5761 71.3874 61.2608 70.9505 60.8395 70.6299C60.4184 70.3094 59.9105 70.1195 59.3802 70.0845C59.0293 70.0604 58.6773 70.1046 58.3438 70.215C58.0103 70.3254 57.7021 70.4996 57.4368 70.728C57.1716 70.9563 56.9545 71.2339 56.7979 71.5452C56.6414 71.8566 56.5485 72.1954 56.5245 72.5422Z" fill="#050E12"/>
<path d="M57.6525 72.6116C57.6303 72.9151 57.6999 73.2184 57.8522 73.4829C58.0046 73.7472 58.2329 73.961 58.5082 74.0972C58.7837 74.2333 59.0936 74.2853 59.3991 74.247C59.7045 74.2087 59.9914 74.0817 60.2236 73.8818C60.456 73.6821 60.6231 73.4187 60.7037 73.1249C60.7843 72.8312 60.775 72.5205 60.677 72.2321C60.5788 71.9436 60.3963 71.6903 60.1523 71.5045C59.9085 71.3188 59.6144 71.2087 59.3072 71.1884C59.104 71.1741 58.8999 71.1995 58.7065 71.2635C58.5134 71.3273 58.3348 71.4282 58.1809 71.5604C58.0272 71.6925 57.9015 71.8535 57.8106 72.0339C57.72 72.2143 57.6662 72.4105 57.6525 72.6116Z" fill="#239EA0"/>
<path d="M88.4493 65.0156C88.4273 65.3191 88.497 65.6222 88.6494 65.8867C88.8019 66.151 89.0305 66.3648 89.3058 66.5008C89.5813 66.6367 89.8914 66.6887 90.1966 66.6502C90.5021 66.6117 90.789 66.4845 91.0212 66.2846C91.2534 66.0847 91.4204 65.8212 91.5009 65.5275C91.5815 65.2338 91.572 64.923 91.4736 64.6345C91.3754 64.3461 91.1927 64.093 90.9487 63.9074C90.7047 63.7218 90.4107 63.6118 90.1035 63.5917C89.9003 63.5776 89.6961 63.6031 89.503 63.6671C89.3098 63.7311 89.1312 63.832 88.9775 63.9642C88.824 64.0967 88.6981 64.2575 88.6076 64.4379C88.517 64.6183 88.4632 64.8145 88.4493 65.0156Z" fill="#239EA0"/>
<path d="M59.7393 54.6492C57.5147 54.6535 54.8194 54.173 53.3601 54.2697C51.5076 54.393 47.9143 56.0176 47.9317 57.2107C47.9317 57.4371 48.8678 57.7429 50.1935 58.0395C51.3984 58.2825 52.6285 58.3794 53.857 58.3279C55.3876 58.8252 56.9958 59.0475 58.6054 58.9843C60.9782 58.6959 60.8541 54.6471 59.7393 54.6492Z" fill="#ED705F"/>
<path d="M53.2524 56.9882C52.0179 56.947 50.096 56.9961 50.1273 57.9771" stroke="#210602" stroke-width="0.451" stroke-linecap="round" stroke-linejoin="round"/>
<path d="M53.356 55.6176C52.1944 55.5332 48.9242 56.181 48.8242 57.6453" stroke="#210602" stroke-width="0.451" stroke-linecap="round" stroke-linejoin="round"/>
<path d="M59.3104 54.8987C60.7929 53.6204 76.0984 56.288 77.7224 55.1216C79.1977 54.0612 83.4456 51.5927 84.5809 49.8175C84.9341 49.2657 91.1613 53.4495 90.474 54.362C88.2453 56.9633 85.7012 59.2839 82.899 61.271C80.3681 62.8665 58.8165 58.4396 58.8165 58.4396C58.8165 58.4396 58.5574 55.5471 59.3104 54.8987Z" fill="#ED705F"/>
<path d="M61.6582 54.6047C67.6366 55.0339 75.5546 55.4853 76.7759 55.4797C77.5115 55.4797 78.751 54.5419 80.5043 53.2695" stroke="#210602" stroke-width="0.451" stroke-linecap="round" stroke-linejoin="round"/>
<path d="M77.0508 55.4814C77.4125 56.3565 77.4342 57.3328 77.1113 58.2225" stroke="#210602" stroke-width="0.451" stroke-linecap="round" stroke-linejoin="round"/>
</g>
</svg>
