<svg width="116" height="116" viewBox="0 0 116 116" fill="none" xmlns="http://www.w3.org/2000/svg">
<mask id="mask0_4945_69084" style="mask-type:luminance" maskUnits="userSpaceOnUse" x="0" y="21" width="116" height="74">
<path d="M0 21.2666H116V94.6544H0V21.2666Z" fill="white"/>
</mask>
<g mask="url(#mask0_4945_69084)">
<path d="M15.969 22.5906C15.969 22.5906 12.116 21.5845 10.251 25.0165C8.38499 28.4486 15.969 22.5906 15.969 22.5906Z" fill="#2B1710"/>
<path d="M105.055 74.047C106.266 72.6828 108.611 71.5223 110.271 70.3545C110.585 70.1388 110.885 69.9045 111.17 69.6525C112.747 68.2402 113.15 66.2918 112.659 65.3967C112.278 64.7042 111.625 66.1563 110.066 67.0897C109.569 67.3902 109.021 67.5997 108.449 67.7086C105.683 68.2257 103.913 67.1423 100.949 64.9553C97.9851 62.7681 97.3562 68.5902 97.3562 68.5902C97.3562 68.5902 98.7775 69.5733 99.9354 73.2911C101.093 77.0087 103.6 75.6865 105.055 74.047Z" fill="#9EB9B9"/>
<path d="M110.271 70.3555C110.585 70.1399 110.885 69.9054 111.17 69.6537C112.747 68.2414 113.15 66.293 112.659 65.3979C112.278 64.7053 111.625 66.1575 110.066 67.0909C110.332 68.1579 110.402 69.2639 110.271 70.3555Z" fill="#E6ECEC"/>
<path d="M108.2 77.2337C109.41 75.8698 111.756 74.709 113.414 73.542C113.729 73.3263 114.029 73.0918 114.315 72.8401C115.891 71.4278 116.294 69.4795 115.803 68.5842C115.423 67.8919 114.769 69.3438 113.21 70.2772C112.713 70.5779 112.165 70.7874 111.593 70.8961C108.827 71.4133 107.057 70.3298 104.093 68.1428C101.129 65.9556 100.501 71.7777 100.501 71.7777C100.501 71.7777 101.921 72.7608 103.08 76.4786C104.239 80.1964 106.744 78.8713 108.2 77.2337Z" fill="#84A0A0"/>
<path d="M113.414 73.5422C113.729 73.3263 114.029 73.0919 114.315 72.8402C115.891 71.4279 116.294 69.4795 115.803 68.5844C115.423 67.8919 114.769 69.344 113.21 70.2774C113.476 71.3446 113.546 72.4507 113.414 73.5422Z" fill="#E6ECEC"/>
<path d="M58.3496 60.8492C58.3496 60.8492 49.0103 51.8938 42.3934 46.7109C41.2327 47.8599 39.8872 48.8105 38.4119 49.5241C36.0919 50.8444 34.1665 52.7476 32.831 55.0409C32.772 55.1474 32.6885 55.2387 32.587 55.3071C32.4855 55.3754 32.3691 55.4189 32.2473 55.4341C31.357 56.2933 30.6505 57.3207 30.1699 58.455C38.0871 62.4303 48.9432 67.7191 50.8009 68.5955C53.4355 69.8377 58.3496 60.8492 58.3496 60.8492Z" fill="#ED705F"/>
<path d="M55.1055 56.3832C53.0196 56.8087 52.5517 70.6086 52.0775 70.9808C51.6032 71.353 35.3932 67.1713 35.3932 67.1713C35.3932 67.1713 29.9261 59.3369 28.8995 57.7313C26.2176 56.3758 24.0032 55.234 22.7904 54.5573C17.9209 51.851 15.009 42.7947 15.813 41.9247C16.6171 41.0547 20.8789 39.9171 20.8789 39.9171C22.5023 39.9071 32.7826 40.3709 38.4854 43.5398L55.1055 56.3832Z" fill="#84A0A0"/>
<path d="M17.0863 43.6109C21.7866 43.5662 27.2069 41.7118 27.8848 41.0898" stroke="#210602" stroke-width="0.451" stroke-linecap="round" stroke-linejoin="round"/>
<path d="M32.0391 49.6131C31.4013 48.623 30.6942 47.6784 29.923 46.7861" stroke="#210602" stroke-width="0.451" stroke-linecap="round" stroke-linejoin="round"/>
<path d="M31.1875 49.1416C27.635 50.5121 24.3684 53.8433 24.3392 55.1214" stroke="#210602" stroke-width="0.451" stroke-linecap="round" stroke-linejoin="round"/>
<path d="M52.2533 55.6913L78.4898 52.7503C80.194 52.5591 81.9145 52.9293 83.3842 53.8034L106.997 67.8695C107.232 68.0084 107.429 68.2011 107.572 68.4314C107.715 68.6616 107.8 68.9228 107.82 69.1923C107.839 69.462 107.793 69.7323 107.684 69.9806C107.576 70.2286 107.408 70.4473 107.196 70.6178L103.743 73.4029C102.131 74.6994 100.098 75.3749 98.0207 75.3042C95.9436 75.2332 93.9627 74.421 92.4446 73.0176L81.1209 62.525L41.4023 70.0581L51.6739 57.6994" fill="#093435"/>
<path d="M27.2387 41.0417C27.3933 40.7409 22.4042 40.1464 22.2085 39.9929C21.6593 39.56 20.5209 35.4153 20.189 34.0778L14.592 31.6455C14.592 31.6455 13.512 34.6752 13.803 35.3244C14.731 37.3976 15.992 41.0798 16.0425 43.0895C17.6375 44.3187 27.1234 41.2689 27.2387 41.0417Z" fill="#ED705F"/>
<path d="M24.8809 29.3579C25.2828 29.9416 24.3746 30.9918 24.4329 31.1901C24.4585 31.7527 26.3744 34.2146 25.3917 35.5405C24.589 36.6224 23.2028 37.1664 21.9194 37.6554C20.2196 38.1782 18.4096 38.2443 16.6754 37.8474C15.772 37.607 12.96 35.1301 12.397 33.942C11.208 31.4252 17.3475 24.0244 17.3475 24.0244C18.7928 24.2249 21.3605 27.877 21.7385 28.2377C22.3067 28.7779 24.5839 28.9266 24.8809 29.3579Z" fill="#ED705F"/>
<path d="M23.9648 32.3672C23.6586 32.6941 23.334 33.0036 22.9922 33.294" stroke="#210602" stroke-width="0.451" stroke-linecap="round" stroke-linejoin="round"/>
<path d="M17.8537 21.4036C15.475 20.7061 14.33 22.8685 13.064 23.468C12.2 23.8764 11.026 23.9535 9.77999 24.822C5.49799 27.8039 5.80598 32.6543 6.24298 33.6223C7.84798 37.1899 13.52 38.0715 13.877 38.4032C14.102 38.5755 14.288 38.7934 14.42 39.0422C14.553 39.291 14.631 39.565 14.648 39.8459C15.304 39.5733 18.1594 37.1098 17.3861 32.8958C17.313 32.489 16.9192 32.9839 17.0052 32.5719C17.0657 32.2835 17.2969 31.868 17.1512 31.5751C18.1236 31.9552 18.2025 32.4406 18.8125 32.8526C18.9293 32.9319 19.7268 32.7956 19.6881 32.7084C19.1717 31.8363 18.5903 31.0034 17.9487 30.2167C17.8485 30.087 18.5053 28.8462 18.509 28.4711C18.509 28.1177 18.0968 27.5443 18.0931 27.2989C18.0931 27.0184 19.0416 25.8341 19.302 24.8854C19.777 23.1579 19.0437 21.7528 17.8537 21.4036Z" fill="#2B1710"/>
<path d="M24.4208 30.9355C24.3835 30.9402 24.3458 30.9373 24.3097 30.9268C24.2737 30.9166 24.2403 30.8988 24.2117 30.875C24.1829 30.8512 24.1593 30.8219 24.1426 30.7888C24.1258 30.7555 24.1162 30.7194 24.1142 30.6823C24.0763 30.5034 24.7155 29.5404 24.8659 29.64C25.0942 29.7914 24.4711 30.9377 24.4208 30.9355Z" fill="#D9604E"/>
<path d="M20.5124 27.3709C20.756 27.4119 21.0099 27.8601 21.0566 27.9761C20.6114 28.4455 20.0797 28.8265 19.4901 29.0991C19.2639 29.1123 20.2512 27.3268 20.5124 27.3709Z" fill="#2B1710"/>
<path d="M16.4302 31.0476C16.2357 30.9364 16.0101 30.8904 15.787 30.9161C15.564 30.942 15.355 31.0383 15.192 31.1909C15.028 31.3432 14.919 31.5437 14.88 31.7625C14.841 31.9812 14.874 32.2066 14.975 32.405C15.368 33.3183 17.2432 34.2084 17.8079 33.5383C18.2901 32.9684 17.6633 31.6195 16.4302 31.0476Z" fill="#ED705F"/>
<path d="M16.3659 31.9688C15.97 31.9688 16.3381 33.019 16.9985 32.9418C17.6588 32.8647 17.5093 31.9622 16.3659 31.9688Z" fill="#D9604E"/>
<path d="M17.0684 32.2086C16.3687 31.5586 15.894 31.8107 15.978 32.2136" stroke="#210602" stroke-width="0.451" stroke-linecap="round" stroke-linejoin="round"/>
<path d="M9.49402 94.6545H95.163L95.4236 94.5261C103.189 90.6813 98.936 80.9311 97.3344 77.2609C90.2935 61.1168 71.5007 66.0478 56.4026 70.0109C52.5206 71.1104 48.5845 72.0131 44.6096 72.7158C32.2914 74.5602 12.894 44.2831 6.45001 32.4654C6.37801 32.3173 6.27602 32.1852 6.15102 32.0772C6.02502 31.9691 5.87902 31.8873 5.72102 31.8367C5.56302 31.786 5.39602 31.7674 5.23002 31.7823C5.06402 31.7972 4.90302 31.8452 4.75702 31.9231C4.61002 32.0012 4.48201 32.1077 4.37801 32.2363C4.27401 32.3648 4.19801 32.5129 4.15401 32.6715C4.11001 32.83 4.09902 32.9957 4.12102 33.1587C4.14302 33.3216 4.19901 33.4784 4.28401 33.6196C8.44801 41.0571 13.078 48.2298 18.1469 55.0958C28.8899 69.4417 37.9197 76.184 44.9766 75.1244C49.0404 74.4104 53.0643 73.4897 57.0322 72.3659C71.9589 68.4484 88.8766 64.01 95.077 78.226C98.4143 85.8774 98.2632 90.2111 94.5727 92.2201H9.49902C9.17202 92.2201 8.85801 92.3482 8.62701 92.5768C8.39601 92.8053 8.26601 93.1152 8.26601 93.4383C8.26601 93.7615 8.39601 94.0712 8.62701 94.2998C8.85801 94.5283 9.17202 94.6566 9.49902 94.6566L9.49402 94.6545Z" fill="#050E12"/>
<path d="M96.219 83.0251C97.1036 83.0239 97.974 82.8055 98.7521 82.3894C99.5301 81.9734 100.192 81.3729 100.677 80.6419C101.162 79.9107 101.456 79.0718 101.533 78.2007C101.609 77.3295 101.466 76.4531 101.115 75.6502C99.7276 72.3193 97.5244 69.3814 94.7036 67.101C91.8829 64.8206 88.5328 63.2695 84.9552 62.5869C75.5708 60.6976 66.0856 63.2245 57.7168 65.455C56.9278 65.6651 56.146 65.872 55.3711 66.0759C54.3408 66.3458 53.2837 66.6567 52.2613 66.9568C49.0014 67.9153 45.6327 68.9044 43.1118 68.5991C39.1435 68.1152 35.3727 64.7891 31.8902 61.2668C24.3022 53.5934 17.354 43.8213 10.022 30.5121C9.69103 29.8957 9.23902 29.3503 8.69302 28.9078C8.14702 28.4651 7.51803 28.1341 6.84203 27.9334C6.16503 27.7329 5.45602 27.667 4.75402 27.7395C4.05102 27.812 3.37102 28.0216 2.75102 28.3558C2.13102 28.6903 1.58502 29.1429 1.14302 29.6875C0.702021 30.2321 0.374024 30.8578 0.179024 31.5286C-0.0169763 32.1993 -0.0759804 32.9017 0.00601959 33.5952C0.0870196 34.2885 0.306024 34.9589 0.651024 35.5679C8.46702 49.7528 15.969 60.2657 24.262 68.6525C29.1023 73.5475 34.5775 78.1995 41.8066 79.0801C46.536 79.6572 51.1918 78.2867 55.3009 77.0799C56.2896 76.7914 57.2242 76.5144 58.099 76.2865C58.8896 76.0796 59.6873 75.8683 60.4923 75.6523C68.0723 73.6326 75.9099 71.5407 82.826 72.9358C84.7139 73.2879 86.4817 74.1047 87.9658 75.3107C89.45 76.5167 90.6026 78.0732 91.3174 79.8361C91.73 80.783 92.4142 81.5896 93.2851 82.1562C94.1563 82.7231 95.1763 83.0251 96.219 83.0251Z" fill="#209092"/>
<path d="M57.1323 59.5889L58.0352 73.0677L55.6108 73.2264L54.7081 59.7474L57.1323 59.5889Z" fill="#050E12"/>
<path d="M62.1191 60.9415C62.3217 60.8023 62.4841 60.6134 62.5905 60.3934C62.6966 60.1732 62.7428 59.9296 62.7247 59.6864V59.6632C62.7494 58.9664 62.4532 58.4175 62.0679 58.4593C62.0679 58.4593 37.7999 61.3078 25.5795 62.7151C25.1428 62.7797 24.7277 62.945 24.3679 63.1979C24.0079 63.4509 23.7137 63.784 23.5085 64.1707C23.3034 64.5572 23.1934 64.986 23.1876 65.4225C23.1816 65.8589 23.28 66.2906 23.4745 66.6825L23.5016 66.7322C23.7266 67.1629 24.0881 67.5088 24.5307 67.7172C24.9734 67.9256 25.473 67.985 25.953 67.8864L62.1191 60.9415Z" fill="#050E12"/>
<path d="M59.4755 72.5422C59.5136 73.0663 59.3935 73.5899 59.1304 74.0463C58.8673 74.503 58.4729 74.8721 57.9975 75.1068C57.5219 75.3415 56.9867 75.4314 56.4593 75.3651C55.9321 75.2987 55.4366 75.0793 55.0358 74.7342C54.6348 74.3893 54.3466 73.9344 54.2074 73.4271C54.0684 72.92 54.0846 72.3835 54.2544 71.8854C54.4239 71.3874 54.7392 70.9505 55.1605 70.6299C55.5816 70.3094 56.0895 70.1195 56.6198 70.0845C56.9707 70.0604 57.3227 70.1046 57.6562 70.215C57.9897 70.3254 58.2979 70.4996 58.5632 70.728C58.8284 70.9563 59.0455 71.2339 59.2021 71.5452C59.3586 71.8566 59.4515 72.1954 59.4755 72.5422Z" fill="#050E12"/>
<path d="M58.3475 72.6116C58.3697 72.9151 58.3001 73.2184 58.1478 73.4829C57.9954 73.7472 57.7671 73.961 57.4918 74.0972C57.2163 74.2333 56.9064 74.2853 56.6009 74.247C56.2955 74.2087 56.0086 74.0817 55.7764 73.8818C55.544 73.6821 55.3769 73.4187 55.2963 73.1249C55.2157 72.8312 55.225 72.5205 55.323 72.2321C55.4212 71.9436 55.6037 71.6903 55.8477 71.5045C56.0915 71.3188 56.3856 71.2087 56.6928 71.1884C56.896 71.1741 57.1001 71.1995 57.2935 71.2635C57.4866 71.3273 57.6652 71.4282 57.8191 71.5604C57.9728 71.6925 58.0985 71.8535 58.1894 72.0339C58.28 72.2143 58.3338 72.4105 58.3475 72.6116Z" fill="#239EA0"/>
<path d="M27.5507 65.0156C27.5727 65.3191 27.503 65.6222 27.3506 65.8867C27.1981 66.151 26.9695 66.3648 26.6942 66.5008C26.4187 66.6367 26.1086 66.6887 25.8034 66.6502C25.4979 66.6117 25.211 66.4845 24.9788 66.2846C24.7466 66.0847 24.5796 65.8212 24.4991 65.5275C24.4185 65.2338 24.428 64.923 24.5264 64.6345C24.6246 64.3461 24.8073 64.093 25.0513 63.9074C25.2953 63.7218 25.5893 63.6118 25.8965 63.5917C26.0997 63.5776 26.3039 63.6031 26.497 63.6671C26.6902 63.7311 26.8688 63.832 27.0225 63.9642C27.176 64.0967 27.3019 64.2575 27.3924 64.4379C27.483 64.6183 27.5368 64.8145 27.5507 65.0156Z" fill="#239EA0"/>
<path d="M56.2607 54.6492C58.4853 54.6535 61.1806 54.173 62.6399 54.2697C64.4924 54.393 68.0857 56.0176 68.0683 57.2107C68.0683 57.4371 67.1322 57.7429 65.8065 58.0395C64.6016 58.2825 63.3715 58.3794 62.143 58.3279C60.6124 58.8252 59.0042 59.0475 57.3946 58.9843C55.0218 58.6959 55.1459 54.6471 56.2607 54.6492Z" fill="#ED705F"/>
<path d="M62.7476 56.9882C63.9821 56.947 65.904 56.9961 65.8727 57.9771" stroke="#210602" stroke-width="0.451" stroke-linecap="round" stroke-linejoin="round"/>
<path d="M62.644 55.6176C63.8056 55.5332 67.0758 56.181 67.1758 57.6453" stroke="#210602" stroke-width="0.451" stroke-linecap="round" stroke-linejoin="round"/>
<path d="M56.6896 54.8987C55.2071 53.6204 39.9016 56.288 38.2776 55.1216C36.8023 54.0612 32.5544 51.5927 31.4191 49.8175C31.0659 49.2657 24.8387 53.4495 25.526 54.362C27.7547 56.9633 30.2988 59.2839 33.101 61.271C35.6319 62.8665 57.1835 58.4396 57.1835 58.4396C57.1835 58.4396 57.4426 55.5471 56.6896 54.8987Z" fill="#ED705F"/>
<path d="M54.3418 54.6047C48.3634 55.0339 40.4454 55.4853 39.2241 55.4797C38.4885 55.4797 37.249 54.5419 35.4957 53.2695" stroke="#210602" stroke-width="0.451" stroke-linecap="round" stroke-linejoin="round"/>
<path d="M38.9492 55.4814C38.5875 56.3565 38.5658 57.3328 38.8887 58.2225" stroke="#210602" stroke-width="0.451" stroke-linecap="round" stroke-linejoin="round"/>
</g>
</svg>
