<svg width="33" height="32" viewBox="0 0 33 32" fill="none" xmlns="http://www.w3.org/2000/svg">
<g clip-path="url(#clip0_68_4716)">
<path fill-rule="evenodd" clip-rule="evenodd" d="M4.89442 6.44988C3.33598 18.6898 11.559 37.293 13.5997 25.819L14.05 22.0563C14.3337 20.2094 15.222 19.5478 16.3532 19.477C17.4844 19.5478 18.3744 20.2094 18.658 22.0563L19.1084 25.819C20.6295 34.3741 25.8953 25.0194 27.5619 15.3711C28.1062 12.2098 28.2658 9.01844 27.78 6.41269C27.1807 3.20013 24.2801 0.78188 21.1757 0.514755H20.041C18.7538 0.628005 17.4755 1.13394 16.3532 2.12988C15.6315 1.24888 14.3337 0.677505 12.8604 0.514755H11.0857C8.26311 0.820818 5.3838 2.60576 4.89442 6.44988Z" fill="#F8F7F7"/>
<path fill-rule="evenodd" clip-rule="evenodd" d="M1.43701 17.4957V29.4066C1.43701 30.5759 2.39445 31.5312 3.56632 31.5312H29.7673C30.9393 31.5312 31.8967 30.5759 31.8967 29.4066V17.4957C31.8967 16.3281 30.9393 15.3711 29.7673 15.3711H27.5618C25.8952 25.0194 20.6295 34.3741 19.1083 25.819L18.6579 22.0563C18.3743 20.2094 17.4843 19.5478 16.3531 19.477C15.2219 19.5478 14.3336 20.2094 14.0499 22.0563L13.5996 25.819C12.0234 34.6801 6.76126 25.6032 5.16382 15.3711H3.56639C2.39445 15.3711 1.43701 16.3281 1.43701 17.4957Z" fill="#F47C7C"/>
<path fill-rule="evenodd" clip-rule="evenodd" d="M24.3616 6.32601C24.8474 8.93182 24.6896 12.1231 24.1435 15.2844C23.2694 20.3562 21.3989 25.3449 19.6011 27.6959C21.5407 32.7006 26.0441 24.1579 27.5618 15.3711C28.1061 12.2098 28.2657 9.01844 27.7799 6.41269C27.1806 3.20013 24.28 0.78188 21.1756 0.514755H20.0409C19.7199 0.543068 19.4008 0.59613 19.0835 0.673943C21.6507 1.40988 23.8492 3.57694 24.3616 6.32601Z" fill="#E1E1E1"/>
<path fill-rule="evenodd" clip-rule="evenodd" d="M28.6522 17.4426V29.3535C28.6522 30.5228 27.6948 31.4781 26.5246 31.4781H3.09302C3.24552 31.5135 3.40327 31.5312 3.56639 31.5312H29.7674C30.9393 31.5312 31.8968 30.5759 31.8968 29.4066V17.4957C31.8968 16.3281 30.9393 15.3711 29.7674 15.3711H27.5618C27.5494 15.4383 27.5388 15.5038 27.5264 15.5692C28.1948 15.9283 28.6522 16.6359 28.6522 17.4426Z" fill="#EE6161"/>
<path d="M29.7674 14.9023H28.115C28.6259 11.6688 28.6791 8.67807 28.2408 6.32675C27.7444 3.66419 25.6921 1.34963 23.0121 0.430128C20.6634 -0.375747 18.2761 0.0116282 16.3923 1.48707C14.9271 0.108441 12.1171 -0.392997 9.60064 0.329191C6.6992 1.16182 4.81432 3.37113 4.42914 6.39219C4.38595 6.74063 4.35014 7.08238 4.32257 7.40813C4.30082 7.66613 4.49232 7.89294 4.75026 7.91469C5.00889 7.93707 5.23501 7.74494 5.25682 7.487C5.28326 7.17344 5.31789 6.84388 5.35932 6.50913C5.81845 2.90794 8.3757 1.656 9.8592 1.23032C12.1944 0.560191 14.8814 1.0825 15.9836 2.41907C16.0608 2.526 16.1341 2.63 16.2051 2.73082C16.8867 3.69925 17.425 4.46419 19.4995 5.12563C19.5468 5.14075 19.5948 5.14788 19.642 5.14788C19.8405 5.14788 20.0249 5.02069 20.0884 4.82138C20.1671 4.57469 20.0309 4.311 19.7842 4.23232C18.0246 3.67125 17.6038 3.089 16.9868 2.2125C18.6146 0.948316 20.6764 0.619941 22.7077 1.31688C25.0735 2.12857 26.8835 4.1625 27.319 6.4985C28.6912 13.8601 24.8364 25.8094 21.9035 28.3055C21.4986 28.6501 21.1566 28.7758 20.8874 28.6791C20.6326 28.5876 19.9953 28.1189 19.5721 25.7499L19.1233 22.0004C19.1227 21.9953 19.122 21.9901 19.1212 21.9849C18.8326 20.1059 17.9111 19.1046 16.3823 19.009C16.3627 19.0078 16.3432 19.0078 16.3237 19.009C14.7961 19.1045 13.8751 20.1058 13.5865 21.9849C13.5857 21.9901 13.585 21.9953 13.5844 22.0004L13.1358 25.75C12.7626 27.8403 12.1534 29.0026 11.4669 28.9416C10.5469 28.8588 8.94832 26.8738 7.45095 22.6256C6.00707 18.5291 5.15364 13.6618 5.16807 9.60569C5.16901 9.34682 4.95989 9.13613 4.70095 9.13525C4.44176 9.13557 4.23139 9.34344 4.23051 9.60238C4.22451 11.2929 4.35789 13.0863 4.61601 14.9023H3.56639C2.13376 14.9023 0.968262 16.0657 0.968262 17.4957V29.4066C0.968262 30.8366 2.13376 31.9999 3.56639 31.9999H15.5801C15.8389 31.9999 16.0489 31.7901 16.0489 31.5311C16.0489 31.2722 15.839 31.0623 15.5801 31.0623H3.56639C2.65076 31.0623 1.90582 30.3195 1.90582 29.4065V17.4957C1.90582 16.5827 2.65076 15.8399 3.56639 15.8399H4.75976C5.15789 18.2521 5.77107 20.6799 6.56676 22.9373C7.2787 24.9571 9.1732 29.6766 11.3829 29.8753C11.4344 29.8799 11.4851 29.8823 11.5352 29.8823C12.742 29.8822 13.5914 28.5441 14.0612 25.901C14.0628 25.8923 14.0641 25.8835 14.0651 25.8747L14.5145 22.1199C14.7988 20.2844 15.6918 19.9947 16.3531 19.9469C17.0152 19.9947 17.9093 20.2844 18.1934 22.1199L18.6428 25.8748C18.6439 25.8836 18.6452 25.8924 18.6467 25.9011C19.0263 28.0356 19.6555 29.2329 20.5705 29.5616C20.9888 29.7119 21.6651 29.7398 22.5112 29.0197C24.1208 27.6498 25.8909 23.9834 27.1305 19.4513C27.4637 18.2332 27.7389 17.0233 27.9551 15.8399H29.7674C30.683 15.8399 31.4279 16.5828 31.4279 17.4958V29.4066C31.4279 30.3196 30.683 31.0624 29.7674 31.0624H17.7555C17.4966 31.0624 17.2867 31.2723 17.2867 31.5313C17.2867 31.7902 17.4966 32.0001 17.7555 32.0001H29.7674C31.2 32.0001 32.3655 30.8367 32.3655 29.4067V17.4957C32.3655 16.0657 31.2 14.9023 29.7674 14.9023Z" fill="black"/>
</g>
<defs>
<clipPath id="clip0_68_4716">
<rect width="32" height="32" fill="white" transform="translate(0.666992)"/>
</clipPath>
</defs>
</svg>
