<svg width="33" height="32" viewBox="0 0 33 32" fill="none" xmlns="http://www.w3.org/2000/svg">
<g clip-path="url(#clip0_80_2576)">
<path d="M26.3233 27.3252C23.5333 26.3542 24.613 22.0999 25.061 17.5945C21.9619 17.963 18.8982 16.6695 17.001 14.1914C15.1037 11.7134 14.6543 8.4184 15.8185 5.52276C13.7249 5.54501 11.6648 6.05106 9.79921 7.00138C9.61327 6.98483 9.32914 6.99034 9.23093 6.99034C7.61438 7.02345 3.01852 7.60828 2.46679 13.3352C1.91838 19.0521 4.96003 26.048 1.285 27.3258C1.20021 27.356 1.13551 27.4257 1.11166 27.5126C1.08782 27.5994 1.10783 27.6923 1.16527 27.7617C1.85162 28.5661 2.83203 30.0353 7.81852 30.6759C8.613 30.7807 9.413 30.8414 10.213 30.869V30.8966C10.2148 31.5052 10.7078 31.9982 11.3164 32H16.282C16.5792 31.9992 16.8636 31.8789 17.0711 31.6661C17.2787 31.4534 17.3919 31.1661 17.3854 30.869C18.1909 30.8414 18.9909 30.7807 19.7909 30.6759C24.7769 30.0353 25.7578 28.5661 26.4436 27.7617C26.5013 27.6923 26.5214 27.599 26.4974 27.5121C26.4734 27.4251 26.4084 27.3553 26.3233 27.3252Z" fill="#A56A43"/>
<path d="M17.3853 26.1407V30.8966C17.3835 31.5052 16.8905 31.9982 16.2819 32H11.3163C10.7077 31.9982 10.2147 31.5052 10.2129 30.8966V26.1572C12.2317 28.0497 15.3752 28.0425 17.3853 26.1407Z" fill="#F9C795"/>
<path d="M7.65859 21.5448C6.99652 21.4455 5.24756 20.9214 5.24756 18.1848C5.24756 15.5145 6.57721 16.2152 7.13997 16.629C7.10391 18.2829 7.27818 19.9348 7.65859 21.5448Z" fill="#F9C795"/>
<path d="M20.453 16.9103C20.4078 19.2828 20.1976 21.4345 19.2117 23.531C18.1463 25.8367 16.3797 27.5641 13.7992 27.5641C11.199 27.5641 9.47317 25.8737 8.37028 23.531C7.36062 21.3429 7.16917 19.0494 7.13993 16.629C7.08476 14.1639 7.33745 11.4306 9.29717 9.93104C9.67235 10.88 10.7979 12.6897 13.7992 12.6897C14.7206 12.6897 15.4654 12.6952 16.0889 12.7283C17.0055 14.5929 18.5511 16.074 20.453 16.9103Z" fill="#FDD7AD"/>
<path d="M22.351 18.1848C22.351 20.9214 20.602 21.4455 19.9399 21.5448C20.3006 20.0269 20.473 18.4704 20.453 16.9103C21.0495 17.1728 21.673 17.369 22.3124 17.4952C22.3407 17.7239 22.3536 17.9543 22.351 18.1848Z" fill="#F9C795"/>
<path d="M16.8337 20.4138C17.1384 20.4138 17.3854 20.1668 17.3854 19.8621C17.3854 19.5574 17.1384 19.3103 16.8337 19.3103C16.529 19.3103 16.282 19.5574 16.282 19.8621C16.282 20.1668 16.529 20.4138 16.8337 20.4138Z" fill="#FB7B76"/>
<path d="M15.7302 22.069C16.0349 22.069 16.2819 21.822 16.2819 21.5172C16.2819 21.2125 16.0349 20.9655 15.7302 20.9655C15.4255 20.9655 15.1785 21.2125 15.1785 21.5172C15.1785 21.822 15.4255 22.069 15.7302 22.069Z" fill="#FB7B76"/>
<path d="M17.9372 22.069C18.2419 22.069 18.4889 21.822 18.4889 21.5172C18.4889 21.2125 18.2419 20.9655 17.9372 20.9655C17.6325 20.9655 17.3855 21.2125 17.3855 21.5172C17.3855 21.822 17.6325 22.069 17.9372 22.069Z" fill="#FB7B76"/>
<path d="M10.7649 20.4138C11.0696 20.4138 11.3166 20.1668 11.3166 19.8621C11.3166 19.5574 11.0696 19.3103 10.7649 19.3103C10.4602 19.3103 10.2131 19.5574 10.2131 19.8621C10.2131 20.1668 10.4602 20.4138 10.7649 20.4138Z" fill="#FB7B76"/>
<path d="M9.66134 22.069C9.96605 22.069 10.2131 21.822 10.2131 21.5172C10.2131 21.2125 9.96605 20.9655 9.66134 20.9655C9.35663 20.9655 9.10962 21.2125 9.10962 21.5172C9.10962 21.822 9.35663 22.069 9.66134 22.069Z" fill="#FB7B76"/>
<path d="M11.8681 22.069C12.1728 22.069 12.4199 21.822 12.4199 21.5172C12.4199 21.2125 12.1728 20.9655 11.8681 20.9655C11.5634 20.9655 11.3164 21.2125 11.3164 21.5172C11.3164 21.822 11.5634 22.069 11.8681 22.069Z" fill="#FB7B76"/>
<path d="M14.6268 18.7586C14.4037 18.7586 14.2026 18.6242 14.1172 18.418C14.0318 18.2119 14.079 17.9746 14.2367 17.8168L17.3705 14.683C17.587 14.4739 17.9311 14.4769 18.144 14.6898C18.3568 14.9026 18.3598 15.2467 18.1507 15.4632L15.0169 18.597C14.9134 18.7004 14.7731 18.7586 14.6268 18.7586Z" fill="#2980BA"/>
<path d="M24.0061 1.65765e-06C20.407 -0.00219754 17.1681 2.18402 15.824 5.52276H15.8185C14.3656 9.12135 15.4334 13.2468 18.4497 15.6886C21.4659 18.1305 25.7232 18.3161 28.9406 16.1459C32.1579 13.9758 33.5805 9.95889 32.4463 6.24753C31.312 2.53617 27.8869 0.000865525 24.0061 1.65765e-06Z" fill="#3B97D3"/>
<path d="M30.417 7.17241H28.8722C28.549 7.17564 28.2413 7.03393 28.0336 6.78621C26.0827 4.36248 21.9354 4.35476 19.9784 6.78621C19.7707 7.03393 19.463 7.17564 19.1398 7.17241H17.595C18.3489 4.24816 20.9861 2.20465 24.006 2.20465C27.0259 2.20465 29.6631 4.24816 30.417 7.17241Z" fill="#FDD7AD"/>
<path d="M30.6046 9.37931H28.9936C27.9734 9.40641 26.9957 8.97031 26.3343 8.1931C25.7346 7.54297 24.8904 7.17318 24.006 7.17318C23.1215 7.17318 22.2774 7.54297 21.6777 8.1931C21.0163 8.97031 20.0386 9.40641 19.0184 9.37931H17.4074C17.3466 8.63836 17.41 7.89247 17.595 7.17241H19.1398C19.463 7.17564 19.7707 7.03393 19.9784 6.78621C21.9293 4.36248 26.0766 4.35476 28.0336 6.78621C28.2412 7.03393 28.5489 7.17564 28.8722 7.17241H30.417C30.6023 7.89242 30.6657 8.63836 30.6046 9.37931Z" fill="#F9C795"/>
<path d="M30.6047 9.37931C30.3235 12.8149 27.4532 15.4599 24.0061 15.4599C20.559 15.4599 17.6887 12.8149 17.4075 9.37931H19.0185C20.0387 9.40641 21.0164 8.97031 21.6778 8.1931C22.2775 7.54298 23.1216 7.17318 24.0061 7.17318C24.8905 7.17318 25.7347 7.54298 26.3344 8.1931C26.9958 8.97031 27.9735 9.40641 28.9937 9.37931H30.6047Z" fill="#FB7B76"/>
<path d="M22.3508 10.7586C22.4973 9.95961 23.1937 9.37931 24.006 9.37931C24.8183 9.37931 25.5147 9.95961 25.6612 10.7586C25.6612 11.2154 24.9202 11.5862 24.006 11.5862C23.0918 11.5862 22.3508 11.2154 22.3508 10.7586Z" fill="#F5EFCA"/>
<path d="M24.0062 16C20.0449 16 16.8337 12.7888 16.8337 8.82759C16.8337 4.86637 20.0449 1.65517 24.0062 1.65517C27.9674 1.65517 31.1786 4.86637 31.1786 8.82759C31.174 12.7869 27.9655 15.9954 24.0062 16ZM24.0062 2.75862C20.6544 2.75862 17.9372 5.47579 17.9372 8.82759C17.9372 12.1794 20.6544 14.8966 24.0062 14.8966C27.358 14.8966 30.0751 12.1794 30.0751 8.82759C30.0712 5.47743 27.3563 2.76257 24.0062 2.75862Z" fill="#285680"/>
</g>
<defs>
<clipPath id="clip0_80_2576">
<rect width="32" height="32" fill="white" transform="translate(0.83374)"/>
</clipPath>
</defs>
</svg>
