<svg width="62" height="61" viewBox="0 0 62 61" fill="none" xmlns="http://www.w3.org/2000/svg">
<path d="M57.3484 12.7326V48.2679C57.3484 52.7734 53.6368 56.4252 49.0573 56.4252H12.9396C8.36007 56.4252 4.64844 52.7734 4.64844 48.2678V12.7326C4.64844 8.22696 8.36007 4.5752 12.9396 4.5752H49.0574C53.6368 4.5752 57.3484 8.22696 57.3484 12.7326Z" fill="#454B7D"/>
<path d="M42.5407 35.8894C44.935 36.7739 46.0924 39.2651 45.1247 41.4533L42.5766 47.2178C41.6088 49.4061 38.883 50.4639 36.4888 49.5794C34.0936 48.6949 32.937 46.2037 33.904 44.0155L36.4529 38.251C37.1883 36.5873 38.9403 35.5771 40.7905 35.5771C41.3739 35.5771 41.9667 35.6771 42.5407 35.8894Z" fill="#393F6B"/>
<path d="M27.9294 44.0155C28.897 46.2037 27.7398 48.6949 25.3461 49.5794C22.9515 50.4639 20.2264 49.4061 19.2597 47.2178L16.7114 41.4533C15.4701 38.6435 17.7409 35.5771 21.0454 35.5771C22.8951 35.5771 24.6466 36.5873 25.3819 38.251L27.9294 44.0155Z" fill="#393F6B"/>
<path d="M29.3944 25.6614H33.677V23.5545C33.677 22.3906 32.7177 21.4477 31.5356 21.4477C30.3526 21.4477 29.3943 22.3906 29.3943 23.5545L29.3944 25.6614ZM16.1667 17.2374C20.8957 9.17633 31.3723 6.41445 39.5655 11.0682C45.056 14.1877 48.1276 19.8457 48.1329 25.6645C39.5452 25.6645 21.8549 25.6645 13.8672 25.6645C13.8651 22.8002 14.6051 19.8966 16.1667 17.2374Z" fill="#F1EBF8"/>
<path d="M31.6536 24.0836C31.0597 24.0836 30.5781 23.6098 30.5781 23.0254V17.3262C30.5781 16.7418 31.0597 16.2681 31.6536 16.2681C32.2476 16.2681 32.7291 16.7418 32.7291 17.3262V23.0254C32.7291 23.6098 32.2476 24.0836 31.6536 24.0836Z" fill="#E06666"/>
<path d="M31.0052 13.0286C30.4112 13.0286 29.9297 12.5549 29.9297 11.9705V8.81059C29.9297 8.22621 30.4112 7.75244 31.0052 7.75244C31.5991 7.75244 32.0807 8.22621 32.0807 8.81059V11.9705C32.0807 12.5549 31.5991 13.0286 31.0052 13.0286Z" fill="#454B7D"/>
<path d="M23.1175 14.3343L21.5115 11.5976C21.2145 11.0916 21.3907 10.4444 21.9052 10.1521C22.4197 9.86005 23.0773 10.0334 23.3744 10.5395L24.9804 13.2761C25.2773 13.7821 25.1012 14.4294 24.5867 14.7216C24.0739 15.0129 23.4155 14.8421 23.1175 14.3343Z" fill="#454B7D"/>
<path d="M18.4131 19.7335L15.6317 18.1535C15.1173 17.8613 14.941 17.2142 15.238 16.708C15.5351 16.202 16.1926 16.0284 16.7072 16.3206L19.4886 17.9006C20.003 18.1928 20.1793 18.8399 19.8823 19.3461C19.5848 19.853 18.927 20.0252 18.4131 19.7335Z" fill="#454B7D"/>
<path d="M17.092 26.7222H13.8802C13.2862 26.7222 12.8047 26.2485 12.8047 25.6641C12.8047 25.0797 13.2862 24.606 13.8802 24.606H17.0919C17.6858 24.606 18.1674 25.0797 18.1674 25.6641C18.1675 26.2484 17.6858 26.7222 17.092 26.7222Z" fill="black"/>
<path d="M48.1309 26.7222H44.9192C44.3253 26.7222 43.8438 26.2485 43.8438 25.6641C43.8438 25.0797 44.3253 24.606 44.9192 24.606H48.1309C48.7249 24.606 49.2064 25.0797 49.2064 25.6641C49.2064 26.2484 48.7249 26.7222 48.1309 26.7222Z" fill="black"/>
<path d="M42.1286 19.3466C41.8317 18.8405 42.0079 18.1933 42.5223 17.9011L45.304 16.3211C45.8189 16.029 46.4762 16.2023 46.7732 16.7084C47.0702 17.2145 46.894 17.8617 46.3795 18.1539L43.5977 19.7339C43.0843 20.0255 42.4264 19.8538 42.1286 19.3466Z" fill="#454B7D"/>
<path d="M37.4286 14.7217C36.9142 14.4295 36.7379 13.7824 37.0349 13.2762L38.6408 10.5395C38.9377 10.0334 39.5954 9.85999 40.11 10.1522C40.6244 10.4444 40.8007 11.0915 40.5037 11.5977L38.8978 14.3343C38.6004 14.8412 37.9425 15.0136 37.4286 14.7217Z" fill="#454B7D"/>
<path d="M33.6811 23.5546V25.6614H29.3984V23.5546C29.3984 22.3906 30.3568 21.4478 31.5398 21.4478C32.7216 21.4478 33.6811 22.3906 33.6811 23.5546Z" fill="#454B7D"/>
<path d="M49.2055 25.6635C49.1998 19.4582 45.9138 13.4544 40.0998 10.1521C31.4062 5.21447 20.2503 8.15559 15.2319 16.7085C13.6315 19.4345 12.7868 22.5317 12.7891 25.6651C12.7895 26.2493 13.2709 26.7226 13.8646 26.7226C16.3001 26.7226 48.147 26.7226 48.1309 26.7226C48.7231 26.7222 49.2055 26.2488 49.2055 25.6635ZM17.0946 17.7669C21.5202 10.2242 31.358 7.63068 39.0243 11.9849C43.6604 14.6181 46.6539 19.3862 47.017 24.6063H14.9761C15.1399 22.2088 15.8635 19.8637 17.0946 17.7669Z" fill="#2F3664"/>
</svg>
