<svg width="33" height="32" viewBox="0 0 33 32" fill="none" xmlns="http://www.w3.org/2000/svg">
<g clip-path="url(#clip0_76_6779)">
<path fill-rule="evenodd" clip-rule="evenodd" d="M15.7836 6.92269C15.0077 6.69562 14.359 6.161 13.9934 5.44218C13.5401 4.55712 13.5938 3.57012 14.0938 2.71544C14.5096 2.00381 14.2676 1.08656 13.5544 0.671748C12.8412 0.256935 11.9219 0.49831 11.5062 1.20994C10.4937 2.94256 10.4095 5.00769 11.3252 6.79931C12.0653 8.25119 13.3753 9.33294 14.9414 9.79069C15.1834 9.86044 15.4253 9.91406 15.669 9.95519C17.2926 9.70306 17.4341 7.89894 16.5041 7.0425C16.2639 7.02994 16.0219 6.99243 15.7836 6.92269Z" fill="#E94444"/>
<path fill-rule="evenodd" clip-rule="evenodd" d="M9.5904 17.8529C7.12459 17.7742 5.01184 19.2565 3.7144 21.2626C2.02096 23.8803 1.70559 27.1989 2.09265 30.226C2.1984 31.0431 2.94921 31.6242 3.76815 31.5187C4.58709 31.4151 5.16771 30.6641 5.06377 29.8487C4.77165 27.5511 4.93834 24.8816 6.2304 22.8826C6.94365 21.7812 8.11021 20.796 9.49546 20.8407C10.0366 20.8567 10.628 21.0839 11.0563 21.3646C12.9128 21.5219 13.1744 20.0003 12.6494 18.8685C11.7498 18.2587 10.7301 17.8904 9.5904 17.8529Z" fill="#E94444"/>
<path fill-rule="evenodd" clip-rule="evenodd" d="M12.6495 18.8685C12.4577 19.0831 12.2552 19.3066 12.0401 19.5426C11.5294 20.0682 11.1979 20.6922 11.0563 21.3646C10.7373 22.8557 11.3448 24.5741 12.9595 25.9187C18.2746 30.353 26.0232 25.5932 28.9209 19.9592C31.6788 14.5987 31.3061 7.83637 27.5912 5.00949C23.9337 2.22731 18.6007 2.93893 16.504 7.04249C16.3589 7.29281 15.669 8.47293 15.669 9.95518C15.669 14.6952 15.307 15.8771 12.6495 18.8685Z" fill="#F47C7C"/>
<path fill-rule="evenodd" clip-rule="evenodd" d="M17.4341 16.941C16.7764 18.3678 15.7729 19.6677 14.4163 21.0606C14.0597 21.4272 13.7408 21.8885 13.773 22.3712C13.8519 23.6157 15.4969 24.7851 17.4179 24.9299C20.3299 25.1499 24.0734 23.3601 26.4694 18.7022C26.7184 18.2177 26.9407 17.7099 27.1342 17.1878C26.4944 15.3121 19.8479 13.6206 17.4341 16.941Z" fill="#FFD772"/>
<path fill-rule="evenodd" clip-rule="evenodd" d="M27.9353 11.7486C27.4747 5.86594 21.0773 4.14587 18.9591 8.2905C18.563 9.00212 18.3193 10.2234 18.3731 11.4767C18.4645 13.6492 18.158 15.3729 17.4341 16.9409C18.6293 15.7483 19.9447 16.1542 21.226 16.9856C21.7438 17.3217 22.6435 17.6007 23.3674 17.2091C24.1774 16.7692 25.4766 16.0004 27.1342 17.1877C27.7704 15.4551 28.0768 13.5544 27.9353 11.7486Z" fill="#EE6161"/>
<path fill-rule="evenodd" clip-rule="evenodd" d="M27.4425 19.4674C25.086 24.0484 19.5218 28.0518 14.6672 27.0039C19.8157 29.3659 26.3207 25.0139 28.9209 19.9591C31.6787 14.5986 31.306 7.83631 27.5912 5.00944C26.6324 4.27994 25.559 3.79 24.4605 3.53969C25.0358 3.79538 25.5895 4.12081 26.111 4.51594C29.8276 7.34463 30.2004 14.1069 27.4425 19.4674Z" fill="#EE6161"/>
<path fill-rule="evenodd" clip-rule="evenodd" d="M26.4693 18.7022C26.7184 18.2176 26.9407 17.7098 27.1342 17.1877C26.7722 16.2687 25.9335 16.0202 25.2992 16.5566C25.2812 16.6048 25.2633 16.6549 25.2454 16.7032C25.0537 17.2271 24.8297 17.7349 24.5806 18.2194C22.1972 22.854 18.4788 24.6474 15.574 24.4489C16.1187 24.7064 16.7531 24.8799 17.418 24.9299C20.3299 25.1498 24.0734 23.36 26.4693 18.7022Z" fill="#FBBA58"/>
<path fill-rule="evenodd" clip-rule="evenodd" d="M27.1342 17.1877C27.7704 15.4551 28.0768 13.5545 27.9352 11.7486C27.6538 8.15106 25.1522 6.11093 22.7671 6.01612C24.439 6.82612 25.8404 8.62662 26.0465 11.2657C26.1845 13.0198 25.8995 14.8632 25.2992 16.5565C25.8458 16.5458 26.4604 16.7049 27.1342 17.1877Z" fill="#E94444"/>
<path d="M13.3053 22.4009C13.3997 23.8907 15.2289 25.2349 17.3827 25.3973C17.551 25.4101 17.7207 25.4163 17.8915 25.4163C19.3815 25.4163 20.9585 24.937 22.3862 24.0424C24.1851 22.9151 25.7412 21.1427 26.8863 18.9166C28.0342 16.6851 28.5869 14.0591 28.4027 11.712C28.2764 10.0996 27.7129 8.66581 26.7731 7.56581C25.9198 6.567 24.7815 5.88343 23.5682 5.64106C21.4542 5.21881 19.5306 6.14949 18.5455 8.06987C18.0945 8.88537 17.8491 10.1972 17.9049 11.4966C18.0639 15.2525 17.0631 17.6697 14.0805 20.7337C13.53 21.2995 13.2692 21.861 13.3053 22.4009ZM18.8415 11.4569C18.8415 11.4569 18.8415 11.4568 18.8415 11.4567C18.7933 10.3339 19.0003 9.18056 19.3687 8.51843C19.3714 8.51362 19.374 8.50875 19.3765 8.50381C20.0365 7.21243 21.2272 6.4805 22.5926 6.4805C22.8511 6.4805 23.116 6.50675 23.3845 6.56037C25.2425 6.9315 27.2258 8.691 27.468 11.7852C27.5864 13.2929 27.3755 14.9272 26.8797 16.4807C25.2687 15.6393 23.9527 16.3563 23.2125 16.7598L23.1445 16.7969C22.6391 17.0702 21.9281 16.8825 21.4812 16.5924C20.9814 16.2681 19.701 15.4374 18.3502 15.8381C18.7363 14.5754 18.9132 13.1504 18.8415 11.4569ZM14.7523 21.3876C16.0533 20.0511 17.1029 18.7434 17.8154 17.2246C18.6438 16.4365 19.5922 16.4842 20.9709 17.3789C21.3817 17.6455 21.9672 17.8699 22.5725 17.8699C22.9152 17.8699 23.2641 17.798 23.5912 17.6211L23.6614 17.5829C24.4148 17.1721 25.3389 16.6694 26.559 17.374C26.4073 17.7539 26.2385 18.1264 26.0527 18.4877C23.7649 22.9354 20.3133 24.4781 17.8697 24.4779C17.7275 24.4779 17.5883 24.4726 17.4533 24.4624C15.8057 24.3382 14.3046 23.3471 14.2408 22.3399C14.2234 22.0787 14.4002 21.7494 14.7523 21.3876Z" fill="black"/>
<path d="M31.1506 11.4976C30.9156 8.50175 29.7524 6.06506 27.8749 4.63637C25.8812 3.11981 23.2884 2.534 20.939 3.06943C18.9059 3.53275 17.2486 4.76156 16.2396 6.54462C16.1279 6.52725 16.0195 6.50325 15.9153 6.47275C15.2643 6.28225 14.7161 5.82918 14.4106 5.22843C14.0361 4.49743 14.0673 3.689 14.4984 2.95187C14.7627 2.49956 14.8345 1.97093 14.7008 1.46331C14.5669 0.95531 14.2434 0.530247 13.7899 0.266497C12.8534 -0.278253 11.6472 0.0389345 11.1013 0.973435C10.0056 2.8485 9.93319 5.10612 10.9074 7.01218C11.7022 8.57137 13.1246 9.74812 14.8115 10.2411C14.9394 10.2779 15.0681 10.3109 15.1994 10.3405C15.1826 14.4604 14.864 15.6167 12.5614 18.2582C11.6422 17.7128 10.6499 17.4187 9.60525 17.3843C8.1205 17.3374 6.65994 17.8184 5.38138 18.7757C5.17413 18.9309 5.13194 19.2247 5.28713 19.4319C5.37919 19.5549 5.52006 19.6197 5.66269 19.6197C5.76044 19.6197 5.859 19.5892 5.94325 19.5261C7.04975 18.6977 8.30569 18.2801 9.57494 18.3213C10.3988 18.3484 11.1866 18.5679 11.924 18.9736C11.8505 19.0547 11.7758 19.1369 11.6989 19.2209C11.284 19.6486 10.9711 20.1429 10.7699 20.6779C10.3538 20.4939 9.91013 20.3841 9.5105 20.3722C8.15338 20.3274 6.77981 21.1716 5.83669 22.6282C4.26375 25.0618 4.38594 28.2337 4.59881 29.908C4.63325 30.1782 4.55969 30.4466 4.39156 30.6635C4.22319 30.8807 3.98088 31.0193 3.70831 31.0539C3.14681 31.1264 2.63031 30.7279 2.55763 30.1666C2.25306 27.7848 2.27481 24.3509 4.10813 21.5171C4.2335 21.3231 4.355 21.1506 4.47938 20.9899C4.63788 20.7852 4.60038 20.4907 4.39563 20.3323C4.19088 20.1738 3.89656 20.2113 3.73806 20.4161C3.59725 20.598 3.46075 20.7916 3.32088 21.0081C1.33375 24.0797 1.30331 27.7486 1.62781 30.2862C1.75588 31.2759 2.60344 32.0001 3.57525 32C3.65838 32 3.74256 31.9947 3.82713 31.9838C4.34719 31.9179 4.81081 31.653 5.13263 31.2378C5.45425 30.8227 5.59494 30.3084 5.52881 29.7897C5.33213 28.2424 5.21281 25.3206 6.62388 23.1374C7.38656 21.9595 8.45375 21.2763 9.4815 21.3092C9.80781 21.3189 10.1938 21.4296 10.5405 21.6069C10.5084 21.8567 10.4973 22.1113 10.5108 22.369C10.585 23.7973 11.3481 25.1859 12.6591 26.2786C14.1317 27.5072 15.8648 28.1335 17.7524 28.1334C18.4322 28.1334 19.1323 28.0521 19.847 27.8886C22.176 27.3555 24.5517 25.9644 26.5363 23.9716C26.719 23.7881 26.7184 23.4913 26.5349 23.3086C26.3515 23.126 26.0547 23.1266 25.872 23.31C22.4143 26.7821 17.1734 28.8241 13.2596 25.5586C12.1513 24.6349 11.5076 23.4848 11.447 22.3203C11.3994 21.4041 11.7293 20.5338 12.376 19.8696C12.3794 19.8661 12.3828 19.8625 12.3861 19.8589C15.717 16.2147 16.1378 15.1041 16.1378 9.95525C16.1378 9.21943 16.3268 8.48756 16.6298 7.81993C16.7175 7.62662 16.8261 7.44256 16.9214 7.25581C17.7826 5.5705 19.2833 4.40843 21.1474 3.98362C23.2291 3.50925 25.5321 4.03218 27.3073 5.38256C30.7096 7.97156 31.2464 14.4144 28.5042 19.7446C28.1609 20.4105 27.7458 21.069 27.2703 21.7017C27.1147 21.9086 27.1564 22.2025 27.3633 22.358C27.5703 22.5136 27.8641 22.4719 28.0196 22.2649C28.5268 21.5902 28.9702 20.8867 29.3376 20.1737C30.7328 17.4619 31.3766 14.3806 31.1506 11.4976ZM15.2308 9.38375C15.1778 9.37006 15.1251 9.35581 15.0729 9.34075C13.6345 8.92037 12.4208 7.9165 11.7425 6.58593C10.9019 4.94125 10.9633 3.068 11.9109 1.44637C12.1966 0.957372 12.8282 0.791622 13.3187 1.07687C13.5554 1.21456 13.7243 1.43662 13.7943 1.70218C13.8642 1.96731 13.8268 2.24318 13.6892 2.47868C13.0994 3.48675 13.0583 4.64481 13.5756 5.65462C13.9973 6.48356 14.754 7.10968 15.6521 7.3725C15.6963 7.38543 15.7416 7.39625 15.7867 7.40743C15.4881 8.05481 15.3001 8.72306 15.2308 9.38375Z" fill="black"/>
</g>
<defs>
<clipPath id="clip0_76_6779">
<rect width="32" height="32" fill="white" transform="translate(0.334473)"/>
</clipPath>
</defs>
</svg>
