<svg width="88" height="88" viewBox="0 0 88 88" fill="none" xmlns="http://www.w3.org/2000/svg">
<path d="M20.3749 47.935C20.3749 47.935 21.1367 52.8996 20.1709 56.0745C19.9401 56.8333 19.6106 57.4899 19.1484 57.952C19.1484 57.952 19.6952 66.9934 25.148 66.9934C30.6008 66.9934 31.1486 57.7945 31.1486 57.7945C31.1486 57.7945 28.4387 55.8002 29.1658 47.935H20.3749Z" fill="#E2B181"/>
<path d="M43.0699 63.2165C42.7553 60.6438 40.3776 58.6017 37.3501 58.3041L31.1497 57.7917L30.9357 58.5301C30.5025 60.0298 29.7598 61.4222 28.7555 62.6173C27.1477 64.5273 25.1571 66.4046 25.1571 66.4046C25.1571 66.4046 22.9859 64.3336 21.3567 62.3237C20.5147 61.2831 19.8667 60.0996 19.4434 58.8297L19.1501 57.952L13.1512 58.3052C10.1231 58.6019 7.74398 60.6445 7.4297 63.2177L5.91797 72.1012L5.94879 72.1164C16.1641 73.9438 28.7555 73.9438 44.582 72.1012L43.0699 63.2165Z" fill="#00A69C"/>
<path d="M34.7389 40.8144C34.7389 47.1341 30.5548 55.2796 25.3165 55.2796C20.046 55.2796 15.7383 48.389 15.7383 40.8144C15.7383 33.2489 19.6819 29.1522 25.3165 29.1522C30.9512 29.1522 34.7389 33.9428 34.7389 40.8144Z" fill="#EFC095"/>
<path d="M17.4919 36.3861C17.4919 36.3861 25.2709 38.75 33.3786 36.3861C33.3786 36.3861 33.681 39.7257 34.7366 42.2157C34.7366 42.2157 36.6089 37.9125 35.4744 33.1927C34.3614 28.5604 28.8225 27.6358 25.4825 27.6358C22.1425 27.6358 17.4084 28.1803 15.7164 32.3627C13.2492 38.4612 15.7364 42.2157 15.7364 42.2157C15.7364 42.2157 17.6142 38.3135 17.4919 36.3861Z" fill="#231F20"/>
<path d="M50.4414 49.3688H62.0664V59.5406H50.4414V49.3688Z" fill="url(#paint0_linear_2948_65680)"/>
<path d="M50.4414 55.1808C51.7671 56.5923 53.8771 57.6027 56.2539 57.6027C58.685 57.6027 60.7475 56.6475 62.0664 55.1808V73.5875H56.2539H50.4414V55.1808Z" fill="#8ACAB7"/>
<path d="M50.4418 55.1808C51.7675 56.5923 53.8775 57.6027 56.2543 57.6027C58.6854 57.6027 60.7478 56.6475 62.0668 55.1808C62.6035 55.2995 63.2676 55.4598 64.0164 55.6531C62.8898 57.9156 59.8445 59.5402 56.2543 59.5402C52.6641 59.5402 49.6188 57.9156 48.4922 55.6531C49.241 55.4598 49.9051 55.2999 50.4418 55.1808Z" fill="#8ACAB7"/>
<path d="M42.207 60.5089L33.4883 59.5406C33.4883 59.5406 28.6445 64.3844 26.2227 73.5875H42.207V60.5089Z" fill="url(#paint1_linear_2948_65680)"/>
<path d="M48.5039 54.6969C45.0508 55.4617 36.3514 57.4409 33.4883 59.5406L38.332 73.5875H54.3164L48.5039 54.6969Z" fill="url(#paint2_linear_2948_65680)"/>
<path d="M70.3008 60.5089L79.0195 59.5406C79.0195 59.5406 83.8633 64.3844 86.2852 73.5875H70.3008V60.5089Z" fill="url(#paint3_linear_2948_65680)"/>
<path d="M64.0039 54.6969C67.457 55.4617 76.1564 57.4409 79.0195 59.5406L74.1758 73.5875H58.1914L64.0039 54.6969Z" fill="url(#paint4_linear_2948_65680)"/>
<path d="M73.6914 38.1589C73.6914 40.2989 72.1734 42.5875 70.3008 42.5875C68.4282 42.5875 66.9102 40.2989 66.9102 38.1589C66.9102 36.0189 68.4282 34.8375 70.3008 34.8375C72.1734 34.8375 73.6914 36.0189 73.6914 38.1589Z" fill="#F6CFBE"/>
<path d="M45.1133 38.1589C45.1133 40.2989 43.5952 42.5875 41.7227 42.5875C39.8501 42.5875 38.332 40.2989 38.332 38.1589C38.332 36.0189 39.8501 34.8375 41.7227 34.8375C43.5952 34.8375 45.1133 36.0189 45.1133 38.1589Z" fill="#F6CFBE"/>
<path d="M68.3633 26.1188H44.1445C43.0605 26.3818 42.207 27.4251 42.207 28.5406V38.2315C42.207 46.4625 48.5039 52.7594 56.2539 52.7594C64.0039 52.7594 70.3008 46.4625 70.3008 38.2315V28.5406C70.3008 27.4217 69.4517 26.3789 68.3633 26.1188Z" fill="url(#paint5_linear_2948_65680)"/>
<path d="M56.2539 13.525C63.8513 13.525 72.2383 19.4286 72.2383 28.5406C72.2131 34.3105 70.3008 38.2281 70.3008 38.2281C70.3008 35.3219 68.8477 28.5406 68.8477 28.5406C60.6133 30.4781 44.1445 26.6031 44.1445 26.6031C44.1445 26.6031 42.207 29.5094 42.207 38.2281C42.207 38.2281 39.3008 34.8375 39.3008 29.025C39.3008 21.7768 42.6914 20.3063 42.6914 20.3063C42.6914 20.3063 43.6602 13.525 56.2539 13.525Z" fill="url(#paint6_linear_2948_65680)"/>
<path d="M56.2456 49.3688C55.1509 49.3688 54.0591 49.0162 53.0671 48.3119C52.8492 48.1569 52.7978 47.8546 52.9528 47.6362C53.1078 47.4177 53.4101 47.3673 53.6285 47.5219C55.2866 48.7003 57.2013 48.6999 58.8826 47.5204C59.101 47.3664 59.4037 47.4197 59.5573 47.6386C59.7108 47.8575 59.658 48.1598 59.4391 48.3133C58.436 49.0166 57.3393 49.3688 56.2456 49.3688Z" fill="url(#paint7_linear_2948_65680)"/>
<path d="M49.957 40.1656C50.7596 40.1656 51.4102 39.5151 51.4102 38.7125C51.4102 37.91 50.7596 37.2594 49.957 37.2594C49.1545 37.2594 48.5039 37.91 48.5039 38.7125C48.5039 39.5151 49.1545 40.1656 49.957 40.1656Z" fill="url(#paint8_linear_2948_65680)"/>
<path d="M62.5508 40.1656C63.3533 40.1656 64.0039 39.5151 64.0039 38.7125C64.0039 37.91 63.3533 37.2594 62.5508 37.2594C61.7482 37.2594 61.0977 37.91 61.0977 38.7125C61.0977 39.5151 61.7482 40.1656 62.5508 40.1656Z" fill="url(#paint9_linear_2948_65680)"/>
<path d="M52.8627 34.8347C52.775 34.8347 52.6869 34.8109 52.607 34.7615C49.9143 33.0851 48.1604 34.2127 47.4116 34.6947L47.3098 34.7601C47.0832 34.903 46.7843 34.8351 46.6414 34.6094C46.4985 34.3832 46.5658 34.0844 46.792 33.941L46.888 33.88C47.7133 33.3486 49.9075 31.9391 53.1194 33.9395C53.3466 34.081 53.4159 34.3798 53.2744 34.6065C53.1824 34.7538 53.0245 34.8347 52.8627 34.8347Z" fill="url(#paint10_linear_2948_65680)"/>
<path d="M59.6452 34.8346C59.4834 34.8346 59.3255 34.7537 59.2335 34.6065C59.0921 34.3793 59.1613 34.0805 59.3885 33.9395C62.6009 31.9381 64.7946 33.3491 65.6205 33.8799L65.7159 33.941C65.9421 34.0839 66.0089 34.3832 65.8665 34.6094C65.7236 34.8356 65.4243 34.9029 65.1981 34.76L65.0964 34.6951C64.348 34.2137 62.5931 33.0856 59.9005 34.762C59.821 34.8109 59.7329 34.8346 59.6452 34.8346Z" fill="url(#paint11_linear_2948_65680)"/>
<path d="M56.252 45.0094C56.251 45.0094 56.2505 45.0094 56.2496 45.0094C55.7773 45.0084 55.3215 44.7881 54.9316 44.372C54.749 44.1768 54.7587 43.8702 54.9539 43.6871C55.1491 43.5049 55.4557 43.5142 55.6388 43.7094C55.7802 43.86 56.0011 44.0402 56.251 44.0407H56.252C56.5039 44.0407 56.7272 43.86 56.8705 43.7079C57.0541 43.5132 57.3607 43.5045 57.5554 43.688C57.7497 43.8716 57.7589 44.1782 57.5753 44.3729C57.182 44.7895 56.7247 45.0094 56.252 45.0094Z" fill="url(#paint12_linear_2948_65680)"/>
<path d="M50.4414 53.2438L54.3164 73.5875L46.5664 66.3219L47.5352 62.4469L44.1445 61.962L48.0195 54.6964C48.4128 53.9849 49.5332 53.2443 50.4414 53.2438Z" fill="url(#paint13_linear_2948_65680)"/>
<path d="M62.0664 53.2438L58.1914 73.5875L65.9414 66.3219L64.9727 62.4469L68.3633 61.962L64.4883 54.6964C64.095 53.9849 62.9746 53.2443 62.0664 53.2438Z" fill="url(#paint14_linear_2948_65680)"/>
<path d="M48.0195 70.1969H45.5977C45.3303 70.1969 45.1133 69.9804 45.1133 69.7125C45.1133 69.4447 45.3303 69.2281 45.5977 69.2281H48.0195C48.5538 69.2281 48.9883 68.7937 48.9883 68.2594V63.4156C48.9883 61.0117 47.0324 59.0563 44.6289 59.0563C42.2254 59.0563 40.2695 61.0117 40.2695 63.4156V68.2594C40.2695 68.7937 40.704 69.2281 41.2383 69.2281H43.1758C43.4432 69.2281 43.6602 69.4447 43.6602 69.7125C43.6602 69.9804 43.4432 70.1969 43.1758 70.1969H41.2383C40.1697 70.1969 39.3008 69.3279 39.3008 68.2594V63.4156C39.3008 60.4779 41.6912 58.0875 44.6289 58.0875C47.5666 58.0875 49.957 60.4779 49.957 63.4156V68.2594C49.957 69.3279 49.0881 70.1969 48.0195 70.1969Z" fill="url(#paint15_linear_2948_65680)"/>
<path d="M44.6289 58.0875C41.6912 58.0875 39.3008 60.4779 39.3008 63.4156H40.2695C40.2695 61.0117 42.2254 59.0563 44.6289 59.0563C47.0324 59.0563 48.9883 61.0117 48.9883 63.4156H49.957C49.957 60.4779 47.5666 58.0875 44.6289 58.0875Z" fill="url(#paint16_linear_2948_65680)"/>
<path d="M43.1758 69.2281H42.207V70.1969H43.1758C43.4432 70.1969 43.6602 69.9804 43.6602 69.7125C43.6602 69.4447 43.4432 69.2281 43.1758 69.2281Z" fill="url(#paint17_linear_2948_65680)"/>
<path d="M45.5977 69.2281H46.5664V70.1969H45.5977C45.3303 70.1969 45.1133 69.9804 45.1133 69.7125C45.1133 69.4447 45.3303 69.2281 45.5977 69.2281Z" fill="url(#paint18_linear_2948_65680)"/>
<path d="M63.9973 50.4034C63.5022 50.7366 62.9854 51.0384 62.4492 51.3063H63.0368C66.7761 51.3063 69.818 54.3481 69.818 58.0875V63.9C69.818 64.1679 70.035 64.3844 70.3024 64.3844C70.5698 64.3844 70.7868 64.1679 70.7868 63.9V58.0875C70.7868 54.1403 67.818 50.879 63.9973 50.4034Z" fill="url(#paint19_linear_2948_65680)"/>
<path d="M48.5431 50.4242C46.0476 50.8655 44.1445 53.0451 44.1445 55.6656V58.5719C44.1445 58.8397 44.3615 59.0562 44.6289 59.0562C44.8963 59.0562 45.1133 58.8397 45.1133 58.5719V55.6656C45.1133 53.2617 47.0692 51.3062 49.4727 51.3062C49.601 51.3062 49.7163 51.2544 49.803 51.1726C49.3695 50.9449 48.949 50.6954 48.5431 50.4242Z" fill="url(#paint20_linear_2948_65680)"/>
<path d="M70.3008 68.2594C71.6383 68.2594 72.7227 67.1751 72.7227 65.8375C72.7227 64.5 71.6383 63.4156 70.3008 63.4156C68.9632 63.4156 67.8789 64.5 67.8789 65.8375C67.8789 67.1751 68.9632 68.2594 70.3008 68.2594Z" fill="url(#paint21_linear_2948_65680)"/>
<path d="M70.3008 68.2594C71.6383 68.2594 72.7227 67.1751 72.7227 65.8375C72.7227 64.5 71.6383 63.4156 70.3008 63.4156C68.9632 63.4156 67.8789 64.5 67.8789 65.8375C67.8789 67.1751 68.9632 68.2594 70.3008 68.2594Z" fill="url(#paint22_linear_2948_65680)"/>
<mask id="mask0_2948_65680" style="mask-type:luminance" maskUnits="userSpaceOnUse" x="67" y="63" width="6" height="6">
<path d="M70.3008 68.2594C71.6383 68.2594 72.7227 67.1751 72.7227 65.8375C72.7227 64.5 71.6383 63.4156 70.3008 63.4156C68.9632 63.4156 67.8789 64.5 67.8789 65.8375C67.8789 67.1751 68.9632 68.2594 70.3008 68.2594Z" fill="white"/>
</mask>
<g mask="url(#mask0_2948_65680)">
<path d="M67.8789 63.4156H72.7227V68.2594H67.8789V63.4156Z" fill="url(#paint23_linear_2948_65680)"/>
</g>
<path d="M70.3008 68.7438C68.698 68.7438 67.3945 67.4403 67.3945 65.8375C67.3945 64.2347 68.698 62.9313 70.3008 62.9313C71.9036 62.9313 73.207 64.2347 73.207 65.8375C73.207 67.4403 71.9036 68.7438 70.3008 68.7438ZM70.3008 63.9C69.2322 63.9 68.3633 64.769 68.3633 65.8375C68.3633 66.9061 69.2322 67.775 70.3008 67.775C71.3693 67.775 72.2383 66.9061 72.2383 65.8375C72.2383 64.769 71.3693 63.9 70.3008 63.9Z" fill="url(#paint24_linear_2948_65680)"/>
<defs>
<linearGradient id="paint0_linear_2948_65680" x1="56.2539" y1="58.0066" x2="56.2539" y2="52.9207" gradientUnits="userSpaceOnUse">
<stop stop-color="#F6CFBE"/>
<stop offset="1" stop-color="#EDAD99"/>
</linearGradient>
<linearGradient id="paint1_linear_2948_65680" x1="32.8785" y1="86.4346" x2="34.5345" y2="70.519" gradientUnits="userSpaceOnUse">
<stop stop-color="#EFF0F0"/>
<stop offset="1" stop-color="#E4E5E6"/>
</linearGradient>
<linearGradient id="paint2_linear_2948_65680" x1="42.0113" y1="82.827" x2="40.489" y2="95.9206" gradientUnits="userSpaceOnUse">
<stop stop-color="#EFF0F0"/>
<stop offset="1" stop-color="#E4E5E6"/>
</linearGradient>
<linearGradient id="paint3_linear_2948_65680" x1="79.6298" y1="86.4346" x2="77.9738" y2="70.519" gradientUnits="userSpaceOnUse">
<stop stop-color="#EFF0F0"/>
<stop offset="1" stop-color="#E4E5E6"/>
</linearGradient>
<linearGradient id="paint4_linear_2948_65680" x1="70.4965" y1="82.827" x2="72.0189" y2="95.9206" gradientUnits="userSpaceOnUse">
<stop stop-color="#EFF0F0"/>
<stop offset="1" stop-color="#E4E5E6"/>
</linearGradient>
<linearGradient id="paint5_linear_2948_65680" x1="58.6065" y1="21.8417" x2="59.9385" y2="14.9394" gradientUnits="userSpaceOnUse">
<stop stop-color="#F6CFBE"/>
<stop offset="1" stop-color="#EDAD99"/>
</linearGradient>
<linearGradient id="paint6_linear_2948_65680" x1="55.7695" y1="4.20081" x2="55.7695" y2="44.5003" gradientUnits="userSpaceOnUse">
<stop stop-color="#957E7F"/>
<stop offset="1" stop-color="#373638"/>
</linearGradient>
<linearGradient id="paint7_linear_2948_65680" x1="56.8409" y1="39.1189" x2="56.5987" y2="42.7517" gradientUnits="userSpaceOnUse">
<stop stop-color="#F6CFBE"/>
<stop offset="1" stop-color="#EDAD99"/>
</linearGradient>
<linearGradient id="paint8_linear_2948_65680" x1="49.8388" y1="54.4552" x2="49.8994" y2="46.4029" gradientUnits="userSpaceOnUse">
<stop stop-color="#58595B"/>
<stop offset="1" stop-color="#414042"/>
</linearGradient>
<linearGradient id="paint9_linear_2948_65680" x1="62.4321" y1="54.5264" x2="62.4927" y2="46.4737" gradientUnits="userSpaceOnUse">
<stop stop-color="#58595B"/>
<stop offset="1" stop-color="#414042"/>
</linearGradient>
<linearGradient id="paint10_linear_2948_65680" x1="49.7627" y1="60.1873" x2="49.8436" y2="49.4507" gradientUnits="userSpaceOnUse">
<stop stop-color="#58595B"/>
<stop offset="1" stop-color="#414042"/>
</linearGradient>
<linearGradient id="paint11_linear_2948_65680" x1="62.3558" y1="60.2823" x2="62.4367" y2="49.5451" gradientUnits="userSpaceOnUse">
<stop stop-color="#58595B"/>
<stop offset="1" stop-color="#414042"/>
</linearGradient>
<linearGradient id="paint12_linear_2948_65680" x1="45.0973" y1="46.4785" x2="48.9423" y2="45.6914" gradientUnits="userSpaceOnUse">
<stop stop-color="#F6CFBE"/>
<stop offset="1" stop-color="#EDAD99"/>
</linearGradient>
<linearGradient id="paint13_linear_2948_65680" x1="54.2646" y1="89.3612" x2="53.306" y2="84.9941" gradientUnits="userSpaceOnUse">
<stop stop-color="#EFF0F0"/>
<stop offset="1" stop-color="#E4E5E6"/>
</linearGradient>
<linearGradient id="paint14_linear_2948_65680" x1="58.2437" y1="89.3612" x2="59.2023" y2="84.9941" gradientUnits="userSpaceOnUse">
<stop stop-color="#EFF0F0"/>
<stop offset="1" stop-color="#E4E5E6"/>
</linearGradient>
<linearGradient id="paint15_linear_2948_65680" x1="45.3424" y1="74.039" x2="45.2329" y2="72.7694" gradientUnits="userSpaceOnUse">
<stop stop-color="#D0D3D3"/>
<stop offset="1" stop-color="#AAAEB1"/>
</linearGradient>
<linearGradient id="paint16_linear_2948_65680" x1="42.9966" y1="50.1883" x2="43.1177" y2="51.1571" gradientUnits="userSpaceOnUse">
<stop stop-color="#58595B"/>
<stop offset="1" stop-color="#414042"/>
</linearGradient>
<linearGradient id="paint17_linear_2948_65680" x1="42.9835" y1="70.5209" x2="42.9743" y2="70.4134" gradientUnits="userSpaceOnUse">
<stop stop-color="#58595B"/>
<stop offset="1" stop-color="#414042"/>
</linearGradient>
<linearGradient id="paint18_linear_2948_65680" x1="45.79" y1="70.5209" x2="45.7992" y2="70.4134" gradientUnits="userSpaceOnUse">
<stop stop-color="#58595B"/>
<stop offset="1" stop-color="#414042"/>
</linearGradient>
<linearGradient id="paint19_linear_2948_65680" x1="65.7299" y1="47.347" x2="65.851" y2="48.3157" gradientUnits="userSpaceOnUse">
<stop stop-color="#58595B"/>
<stop offset="1" stop-color="#414042"/>
</linearGradient>
<linearGradient id="paint20_linear_2948_65680" x1="46.3339" y1="49.7713" x2="46.455" y2="50.74" gradientUnits="userSpaceOnUse">
<stop stop-color="#58595B"/>
<stop offset="1" stop-color="#414042"/>
</linearGradient>
<linearGradient id="paint21_linear_2948_65680" x1="75.2274" y1="67.5856" x2="76.4005" y2="68.0017" gradientUnits="userSpaceOnUse">
<stop stop-color="#6C6F73"/>
<stop offset="1" stop-color="#56585B"/>
</linearGradient>
<linearGradient id="paint22_linear_2948_65680" x1="60.8308" y1="64.5781" x2="64.6254" y2="65.0829" gradientUnits="userSpaceOnUse">
<stop stop-color="#58595B"/>
<stop offset="1" stop-color="#414042"/>
</linearGradient>
<linearGradient id="paint23_linear_2948_65680" x1="60.8308" y1="64.5781" x2="64.6254" y2="65.0829" gradientUnits="userSpaceOnUse">
<stop stop-color="#6C6F73"/>
<stop offset="1" stop-color="#56585B"/>
</linearGradient>
<linearGradient id="paint24_linear_2948_65680" x1="60.8308" y1="64.5781" x2="64.6254" y2="65.0829" gradientUnits="userSpaceOnUse">
<stop stop-color="#D0D3D3"/>
<stop offset="1" stop-color="#AAAEB1"/>
</linearGradient>
</defs>
</svg>
