<svg width="32" height="35" viewBox="0 0 32 35" fill="none" xmlns="http://www.w3.org/2000/svg">
<path d="M15.743 20.3743L11.3984 21.4669L11.9772 34.3283H15.743H19.5088L20.0876 21.4669L15.743 20.3743Z" fill="#8ACAB7"/>
<path d="M20.9786 29.898C19.8099 29.9424 18.2972 30.236 16.8563 30.7484C15.4136 31.2556 14.0531 31.978 13.1172 32.6777C14.2266 32.3054 15.6272 31.7693 17.0422 31.2716C18.4554 30.7695 19.8818 30.306 20.9786 29.898Z" fill="#54B196"/>
<path d="M16.7545 30.3532C15.3015 29.7481 12.8512 29.1596 11.2812 29.0385C12.7342 29.6437 15.1848 30.2323 16.7545 30.3532Z" fill="#54B196"/>
<path d="M22.5301 26.8962L21.3322 28.1815L22.6783 29.2558C23.1419 29.6259 23.2901 30.2649 23.0368 30.8006L21.3679 34.3281H31.4819L29.7393 28.4557C28.8329 25.4005 26.3778 23.0494 23.2811 22.2705L20.0859 21.4669L22.6581 25.3157C22.9872 25.8085 22.9343 26.4624 22.5301 26.8962Z" fill="white"/>
<path d="M8.80327 29.2558L10.1493 28.1815L8.95148 26.8962C8.54729 26.4624 8.49439 25.8085 8.82374 25.3157L11.396 21.4669L8.20075 22.2705C5.10398 23.0492 2.64902 25.4005 1.74254 28.4557L0 34.3281H10.1139L8.4451 30.8006C8.19141 30.2649 8.33963 29.6259 8.80327 29.2558Z" fill="white"/>
<path d="M11.3942 21.4669L8.82202 25.3157C8.49267 25.8085 8.54557 26.4626 8.94976 26.8962L10.1476 28.1815L8.80155 29.2558C8.33791 29.6259 8.18969 30.2649 8.44305 30.8006L10.1119 34.3281H11.9728L11.3942 21.4669Z" fill="#E4E4E0"/>
<path d="M23.0378 30.8006C23.2911 30.2649 23.1429 29.6257 22.6793 29.2558L21.3332 28.1815L22.5311 26.8962C22.9352 26.4624 22.9881 25.8085 22.6588 25.3157L20.0866 21.4669L19.5078 34.3281H21.3688L23.0378 30.8006Z" fill="#E4E4E0"/>
<path d="M5.48935 33.9971C5.82869 32.7956 6.00999 31.1551 5.91631 29.522C5.82984 27.8884 5.46921 26.2776 5 25.1208C5.08221 26.3673 5.23714 27.9585 5.32198 29.5547C5.4132 31.1506 5.434 32.7491 5.48935 33.9971Z" fill="#E4E4E0"/>
<path d="M25.9906 33.9971C26.0459 32.7491 26.0669 31.1506 26.1579 29.5547C26.2428 27.9585 26.3979 26.3673 26.4801 25.1208C26.0107 26.2778 25.6501 27.8885 25.5636 29.5222C25.4699 31.1551 25.6512 32.7958 25.9906 33.9971Z" fill="#E4E4E0"/>
<path d="M13.3821 20.1277C11.6947 20.541 10.4506 21.9174 10.2124 23.6347L10.1523 24.0687C9.9106 25.8141 9.88866 27.5869 10.0876 29.3377L10.3968 32.0577L10.8348 32.0082L10.5256 29.288C10.3308 27.5738 10.3521 25.8379 10.589 24.1288L10.6491 23.695C10.8621 22.1573 11.9763 20.9246 13.4871 20.5547L13.7576 20.4885L13.6526 20.0616L13.3821 20.1277Z" fill="#495375"/>
<path d="M12.16 32.876C12.16 33.6734 11.5121 34.3198 10.7129 34.3198C9.91367 34.3198 9.26562 33.6734 9.26562 32.876C9.26562 32.0787 9.91351 31.4321 10.7129 31.4321C11.5121 31.4323 12.16 32.0787 12.16 32.876Z" fill="#C7D2D7"/>
<path d="M11.7944 32.8761C11.7944 33.4716 11.3105 33.9543 10.7137 33.9543C10.1168 33.9543 9.63281 33.4715 9.63281 32.8761C9.63281 32.2805 10.1168 31.7978 10.7137 31.7978C11.3107 31.7978 11.7944 32.2805 11.7944 32.8761Z" fill="#99A3B0"/>
<path d="M11.3411 32.876C11.3411 33.2218 11.0601 33.5022 10.7135 33.5022C10.3668 33.5022 10.0859 33.2218 10.0859 32.876C10.0859 32.5301 10.367 32.2499 10.7135 32.2499C11.0601 32.2499 11.3411 32.5303 11.3411 32.876Z" fill="#495375"/>
<path d="M20.6134 23.9801L20.4958 22.6257C20.3844 21.3388 19.4586 20.2939 18.1921 20.0256L18.0605 19.9977L17.9688 20.4277L18.1004 20.4556C19.1758 20.6836 19.962 21.5708 20.0567 22.6636L20.1736 24.011C18.9837 24.1982 18.0696 25.2257 18.0696 26.4647V27.197H18.5103V26.4647C18.5103 25.3358 19.4309 24.4173 20.5624 24.4173C21.6939 24.4173 22.6145 25.3358 22.6145 26.4647V27.197H23.0552V26.4647C23.0554 25.1103 21.9641 24.0074 20.6134 23.9801Z" fill="#495375"/>
<path d="M19.2107 32.2126C18.6336 32.2126 18.1641 31.7442 18.1641 31.1684V27.1969H18.3843V31.1684C18.3843 31.6229 18.7551 31.9927 19.2106 31.9927V32.2126H19.2107Z" fill="#C7D2D7"/>
<path d="M19.4867 31.9043L19.2481 31.9339C19.2268 31.9365 19.2109 31.9545 19.2109 31.9759V32.2202C19.2109 32.2416 19.227 32.2595 19.2481 32.2622L19.4867 32.2919C19.6035 32.3064 19.7067 32.2156 19.7067 32.0981C19.7065 31.9806 19.6035 31.8898 19.4867 31.9043Z" fill="#99A3B0"/>
<path d="M21.9141 32.2126C22.4912 32.2126 22.9607 31.7442 22.9607 31.1684V27.1969H22.7403V31.1684C22.7403 31.6229 22.3695 31.9927 21.9141 31.9927V32.2126Z" fill="#C7D2D7"/>
<path d="M21.6418 31.9043L21.8804 31.9339C21.9017 31.9365 21.9176 31.9545 21.9176 31.9759V32.2202C21.9176 32.2416 21.9017 32.2595 21.8804 32.2622L21.6418 32.2919C21.5251 32.3064 21.4219 32.2156 21.4219 32.0981C21.4219 31.9806 21.5251 31.8898 21.6418 31.9043Z" fill="#99A3B0"/>
<path d="M12.2812 20.3743H19.1974L15.7393 22.6058L12.2812 20.3743Z" fill="#5FA5CC"/>
<path d="M12.2843 20.3743L15.7423 22.6058L13.4495 25.6015L11.9766 21.3213L12.2843 20.3743Z" fill="#54B196"/>
<path d="M19.2002 20.3743L15.7422 22.6058L18.035 25.6015L19.508 21.3213L19.2002 20.3743Z" fill="#54B196"/>
<path d="M18.3042 18.1784C17.621 19.2658 16.7012 19.8751 15.743 19.8751C14.7849 19.8751 13.865 19.2658 13.1817 18.1784C13.0953 18.0408 13.0112 17.9 12.9297 17.756V20.7903L15.743 22.6058L18.5564 20.7903V17.756C18.4747 17.9 18.3907 18.0408 18.3042 18.1784Z" fill="#F0BF9C"/>
<path d="M12.9297 14.0049V17.756C13.0114 17.8998 13.0954 18.0407 13.1817 18.1784C13.865 19.2658 14.7849 19.8751 15.743 19.8751C16.7012 19.8751 17.621 19.2658 18.3042 18.1784C18.3907 18.0408 18.4747 17.9 18.5564 17.756V14.0049H12.9297Z" fill="#422C4F"/>
<path d="M10.7067 12.0047C10.7067 12.9612 9.92942 13.7368 8.97053 13.7368C8.01181 13.7368 7.23438 12.9613 7.23438 12.0047C7.23438 11.048 8.01164 10.2725 8.97053 10.2725C9.92942 10.2725 10.7067 11.048 10.7067 12.0047Z" fill="#EBA588"/>
<path d="M9.92919 12.0047C9.92919 12.5339 9.49913 12.9631 8.9685 12.9631C8.43788 12.9631 8.00781 12.5341 8.00781 12.0047C8.00781 11.4752 8.43788 11.0462 8.9685 11.0462C9.49913 11.0462 9.92919 11.4752 9.92919 12.0047Z" fill="#E78882"/>
<path d="M22.5096 13.7368C23.4684 13.7368 24.2457 12.9613 24.2457 12.0047C24.2457 11.048 23.4684 10.2725 22.5096 10.2725C21.5507 10.2725 20.7734 11.048 20.7734 12.0047C20.7734 12.9613 21.5507 13.7368 22.5096 13.7368Z" fill="#EBA588"/>
<path d="M22.5076 12.9631C23.0381 12.9631 23.4683 12.534 23.4683 12.0047C23.4683 11.4753 23.0381 11.0462 22.5076 11.0462C21.977 11.0462 21.5469 11.4753 21.5469 12.0047C21.5469 12.534 21.977 12.9631 22.5076 12.9631Z" fill="#E78882"/>
<path d="M15.7378 1.65811C12.3058 1.65811 9.52344 4.43388 9.52344 7.85816V10.4027C9.52344 12.9344 10.5426 15.3598 12.352 17.1348C13.2552 18.0209 14.4712 18.5173 15.7378 18.5173C17.0044 18.5173 18.2204 18.0209 19.1236 17.1348C20.933 15.3598 21.9521 12.9344 21.9521 10.4027V7.85816C21.9521 4.43404 19.1698 1.65811 15.7378 1.65811Z" fill="#F0BF9C"/>
<path d="M19.4309 5.45983C19.8048 8.39098 21.774 12.2623 21.774 12.2623C22.2528 10.5256 22.8966 6.69003 22.4954 4.93369C22.3257 4.1909 21.9703 3.45022 21.3364 3.02572C20.7311 2.62034 19.79 2.61985 19.3731 3.21657C18.9983 3.75267 19.3482 4.8118 19.4309 5.45983Z" fill="#8C404C"/>
<path d="M12.0575 5.45983C11.6836 8.39098 9.71472 12.2623 9.71472 12.2623C9.23584 10.5256 8.59189 6.69003 8.99313 4.93369C9.1628 4.1909 9.51802 3.45022 10.1522 3.02572C10.7575 2.62034 11.6985 2.61985 12.1155 3.21657C12.49 3.75267 12.1402 4.8118 12.0575 5.45983Z" fill="#8C404C"/>
<path d="M20.2059 4.7721C20.0527 5.99234 19.3219 7.09428 18.3612 7.86486C17.4005 8.63543 16.2248 9.10029 15.0266 9.38885C12.3437 10.0352 9.46099 9.82838 6.89844 8.80552C7.65818 8.57791 8.12411 7.69688 8.38304 6.94886C8.64213 6.20083 8.7078 5.40036 8.91759 4.63713C9.41808 2.81674 10.7813 1.25256 12.519 0.50551C14.2566 -0.241535 16.3324 -0.155915 18.0024 0.731324C19.3792 1.46301 20.4 3.22785 20.2059 4.7721Z" fill="#8C404C"/>
<path d="M13.4567 10.7272C13.4567 11.0166 13.2215 11.2512 12.9315 11.2512C12.6413 11.2512 12.4062 11.0166 12.4062 10.7272C12.4062 10.4379 12.6414 10.2032 12.9315 10.2032C13.2215 10.2032 13.4567 10.4379 13.4567 10.7272Z" fill="#422C4F"/>
<path d="M18.5565 11.2512C18.8465 11.2512 19.0817 11.0166 19.0817 10.7272C19.0817 10.4378 18.8465 10.2032 18.5565 10.2032C18.2664 10.2032 18.0312 10.4378 18.0312 10.7272C18.0312 11.0166 18.2664 11.2512 18.5565 11.2512Z" fill="#422C4F"/>
<path d="M18.677 8.59164C18.037 8.57203 17.4605 8.86042 17.0859 9.32087L20.2202 9.41679C19.8747 8.93444 19.317 8.61125 18.677 8.59164Z" fill="#8C404C"/>
<path d="M16.6525 13.0172C16.0641 12.8782 15.4396 12.8945 14.8594 13.0643C15.0132 13.3886 15.3694 13.5989 15.729 13.6067C16.0885 13.6146 16.4845 13.3344 16.6525 13.0172Z" fill="#EBA588"/>
<path d="M18.2114 14.2837C16.6226 14.6695 14.9867 14.862 13.3516 14.8558C13.7304 15.8567 14.8557 16.5646 15.9243 16.4753C16.9929 16.3863 18.0047 15.3337 18.2114 14.2837Z" fill="white"/>
<path d="M18.6949 4.62296C18.2099 5.10497 17.6323 5.61526 16.9651 6.07571C16.2995 6.53746 15.5472 6.94939 14.7558 7.26915C13.9633 7.58598 13.1348 7.80933 12.3343 7.93695C11.5334 8.06652 10.7627 8.09822 10.0781 8.08629C10.7226 8.31112 11.5216 8.44805 12.3795 8.42142C13.2366 8.39773 14.1479 8.21178 14.9987 7.87094C15.8488 7.52813 16.6348 7.0319 17.2689 6.45609C17.906 5.88192 18.3866 5.23079 18.6949 4.62296Z" fill="#A64F5A"/>
<path d="M16.937 4.94482C15.9517 5.41753 14.6538 5.90919 13.2934 6.13238C11.9349 6.36751 10.5471 6.32829 9.46094 6.20477C9.95881 6.42894 10.5748 6.60949 11.2515 6.6925C11.9275 6.77714 12.6622 6.76423 13.38 6.64397C14.0975 6.52241 14.7957 6.29382 15.4064 5.99235C16.0182 5.69219 16.5405 5.31965 16.937 4.94482Z" fill="#A64F5A"/>
<path d="M17.0597 1.53442C16.5177 2.15974 15.7962 2.92558 14.9734 3.57622C14.1552 4.23274 13.2469 4.76509 12.5156 5.15397C13.3314 5.01492 14.3633 4.57179 15.2192 3.8834C16.0816 3.20319 16.7431 2.29716 17.0597 1.53442Z" fill="#A64F5A"/>
</svg>
