<svg width="33" height="32" viewBox="0 0 33 32" fill="none" xmlns="http://www.w3.org/2000/svg">
<path fill-rule="evenodd" clip-rule="evenodd" d="M7.70816 18.7526C5.92879 20.8509 3.21435 23.5382 4.66941 27.3508C5.20035 28.7389 7.01597 29.2499 7.94735 27.7694C7.97272 27.7313 7.99629 27.6914 8.01804 27.6497C9.40785 25.1618 11.624 25.9899 12.2872 28.4507C12.3941 28.8494 12.5481 29.2063 12.742 29.5216C13.5809 30.8988 15.1411 31.5058 16.6686 31.5312C18.1943 31.5058 19.7563 30.8988 20.5952 29.5216C20.7873 29.2063 20.9413 28.8494 21.0482 28.4507C21.7114 25.9899 23.9275 25.1618 25.3173 27.6497C25.3409 27.6914 25.3645 27.7313 25.388 27.7694C26.3194 29.2498 28.135 28.7388 28.666 27.3508C30.121 23.5382 27.4066 20.8509 25.6272 18.7526C23.7808 16.5762 23.5923 15.277 23.2245 11.6239C23.0143 9.55994 22.7461 6.03906 21.8038 3.83744C20.8417 1.59225 18.7542 0.46875 16.6686 0.46875C14.5812 0.46875 12.4937 1.59225 11.5315 3.83737C10.5893 6.03906 10.3211 9.55988 10.1127 11.6238C9.74304 15.277 9.5546 16.5762 7.70816 18.7526Z" fill="#FED2A4"/>
<path fill-rule="evenodd" clip-rule="evenodd" d="M7.94727 27.7694C9.20483 28.5522 10.8538 29.1629 12.7419 29.5216C12.548 29.2063 12.394 28.8494 12.2871 28.4507C11.6239 25.9899 9.40777 25.1618 8.01795 27.6497C7.9962 27.6915 7.97264 27.7313 7.94727 27.7694Z" fill="#F6A96C"/>
<path fill-rule="evenodd" clip-rule="evenodd" d="M21.0482 28.4508C20.9413 28.8494 20.7873 29.2064 20.5952 29.5217C22.4815 29.1629 24.1305 28.5523 25.388 27.7694C25.3645 27.7314 25.3409 27.6915 25.3173 27.6498C23.9275 25.1618 21.7115 25.9899 21.0482 28.4508Z" fill="#F6A96C"/>
<path fill-rule="evenodd" clip-rule="evenodd" d="M26.5712 28.6356C27.4138 28.7968 28.3181 28.2641 28.6659 27.3508C30.121 23.5382 27.4066 20.8509 25.6272 18.7526C23.7807 16.5762 23.5923 15.277 23.2244 11.6239C23.0142 9.55994 22.7461 6.03906 21.8038 3.83744C20.8416 1.59225 18.7542 0.46875 16.6686 0.46875C15.2824 0.46875 13.898 0.963438 12.8416 1.95281C13.4124 1.768 14.0085 1.67737 14.6047 1.67737C16.6903 1.67737 18.7777 2.80087 19.7399 5.046C20.6822 7.24769 20.9504 10.7685 21.1606 12.8324C21.5284 16.4856 21.7169 17.7848 23.5633 19.9611C25.3427 22.0595 28.0571 24.7468 26.6021 28.5594C26.5912 28.5848 26.5821 28.6102 26.5712 28.6356Z" fill="#FFBD86"/>
<path d="M26.4051 18.9389C26.261 18.7722 26.1201 18.6091 25.9846 18.4492C24.7022 16.9386 24.2454 15.8999 23.9476 13.8189C23.9109 13.5627 23.6733 13.3846 23.4172 13.4213C23.1609 13.458 22.9829 13.6954 23.0196 13.9517C23.3432 16.2129 23.8689 17.4054 25.2697 19.0557C25.4069 19.2175 25.5496 19.3827 25.6955 19.5517C27.378 21.5001 29.4719 23.9247 28.2282 27.1834C28.0147 27.7413 27.5293 28.1361 26.9915 28.1889C26.5142 28.2359 26.0859 27.9982 25.7865 27.5225C25.7662 27.4896 25.7458 27.4551 25.7266 27.4212C25.0426 26.1967 24.0687 25.5658 23.0517 25.692C21.938 25.8298 20.9969 26.8401 20.5955 28.3293C20.5031 28.6741 20.3683 28.9931 20.1949 29.2777C19.521 30.3841 18.236 31.0342 16.6686 31.0624C15.1012 31.0342 13.8162 30.3841 13.1412 29.2761C12.9678 28.9939 12.8327 28.6754 12.7397 28.3287C12.3385 26.8401 11.3974 25.8297 10.2836 25.6919C9.26718 25.5659 8.29274 26.1966 7.60874 27.4211C7.60668 27.4249 7.60462 27.4287 7.60262 27.4325C7.58843 27.4595 7.57318 27.4854 7.55712 27.5094C7.55487 27.5129 7.55268 27.5162 7.55049 27.5197C7.24949 27.9982 6.82118 28.2361 6.3438 28.1889C5.80599 28.1359 5.32055 27.7412 5.10724 27.1836C3.86349 23.9246 5.95737 21.4999 7.6398 19.5516C7.78568 19.3827 7.92836 19.2174 8.06549 19.0557C9.9738 16.8066 10.2015 15.4018 10.5791 11.6702C10.596 11.5006 10.6133 11.3211 10.6314 11.1333C10.7107 10.3134 10.8093 9.29312 10.9504 8.26644C10.9856 8.00994 10.8062 7.7735 10.5497 7.73825C10.2936 7.70275 10.0568 7.88231 10.0216 8.13887C9.87799 9.18419 9.77837 10.2149 9.69837 11.0431C9.6803 11.23 9.66305 11.4086 9.6463 11.5767C9.27474 15.2491 9.09024 16.3991 7.35068 18.4494C7.21524 18.6091 7.07436 18.7722 6.9303 18.9389C5.18211 20.9633 2.78799 23.7358 4.23155 27.5183C4.57074 28.4051 5.3638 29.0345 6.25199 29.1219C6.94637 29.1899 7.58849 28.9242 8.06868 28.3851C9.28518 29.0732 10.7887 29.6074 12.4562 29.9426C13.3251 31.2227 14.8441 31.9697 16.6608 31.9999C16.6634 31.9999 16.666 32 16.6686 32C16.6712 32 16.6737 32 16.6764 31.9999C18.493 31.9697 20.012 31.2227 20.8809 29.9425C22.5474 29.6072 24.0504 29.0731 25.2665 28.3852C25.7467 28.9244 26.3886 29.1902 27.0832 29.1219C27.9714 29.0345 28.7645 28.4051 29.1038 27.5179C30.5474 23.7357 28.1532 20.9633 26.4051 18.9389ZM10.1686 26.6224C10.8852 26.7111 11.5392 27.4766 11.8344 28.5722C11.8609 28.6712 11.8907 28.7684 11.9229 28.8639C10.6679 28.5569 9.53649 28.1293 8.59393 27.6051C9.05836 26.9011 9.61005 26.5537 10.1686 26.6224ZM23.1669 26.6224C23.7252 26.5536 24.2765 26.9004 24.7415 27.6051C23.7988 28.1294 22.6674 28.5571 21.4125 28.8642C21.4447 28.7686 21.4744 28.6715 21.5009 28.5727C21.7962 27.4766 22.4502 26.7111 23.1669 26.6224Z" fill="black"/>
<path d="M10.7772 6.41681C11.0299 6.47312 11.2804 6.314 11.3368 6.06131C11.5149 5.26306 11.7254 4.57681 11.9625 4.022C12.7778 2.11944 14.5811 0.9375 16.6687 0.9375C18.7551 0.9375 20.5577 2.11944 21.373 4.02181C22.1969 5.94688 22.4971 9.01275 22.6958 11.0416C22.7175 11.2631 22.7382 11.4739 22.7582 11.6713C22.7829 11.9128 22.9865 12.0926 23.224 12.0926C23.2399 12.0926 23.256 12.0918 23.2721 12.0902C23.5297 12.0639 23.7172 11.8339 23.6909 11.5764C23.671 11.3801 23.6505 11.1706 23.6289 10.9502C23.4245 8.864 23.1158 5.71125 22.2348 3.65275C21.2692 1.39969 19.1365 0 16.6687 0C14.1998 0 12.0663 1.39969 11.1005 3.65325C10.8407 4.26137 10.6123 5.00294 10.4217 5.85731C10.3654 6.10994 10.5245 6.3605 10.7772 6.41681Z" fill="black"/>
</svg>
