<svg width="172" height="50" viewBox="0 0 172 50" fill="none" xmlns="http://www.w3.org/2000/svg">
<g clip-path="url(#clip0_4155_54986)">
<path d="M7.94088 40.343L2.68988 31.306V37.658C2.68988 38.3701 2.407 39.053 1.90346 39.5566C1.39993 40.0601 0.716989 40.343 0.00488281 40.343V27.272H2.76188L7.94588 36.162V29.957C7.94588 29.6045 8.01535 29.2555 8.15032 28.9299C8.2853 28.6043 8.48312 28.3085 8.73248 28.0595C8.98185 27.8104 9.27786 27.6129 9.6036 27.4783C9.92935 27.3437 10.2784 27.2746 10.6309 27.275V40.346L7.94088 40.343Z" fill="white"/>
<path d="M21.5623 37.7121H16.6723V37.7421C16.4206 38.4982 15.9376 39.1561 15.2916 39.6227C14.6455 40.0892 13.8692 40.3409 13.0723 40.3421L17.2023 28.6681C17.3468 28.2593 17.6143 27.9052 17.9681 27.6545C18.3219 27.4039 18.7447 27.2689 19.1783 27.2681C19.6147 27.2678 20.0404 27.4036 20.3962 27.6564C20.7519 27.9093 21.0201 28.2668 21.1633 28.6791L25.2003 40.3391H25.1783C24.379 40.3366 23.6009 40.0821 22.9546 39.612C22.3083 39.1418 21.8267 38.4797 21.5783 37.7201L21.5623 37.7121ZM20.8323 35.4651L19.1323 30.3531L17.4143 35.4621L20.8323 35.4651Z" fill="white"/>
<path d="M29.728 35.1589V38.1409C29.728 38.7244 29.4962 39.2839 29.0836 39.6965C28.671 40.1091 28.1114 40.3409 27.5279 40.3409H27.0439V28.9989C27.0439 28.5409 27.2259 28.1016 27.5498 27.7777C27.8736 27.4538 28.3129 27.2719 28.771 27.2719H34.0539C34.5161 27.2401 34.9798 27.3036 35.4164 27.4584C35.853 27.6132 36.2531 27.8561 36.5919 28.1719C36.926 28.5238 37.1854 28.9396 37.3547 29.3943C37.5239 29.849 37.5995 30.3332 37.577 30.8179C37.6186 31.5275 37.4223 32.2308 37.0191 32.8162C36.6159 33.4017 36.0288 33.8358 35.3509 34.0499C35.677 34.1373 35.9816 34.2909 36.2457 34.5011C36.5098 34.7113 36.7277 34.9737 36.8859 35.2719C37.1006 36.4336 37.2011 37.6136 37.1859 38.7949C37.1739 39.0067 37.2206 39.2178 37.3208 39.4048C37.421 39.5918 37.5709 39.7476 37.7539 39.8549V40.3479H36.6699C36.0899 40.3479 35.5333 40.1189 35.1213 39.7106C34.7093 39.3023 34.4752 38.7479 34.4699 38.1679V38.1379C34.4699 37.8949 34.4699 37.5969 34.4879 37.2379V36.7119C34.4879 35.6786 33.9343 35.1619 32.827 35.1619L29.728 35.1589ZM29.728 32.9119H32.978C33.4755 32.9598 33.9751 32.845 34.4019 32.5849C34.5807 32.4037 34.7175 32.1855 34.8027 31.9457C34.8878 31.7058 34.9194 31.4502 34.895 31.1969C34.9212 30.9516 34.8903 30.7035 34.8048 30.4721C34.7193 30.2407 34.5814 30.0322 34.4019 29.8629C33.9788 29.5928 33.4778 29.4714 32.978 29.5179H29.728V32.9119Z" fill="white"/>
<path d="M49.5741 37.7121H44.6811V37.7421C44.4294 38.4982 43.9464 39.1561 43.3004 39.6227C42.6543 40.0892 41.878 40.3409 41.0811 40.3421L45.2201 28.6681C45.3648 28.2588 45.6328 27.9044 45.9872 27.6537C46.3416 27.403 46.7649 27.2683 47.1991 27.2681C47.6351 27.2685 48.0603 27.4047 48.4154 27.6577C48.7706 27.9107 49.0382 28.2681 49.1811 28.6801L53.218 40.3391H53.1971C52.3974 40.3364 51.619 40.0815 50.9727 39.6107C50.3263 39.14 49.8449 38.4773 49.5971 37.7171L49.5741 37.7121ZM48.8441 35.4651L47.1441 30.3591L45.4261 35.4651H48.8441Z" fill="white"/>
<path d="M63.9577 37.7121H59.0697V37.7421C58.8181 38.4982 58.3351 39.1561 57.689 39.6227C57.043 40.0892 56.2666 40.3409 55.4697 40.3421L59.6117 28.6681C59.7563 28.2593 60.0238 27.9052 60.3776 27.6545C60.7314 27.4039 61.1541 27.2689 61.5877 27.2681C62.0238 27.2685 62.4489 27.4047 62.8041 27.6577C63.1593 27.9107 63.4269 28.2681 63.5697 28.6801L67.6097 40.3391H67.5917C66.7921 40.3364 66.0137 40.0815 65.3674 39.6107C64.721 39.14 64.2396 38.4773 63.9917 37.7171L63.9577 37.7121ZM63.2277 35.4651L61.5277 30.3591L59.8097 35.4651H63.2277Z" fill="white"/>
<path d="M72.5258 35.979V37.658C72.5262 38.0104 72.4571 38.3595 72.3224 38.6853C72.1878 39.011 71.9904 39.307 71.7413 39.5564C71.4922 39.8057 71.1964 40.0036 70.8708 40.1385C70.5452 40.2735 70.1962 40.343 69.8438 40.343V27.272C70.1962 27.272 70.5452 27.3414 70.8708 27.4764C71.1964 27.6114 71.4922 27.8092 71.7413 28.0586C71.9904 28.3079 72.1878 28.604 72.3224 28.9297C72.4571 29.2554 72.5262 29.6045 72.5258 29.957V33.023L76.8358 28.173C77.0873 27.8894 77.3962 27.6626 77.7421 27.5074C78.0879 27.3523 78.4627 27.2724 78.8418 27.273H80.8118L75.5918 32.895L81.3587 40.343H79.4967C79.0777 40.3415 78.6647 40.2426 78.2905 40.0539C77.9163 39.8652 77.5911 39.5921 77.3407 39.256L73.8777 34.574L72.5258 35.979Z" fill="white"/>
<path d="M95.22 27.272H95.238V35.925C95.2767 36.5323 95.1831 37.1408 94.9634 37.7084C94.7438 38.2759 94.4035 38.789 93.966 39.212C92.8472 40.0747 91.4742 40.5426 90.0615 40.5426C88.6487 40.5426 87.2757 40.0747 86.157 39.212C85.7176 38.7904 85.3757 38.2778 85.1553 37.7102C84.9348 37.1426 84.8412 36.5336 84.881 35.926V27.272C85.2332 27.2724 85.5819 27.3421 85.9071 27.4773C86.2323 27.6124 86.5278 27.8103 86.7765 28.0596C87.0253 28.309 87.2225 28.6048 87.357 28.9304C87.4914 29.2559 87.5604 29.6048 87.56 29.957V35.925C87.56 37.471 88.3933 38.244 90.06 38.244C91.7266 38.244 92.5546 37.471 92.544 35.925V29.957C92.5436 29.6045 92.6126 29.2554 92.7472 28.9297C92.8819 28.604 93.0794 28.3079 93.3285 28.0586C93.5775 27.8092 93.8733 27.6114 94.1989 27.4764C94.5245 27.3414 94.8735 27.272 95.226 27.272H95.22Z" fill="white"/>
<path d="M101.422 30.176V37.657C101.423 38.0094 101.354 38.3585 101.219 38.6842C101.084 39.01 100.887 39.306 100.638 39.5554C100.389 39.8047 100.093 40.0026 99.7673 40.1375C99.4417 40.2725 99.0927 40.342 98.7402 40.342V27.272H102.756L105.129 37.672L107.429 27.272H111.481V40.343C110.769 40.343 110.086 40.0601 109.583 39.5566C109.079 39.053 108.796 38.3701 108.796 37.658V30.176L106.778 39.03C106.694 39.4025 106.485 39.7353 106.186 39.9737C105.888 40.2121 105.517 40.3419 105.135 40.342C104.754 40.3422 104.384 40.2132 104.086 39.976C103.787 39.7388 103.578 39.4074 103.492 39.036L101.422 30.176Z" fill="white"/>
<path d="M42.4076 32.112V28.84C42.4076 28.4252 42.2432 28.0272 41.9505 27.7333C41.6577 27.4395 41.2604 27.2736 40.8456 27.272H39.7256L40.7076 30.819C40.8102 31.191 41.0322 31.5191 41.3392 31.7528C41.6463 31.9866 42.0216 32.1121 42.4076 32.112Z" fill="white"/>
<path d="M25.39 13.2309H23.93L26.33 9.59692C25.3571 9.59771 24.4004 9.84595 23.5499 10.3183C22.6994 10.7906 21.9829 11.4715 21.468 12.2969L19.324 15.6969H24.129C25.112 15.7207 26.0517 16.1066 26.7677 16.7806C27.4837 17.4546 27.9258 18.3691 28.009 19.3489H17.804C15.759 19.3099 14.954 18.6219 14.458 16.4209C14.2466 15.472 13.7023 14.6301 12.9238 14.0477C12.1454 13.4652 11.1841 13.1808 10.214 13.2459H4.763C1.931 13.2459 0 15.2369 0 18.3339V25.0869C0.700172 25.0869 1.37167 24.8088 1.86676 24.3137C2.36186 23.8186 2.64 23.1471 2.64 22.4469V18.7599C2.64 16.8259 3.385 15.8499 4.878 15.8499H6.103C5.87809 16.4571 5.77611 17.103 5.803 17.7499C5.82663 18.8934 6.30343 19.9806 7.12856 20.7725C7.95368 21.5645 9.05956 21.9962 10.203 21.9729C10.8669 22.0055 11.5293 21.8845 12.1388 21.6193C12.7482 21.3541 13.2883 20.9519 13.717 20.4439C14.6259 21.281 15.7965 21.7778 17.03 21.8499V21.9069H30.953V20.9219C30.941 16.4239 29.04 13.6129 25.39 13.2309ZM10.247 19.8109H10.058C9.082 19.8109 8.412 18.9109 8.412 17.6309C8.412 16.3509 9.082 15.4309 10.193 15.4309C11.304 15.4309 11.95 16.2749 11.95 17.5539C11.954 19.0639 11.38 19.8119 10.251 19.8119L10.247 19.8109Z" fill="white"/>
<path d="M38.0681 19.3521C36.0981 19.3521 35.7681 18.6641 35.7681 17.3611V12.2551C35.7681 11.5457 35.4864 10.8654 34.985 10.3636C34.4836 9.8618 33.8034 9.57963 33.0941 9.5791V18.7601C33.0583 19.1901 33.118 19.6227 33.2689 20.027C33.4198 20.4313 33.6582 20.7972 33.967 21.0985C34.2758 21.3999 34.6475 21.6293 35.0553 21.7703C35.4631 21.9113 35.8971 21.9604 36.3261 21.9141H78.2941V19.3521H73.8461C73.4822 19.1791 73.1824 18.8953 72.9899 18.5414C72.7973 18.1874 72.7217 17.7816 72.7741 17.3821C72.7562 16.8782 72.9014 16.3819 73.1881 15.9671C73.3186 15.7578 73.5026 15.587 73.7211 15.4724C73.9396 15.3578 74.1846 15.3035 74.4311 15.3151C74.7752 15.2997 75.1142 15.4032 75.391 15.6083C75.6678 15.8133 75.8655 16.1074 75.9511 16.4411L78.1511 15.4261C77.8489 14.7026 77.3383 14.0855 76.6842 13.6533C76.03 13.2211 75.2621 12.9933 74.4781 12.9991C73.8943 12.9826 73.3137 13.0917 72.7758 13.3191C72.2378 13.5465 71.755 13.8869 71.3601 14.3171C70.5644 15.1876 70.1346 16.3311 70.1601 17.5101C70.1775 18.1405 70.3065 18.7628 70.5411 19.3481L38.0681 19.3521Z" fill="white"/>
<path d="M111.474 13.249C110.764 13.249 110.083 13.5313 109.58 14.0337C109.078 14.5361 108.795 15.2175 108.795 15.928V17.479C108.795 18.722 108.335 19.353 107.437 19.353H85.6545V13.253C84.9384 13.253 84.2516 13.5375 83.7453 14.0438C83.2389 14.5502 82.9545 15.2369 82.9545 15.953V20.386C82.9545 22.068 82.0745 22.909 80.3145 22.909C80.3133 23.2066 80.3811 23.5004 80.5126 23.7673C80.644 24.0343 80.8356 24.2671 81.0723 24.4475C81.3089 24.628 81.5841 24.7511 81.8763 24.8072C82.1686 24.8633 82.4698 24.8509 82.7565 24.771C83.4454 24.617 84.074 24.2643 84.5645 23.7567C85.0551 23.2491 85.386 22.6088 85.5165 21.915H108.001C108.499 21.9396 108.995 21.8469 109.45 21.6446C109.905 21.4422 110.306 21.1358 110.62 20.75C111.195 20.0363 111.495 19.1399 111.464 18.224V13.249H111.474Z" fill="white"/>
<path d="M110.232 9.45898H110.016C109.332 9.45898 108.777 10.0137 108.777 10.698C108.777 11.3823 109.332 11.937 110.016 11.937H110.232C110.917 11.937 111.471 11.3823 111.471 10.698C111.471 10.0137 110.917 9.45898 110.232 9.45898Z" fill="white"/>
</g>
<g clip-path="url(#clip1_4155_54986)">
<path d="M153.776 36.7985C153.498 35.8326 153.171 34.8761 152.838 33.9384C152.594 33.2407 152.343 33.2829 152.115 32.5665C152.27 32.3777 152.41 32.1772 152.532 31.9668C152.678 31.7187 152.81 31.4634 152.928 31.202C153.151 30.7105 153.341 30.2061 153.499 29.6918C153.809 28.6959 154.044 27.6796 154.202 26.6511C154.526 24.6149 154.584 22.5477 154.376 20.4976C154.181 18.4441 153.63 16.4366 152.746 14.5578C151.875 12.6953 150.539 11.0679 148.858 9.81934C150.177 11.3141 151.167 13.051 151.766 14.9245C152.348 16.7646 152.655 18.6748 152.678 20.5979C152.714 22.5155 152.543 24.4315 152.166 26.3149C151.983 27.2456 151.74 28.1647 151.439 29.0668C151.287 29.5094 151.118 29.9431 150.932 30.3473C150.853 30.5133 150.771 30.6703 150.688 30.8162C148.93 30.3198 147.245 29.6085 145.675 28.6996C144.897 28.2461 144.16 27.7307 143.471 27.1589C143.603 26.9146 143.735 26.6717 143.875 26.4312C144.736 24.9514 145.555 23.6072 146.352 22.3707L147.118 22.9263C147.194 22.9874 147.283 23.033 147.378 23.0603C147.473 23.0877 147.573 23.0961 147.672 23.0852C147.77 23.0744 147.866 23.0443 147.952 22.997C148.038 22.9497 148.114 22.886 148.174 22.8099C148.234 22.7338 148.277 22.6467 148.301 22.554C148.325 22.4613 148.329 22.3649 148.313 22.2706C148.298 22.1763 148.262 22.0861 148.209 22.0054C148.156 21.9247 148.086 21.8552 148.004 21.801L147.14 21.1727C147.977 19.9246 148.798 18.788 149.622 17.726C150.124 17.0823 150.368 16.2868 150.312 15.4842C150.255 14.6816 149.901 13.9251 149.314 13.3523C148.726 12.7795 147.945 12.4284 147.111 12.3629C146.277 12.2973 145.446 12.5216 144.77 12.995C144.067 12.7537 143.302 12.7358 142.588 12.9439C141.873 13.1519 141.247 13.575 140.802 14.1508C140.526 14.5036 140.325 14.9053 140.211 15.3329C140.097 15.7604 140.072 16.2054 140.138 16.6422C140.203 17.0791 140.358 17.4992 140.592 17.8785C140.827 18.2577 141.138 18.5887 141.506 18.8523L145.173 21.516C144.344 22.8021 143.488 24.2008 142.588 25.7434C142.51 25.8779 142.438 26.0162 142.362 26.1513C141.914 25.7046 141.496 25.2317 141.109 24.7353C139.863 23.1009 138.936 21.2629 138.373 19.3104C137.777 17.3025 137.493 15.221 137.53 13.1334C137.027 15.2338 136.947 17.4074 137.294 19.5368C137.631 21.7238 138.437 23.8196 139.66 25.6913C140.177 26.4759 140.769 27.212 141.43 27.8899C141.034 28.6401 140.632 29.4011 140.249 30.1649C137.722 35.1922 134.271 40.9256 138.39 45.9459C139.868 47.7487 142.233 48.7516 144.61 48.9739C146.959 49.1942 149.456 48.6611 151.237 47.171C152.923 45.7597 154.095 43.6859 154.303 41.5464C154.446 39.4914 154.405 38.767 153.776 36.7985ZM142.388 17.7204C142.175 17.5681 141.994 17.3764 141.858 17.1566C141.722 16.9368 141.633 16.6932 141.596 16.4399C141.554 16.1637 141.574 15.8822 141.656 15.6142C141.737 15.3463 141.877 15.0983 142.067 14.887C142.256 14.6757 142.491 14.506 142.755 14.3895C143.018 14.273 143.305 14.2124 143.595 14.2118C143.869 14.2128 144.139 14.2667 144.391 14.3703L145.012 14.6258L145.533 14.2108C145.915 13.9081 146.4 13.7504 146.894 13.7677C147.389 13.785 147.86 13.976 148.219 14.3047C148.577 14.6333 148.798 15.0768 148.839 15.5513C148.88 16.0258 148.739 16.4984 148.443 16.8797C147.617 17.9436 146.798 19.0783 145.962 20.3189L142.388 17.7204ZM152.141 43.3215C151.805 44.3228 151.215 45.2276 150.424 45.9538C149.033 47.102 147.24 47.6973 145.409 47.6183C143.046 47.5794 140.628 46.5868 139.289 44.7141C135.997 40.106 139.338 35.2156 141.571 30.7772C141.883 30.1593 142.205 29.5408 142.53 28.9266C143.162 29.4678 143.834 29.964 144.541 30.411C146.448 31.5879 148.535 32.4707 150.725 33.0274C150.956 33.7434 151.202 33.6955 151.446 34.3866C152.341 36.9293 152.726 38.1808 152.601 40.9003C152.568 41.7246 152.414 42.5404 152.144 43.3234L152.141 43.3215Z" fill="white"/>
<path d="M137.486 15.2451C138.24 15.2451 138.852 14.6571 138.852 13.9317C138.852 13.2064 138.24 12.6184 137.486 12.6184C136.732 12.6184 136.12 13.2064 136.12 13.9317C136.12 14.6571 136.732 15.2451 137.486 15.2451Z" fill="white"/>
<path d="M148.794 11.8674C149.548 11.8674 150.159 11.2794 150.159 10.554C150.159 9.82872 149.548 9.24072 148.794 9.24072C148.039 9.24072 147.428 9.82872 147.428 10.554C147.428 11.2794 148.039 11.8674 148.794 11.8674Z" fill="white"/>
<path d="M169.927 22.3729C169.603 22.1581 169.304 21.9086 169.038 21.6293C168.525 21.0457 168.16 20.3555 167.972 19.6131C167.741 18.8629 167.592 18.0696 167.408 17.2631C167.359 17.061 167.316 16.8571 167.261 16.6536C167.207 16.4501 167.145 16.2377 167.095 16.0558C166.988 15.6736 166.893 15.2751 166.772 14.8686C166.653 14.4468 166.503 14.0338 166.321 13.6331C166.222 13.4246 166.109 13.2224 165.983 13.0277C165.856 12.8352 165.714 12.6515 165.56 12.4777C164.976 11.8553 164.297 11.3208 163.548 10.892C163.207 10.6773 162.871 10.4803 162.553 10.275L161.57 9.62275L159.587 8.32396L158.861 7.85508C157.774 7.14473 150.807 2.22855 149.723 1.51491L149.167 1.14778C148.574 0.757676 146.798 -0.405141 145.482 0.854265C144.165 -0.405141 142.388 0.758145 141.796 1.14778L141.24 1.51491C140.155 2.22901 133.189 7.1452 132.103 7.85508L131.376 8.32396L129.392 9.62275L128.409 10.275C128.091 10.4799 127.756 10.6773 127.414 10.892C126.665 11.3208 125.986 11.8553 125.402 12.4777C125.248 12.6515 125.106 12.8352 124.979 13.0277C124.853 13.2222 124.74 13.4244 124.642 13.6331C124.46 14.0337 124.309 14.4466 124.191 14.8686C124.069 15.2746 123.974 15.6731 123.867 16.0558C123.819 16.2377 123.753 16.4505 123.701 16.6536C123.648 16.8566 123.601 17.0615 123.554 17.2631C123.37 18.0696 123.221 18.861 122.991 19.6131C122.802 20.3554 122.437 21.0455 121.924 21.6293C121.658 21.9089 121.36 22.1583 121.035 22.3729C120.708 22.5922 120.369 22.793 120.019 22.9745C120.804 22.7721 121.539 22.4204 122.181 21.9402C122.518 21.6752 122.807 21.3583 123.037 21.0024C123.27 20.6447 123.472 20.2682 123.638 19.8771C123.971 19.1002 124.203 18.2984 124.449 17.5327C124.511 17.34 124.574 17.1515 124.637 16.9654C124.701 16.7792 124.768 16.6029 124.843 16.398L125.245 15.2483C125.368 14.8945 125.518 14.5497 125.694 14.2168C125.777 14.0657 125.869 13.9193 125.969 13.7784C126.07 13.6419 126.181 13.5125 126.301 13.3911C126.83 12.8903 127.428 12.4628 128.079 12.1209C128.416 11.9292 128.764 11.7327 129.116 11.5165L130.126 10.8798L132.125 9.59461C132.369 9.43613 132.608 9.27531 132.85 9.11589L132.853 9.12152C133.941 8.41117 140.909 3.49498 141.995 2.77807L142.551 2.41188C143.865 1.54727 144.312 1.72825 144.555 1.98379C144.599 2.0245 144.634 2.07379 144.657 2.12837C144.679 2.18295 144.69 2.24156 144.687 2.30028C144.611 2.70996 144.393 3.08259 144.067 3.35667C143.295 4.07264 136.571 9.04978 135.723 9.83234C134.699 10.7752 133.665 11.7275 132.723 12.6029C132.392 12.5782 132.059 12.619 131.745 12.723C131.326 12.8602 130.951 13.0988 130.656 13.416C130.14 14.0265 129.795 14.7538 129.654 15.5287C129.509 16.1971 129.329 16.8579 129.115 17.5088C129.009 17.8178 128.871 18.1161 128.705 18.3997C128.535 18.681 128.335 18.9745 128.15 19.2624C127.966 19.5503 127.766 19.8354 127.565 20.1167C127.365 20.398 127.163 20.6794 126.954 20.9579C127.485 20.5121 127.985 20.0344 128.453 19.5278C128.696 19.2741 128.918 19.0214 129.149 18.742C129.379 18.4534 129.58 18.1437 129.748 17.8173C130.059 17.1705 130.326 16.5049 130.547 15.8246C130.648 15.5201 130.773 15.2234 130.921 14.937C131.05 14.6893 131.221 14.4636 131.426 14.2689C131.604 14.1039 131.825 13.9877 132.065 13.9322C132.289 13.8706 132.527 13.8706 132.751 13.9322C132.941 13.9937 133.106 14.11 133.225 14.2651C133.27 14.3337 133.3 14.4101 133.314 14.4899C133.328 14.5697 133.325 14.6514 133.307 14.7302C133.297 14.7838 133.285 14.8368 133.268 14.8887C133.253 14.944 133.223 15.0327 133.199 15.1063L133.029 15.5953C132.889 15.972 132.788 16.361 132.728 16.7567L132.718 16.8378L132.711 16.9063L132.698 17.0437L132.674 17.3175C132.659 17.4997 132.647 17.6815 132.638 17.8628C132.617 18.2253 132.606 18.5835 132.599 18.9412L132.576 21.0427C132.582 21.688 132.52 22.3322 132.389 22.9651C132.359 23.1147 132.311 23.254 132.268 23.396C132.219 23.532 132.162 23.6653 132.098 23.7955C131.972 24.0553 131.812 24.2985 131.621 24.519C131.526 24.6312 131.425 24.7385 131.318 24.8402C131.204 24.9443 131.087 25.046 130.965 25.1445C130.719 25.343 130.461 25.5269 130.192 25.6954C129.633 26.0357 129.054 26.3445 128.459 26.62L127.544 27.0509C127.394 27.1227 127.233 27.2033 127.074 27.2854C126.916 27.3674 126.763 27.457 126.614 27.555C125.431 28.3371 124.429 29.346 123.672 30.5183C124.618 29.578 125.721 28.7957 126.934 28.2034C127.08 28.1369 127.23 28.0745 127.379 28.0159C127.529 27.9573 127.677 27.909 127.84 27.8565L128.799 27.5283C129.46 27.3048 130.104 27.0355 130.725 26.7227C131.047 26.5537 131.357 26.3658 131.655 26.1601C131.808 26.0569 131.953 25.9406 132.099 25.8244C132.249 25.6985 132.391 25.5648 132.526 25.4239C133.089 24.8315 133.489 24.1126 133.688 23.3332C133.872 22.5957 133.97 21.8409 133.98 21.0826C134.003 20.3629 134.005 19.6628 134.022 18.968C134.028 18.6219 134.036 18.2787 134.052 17.9392C134.059 17.7695 134.069 17.6007 134.081 17.4328L134.101 17.1811L134.123 16.9466C134.164 16.6496 134.234 16.3571 134.334 16.0731L134.496 15.5677C134.524 15.4739 134.549 15.397 134.577 15.2826C134.608 15.1653 134.631 15.0461 134.645 14.9258C134.678 14.6638 134.664 14.3982 134.603 14.1409C134.54 13.8751 134.42 13.6251 134.249 13.4075C134.215 13.3635 134.178 13.3227 134.141 13.2837C134.949 12.5335 135.81 11.7411 136.663 10.9553C137.517 10.1695 144.237 5.19514 145.012 4.47775C145.184 4.31601 145.341 4.14066 145.482 3.95355C145.623 4.14058 145.78 4.31593 145.951 4.47775C146.724 5.19514 153.448 10.1713 154.298 10.9567C155.147 11.7421 156.012 12.5354 156.82 13.2852C156.784 13.3241 156.747 13.3653 156.713 13.4089C156.542 13.6267 156.421 13.8766 156.358 14.1423C156.298 14.3997 156.284 14.6652 156.316 14.9272C156.33 15.0475 156.353 15.1667 156.384 15.284C156.413 15.3984 156.437 15.4748 156.466 15.5691L156.628 16.0745C156.727 16.3585 156.797 16.651 156.838 16.948L156.861 17.1825L156.88 17.4343C156.892 17.6021 156.902 17.7709 156.909 17.9406C156.927 18.2801 156.933 18.6233 156.939 18.9694C156.956 19.6642 156.958 20.3643 156.982 21.084C156.991 21.8422 157.088 22.597 157.271 23.3346C157.471 24.114 157.87 24.8329 158.433 25.4253C158.568 25.566 158.711 25.6996 158.86 25.8258C159.007 25.942 159.153 26.0602 159.304 26.1615C159.602 26.367 159.913 26.5549 160.235 26.7241C160.855 27.037 161.499 27.3062 162.16 27.5297L163.12 27.8579C163.282 27.9104 163.43 27.9638 163.58 28.0173C163.73 28.0707 163.878 28.1383 164.025 28.2048C165.239 28.7974 166.342 29.5796 167.289 30.5197C166.53 29.3476 165.529 28.3387 164.346 27.5564C164.197 27.4584 164.042 27.3735 163.886 27.2868C163.729 27.2 163.566 27.1236 163.415 27.0523L162.501 26.6214C161.905 26.3457 161.327 26.0369 160.768 25.6968C160.499 25.5283 160.241 25.3444 159.995 25.1459C159.873 25.0479 159.756 24.9457 159.642 24.8416C159.535 24.7396 159.434 24.6324 159.338 24.5204C159.149 24.3002 158.989 24.0577 158.863 23.7988C158.796 23.6722 158.747 23.5339 158.693 23.3993C158.65 23.2587 158.603 23.118 158.572 22.9684C158.441 22.3355 158.379 21.6913 158.386 21.046L158.364 18.9394C158.357 18.5825 158.345 18.2243 158.325 17.8609C158.315 17.6796 158.303 17.4979 158.288 17.3156L158.265 17.0418L158.252 16.9044L158.245 16.836L158.234 16.7549C158.174 16.3592 158.073 15.9703 157.934 15.5934L157.763 15.1044C157.739 15.0308 157.71 14.9422 157.694 14.8868C157.678 14.8349 157.665 14.7819 157.657 14.7284C157.637 14.6496 157.634 14.5679 157.648 14.488C157.662 14.4082 157.692 14.3317 157.737 14.2632C157.856 14.1081 158.021 13.9919 158.211 13.9303C158.435 13.8687 158.673 13.8687 158.897 13.9303C159.137 13.9858 159.358 14.102 159.536 14.267C159.741 14.4617 159.913 14.6874 160.042 14.9351C160.19 15.2215 160.315 15.5182 160.416 15.8227C160.637 16.5027 160.904 17.1683 161.214 17.8155C161.382 18.1418 161.583 18.4515 161.814 18.7401C162.045 19.0214 162.269 19.2723 162.509 19.5259C162.977 20.0325 163.478 20.5102 164.008 20.956C163.799 20.6784 163.593 20.4013 163.398 20.1148C163.202 19.8283 163.002 19.5484 162.813 19.2605C162.623 18.9726 162.429 18.6801 162.258 18.3978C162.092 18.1142 161.954 17.8159 161.848 17.5069C161.633 16.8565 161.453 16.1959 161.308 15.5278C161.168 14.7527 160.822 14.0253 160.306 13.415C160.011 13.0977 159.636 12.859 159.217 12.722C158.903 12.618 158.57 12.5772 158.238 12.602C157.296 11.7266 156.262 10.7734 155.239 9.8314C154.389 9.04978 147.665 4.07264 146.893 3.35667C146.567 3.08259 146.349 2.70996 146.273 2.30028C146.271 2.24159 146.281 2.18305 146.304 2.12851C146.327 2.07396 146.361 2.02465 146.405 1.98379C146.649 1.72825 147.095 1.54727 148.409 2.41188L148.965 2.77807C150.051 3.49405 157.019 8.41117 158.108 9.12152L158.11 9.11589C158.354 9.27531 158.592 9.43613 158.835 9.59461L160.834 10.8798L161.844 11.5165C162.196 11.7332 162.545 11.9292 162.881 12.1209C163.532 12.4626 164.131 12.8901 164.659 13.3911C164.779 13.5125 164.89 13.6419 164.991 13.7784C165.092 13.9193 165.183 14.0657 165.267 14.2168C165.442 14.5497 165.592 14.8944 165.716 15.2483L166.117 16.398C166.192 16.6029 166.258 16.7774 166.323 16.9654C166.387 17.1534 166.45 17.3405 166.511 17.5327C166.755 18.2993 166.989 19.1011 167.323 19.8771C167.489 20.267 167.69 20.6424 167.924 20.9991C168.153 21.3548 168.443 21.6716 168.779 21.9369C169.421 22.4173 170.157 22.769 170.943 22.9712C170.593 22.7908 170.254 22.591 169.927 22.3729Z" fill="white"/>
<path d="M144.436 18.2103L143.679 17.7011C143.438 17.5436 143.251 17.3196 143.145 17.0584C143.038 16.7972 143.016 16.5111 143.082 16.2377C143.148 15.9718 143.296 15.7311 143.505 15.5466C143.712 15.3652 143.97 15.2482 144.247 15.2109C144.383 15.1927 144.521 15.1946 144.656 15.2165C144.722 15.2275 144.787 15.2432 144.851 15.2634C144.912 15.2826 144.981 15.3103 145.055 15.3389L145.162 15.3787L145.25 15.3014C145.319 15.2372 145.397 15.182 145.482 15.1373C145.56 15.0954 145.643 15.0612 145.729 15.035C145.812 15.0101 145.898 14.9934 145.986 14.9853C146.07 14.9707 146.156 14.9627 146.242 14.9614C146.413 14.9609 146.582 14.9939 146.74 15.0585C146.898 15.1231 147.04 15.2179 147.158 15.3372C147.276 15.4564 147.368 15.5975 147.428 15.7519C147.487 15.9064 147.514 16.0709 147.505 16.2354C147.496 16.3995 147.452 16.5601 147.376 16.7075C147.309 16.8393 147.167 17.0175 147.057 17.1825L146.357 18.1807L146.181 18.4307C146.126 18.5118 146.065 18.5882 146.005 18.6717C145.907 18.8034 145.806 18.9347 145.709 19.0693L144.436 18.2103Z" fill="white"/>
</g>
<defs>
<clipPath id="clip0_4155_54986">
<rect width="111.48" height="31.082" fill="white" transform="translate(0 9.45898)"/>
</clipPath>
<clipPath id="clip1_4155_54986">
<rect width="52" height="50" fill="white" transform="translate(119.48)"/>
</clipPath>
</defs>
</svg>
