<svg width="32" height="32" viewBox="0 0 32 32" fill="none" xmlns="http://www.w3.org/2000/svg">
<g clip-path="url(#clip0_74_6698)">
<path d="M13 19H19V24.25H13V19Z" fill="url(#paint0_linear_74_6698)"/>
<path d="M13 21.9997C13.6842 22.7282 14.7732 23.2497 16 23.2497C17.2548 23.2497 18.3193 22.7567 19 21.9997V31.5H16H13V21.9997Z" fill="url(#paint1_linear_74_6698)"/>
<path d="M12.9999 21.9997C13.6842 22.7282 14.7732 23.2497 15.9999 23.2497C17.2547 23.2497 18.3192 22.7567 18.9999 21.9997C19.2769 22.061 19.6197 22.1437 20.0062 22.2435C19.4247 23.4112 17.8529 24.2497 15.9999 24.2497C14.1469 24.2497 12.5752 23.4112 11.9937 22.2435C12.3802 22.1437 12.7229 22.0612 12.9999 21.9997Z" fill="url(#paint2_linear_74_6698)"/>
<path d="M8.75 24.7498L4.25 24.25C4.25 24.25 1.75 26.75 0.5 31.5H8.75V24.7498Z" fill="url(#paint3_linear_74_6698)"/>
<path d="M12 21.75C10.2178 22.1447 5.72775 23.1662 4.25 24.25L6.75 31.5H15L12 21.75Z" fill="url(#paint4_linear_74_6698)"/>
<path d="M23.25 24.7498L27.75 24.25C27.75 24.25 30.25 26.75 31.5 31.5H23.25V24.7498Z" fill="url(#paint5_linear_74_6698)"/>
<path d="M20 21.75C21.7822 22.1447 26.2723 23.1662 27.75 24.25L25.25 31.5H17L20 21.75Z" fill="url(#paint6_linear_74_6698)"/>
<path d="M25 13.2142C25 14.3187 24.2165 15.5 23.25 15.5C22.2835 15.5 21.5 14.3187 21.5 13.2142C21.5 12.1097 22.2835 11.5 23.25 11.5C24.2165 11.5 25 12.1097 25 13.2142Z" fill="url(#paint7_linear_74_6698)"/>
<path d="M10.25 13.2142C10.25 14.3187 9.4665 15.5 8.5 15.5C7.5335 15.5 6.75 14.3187 6.75 13.2142C6.75 12.1097 7.5335 11.5 8.5 11.5C9.4665 11.5 10.25 12.1097 10.25 13.2142Z" fill="url(#paint8_linear_74_6698)"/>
<path d="M22.25 7H9.75C9.1905 7.13575 8.75 7.67425 8.75 8.25V13.2517C8.75 17.5 12 20.75 16 20.75C20 20.75 23.25 17.5 23.25 13.2517V8.25C23.25 7.6725 22.8118 7.13425 22.25 7Z" fill="url(#paint9_linear_74_6698)"/>
<path d="M16 0.5C19.9213 0.5 24.25 3.547 24.25 8.25C24.237 11.228 23.25 13.25 23.25 13.25C23.25 11.75 22.5 8.25 22.5 8.25C18.25 9.25 9.75 7.25 9.75 7.25C9.75 7.25 8.75 8.75 8.75 13.25C8.75 13.25 7.25 11.5 7.25 8.5C7.25 4.759 9 4 9 4C9 4 9.5 0.5 16 0.5Z" fill="url(#paint10_linear_74_6698)"/>
<path d="M15.9955 19C15.4305 19 14.867 18.818 14.355 18.4545C14.2425 18.3745 14.216 18.2185 14.296 18.1057C14.376 17.993 14.532 17.967 14.6447 18.0467C15.5005 18.655 16.4887 18.6547 17.3565 18.046C17.4692 17.9665 17.6255 17.994 17.7047 18.107C17.784 18.22 17.7567 18.376 17.6437 18.4552C17.126 18.8182 16.56 19 15.9955 19Z" fill="url(#paint11_linear_74_6698)"/>
<path d="M12.75 14.25C13.1642 14.25 13.5 13.9142 13.5 13.5C13.5 13.0858 13.1642 12.75 12.75 12.75C12.3358 12.75 12 13.0858 12 13.5C12 13.9142 12.3358 14.25 12.75 14.25Z" fill="url(#paint12_linear_74_6698)"/>
<path d="M19.25 14.25C19.6642 14.25 20 13.9142 20 13.5C20 13.0858 19.6642 12.75 19.25 12.75C18.8358 12.75 18.5 13.0858 18.5 13.5C18.5 13.9142 18.8358 14.25 19.25 14.25Z" fill="url(#paint13_linear_74_6698)"/>
<path d="M14.2497 11.4985C14.2045 11.4985 14.159 11.4862 14.1177 11.4607C12.728 10.5955 11.8227 11.1775 11.4362 11.4262L11.3837 11.46C11.2667 11.5337 11.1125 11.4987 11.0387 11.3822C10.965 11.2655 10.9997 11.1112 11.1165 11.0372L11.166 11.0057C11.592 10.7315 12.7245 10.004 14.3822 11.0365C14.4995 11.1095 14.5352 11.2637 14.4622 11.3807C14.4147 11.4567 14.3332 11.4985 14.2497 11.4985Z" fill="url(#paint14_linear_74_6698)"/>
<path d="M17.7501 11.4985C17.6666 11.4985 17.5851 11.4567 17.5376 11.3807C17.4646 11.2635 17.5004 11.1092 17.6176 11.0365C19.2756 10.0035 20.4079 10.7317 20.8341 11.0057L20.8834 11.0372C21.0001 11.111 21.0346 11.2655 20.9611 11.3822C20.8874 11.499 20.7329 11.5337 20.6161 11.46L20.5636 11.4265C20.1774 11.178 19.2716 10.5957 17.8819 11.461C17.8409 11.4862 17.7954 11.4985 17.7501 11.4985Z" fill="url(#paint15_linear_74_6698)"/>
<path d="M15.999 16.75C15.9985 16.75 15.9983 16.75 15.9978 16.75C15.754 16.7495 15.5188 16.6357 15.3175 16.421C15.2233 16.3202 15.2283 16.162 15.329 16.0675C15.4298 15.9735 15.588 15.9782 15.6825 16.079C15.7555 16.1567 15.8695 16.2497 15.9985 16.25H15.999C16.129 16.25 16.2443 16.1567 16.3183 16.0782C16.413 15.9777 16.5713 15.9732 16.6718 16.068C16.772 16.1627 16.7768 16.321 16.682 16.4215C16.479 16.6365 16.243 16.75 15.999 16.75Z" fill="url(#paint16_linear_74_6698)"/>
<path d="M13 21L15 31.5L11 27.75L11.5 25.75L9.75 25.4998L11.75 21.7498C11.953 21.3825 12.5312 21.0003 13 21Z" fill="url(#paint17_linear_74_6698)"/>
<path d="M19 21L17 31.5L21 27.75L20.5 25.75L22.25 25.4998L20.25 21.7498C20.047 21.3825 19.4688 21.0003 19 21Z" fill="url(#paint18_linear_74_6698)"/>
<path d="M11.75 29.75H10.5C10.362 29.75 10.25 29.6382 10.25 29.5C10.25 29.3618 10.362 29.25 10.5 29.25H11.75C12.0258 29.25 12.25 29.0258 12.25 28.75V26.25C12.25 25.0093 11.2405 24 10 24C8.7595 24 7.75 25.0093 7.75 26.25V28.75C7.75 29.0258 7.97425 29.25 8.25 29.25H9.25C9.388 29.25 9.5 29.3618 9.5 29.5C9.5 29.6382 9.388 29.75 9.25 29.75H8.25C7.6985 29.75 7.25 29.3015 7.25 28.75V26.25C7.25 24.7337 8.48375 23.5 10 23.5C11.5163 23.5 12.75 24.7337 12.75 26.25V28.75C12.75 29.3015 12.3015 29.75 11.75 29.75Z" fill="url(#paint19_linear_74_6698)"/>
<path d="M10 23.5C8.48375 23.5 7.25 24.7337 7.25 26.25H7.75C7.75 25.0093 8.7595 24 10 24C11.2405 24 12.25 25.0093 12.25 26.25H12.75C12.75 24.7337 11.5163 23.5 10 23.5Z" fill="url(#paint20_linear_74_6698)"/>
<path d="M9.25 29.25H8.75V29.75H9.25C9.388 29.75 9.5 29.6382 9.5 29.5C9.5 29.3618 9.388 29.25 9.25 29.25Z" fill="url(#paint21_linear_74_6698)"/>
<path d="M10.5 29.25H11V29.75H10.5C10.362 29.75 10.25 29.6382 10.25 29.5C10.25 29.3618 10.362 29.25 10.5 29.25Z" fill="url(#paint22_linear_74_6698)"/>
<path d="M19.9958 19.534C19.7403 19.706 19.4735 19.8617 19.1968 20H19.5C21.43 20 23 21.57 23 23.5V26.5C23 26.6382 23.112 26.75 23.25 26.75C23.388 26.75 23.5 26.6382 23.5 26.5V23.5C23.5 21.4627 21.9678 19.7795 19.9958 19.534Z" fill="url(#paint23_linear_74_6698)"/>
<path d="M12.0203 19.5447C10.7323 19.7725 9.75 20.8975 9.75 22.25V23.75C9.75 23.8882 9.862 24 10 24C10.138 24 10.25 23.8882 10.25 23.75V22.25C10.25 21.0092 11.2595 20 12.5 20C12.5663 20 12.6257 19.9732 12.6705 19.931C12.4467 19.8135 12.2298 19.6847 12.0203 19.5447Z" fill="url(#paint24_linear_74_6698)"/>
<path d="M23.25 28.75C23.9404 28.75 24.5 28.1904 24.5 27.5C24.5 26.8096 23.9404 26.25 23.25 26.25C22.5596 26.25 22 26.8096 22 27.5C22 28.1904 22.5596 28.75 23.25 28.75Z" fill="url(#paint25_linear_74_6698)"/>
<path d="M23.25 28.75C23.9404 28.75 24.5 28.1904 24.5 27.5C24.5 26.8096 23.9404 26.25 23.25 26.25C22.5596 26.25 22 26.8096 22 27.5C22 28.1904 22.5596 28.75 23.25 28.75Z" fill="url(#paint26_linear_74_6698)"/>
<mask id="mask0_74_6698" style="mask-type:luminance" maskUnits="userSpaceOnUse" x="22" y="26" width="3" height="3">
<path d="M23.25 28.75C23.9404 28.75 24.5 28.1904 24.5 27.5C24.5 26.8096 23.9404 26.25 23.25 26.25C22.5596 26.25 22 26.8096 22 27.5C22 28.1904 22.5596 28.75 23.25 28.75Z" fill="white"/>
</mask>
<g mask="url(#mask0_74_6698)">
<path d="M22 26.25H24.5V28.75H22V26.25Z" fill="url(#paint27_linear_74_6698)"/>
</g>
<path d="M23.25 29C22.4227 29 21.75 28.3273 21.75 27.5C21.75 26.6727 22.4227 26 23.25 26C24.0773 26 24.75 26.6727 24.75 27.5C24.75 28.3273 24.0773 29 23.25 29ZM23.25 26.5C22.6985 26.5 22.25 26.9485 22.25 27.5C22.25 28.0515 22.6985 28.5 23.25 28.5C23.8015 28.5 24.25 28.0515 24.25 27.5C24.25 26.9485 23.8015 26.5 23.25 26.5Z" fill="url(#paint28_linear_74_6698)"/>
</g>
<defs>
<linearGradient id="paint0_linear_74_6698" x1="16" y1="23.4582" x2="16" y2="20.8332" gradientUnits="userSpaceOnUse">
<stop stop-color="#F6CFBE"/>
<stop offset="1" stop-color="#EDAD99"/>
</linearGradient>
<linearGradient id="paint1_linear_74_6698" x1="15.7885" y1="18.8195" x2="15.7232" y2="16.3705" gradientUnits="userSpaceOnUse">
<stop stop-color="#FFCF97"/>
<stop offset="1" stop-color="#FFAC6A"/>
</linearGradient>
<linearGradient id="paint2_linear_74_6698" x1="16.5309" y1="13.3055" x2="16.2809" y2="17.5137" gradientUnits="userSpaceOnUse">
<stop stop-color="#FFCF97"/>
<stop offset="1" stop-color="#FFAC6A"/>
</linearGradient>
<linearGradient id="paint3_linear_74_6698" x1="3.93525" y1="38.1307" x2="4.79" y2="29.9162" gradientUnits="userSpaceOnUse">
<stop stop-color="#EFF0F0"/>
<stop offset="1" stop-color="#E4E5E6"/>
</linearGradient>
<linearGradient id="paint4_linear_74_6698" x1="8.649" y1="36.2688" x2="7.86325" y2="43.0268" gradientUnits="userSpaceOnUse">
<stop stop-color="#EFF0F0"/>
<stop offset="1" stop-color="#E4E5E6"/>
</linearGradient>
<linearGradient id="paint5_linear_74_6698" x1="28.065" y1="38.1307" x2="27.2103" y2="29.9162" gradientUnits="userSpaceOnUse">
<stop stop-color="#EFF0F0"/>
<stop offset="1" stop-color="#E4E5E6"/>
</linearGradient>
<linearGradient id="paint6_linear_74_6698" x1="23.351" y1="36.2688" x2="24.1368" y2="43.0268" gradientUnits="userSpaceOnUse">
<stop stop-color="#EFF0F0"/>
<stop offset="1" stop-color="#E4E5E6"/>
</linearGradient>
<linearGradient id="paint7_linear_74_6698" x1="23.25" y1="5.91675" x2="23.25" y2="18.0853" gradientUnits="userSpaceOnUse">
<stop stop-color="#F6CFBE"/>
<stop offset="1" stop-color="#EDAD99"/>
</linearGradient>
<linearGradient id="paint8_linear_74_6698" x1="8.5" y1="5.91675" x2="8.5" y2="18.0853" gradientUnits="userSpaceOnUse">
<stop stop-color="#F6CFBE"/>
<stop offset="1" stop-color="#EDAD99"/>
</linearGradient>
<linearGradient id="paint9_linear_74_6698" x1="17.2143" y1="4.7925" x2="17.9018" y2="1.23" gradientUnits="userSpaceOnUse">
<stop stop-color="#F6CFBE"/>
<stop offset="1" stop-color="#EDAD99"/>
</linearGradient>
<linearGradient id="paint10_linear_74_6698" x1="15.75" y1="-4.3125" x2="15.75" y2="16.4873" gradientUnits="userSpaceOnUse">
<stop stop-color="#957E7F"/>
<stop offset="1" stop-color="#373638"/>
</linearGradient>
<linearGradient id="paint11_linear_74_6698" x1="16.3027" y1="13.7097" x2="16.1777" y2="15.5847" gradientUnits="userSpaceOnUse">
<stop stop-color="#F6CFBE"/>
<stop offset="1" stop-color="#EDAD99"/>
</linearGradient>
<linearGradient id="paint12_linear_74_6698" x1="12.689" y1="21.6253" x2="12.7202" y2="17.4693" gradientUnits="userSpaceOnUse">
<stop stop-color="#58595B"/>
<stop offset="1" stop-color="#414042"/>
</linearGradient>
<linearGradient id="paint13_linear_74_6698" x1="19.1887" y1="21.662" x2="19.22" y2="17.5058" gradientUnits="userSpaceOnUse">
<stop stop-color="#58595B"/>
<stop offset="1" stop-color="#414042"/>
</linearGradient>
<linearGradient id="paint14_linear_74_6698" x1="12.6497" y1="24.5837" x2="12.6915" y2="19.0422" gradientUnits="userSpaceOnUse">
<stop stop-color="#58595B"/>
<stop offset="1" stop-color="#414042"/>
</linearGradient>
<linearGradient id="paint15_linear_74_6698" x1="19.1491" y1="24.6328" x2="19.1909" y2="19.091" gradientUnits="userSpaceOnUse">
<stop stop-color="#58595B"/>
<stop offset="1" stop-color="#414042"/>
</linearGradient>
<linearGradient id="paint16_linear_74_6698" x1="10.2418" y1="17.5082" x2="12.2263" y2="17.102" gradientUnits="userSpaceOnUse">
<stop stop-color="#F6CFBE"/>
<stop offset="1" stop-color="#EDAD99"/>
</linearGradient>
<linearGradient id="paint17_linear_74_6698" x1="14.9732" y1="39.6412" x2="14.4785" y2="37.3872" gradientUnits="userSpaceOnUse">
<stop stop-color="#EFF0F0"/>
<stop offset="1" stop-color="#E4E5E6"/>
</linearGradient>
<linearGradient id="paint18_linear_74_6698" x1="17.027" y1="39.6412" x2="17.5218" y2="37.3872" gradientUnits="userSpaceOnUse">
<stop stop-color="#EFF0F0"/>
<stop offset="1" stop-color="#E4E5E6"/>
</linearGradient>
<linearGradient id="paint19_linear_74_6698" x1="10.3682" y1="31.733" x2="10.3117" y2="31.0777" gradientUnits="userSpaceOnUse">
<stop stop-color="#D0D3D3"/>
<stop offset="1" stop-color="#AAAEB1"/>
</linearGradient>
<linearGradient id="paint20_linear_74_6698" x1="9.1575" y1="19.423" x2="9.22" y2="19.923" gradientUnits="userSpaceOnUse">
<stop stop-color="#58595B"/>
<stop offset="1" stop-color="#414042"/>
</linearGradient>
<linearGradient id="paint21_linear_74_6698" x1="9.15075" y1="29.9173" x2="9.146" y2="29.8618" gradientUnits="userSpaceOnUse">
<stop stop-color="#58595B"/>
<stop offset="1" stop-color="#414042"/>
</linearGradient>
<linearGradient id="paint22_linear_74_6698" x1="10.5993" y1="29.9173" x2="10.604" y2="29.8618" gradientUnits="userSpaceOnUse">
<stop stop-color="#58595B"/>
<stop offset="1" stop-color="#414042"/>
</linearGradient>
<linearGradient id="paint23_linear_74_6698" x1="20.89" y1="17.9565" x2="20.9525" y2="18.4565" gradientUnits="userSpaceOnUse">
<stop stop-color="#58595B"/>
<stop offset="1" stop-color="#414042"/>
</linearGradient>
<linearGradient id="paint24_linear_74_6698" x1="10.88" y1="19.2077" x2="10.9425" y2="19.7077" gradientUnits="userSpaceOnUse">
<stop stop-color="#58595B"/>
<stop offset="1" stop-color="#414042"/>
</linearGradient>
<linearGradient id="paint25_linear_74_6698" x1="25.7928" y1="28.4023" x2="26.3983" y2="28.617" gradientUnits="userSpaceOnUse">
<stop stop-color="#6C6F73"/>
<stop offset="1" stop-color="#56585B"/>
</linearGradient>
<linearGradient id="paint26_linear_74_6698" x1="18.3623" y1="26.85" x2="20.3207" y2="27.1105" gradientUnits="userSpaceOnUse">
<stop stop-color="#58595B"/>
<stop offset="1" stop-color="#414042"/>
</linearGradient>
<linearGradient id="paint27_linear_74_6698" x1="18.3623" y1="26.85" x2="20.3207" y2="27.1105" gradientUnits="userSpaceOnUse">
<stop stop-color="#6C6F73"/>
<stop offset="1" stop-color="#56585B"/>
</linearGradient>
<linearGradient id="paint28_linear_74_6698" x1="18.3622" y1="26.85" x2="20.3208" y2="27.1105" gradientUnits="userSpaceOnUse">
<stop stop-color="#D0D3D3"/>
<stop offset="1" stop-color="#AAAEB1"/>
</linearGradient>
<clipPath id="clip0_74_6698">
<rect width="32" height="32" fill="white"/>
</clipPath>
</defs>
</svg>
