<svg width="28" height="28" viewBox="0 0 28 28" fill="none" xmlns="http://www.w3.org/2000/svg">
<circle cx="14" cy="14" r="14" fill="white"/>
<path d="M12.8329 14.5917C12.7548 14.5142 12.6928 14.422 12.6505 14.3205C12.6082 14.2189 12.5864 14.11 12.5864 14C12.5864 13.89 12.6082 13.7811 12.6505 13.6795C12.6928 13.578 12.7548 13.4858 12.8329 13.4083L16.6579 9.59168C16.736 9.51421 16.798 9.42204 16.8403 9.32049C16.8826 9.21894 16.9044 9.11002 16.9044 9.00001C16.9044 8.89 16.8826 8.78108 16.8403 8.67953C16.798 8.57798 16.736 8.48581 16.6579 8.40834C16.5018 8.25313 16.2905 8.16602 16.0704 8.16602C15.8502 8.16602 15.639 8.25313 15.4829 8.40834L11.6579 12.2333C11.1897 12.7021 10.9268 13.3375 10.9268 14C10.9268 14.6625 11.1897 15.2979 11.6579 15.7667L15.4829 19.5917C15.6381 19.7456 15.8476 19.8324 16.0662 19.8333C16.1759 19.834 16.2846 19.813 16.3861 19.7715C16.4877 19.73 16.58 19.6689 16.6579 19.5917C16.736 19.5142 16.798 19.422 16.8403 19.3205C16.8826 19.2189 16.9044 19.11 16.9044 19C16.9044 18.89 16.8826 18.7811 16.8403 18.6795C16.798 18.578 16.736 18.4858 16.6579 18.4083L12.8329 14.5917Z" fill="#239EA0"/>
</svg>
