<svg width="40" height="40" viewBox="0 0 40 40" fill="none" xmlns="http://www.w3.org/2000/svg">
<g clip-path="url(#clip0_4377_37726)">
<path d="M33.3333 3.3335H32.5L0 35.8335V36.6668C0 38.5052 1.49495 40.0002 3.33333 40.0002H4.43237L36.6667 7.34086V6.66683C36.6667 4.82845 35.1717 3.3335 33.3333 3.3335Z" fill="#FDDC49"/>
<path d="M3.33333 3.3335C1.49495 3.3335 0 4.82845 0 6.66683V35.8335L32.5 3.3335H3.33333Z" fill="#56A959"/>
<path d="M4.43262 40.0002H32.5002L18.3746 25.8745L4.43262 40.0002Z" fill="#5796FF"/>
<path d="M22.5137 21.6804L36.6667 35.8335V7.34082L22.5137 21.6804Z" fill="#CCCCCC"/>
<path d="M18.374 25.8742L32.4997 39.9999H33.333C35.1714 39.9999 36.6664 38.5049 36.6664 36.6665V35.8332L22.5133 21.6802L18.374 25.8742Z" fill="#F2F2F2"/>
<path opacity="0.2" d="M33.3333 3.3335H3.33333C1.49495 3.3335 0 4.82845 0 6.66683V7.0835C0 5.24512 1.49495 3.75016 3.33333 3.75016H33.3333C35.1717 3.75016 36.6667 5.24512 36.6667 7.0835V6.66683C36.6667 4.82845 35.1717 3.3335 33.3333 3.3335Z" fill="white"/>
<path opacity="0.1" d="M33.3333 39.5833H3.33333C1.49495 39.5833 0 38.0884 0 36.25V36.6667C0 38.505 1.49495 40 3.33333 40H33.3333C35.1717 40 36.6667 38.505 36.6667 36.6667V36.25C36.6667 38.0884 35.1717 39.5833 33.3333 39.5833Z" fill="black"/>
<path d="M30 0C24.4857 0 20 4.48568 20 10C20 10.3898 20.0269 10.7723 20.0692 11.1361C20.4167 14.6899 22.3169 17.6172 24.3294 20.7153C26.3078 23.7614 28.3529 26.9108 29.1838 30.9993C29.2619 31.3875 29.6037 31.6667 30 31.6667C30.3963 31.6667 30.7381 31.3875 30.8162 30.9993C31.6471 26.9108 33.6922 23.7614 35.6706 20.7153C37.6831 17.6172 39.5833 14.6899 39.9292 11.1499C39.9731 10.7723 40 10.3898 40 10C40 4.48568 35.5143 0 30 0Z" fill="#E53935"/>
<path opacity="0.2" d="M30.0003 0.416667C34.4493 0.416667 38.2359 3.27295 39.618 7.25723C38.4271 3.06574 34.5685 0 30.0003 0C25.4322 0 21.5766 3.05494 20.3857 7.24643C21.7679 3.26216 25.5514 0.416667 30.0003 0.416667Z" fill="white"/>
<path opacity="0.1" d="M39.9292 10.7334C39.5833 14.2734 37.6831 17.2007 35.6706 20.2988C33.6922 23.3449 31.6471 26.4943 30.8162 30.5828C30.7381 30.971 30.3963 31.2502 30 31.2502C29.6037 31.2502 29.2619 30.971 29.1838 30.5828C28.3529 26.4943 26.3078 23.3449 24.3294 20.2988C22.3169 17.2007 20.4167 14.2734 20.0692 10.7196C20.0339 10.4163 20.0187 10.0953 20.0115 9.7726C20.0098 9.849 20 9.92336 20 10.0002C20 10.39 20.0269 10.7725 20.0692 11.1362C20.4167 14.6901 22.3169 17.6174 24.3294 20.7155C26.3078 23.7616 28.3529 26.911 29.1838 30.9995C29.2619 31.3877 29.6037 31.6668 30 31.6668C30.3963 31.6668 30.7381 31.3877 30.8162 30.9995C31.6471 26.911 33.6922 23.7616 35.6706 20.7155C37.6831 17.6174 39.5833 14.6901 39.9292 11.1501C39.9731 10.7725 40 10.39 40 10.0002C40 9.92295 39.9901 9.84829 39.9884 9.77148C39.9813 10.0956 39.9659 10.4175 39.9292 10.7334Z" fill="black"/>
<path d="M30.0003 13.3332C31.8413 13.3332 33.3337 11.8408 33.3337 9.99984C33.3337 8.15889 31.8413 6.6665 30.0003 6.6665C28.1594 6.6665 26.667 8.15889 26.667 9.99984C26.667 11.8408 28.1594 13.3332 30.0003 13.3332Z" fill="#B71C1C"/>
<path opacity="0.1" d="M30.0003 13.3332C31.8413 13.3332 33.3337 11.8408 33.3337 9.99984C33.3337 8.15889 31.8413 6.6665 30.0003 6.6665C28.1594 6.6665 26.667 8.15889 26.667 9.99984C26.667 11.8408 28.1594 13.3332 30.0003 13.3332Z" fill="black"/>
<path d="M9.16699 17.5C6.40983 17.5 4.16699 15.2572 4.16699 12.5C4.16699 9.74284 6.40983 7.5 9.16699 7.5C10.2599 7.5 11.2983 7.84668 12.1707 8.50179L11.1698 9.8348C10.5879 9.39779 9.89534 9.16667 9.16699 9.16667C7.32861 9.16667 5.83366 10.6616 5.83366 12.5C5.83366 14.3384 7.32861 15.8333 9.16699 15.8333C10.7173 15.8333 12.0243 14.7697 12.3945 13.3333H10.0003V11.6667H14.167V12.5C14.167 15.2572 11.9242 17.5 9.16699 17.5Z" fill="#F2F2F2"/>
<path d="M40 10C40 4.48568 35.5143 0 30 0C27.0482 0 24.3994 1.29293 22.5674 3.33333H3.33333C1.49495 3.33333 0 4.82829 0 6.66667V36.6667C0 38.505 1.49495 40 3.33333 40H33.3333C35.1717 40 36.6667 38.505 36.6667 36.6667V19.1617C38.2749 16.6145 39.6415 14.0939 39.9292 11.1499C39.9731 10.7723 40 10.3898 40 10Z" fill="url(#paint0_linear_4377_37726)"/>
</g>
<defs>
<linearGradient id="paint0_linear_4377_37726" x1="-2.28167" y1="10.82" x2="39.8933" y2="30.4867" gradientUnits="userSpaceOnUse">
<stop stop-color="white" stop-opacity="0.2"/>
<stop offset="1" stop-color="white" stop-opacity="0"/>
</linearGradient>
<clipPath id="clip0_4377_37726">
<rect width="40" height="40" fill="white"/>
</clipPath>
</defs>
</svg>
