<svg width="751" height="743" viewBox="0 0 751 743" fill="none" xmlns="http://www.w3.org/2000/svg">
<mask id="mask0_775_24366" style="mask-type:alpha" maskUnits="userSpaceOnUse" x="0" y="0" width="752" height="743">
<rect width="751.007" height="742.909" fill="#D9D9D9"/>
</mask>
<g mask="url(#mask0_775_24366)">
<path d="M418.646 568.557C414.892 554.964 410.464 541.504 405.964 528.307C402.665 518.488 399.267 508.452 396.172 498.37C398.279 495.713 400.168 492.891 401.82 489.93C403.796 486.439 405.586 482.847 407.185 479.168C410.195 472.251 412.771 465.152 414.899 457.915C419.098 443.899 422.278 429.598 424.413 415.124C428.799 386.469 429.593 357.378 426.776 328.526C424.132 299.629 416.676 271.377 404.717 244.937C392.923 218.726 374.854 195.824 352.108 178.254C369.955 199.29 383.344 223.732 391.461 250.097C399.331 275.993 403.484 302.875 403.793 329.938C404.288 356.924 401.968 383.888 396.872 410.393C394.388 423.491 391.102 436.424 387.033 449.119C384.968 455.348 382.685 461.452 380.164 467.139C379.102 469.475 377.994 471.686 376.865 473.738C353.075 466.753 330.281 456.742 309.04 443.953C298.511 437.57 288.534 430.317 279.215 422.27C280.997 418.832 282.785 415.414 284.679 412.029C296.325 391.205 307.41 372.287 318.199 354.887L328.558 362.706C329.591 363.566 330.788 364.208 332.076 364.592C333.364 364.976 334.717 365.095 336.052 364.942C337.388 364.789 338.678 364.367 339.846 363.701C341.014 363.035 342.034 362.139 342.846 361.067C343.657 359.996 344.243 358.771 344.568 357.467C344.893 356.162 344.95 354.806 344.736 353.479C344.522 352.152 344.041 350.882 343.322 349.746C342.603 348.61 341.662 347.632 340.554 346.87L328.855 338.028C340.178 320.463 351.29 304.468 362.441 289.523C369.231 280.464 372.544 269.269 371.779 257.974C371.014 246.679 366.222 236.034 358.273 227.973C350.324 219.912 339.746 214.971 328.463 214.049C317.179 213.126 305.94 216.283 296.787 222.945C287.274 219.549 276.923 219.297 267.256 222.225C257.589 225.153 249.118 231.107 243.089 239.21C239.356 244.175 236.641 249.828 235.1 255.844C233.558 261.861 233.221 268.123 234.106 274.271C234.991 280.419 237.082 286.331 240.259 291.668C243.436 297.006 247.635 301.663 252.617 305.372L302.237 342.858C291.02 360.958 279.439 380.641 267.265 402.349C266.203 404.243 265.226 406.19 264.204 408.09C258.145 401.804 252.481 395.149 247.246 388.163C230.391 365.163 217.849 339.296 210.229 311.819C202.169 283.563 198.324 254.271 198.82 224.891C192.009 254.45 190.925 285.04 195.626 315.006C200.186 345.783 211.091 375.276 227.648 401.617C234.64 412.659 242.655 423.018 251.588 432.557C246.236 443.115 240.799 453.824 235.606 464.573C201.42 535.321 161.314 646.432 217.051 717.081C237.058 742.452 269.06 756.566 301.221 759.694C333.005 762.795 366.789 755.293 390.893 734.323C413.704 714.461 425.806 684.313 428.623 654.205C430.55 625.286 427.169 596.259 418.646 568.557ZM264.56 289.444C261.668 287.3 259.231 284.603 257.39 281.51C255.55 278.416 254.342 274.988 253.838 271.424C253.271 267.537 253.547 263.575 254.645 259.804C255.744 256.034 257.641 252.543 260.206 249.57C262.772 246.596 265.947 244.209 269.515 242.569C273.084 240.93 276.964 240.077 280.891 240.068C284.592 240.083 288.251 240.841 291.653 242.298L300.066 245.894L307.113 240.055C312.285 235.794 318.838 233.575 325.534 233.819C332.23 234.062 338.605 236.75 343.454 241.375C348.302 246 351.288 252.241 351.847 258.919C352.405 265.596 350.498 272.246 346.486 277.613C335.308 292.585 324.23 308.553 312.913 326.012L264.56 289.444ZM403.127 680.15C398.587 694.24 390.598 706.974 379.887 717.193C361.075 733.351 336.81 741.728 312.036 740.618C280.06 740.07 247.338 726.101 229.225 699.747C184.679 634.898 223.287 535.651 253.501 473.19C257.717 464.493 262.079 455.79 266.474 447.146C275.023 454.763 284.118 461.745 293.685 468.037C319.491 484.599 347.728 497.022 377.373 504.856C380.488 514.932 383.827 524.889 387.126 534.615C399.24 570.398 411.038 607.805 409.356 646.075C408.907 657.677 406.824 669.157 403.167 680.176L403.127 680.15Z" fill="#197072" fill-opacity="0.23"/>
<path d="M198.226 243.981C208.434 243.981 216.709 235.706 216.709 225.499C216.709 215.291 208.434 207.016 198.226 207.016C188.019 207.016 179.744 215.291 179.744 225.499C179.744 235.706 188.019 243.981 198.226 243.981Z" fill="#197072" fill-opacity="0.23"/>
<path d="M351.23 196.446C361.438 196.446 369.712 188.171 369.712 177.963C369.712 167.756 361.438 159.481 351.23 159.481C341.023 159.481 332.748 167.756 332.748 177.963C332.748 188.171 341.023 196.446 351.23 196.446Z" fill="#197072" fill-opacity="0.23"/>
<path d="M637.206 354.92C632.813 351.896 628.775 348.386 625.171 344.455C618.23 336.242 613.292 326.529 610.747 316.082C607.619 305.524 605.607 294.36 603.112 283.01C602.452 280.166 601.865 277.296 601.133 274.432C600.4 271.569 599.562 268.58 598.876 266.019C597.438 260.642 596.151 255.033 594.515 249.312C592.904 243.376 590.864 237.565 588.411 231.925C587.07 228.991 585.542 226.146 583.838 223.407C582.11 220.698 580.196 218.112 578.111 215.667C570.204 206.908 561.026 199.385 550.886 193.351C546.267 190.329 541.721 187.558 537.425 184.667L524.116 175.489L497.28 157.211L487.462 150.613C472.754 140.616 378.482 71.4319 363.807 61.3891L356.292 56.2225C348.268 50.7326 324.237 34.3685 306.421 52.0919C288.605 34.3685 264.56 50.7392 256.55 56.2225L249.021 61.3891C234.34 71.4385 140.081 140.623 125.38 150.613L115.542 157.211L88.7058 175.489L75.3967 184.667C71.1012 187.551 66.568 190.329 61.9359 193.351C51.7953 199.385 42.618 206.908 34.7109 215.667C32.6254 218.112 30.7117 220.698 28.9834 223.407C27.2785 226.143 25.7554 228.989 24.4239 231.925C21.9648 237.563 19.9248 243.374 18.3204 249.312C16.6708 255.026 15.3841 260.635 13.9456 266.019C13.2858 268.58 12.4016 271.575 11.689 274.432C10.9763 277.289 10.3363 280.173 9.70943 283.01C7.21522 294.36 5.20271 305.498 2.08825 316.082C-0.467308 326.528 -5.40905 336.24 -12.3491 344.455C-15.9505 348.389 -19.9884 351.9 -24.3846 354.92C-28.801 358.005 -33.3924 360.832 -38.1357 363.386C-27.5087 360.537 -17.5604 355.588 -8.87833 348.83C-4.31608 345.1 -0.403057 340.641 2.7019 335.633C5.8665 330.598 8.59077 325.3 10.8444 319.797C15.3511 308.863 18.4919 297.58 21.8175 286.804C22.6489 284.092 23.5067 281.44 24.3645 278.82C25.2223 276.201 26.1329 273.72 27.1425 270.836L32.5796 254.657C34.2493 249.677 36.2804 244.825 38.6567 240.14C39.78 238.014 41.0248 235.954 42.3848 233.971C43.752 232.05 45.2536 230.229 46.8784 228.521C54.028 221.473 62.1252 215.457 70.9362 210.645C75.4957 207.947 80.207 205.182 84.9711 202.14L98.6298 193.179L125.683 175.093C128.983 172.863 132.216 170.6 135.489 168.356L135.528 168.435C150.262 158.439 244.547 89.2542 259.235 79.1652L266.764 74.0119C284.54 61.8444 290.591 64.3914 293.884 67.9875C294.481 68.5604 294.948 69.2541 295.255 70.0221C295.563 70.7902 295.702 71.615 295.665 72.4415C294.643 78.2067 291.684 83.4507 287.279 87.3077C276.833 97.3835 185.848 167.426 174.367 178.439C160.51 191.708 146.528 205.109 133.78 217.429C129.296 217.08 124.789 217.655 120.537 219.118C114.869 221.048 109.794 224.407 105.802 228.87C98.8208 237.462 94.155 247.698 92.2491 258.603C90.2891 268.008 87.8556 277.308 84.9579 286.468C83.5132 290.816 81.6527 295.014 79.402 299.005C77.1057 302.964 74.4004 307.095 71.8996 311.146C69.3988 315.197 66.6934 319.209 63.9815 323.168C61.2695 327.127 58.5444 331.086 55.7137 335.006C62.8905 328.732 69.663 322.01 75.9906 314.881C79.2898 311.311 82.2855 307.754 85.4066 303.822C88.5312 299.76 91.2495 295.402 93.5226 290.81C97.7311 281.708 101.339 272.34 104.324 262.766C105.693 258.481 107.385 254.305 109.385 250.276C111.139 246.79 113.45 243.613 116.228 240.873C118.635 238.552 121.62 236.916 124.872 236.135C127.906 235.268 131.122 235.268 134.156 236.135C136.724 237.001 138.963 238.637 140.569 240.82C141.174 241.785 141.583 242.86 141.772 243.983C141.961 245.106 141.927 246.256 141.671 247.366C141.548 248.12 141.374 248.865 141.15 249.596C140.945 250.375 140.543 251.622 140.213 252.658L137.917 259.54C136.023 264.84 134.657 270.315 133.839 275.884L133.707 277.026L133.615 277.989L133.43 279.922L133.107 283.776C132.904 286.34 132.744 288.898 132.625 291.45C132.341 296.55 132.196 301.591 132.09 306.626L131.78 336.2C131.874 345.281 131.029 354.347 129.26 363.254C128.844 365.359 128.197 367.318 127.623 369.318C126.953 371.231 126.182 373.108 125.314 374.94C123.61 378.596 121.444 382.018 118.867 385.121C117.582 386.7 116.211 388.209 114.763 389.641C113.219 391.106 111.635 392.538 109.986 393.923C106.657 396.716 103.162 399.305 99.5206 401.676C91.9631 406.466 84.1329 410.81 76.0698 414.688L63.6977 420.752C61.672 421.762 59.4813 422.897 57.3369 424.052C55.1924 425.206 53.1205 426.467 51.1079 427.846C35.1044 438.852 21.5509 453.05 11.2997 469.548C24.1054 456.316 39.0236 445.307 55.4431 436.971C57.4226 436.034 59.4417 435.157 61.4675 434.332C63.4932 433.507 65.4925 432.827 67.6964 432.088L80.6821 427.47C89.6278 424.324 98.334 420.536 106.733 416.133C111.09 413.756 115.297 411.111 119.329 408.215C121.394 406.764 123.354 405.127 125.327 403.491C127.355 401.719 129.285 399.838 131.107 397.856C138.728 389.519 144.135 379.402 146.831 368.434C149.319 358.055 150.647 347.433 150.79 336.761C151.1 326.632 151.127 316.781 151.351 307.002C151.43 302.133 151.536 297.303 151.754 292.525C151.859 290.137 151.993 287.761 152.156 285.399L152.427 281.856L152.724 278.556C153.275 274.377 154.228 270.26 155.568 266.264L157.765 259.15C158.141 257.831 158.477 256.749 158.867 255.139C159.287 253.488 159.591 251.81 159.777 250.117C160.227 246.43 160.038 242.694 159.217 239.071C158.368 235.331 156.735 231.814 154.426 228.751C153.958 228.131 153.463 227.557 152.961 227.01C163.895 216.452 175.541 205.301 187.095 194.242C198.649 183.183 289.582 113.18 300.066 103.085C302.39 100.808 304.518 98.3406 306.427 95.7075C308.333 98.3396 310.457 100.807 312.775 103.085C323.234 113.18 414.219 183.209 425.714 194.262C437.208 205.314 448.914 216.478 459.847 227.029C459.352 227.577 458.858 228.158 458.396 228.771C456.088 231.836 454.451 235.352 453.592 239.091C452.777 242.714 452.588 246.45 453.031 250.137C453.217 251.83 453.521 253.508 453.942 255.158C454.331 256.768 454.668 257.844 455.057 259.17L457.241 266.283C458.581 270.28 459.533 274.397 460.085 278.576L460.395 281.875L460.652 285.419C460.815 287.781 460.949 290.156 461.055 292.545C461.286 297.322 461.378 302.152 461.457 307.022C461.688 316.801 461.715 326.652 462.031 336.781C462.161 347.451 463.476 358.074 465.951 368.453C468.647 379.422 474.054 389.539 481.675 397.876C483.501 399.855 485.43 401.736 487.455 403.511C489.435 405.147 491.414 406.81 493.453 408.235C497.487 411.128 501.694 413.772 506.049 416.153C514.45 420.556 523.159 424.345 532.107 427.489L545.092 432.108C547.29 432.847 549.289 433.6 551.321 434.352C553.354 435.104 555.346 436.054 557.346 436.991C573.767 445.33 588.689 456.338 601.502 469.568C591.242 453.073 577.685 438.875 561.681 427.865C559.668 426.486 557.563 425.292 555.452 424.071C553.34 422.851 551.13 421.775 549.091 420.772L536.719 414.708C528.657 410.827 520.827 406.483 513.268 401.696C509.627 399.325 506.132 396.736 502.803 393.943C501.154 392.564 499.57 391.126 498.026 389.661C496.581 388.226 495.211 386.717 493.922 385.141C491.358 382.041 489.199 378.629 487.495 374.986C486.584 373.204 485.924 371.258 485.185 369.364C484.611 367.384 483.965 365.405 483.549 363.3C481.78 354.393 480.935 345.327 481.028 336.246L480.731 306.6C480.639 301.578 480.474 296.537 480.21 291.423C480.074 288.872 479.909 286.314 479.715 283.749L479.392 279.896L479.22 277.963L479.128 276.999L478.983 275.858C478.162 270.29 476.801 264.816 474.918 259.513L472.609 252.631C472.285 251.595 471.883 250.348 471.672 249.57C471.452 248.838 471.283 248.093 471.164 247.339C470.901 246.231 470.862 245.081 471.049 243.957C471.236 242.833 471.645 241.758 472.252 240.794C473.858 238.61 476.098 236.975 478.666 236.109C481.7 235.242 484.916 235.242 487.95 236.109C491.202 236.889 494.186 238.525 496.594 240.846C499.376 243.586 501.692 246.762 503.45 250.249C505.446 254.279 507.133 258.455 508.497 262.74C511.494 272.309 515.102 281.676 519.299 290.783C521.572 295.376 524.291 299.734 527.415 303.795C530.543 307.754 533.571 311.285 536.831 314.854C543.159 321.984 549.931 328.706 557.108 334.98C554.277 331.073 551.499 327.174 548.853 323.142C546.207 319.11 543.502 315.171 540.935 311.12C538.369 307.068 535.742 302.951 533.433 298.979C531.182 294.988 529.322 290.789 527.877 286.441C524.971 277.288 522.536 267.992 520.579 258.59C518.674 247.682 514.003 237.445 507.013 228.857C503.024 224.391 497.948 221.032 492.279 219.105C488.026 217.641 483.519 217.066 479.036 217.415C466.287 205.096 452.292 191.682 438.449 178.425C426.954 167.426 335.969 97.3835 325.517 87.3077C321.111 83.4507 318.153 78.2067 317.13 72.4415C317.096 71.6154 317.238 70.7916 317.545 70.024C317.852 69.2565 318.318 68.5625 318.912 67.9875C322.211 64.3914 328.248 61.8444 346.031 74.0119L353.56 79.1652C368.255 89.241 462.539 158.439 477.267 168.435L477.307 168.356C480.606 170.6 483.826 172.863 487.112 175.093L514.166 193.179L527.824 202.14C532.588 205.189 537.313 207.947 541.859 210.645C550.672 215.453 558.77 221.47 565.917 228.521C567.542 230.229 569.043 232.05 570.411 233.971C571.771 235.954 573.015 238.014 574.139 240.14C576.515 244.825 578.546 249.677 580.216 254.657L585.653 270.836C586.662 273.72 587.56 276.174 588.431 278.82C589.302 281.466 590.16 284.099 590.978 286.804C594.277 297.593 597.444 308.876 601.964 319.797C604.216 325.283 606.935 330.566 610.093 335.587C613.203 340.592 617.115 345.05 621.674 348.783C630.362 355.544 640.317 360.493 650.951 363.34C646.211 360.8 641.622 357.989 637.206 354.92Z" fill="#197072" fill-opacity="0.23"/>
<path d="M292.268 296.339L282.027 289.173C278.758 286.958 276.238 283.804 274.796 280.128C273.354 276.453 273.06 272.426 273.95 268.58C274.843 264.838 276.839 261.45 279.678 258.854C282.469 256.301 285.968 254.654 289.714 254.129C291.55 253.873 293.415 253.9 295.243 254.208C296.138 254.363 297.02 254.583 297.883 254.868C298.714 255.139 299.651 255.528 300.648 255.93L302.099 256.491L303.28 255.403C304.222 254.499 305.278 253.723 306.421 253.093C307.484 252.504 308.602 252.022 309.76 251.655C310.892 251.303 312.057 251.069 313.237 250.955C314.381 250.749 315.54 250.636 316.701 250.619C319.02 250.611 321.315 251.076 323.448 251.985C325.58 252.894 327.505 254.228 329.105 255.906C330.705 257.584 331.946 259.57 332.753 261.743C333.56 263.916 333.915 266.231 333.798 268.547C333.671 270.856 333.079 273.116 332.056 275.191C331.145 277.045 329.225 279.553 327.734 281.875L318.259 295.923L315.883 299.44C315.144 300.582 314.313 301.657 313.495 302.832C312.175 304.686 310.809 306.534 309.496 308.427L292.268 296.339Z" fill="#197072" fill-opacity="0.23"/>
</g>
</svg>
