<svg width="216" height="174" viewBox="0 0 216 174" fill="none" xmlns="http://www.w3.org/2000/svg">
<g clip-path="url(#clip0_118_4823)">
<path d="M118.684 101.455H37.5752V173.986H118.684V101.455Z" fill="#D4938D"/>
<path fill-rule="evenodd" clip-rule="evenodd" d="M119.479 101.455L141.824 74.767L164.661 101.365V173.983H118.681V101.455H119.479Z" fill="#EFD0C8"/>
<path fill-rule="evenodd" clip-rule="evenodd" d="M168.038 99.4773L143.037 70.1316H58.5151L33.7881 99.166L35.7153 101.455H119.479L141.825 74.7671L164.738 101.455H166.618L168.038 99.4773Z" fill="#4B475C"/>
<path fill-rule="evenodd" clip-rule="evenodd" d="M143.037 70.1316H58.5151L33.7881 99.166L35.7153 101.455H116.426L143.037 70.1316Z" fill="#6E6B7B"/>
<path fill-rule="evenodd" clip-rule="evenodd" d="M33.7881 99.166L35.7153 101.455H119.479L118.33 99.166H33.7881Z" fill="#342F46"/>
<path fill-rule="evenodd" clip-rule="evenodd" d="M142.69 73.686L166.619 101.455H164.738L141.828 74.7704L142.69 73.686Z" fill="#342F46"/>
<path fill-rule="evenodd" clip-rule="evenodd" d="M117.562 68.5551V82.8096H106.269L106.242 68.5551H117.562Z" fill="#EFD0C8"/>
<path fill-rule="evenodd" clip-rule="evenodd" d="M118.149 68.5551L124.783 68.2204L124.803 74.3854L117.562 82.8096V68.5551H118.149Z" fill="#D4938D"/>
<path fill-rule="evenodd" clip-rule="evenodd" d="M118.143 65.3889L125.635 65.1245L125.661 68.1769L118.146 68.5551L118.143 65.3889Z" fill="#342F46"/>
<path d="M118.149 65.3856H105.006V68.5551H118.149V65.3856Z" fill="#4B475C"/>
<path fill-rule="evenodd" clip-rule="evenodd" d="M77.7707 75.0314V87.8869H59.1729V73.9069L68.0309 64.0034L77.7707 75.0314Z" fill="#EFD0C8"/>
<path fill-rule="evenodd" clip-rule="evenodd" d="M78.0244 75.162H88.7094L77.7705 87.8869V74.8741L78.0244 75.162Z" fill="#D4938D"/>
<path fill-rule="evenodd" clip-rule="evenodd" d="M95.6839 72.5882L83.3888 57.9856H66.745L53.7051 72.5045L55.9162 75.1619H58.0539L68.0309 64L77.8843 75.1619H93.6564L95.6839 72.5882Z" fill="#676476"/>
<path fill-rule="evenodd" clip-rule="evenodd" d="M91.2949 67.3737L95.6839 72.5882L91.2949 67.3737Z" fill="#342F46"/>
<path fill-rule="evenodd" clip-rule="evenodd" d="M95.6834 72.5881L93.6559 75.1619H77.8838L79.4937 72.5881H95.6834Z" fill="#342F46"/>
<path fill-rule="evenodd" clip-rule="evenodd" d="M55.9199 75.162H58.0543L68.0312 64L66.9791 62.7717L55.9199 75.162Z" fill="#342F46"/>
<path fill-rule="evenodd" clip-rule="evenodd" d="M79.4944 72.5882H95.684L83.389 57.9856H66.7451L79.4944 72.5882Z" fill="#4B475C"/>
<path d="M73.5115 72.8024H62.4189V84.7709H73.5115V72.8024Z" fill="#D4938D"/>
<path d="M73.5121 72.8024H63.9326V84.7709H73.5121V72.8024Z" fill="#CDD7E0"/>
<path d="M70.4853 78.7566C70.5551 78.7562 70.6224 78.7313 70.6757 78.6863C70.7314 78.6351 70.765 78.5641 70.7694 78.4885C70.7737 78.4129 70.7485 78.3386 70.6991 78.2813L67.693 74.8909C67.6682 74.8625 67.6379 74.8393 67.6041 74.8227C67.5702 74.8061 67.5334 74.7965 67.4958 74.7943C67.4582 74.7921 67.4205 74.7975 67.385 74.81C67.3494 74.8226 67.3168 74.8421 67.2888 74.8674C67.2324 74.9182 67.1982 74.9892 67.1938 75.0651C67.1895 75.141 67.2152 75.2155 67.2654 75.2724L70.2716 78.6628C70.2984 78.6929 70.3314 78.7169 70.3683 78.733C70.4052 78.7492 70.4451 78.7572 70.4853 78.7566Z" fill="#D8E0E7"/>
<path d="M70.8434 81.5512C70.9138 81.5512 70.9816 81.5249 71.0338 81.4776C71.0902 81.4269 71.1244 81.3558 71.1287 81.2799C71.1331 81.2041 71.1074 81.1295 71.0571 81.0726L68.051 77.6856C68.0009 77.6285 67.9302 77.5937 67.8545 77.5886C67.7787 77.5836 67.7041 77.6088 67.6469 77.6588C67.5912 77.71 67.5576 77.7809 67.5532 77.8565C67.5489 77.9321 67.5741 78.0065 67.6235 78.0638L70.6296 81.4542C70.6563 81.4847 70.6891 81.5091 70.726 81.5259C70.7629 81.5426 70.8029 81.5513 70.8434 81.5512Z" fill="#D8E0E7"/>
<path d="M102.595 114.615H79.5947V131.367H102.595V114.615Z" fill="#EFD0C8"/>
<path d="M102.594 114.615H81.2041V131.367H102.594V114.615Z" fill="#CDD7E0"/>
<path d="M92.3599 114.615H91.4414V131.37H92.3599V114.615Z" fill="#676476"/>
<path d="M82.2395 114.615H81.2041V131.367H82.2395V114.615Z" fill="#B0C1CE"/>
<path d="M102.594 122.491H81.2041V123.495H102.594V122.491Z" fill="#676476"/>
<path d="M100.4 129.646C100.466 129.648 100.529 129.624 100.577 129.579C100.604 129.556 100.625 129.528 100.64 129.497C100.656 129.466 100.665 129.432 100.667 129.397C100.669 129.362 100.664 129.327 100.653 129.294C100.642 129.261 100.624 129.231 100.601 129.205L97.8051 126.052C97.7578 126 97.6921 125.969 97.6221 125.965C97.5522 125.961 97.4835 125.985 97.431 126.032C97.4048 126.055 97.3833 126.083 97.3679 126.114C97.3526 126.145 97.3435 126.179 97.3413 126.214C97.3392 126.249 97.3439 126.284 97.3553 126.317C97.3667 126.35 97.3844 126.38 97.4076 126.406L100.2 129.556C100.224 129.585 100.255 129.608 100.29 129.624C100.325 129.64 100.362 129.647 100.4 129.646Z" fill="#D8E0E7"/>
<path d="M97.6109 128.759C97.6759 128.759 97.7386 128.735 97.7879 128.692C97.8397 128.645 97.8707 128.579 97.8745 128.509C97.8782 128.439 97.8543 128.37 97.808 128.318L95.019 125.165C94.996 125.138 94.968 125.117 94.9366 125.101C94.9052 125.086 94.8711 125.077 94.8362 125.075C94.8013 125.073 94.7663 125.079 94.7335 125.09C94.7006 125.102 94.6705 125.121 94.6449 125.145C94.6186 125.168 94.5972 125.196 94.5818 125.227C94.5664 125.258 94.5574 125.292 94.5552 125.327C94.553 125.362 94.5578 125.397 94.5691 125.43C94.5805 125.463 94.5983 125.493 94.6215 125.52L97.4105 128.669C97.4356 128.697 97.4664 128.72 97.501 128.736C97.5355 128.751 97.573 128.759 97.6109 128.759Z" fill="#D8E0E7"/>
<path d="M87.9581 120.861C88.0221 120.86 88.0836 120.836 88.1318 120.794C88.158 120.771 88.1794 120.743 88.1948 120.711C88.2102 120.68 88.2192 120.646 88.2214 120.611C88.2236 120.576 88.2189 120.541 88.2075 120.508C88.1961 120.475 88.1783 120.445 88.1551 120.419L85.3661 117.266C85.3175 117.22 85.2535 117.194 85.1867 117.194C85.12 117.193 85.0553 117.217 85.0055 117.261C84.9557 117.306 84.9242 117.367 84.9174 117.434C84.9106 117.5 84.9289 117.567 84.9687 117.621L87.7577 120.77C87.7828 120.799 87.8136 120.821 87.8482 120.837C87.8827 120.853 87.9202 120.861 87.9581 120.861Z" fill="#D8E0E7"/>
<path d="M71.8214 114.615H48.8213V131.367H71.8214V114.615Z" fill="#EFD0C8"/>
<path d="M71.8218 114.615H50.4316V131.367H71.8218V114.615Z" fill="#CDD7E0"/>
<path d="M61.5875 114.615H60.6689V131.37H61.5875V114.615Z" fill="#676476"/>
<path d="M51.4671 114.615H50.4316V131.367H51.4671V114.615Z" fill="#B0C1CE"/>
<path d="M71.8218 122.491H50.4316V123.495H71.8218V122.491Z" fill="#676476"/>
<path d="M69.6275 129.646C69.6929 129.648 69.7563 129.624 69.8045 129.579C69.8308 129.556 69.8522 129.528 69.8676 129.497C69.883 129.466 69.892 129.432 69.8942 129.397C69.8964 129.362 69.8916 129.327 69.8802 129.294C69.8689 129.261 69.8511 129.231 69.8279 129.205L67.0356 126.052C66.9883 126 66.9226 125.969 66.8526 125.965C66.7826 125.961 66.714 125.985 66.6615 126.032C66.6352 126.055 66.6138 126.083 66.5984 126.114C66.583 126.145 66.574 126.179 66.5718 126.214C66.5696 126.249 66.5744 126.284 66.5857 126.317C66.5971 126.35 66.6149 126.38 66.6381 126.406L69.4304 129.556C69.4546 129.585 69.4848 129.608 69.5189 129.623C69.5529 129.639 69.59 129.647 69.6275 129.646Z" fill="#D8E0E7"/>
<path d="M66.8384 128.759C66.9036 128.759 66.9664 128.735 67.0155 128.692C67.0419 128.669 67.0634 128.641 67.0787 128.61C67.0941 128.578 67.103 128.544 67.1048 128.509C67.1067 128.474 67.1015 128.439 67.0896 128.406C67.0777 128.373 67.0593 128.343 67.0355 128.318L64.2465 125.165C64.2236 125.138 64.1956 125.117 64.1642 125.101C64.1328 125.086 64.0986 125.077 64.0637 125.075C64.0288 125.073 63.9939 125.079 63.961 125.09C63.9281 125.102 63.898 125.121 63.8724 125.145C63.8462 125.168 63.8247 125.196 63.8093 125.227C63.794 125.258 63.7849 125.292 63.7827 125.327C63.7806 125.362 63.7853 125.397 63.7967 125.43C63.8081 125.463 63.8258 125.493 63.849 125.52L66.638 128.669C66.6631 128.697 66.694 128.72 66.7285 128.736C66.7631 128.751 66.8006 128.759 66.8384 128.759Z" fill="#D8E0E7"/>
<path d="M57.1851 120.861C57.2491 120.86 57.3106 120.836 57.3588 120.794C57.385 120.771 57.4065 120.743 57.4219 120.711C57.4372 120.68 57.4463 120.646 57.4485 120.611C57.4506 120.576 57.4459 120.541 57.4345 120.508C57.4231 120.475 57.4054 120.445 57.3822 120.419L54.5932 117.266C54.5703 117.24 54.5423 117.218 54.5109 117.203C54.4795 117.187 54.4453 117.178 54.4104 117.177C54.3755 117.175 54.3405 117.18 54.3077 117.192C54.2748 117.204 54.2447 117.222 54.2191 117.246C54.1928 117.269 54.1714 117.297 54.156 117.328C54.1406 117.36 54.1316 117.394 54.1294 117.429C54.1272 117.463 54.132 117.498 54.1434 117.531C54.1547 117.564 54.1725 117.595 54.1957 117.621L56.9847 120.77C57.0098 120.799 57.0407 120.821 57.0752 120.837C57.1098 120.853 57.1472 120.861 57.1851 120.861Z" fill="#D8E0E7"/>
<path d="M102.595 141.166H79.5947V157.918H102.595V141.166Z" fill="#EFD0C8"/>
<path d="M102.594 141.166H81.2041V157.918H102.594V141.166Z" fill="#CDD7E0"/>
<path d="M92.3599 141.166H91.4414V157.921H92.3599V141.166Z" fill="#676476"/>
<path d="M82.2395 141.166H81.2041V157.918H82.2395V141.166Z" fill="#B0C1CE"/>
<path d="M102.594 149.042H81.2041V150.046H102.594V149.042Z" fill="#676476"/>
<path d="M100.4 156.197C100.465 156.199 100.529 156.175 100.577 156.13C100.603 156.107 100.625 156.079 100.64 156.048C100.655 156.017 100.664 155.983 100.667 155.948C100.669 155.913 100.664 155.878 100.653 155.845C100.641 155.812 100.623 155.782 100.6 155.756L97.8046 152.606C97.7816 152.58 97.7536 152.559 97.7224 152.543C97.6911 152.528 97.6571 152.519 97.6224 152.517C97.5877 152.515 97.5528 152.519 97.5199 152.531C97.487 152.542 97.4566 152.56 97.4305 152.583C97.4044 152.606 97.3831 152.634 97.3678 152.665C97.3525 152.696 97.3435 152.73 97.3413 152.765C97.3392 152.8 97.3439 152.835 97.3551 152.868C97.3664 152.901 97.3841 152.931 97.4071 152.958L100.199 156.11C100.225 156.138 100.256 156.161 100.29 156.176C100.325 156.191 100.362 156.198 100.4 156.197Z" fill="#D8E0E7"/>
<path d="M97.6114 155.31C97.6767 155.311 97.7399 155.287 97.7884 155.243C97.8401 155.196 97.8712 155.13 97.875 155.06C97.8787 154.99 97.8548 154.921 97.8085 154.869L95.0194 151.719C94.9964 151.693 94.9685 151.672 94.9372 151.656C94.9059 151.641 94.872 151.632 94.8372 151.63C94.8025 151.628 94.7677 151.632 94.7347 151.644C94.7018 151.655 94.6714 151.673 94.6454 151.696C94.6193 151.719 94.5979 151.747 94.5826 151.778C94.5673 151.81 94.5584 151.844 94.5562 151.878C94.554 151.913 94.5587 151.948 94.57 151.981C94.5813 152.014 94.5989 152.044 94.622 152.071L97.411 155.223C97.4368 155.251 97.4678 155.273 97.5023 155.288C97.5367 155.302 97.5738 155.31 97.6114 155.31Z" fill="#D8E0E7"/>
<path d="M87.9581 147.412C88.0223 147.412 88.0844 147.388 88.1318 147.345C88.158 147.322 88.1794 147.294 88.1948 147.262C88.2102 147.231 88.2192 147.197 88.2214 147.162C88.2236 147.127 88.2188 147.092 88.2075 147.059C88.1961 147.026 88.1783 146.996 88.1551 146.97L85.3661 143.82C85.3431 143.794 85.3151 143.773 85.2839 143.758C85.2526 143.742 85.2187 143.733 85.1839 143.731C85.1492 143.729 85.1144 143.734 85.0814 143.745C85.0485 143.756 85.0181 143.774 84.992 143.797C84.9659 143.82 84.9446 143.848 84.9293 143.879C84.914 143.911 84.905 143.945 84.9029 143.98C84.9007 144.014 84.9054 144.049 84.9167 144.082C84.9279 144.115 84.9456 144.146 84.9686 144.172L87.7577 147.325C87.7834 147.352 87.8145 147.374 87.849 147.389C87.8834 147.404 87.9205 147.412 87.9581 147.412Z" fill="#D8E0E7"/>
<path d="M71.8214 141.166H48.8213V157.918H71.8214V141.166Z" fill="#EFD0C8"/>
<path d="M71.8218 141.166H50.4316V157.918H71.8218V141.166Z" fill="#CDD7E0"/>
<path d="M61.5875 141.166H60.6689V157.921H61.5875V141.166Z" fill="#676476"/>
<path d="M51.4671 141.166H50.4316V157.918H51.4671V141.166Z" fill="#B0C1CE"/>
<path d="M71.8218 149.042H50.4316V150.046H71.8218V149.042Z" fill="#676476"/>
<path d="M69.627 156.197C69.6924 156.199 69.7558 156.175 69.804 156.13C69.8303 156.107 69.8517 156.079 69.8671 156.048C69.8825 156.017 69.8915 155.983 69.8937 155.948C69.8959 155.913 69.8911 155.878 69.8798 155.845C69.8684 155.812 69.8506 155.782 69.8274 155.756L67.0351 152.606C67.012 152.58 66.9841 152.559 66.9528 152.543C66.9216 152.528 66.8876 152.519 66.8529 152.517C66.8181 152.515 66.7833 152.519 66.7504 152.531C66.7174 152.542 66.6871 152.56 66.661 152.583C66.6349 152.606 66.6136 152.634 66.5983 152.665C66.583 152.696 66.574 152.73 66.5718 152.765C66.5696 152.8 66.5743 152.835 66.5856 152.868C66.5969 152.901 66.6146 152.931 66.6376 152.958L69.4299 156.11C69.4548 156.138 69.4853 156.16 69.5192 156.175C69.5532 156.19 69.5899 156.198 69.627 156.197Z" fill="#D8E0E7"/>
<path d="M66.838 155.31C66.9034 155.312 66.9668 155.288 67.015 155.243C67.0414 155.221 67.0629 155.192 67.0782 155.161C67.0936 155.13 67.1025 155.095 67.1043 155.06C67.1062 155.025 67.101 154.99 67.0891 154.957C67.0772 154.924 67.0588 154.894 67.035 154.869L64.246 151.719C64.1995 151.666 64.134 151.634 64.0638 151.63C63.9936 151.625 63.9246 151.649 63.8719 151.696C63.8192 151.742 63.7871 151.808 63.7827 151.878C63.7784 151.949 63.802 152.018 63.8485 152.071L66.6375 155.223C66.6633 155.251 66.6944 155.273 66.7288 155.288C66.7633 155.303 66.8004 155.31 66.838 155.31Z" fill="#D8E0E7"/>
<path d="M57.1856 147.412C57.2499 147.412 57.3119 147.388 57.3593 147.345C57.3855 147.322 57.407 147.294 57.4223 147.262C57.4377 147.231 57.4468 147.197 57.4489 147.162C57.4511 147.127 57.4464 147.092 57.435 147.059C57.4236 147.026 57.4058 146.996 57.3827 146.97L54.5937 143.82C54.5706 143.794 54.5427 143.773 54.5114 143.758C54.4802 143.742 54.4462 143.733 54.4115 143.731C54.3767 143.729 54.3419 143.734 54.309 143.745C54.276 143.756 54.2457 143.774 54.2196 143.797C54.1935 143.82 54.1722 143.848 54.1569 143.879C54.1416 143.911 54.1326 143.945 54.1304 143.98C54.1282 144.014 54.1329 144.049 54.1442 144.082C54.1555 144.115 54.1732 144.146 54.1962 144.172L56.9852 147.325C57.011 147.352 57.042 147.374 57.0765 147.389C57.1109 147.404 57.1481 147.412 57.1856 147.412Z" fill="#D8E0E7"/>
<path d="M149.387 134.61H131.841V173.983H149.387V134.61Z" fill="#342F46"/>
<path d="M147.289 134.61H131.841V173.983H147.289V134.61Z" fill="#6E6B7B"/>
<path d="M145.388 136.578H135.023V140.494H145.388V136.578Z" fill="#342F46"/>
<path d="M144.145 136.578H135.023V140.494H144.145V136.578Z" fill="#CDD7E0"/>
<path d="M150.769 131.869H130.521V134.61H150.769V131.869Z" fill="#D4938D"/>
<path d="M149.046 163.962H131.851V173.983H149.046V163.962Z" fill="#342F46"/>
<path fill-rule="evenodd" clip-rule="evenodd" d="M153.608 170.643V170.639H157.396V173.983H142.102V170.643H153.608Z" fill="#676476"/>
<path fill-rule="evenodd" clip-rule="evenodd" d="M153.608 167.47V170.643H139.169V167.47H150.712H153.608Z" fill="#4B475C"/>
<path d="M150.712 163.962H135.524V167.47H150.712V163.962Z" fill="#676476"/>
<path fill-rule="evenodd" clip-rule="evenodd" d="M133.337 151.903C133.337 152.196 133.423 152.482 133.586 152.725C133.748 152.968 133.979 153.158 134.248 153.27C134.518 153.382 134.815 153.411 135.101 153.354C135.388 153.297 135.651 153.156 135.857 152.949C136.064 152.742 136.204 152.479 136.261 152.192C136.318 151.905 136.289 151.607 136.177 151.337C136.065 151.067 135.876 150.836 135.633 150.673C135.391 150.511 135.105 150.424 134.813 150.424C134.422 150.424 134.046 150.58 133.769 150.857C133.492 151.135 133.337 151.511 133.337 151.903Z" fill="#342F46"/>
<path fill-rule="evenodd" clip-rule="evenodd" d="M87.2833 173.983C88.7293 173.998 90.1222 173.437 91.1557 172.424C92.1892 171.41 92.7786 170.027 92.7945 168.578C92.7897 167.537 92.4848 166.52 91.9165 165.649C91.3482 164.778 90.5407 164.09 89.5913 163.668C89.7349 163.236 89.8082 162.784 89.8084 162.329C89.8014 161.351 89.4661 160.405 88.8565 159.641C88.2469 158.878 87.3986 158.343 86.4483 158.122C86.5787 157.765 86.6454 157.388 86.6453 157.007C86.6453 156.115 86.2917 155.26 85.6621 154.629C85.0326 153.998 84.1788 153.644 83.2885 153.644C82.3982 153.644 81.5444 153.998 80.9148 154.629C80.2853 155.26 79.9317 156.115 79.9317 157.007C79.9319 157.401 80.0044 157.791 80.1454 158.159C79.2277 158.405 78.4159 158.945 77.8343 159.698C77.2527 160.451 76.9335 161.374 76.9255 162.326C76.9257 162.781 76.9991 163.233 77.1426 163.664C76.1932 164.086 75.3858 164.774 74.8175 165.645C74.2492 166.516 73.9443 167.534 73.9395 168.574C73.9473 169.292 74.0962 170.001 74.3776 170.661C74.659 171.321 75.0674 171.919 75.5794 172.421C76.0915 172.923 76.6973 173.319 77.3621 173.587C78.0269 173.854 78.7377 173.987 79.454 173.98L87.2833 173.983Z" fill="#618F64"/>
<path fill-rule="evenodd" clip-rule="evenodd" d="M74.8277 173.986C75.7584 173.996 76.6821 173.823 77.5457 173.475C78.4094 173.127 79.1961 172.612 79.8609 171.959C80.5257 171.306 81.0556 170.528 81.4201 169.67C81.7847 168.812 81.9769 167.89 81.9856 166.958C81.9765 165.609 81.5793 164.292 80.8417 163.164C80.1041 162.036 79.0574 161.145 77.8271 160.599C78.014 160.037 78.1088 159.45 78.1077 158.858C78.0991 157.593 77.6663 156.368 76.8787 155.379C76.0912 154.39 74.9947 153.695 73.7655 153.406C73.9364 152.942 74.0235 152.451 74.0227 151.957C74.0227 150.799 73.5638 149.689 72.747 148.871C71.9302 148.052 70.8223 147.592 69.6672 147.592C68.512 147.592 67.4042 148.052 66.5874 148.871C65.7705 149.689 65.3117 150.799 65.3117 151.957C65.312 152.468 65.406 152.975 65.5889 153.453C64.395 153.768 63.3378 154.468 62.5802 155.445C61.8226 156.422 61.4069 157.621 61.397 158.858C61.3976 159.45 61.4923 160.037 61.6776 160.599C60.4495 161.148 59.4048 162.039 58.6681 163.167C57.9315 164.294 57.5338 165.61 57.5225 166.958C57.5312 167.89 57.7232 168.812 58.0876 169.67C58.452 170.527 58.9815 171.305 59.646 171.958C60.3104 172.611 61.0968 173.126 61.96 173.474C62.8233 173.822 63.7466 173.996 64.677 173.986H74.8277Z" fill="#99C87D"/>
<path fill-rule="evenodd" clip-rule="evenodd" d="M150.388 102.727C150.252 100.547 149.289 98.5011 147.697 97.0083C146.105 95.5155 144.004 94.6884 141.824 94.6961C139.644 94.7038 137.549 95.5457 135.968 97.0497C134.386 98.5536 133.438 100.606 133.317 102.787H133.21V116.557H150.398V102.727H150.388Z" fill="#CDD7E0"/>
<path d="M147.165 111.084C147.23 111.086 147.294 111.062 147.342 111.017C147.368 110.994 147.39 110.966 147.405 110.935C147.42 110.904 147.429 110.87 147.432 110.835C147.434 110.8 147.429 110.765 147.418 110.732C147.406 110.699 147.389 110.669 147.365 110.643L144.566 107.493C144.543 107.467 144.515 107.446 144.484 107.43C144.453 107.415 144.419 107.406 144.384 107.404C144.349 107.402 144.315 107.406 144.282 107.418C144.249 107.429 144.218 107.447 144.192 107.47C144.166 107.493 144.145 107.521 144.13 107.552C144.114 107.583 144.105 107.617 144.103 107.652C144.101 107.687 144.106 107.722 144.117 107.755C144.128 107.788 144.146 107.818 144.169 107.844L146.961 110.997C146.987 111.026 147.018 111.048 147.054 111.063C147.089 111.078 147.127 111.085 147.165 111.084Z" fill="#D8E0E7"/>
<path d="M138.691 113.327C138.756 113.327 138.819 113.303 138.868 113.26C138.895 113.236 138.917 113.207 138.933 113.175C138.949 113.143 138.958 113.108 138.96 113.072C138.962 113.036 138.956 113 138.944 112.966C138.932 112.932 138.913 112.901 138.888 112.875L136.099 109.725C136.076 109.699 136.048 109.678 136.017 109.662C135.986 109.647 135.952 109.638 135.917 109.636C135.882 109.633 135.847 109.638 135.815 109.65C135.782 109.661 135.751 109.679 135.725 109.702C135.699 109.725 135.677 109.754 135.662 109.785C135.647 109.817 135.637 109.851 135.635 109.886C135.633 109.921 135.638 109.957 135.649 109.99C135.661 110.023 135.679 110.054 135.702 110.08L138.491 113.23C138.515 113.259 138.546 113.283 138.58 113.3C138.615 113.317 138.653 113.326 138.691 113.327Z" fill="#D8E0E7"/>
<path d="M147.319 113.447C147.385 113.447 147.448 113.422 147.496 113.377C147.547 113.329 147.578 113.263 147.581 113.193C147.584 113.123 147.56 113.054 147.513 113.002L144.674 109.896C144.624 109.846 144.556 109.818 144.485 109.818C144.414 109.818 144.346 109.846 144.296 109.896C144.245 109.945 144.214 110.011 144.211 110.082C144.208 110.152 144.233 110.222 144.28 110.274L147.122 113.377C147.148 113.402 147.179 113.421 147.213 113.433C147.247 113.445 147.283 113.45 147.319 113.447Z" fill="#D8E0E7"/>
<path fill-rule="evenodd" clip-rule="evenodd" d="M141.507 94.7347V116.557H142.362V94.7347C142.182 94.7347 142.005 94.7079 141.821 94.7079C141.714 94.7179 141.61 94.728 141.507 94.7347Z" fill="#676476"/>
<path d="M150.389 105.073H133.2V105.93H150.389V105.073Z" fill="#676476"/>
<path fill-rule="evenodd" clip-rule="evenodd" d="M150.388 102.727C150.263 100.765 149.465 98.9072 148.131 97.4664C146.796 96.0255 145.006 95.0902 143.063 94.8184C144.691 95.3911 146.113 96.4357 147.147 97.8194C148.181 99.2031 148.781 100.864 148.872 102.59V116.557H150.388V102.727Z" fill="#D4938D"/>
<path d="M17.3855 166.114H13.748V173.825H17.3855V166.114Z" fill="#816152"/>
<path fill-rule="evenodd" clip-rule="evenodd" d="M9.15531 166.248C4.09834 166.248 0 162.232 0 157.275C0.00832289 155.548 0.514638 153.859 1.45802 152.414C2.4014 150.968 3.74165 149.826 5.31749 149.125C5.07814 148.407 4.95632 147.654 4.95676 146.896C4.96957 145.275 5.52643 143.706 6.53767 142.441C7.54891 141.175 8.95567 140.288 10.5314 139.921C10.3113 139.329 10.1982 138.702 10.1974 138.07C10.233 136.613 10.8358 135.227 11.8771 134.209C12.9183 133.191 14.3156 132.621 15.7704 132.621C17.2253 132.621 18.6225 133.191 19.6638 134.209C20.7051 135.227 21.3078 136.613 21.3435 138.07C21.3428 138.724 21.2228 139.372 20.9894 139.982C22.5136 140.387 23.8624 141.284 24.8281 142.534C25.7938 143.783 26.3228 145.316 26.3336 146.896C26.3333 147.654 26.2127 148.406 25.9762 149.125C27.5521 149.826 28.8923 150.968 29.8357 152.414C30.7791 153.859 31.2854 155.548 31.2937 157.275C31.2937 162.232 27.1954 166.248 22.1384 166.248H9.15531Z" fill="#618F64"/>
<path d="M33.8892 163.607H29.1562V173.826H33.8892V163.607Z" fill="#986E56"/>
<path fill-rule="evenodd" clip-rule="evenodd" d="M23.1775 163.966C16.6008 163.966 11.2666 158.738 11.2666 152.285C11.2782 150.037 11.9375 147.84 13.1652 145.958C14.3929 144.077 16.1369 142.591 18.1874 141.679C17.8767 140.744 17.7188 139.765 17.7197 138.78C17.7351 136.671 18.4588 134.628 19.7744 132.981C21.0899 131.335 22.9206 130.18 24.9712 129.703C24.687 128.931 24.5423 128.114 24.5436 127.29C24.6009 125.401 25.3899 123.609 26.7436 122.293C28.0972 120.977 29.9091 120.241 31.7951 120.241C33.681 120.241 35.4929 120.977 36.8465 122.293C38.2002 123.609 38.9893 125.401 39.0465 127.29C39.0471 128.142 38.8909 128.986 38.5856 129.78C40.5691 130.308 42.3243 131.476 43.5804 133.102C44.8365 134.728 45.5238 136.724 45.5364 138.78C45.5373 139.765 45.3794 140.744 45.0687 141.679C47.1192 142.591 48.8632 144.077 50.0909 145.958C51.3186 147.84 51.9779 150.037 51.9895 152.285C51.9895 158.738 46.6453 163.966 40.0752 163.966H23.1775Z" fill="#99C87D"/>
<path fill-rule="evenodd" clip-rule="evenodd" d="M44.6432 174C45.4472 174.008 46.2451 173.858 46.9913 173.558C47.7375 173.258 48.4173 172.814 48.9921 172.25C49.5668 171.687 50.0252 171.015 50.3409 170.274C50.6567 169.533 50.8237 168.737 50.8324 167.932C50.8291 166.762 50.488 165.618 49.8503 164.638C49.2126 163.658 48.3055 162.884 47.2385 162.409C47.3988 161.922 47.48 161.413 47.4789 160.9C47.471 159.804 47.0949 158.743 46.4113 157.888C45.7277 157.033 44.7765 156.434 43.7113 156.187C43.8592 155.785 43.935 155.36 43.9351 154.932C43.9351 153.931 43.5381 152.971 42.8315 152.263C42.125 151.555 41.1666 151.157 40.1674 151.157C39.1681 151.157 38.2098 151.555 37.5032 152.263C36.7967 152.971 36.3997 153.931 36.3997 154.932C36.3993 155.375 36.4797 155.814 36.6369 156.227C35.6049 156.502 34.692 157.11 34.0394 157.957C33.3868 158.804 33.0307 159.843 33.0262 160.913C33.0262 161.426 33.1085 161.936 33.27 162.423C32.2029 162.895 31.2949 163.666 30.6555 164.643C30.016 165.621 29.6724 166.763 29.666 167.932C29.6747 168.738 29.8419 169.534 30.1578 170.275C30.4738 171.016 30.9325 171.688 31.5076 172.251C32.0826 172.815 32.7629 173.259 33.5095 173.559C34.2561 173.859 35.0543 174.009 35.8586 174H44.6432Z" fill="#618F64"/>
<path d="M198.844 123.031C196.078 113.738 187.839 106.938 178.203 106.082C168.432 105.216 159.044 110.449 154.783 119.228C152.055 124.844 151.43 130.64 153.717 136.576C154.502 138.616 155.301 140.645 156.23 142.608C159.766 150.01 164.147 156.914 168.784 163.662C171.096 167.032 173.505 170.335 175.984 173.825C176.353 173.372 176.6 173.102 176.801 172.808C180.83 166.953 184.964 161.171 188.839 155.217C192.404 149.811 195.435 144.07 197.887 138.074C199.864 133.145 200.382 128.19 198.844 123.031ZM175.959 141.284C173.694 141.262 171.486 140.569 169.614 139.292C167.741 138.014 166.288 136.21 165.438 134.106C164.588 132.002 164.379 129.693 164.837 127.469C165.295 125.246 166.399 123.209 168.012 121.614C169.624 120.02 171.671 118.939 173.895 118.509C176.12 118.079 178.421 118.319 180.51 119.198C182.598 120.077 184.38 121.556 185.631 123.449C186.881 125.342 187.544 127.563 187.536 129.833C187.529 131.347 187.223 132.845 186.637 134.241C186.05 135.636 185.195 136.902 184.119 137.966C183.044 139.03 181.77 139.87 180.369 140.44C178.969 141.009 177.471 141.296 175.959 141.284Z" fill="#EA7B5E"/>
<path fill-rule="evenodd" clip-rule="evenodd" d="M123.937 51.6204C123.937 51.4163 123.9 51.2155 123.9 51.008C123.9 45.4521 129.014 40.9672 135.324 40.9672C140.197 40.9672 144.342 43.6448 145.989 47.4368C147.841 45.7144 150.282 44.7692 152.809 44.7961C157.422 44.7961 161.24 47.7581 161.965 51.6372L123.937 51.6204Z" fill="white"/>
<path fill-rule="evenodd" clip-rule="evenodd" d="M5.38636 62.7572C5.38636 62.553 5.34961 62.3522 5.34961 62.1447C5.34961 56.5888 10.4634 52.1039 16.7729 52.1039C21.6461 52.1039 25.7912 54.7815 27.4379 58.5735C29.2904 56.8511 31.7315 55.906 34.2585 55.9328C38.8712 55.9328 42.689 58.8948 43.4138 62.7739L5.38636 62.7572Z" fill="white"/>
</g>
<defs>
<clipPath id="clip0_118_4823">
<rect width="216" height="174" fill="white"/>
</clipPath>
</defs>
</svg>
