<svg width="26" height="26" viewBox="0 0 26 26" fill="none" xmlns="http://www.w3.org/2000/svg">
<rect width="26" height="26" rx="4" fill="#F4F4F4"/>
<g clip-path="url(#clip0_4962_69074)">
<path d="M19 8.33333H17.6667V7C17.6667 5.89733 16.7693 5 15.6667 5H10.3333C9.23067 5 8.33333 5.89733 8.33333 7V11H7C5.89733 11 5 11.8973 5 13V21H21V10.3333C21 9.23067 20.1027 8.33333 19 8.33333ZM9 17.6667H7.66667V16.3333H9V17.6667ZM9 15H7.66667V13.6667H9V15ZM12.3333 17.6667H11V16.3333H12.3333V17.6667ZM12.3333 15H11V13.6667H12.3333V15ZM12.3333 12.3333H11V11H12.3333V12.3333ZM12.3333 9.66667H11V8.33333H12.3333V9.66667ZM15 17.6667H13.6667V16.3333H15V17.6667ZM15 15H13.6667V13.6667H15V15ZM15 12.3333H13.6667V11H15V12.3333ZM15 9.66667H13.6667V8.33333H15V9.66667ZM18.3333 17.6667H17V16.3333H18.3333V17.6667ZM18.3333 15H17V13.6667H18.3333V15ZM18.3333 12.3333H17V11H18.3333V12.3333Z" fill="#ABABAB"/>
</g>
<defs>
<clipPath id="clip0_4962_69074">
<rect width="16" height="16" fill="white" transform="translate(5 5)"/>
</clipPath>
</defs>
</svg>
