<svg width="88" height="88" viewBox="0 0 88 88" fill="none" xmlns="http://www.w3.org/2000/svg">
<g clip-path="url(#clip0_2948_65773)">
<path d="M16.9961 25.3664H70.9918V70.7471H16.9961V25.3664Z" fill="#DBDFE0"/>
<path d="M30.1602 13.7383H57.8543V70.7471H30.1602V13.7383Z" fill="#EFF3F5"/>
<path d="M13.2422 70.7471H74.7578V74.2617H13.2422V70.7471Z" fill="#445C6C"/>
<path d="M35.9727 57.2127H52.3203V70.759H35.9727V57.2127Z" fill="#788D9A"/>
<path d="M35.8281 18.4205H41.8828V24.3776H35.8281V18.4205Z" fill="#4FB1B3"/>
<path d="M35.8281 28.1186H41.8828V34.0756H35.8281V28.1186Z" fill="#4FB1B3"/>
<path d="M35.8281 37.8286H41.8828V43.7856H35.8281V37.8286Z" fill="#4FB1B3"/>
<path d="M35.8281 47.5266H41.8828V53.4836H35.8281V47.5266Z" fill="#4FB1B3"/>
<path d="M46.2539 18.4205H52.3086V24.3776H46.2539V18.4205Z" fill="#4FB1B3"/>
<path d="M46.2539 28.1186H52.3086V34.0756H46.2539V28.1186Z" fill="#4FB1B3"/>
<path d="M46.2539 37.8286H52.3086V43.7856H46.2539V37.8286Z" fill="#4FB1B3"/>
<path d="M46.2539 47.5266H52.3086V53.4836H46.2539V47.5266Z" fill="#4FB1B3"/>
<path d="M61.2539 30.3822H67.3086V36.3392H61.2539V30.3822Z" fill="#239EA0"/>
<path d="M61.2539 40.0922H67.3086V46.0492H61.2539V40.0922Z" fill="#239EA0"/>
<path d="M61.2539 49.7902H67.3086V55.7473H61.2539V49.7902Z" fill="#239EA0"/>
<path d="M61.2539 59.5002H67.3086V65.4572H61.2539V59.5002Z" fill="#239EA0"/>
<path d="M20.6758 30.3822H26.7305V36.3392H20.6758V30.3822Z" fill="#239EA0"/>
<path d="M20.6758 40.0922H26.7305V46.0492H20.6758V40.0922Z" fill="#239EA0"/>
<path d="M20.6758 49.7902H26.7305V55.7473H20.6758V49.7902Z" fill="#239EA0"/>
<path d="M20.6758 59.5002H26.7305V65.4572H20.6758V59.5002Z" fill="#239EA0"/>
</g>
<defs>
<clipPath id="clip0_2948_65773">
<rect width="62" height="61" fill="white" transform="translate(13 13.5)"/>
</clipPath>
</defs>
</svg>
