<svg width="62" height="61" viewBox="0 0 62 61" fill="none" xmlns="http://www.w3.org/2000/svg">
<g clip-path="url(#clip0_2981_65562)">
<path d="M4 11.8664H57.9957V57.2471H4V11.8664Z" fill="#DBDFE0"/>
<path d="M17.1562 0.238281H44.8504V57.2471H17.1562V0.238281Z" fill="#EFF3F5"/>
<path d="M0.242188 57.2471H61.7578V60.7617H0.242188V57.2471Z" fill="#445C6C"/>
<path d="M22.9688 43.7127H39.3164V57.259H22.9688V43.7127Z" fill="#788D9A"/>
<path d="M22.8281 4.92053H28.8828V10.8776H22.8281V4.92053Z" fill="#4FB1B3"/>
<path d="M22.8281 14.6186H28.8828V20.5756H22.8281V14.6186Z" fill="#4FB1B3"/>
<path d="M22.8281 24.3286H28.8828V30.2856H22.8281V24.3286Z" fill="#4FB1B3"/>
<path d="M22.8281 34.0266H28.8828V39.9836H22.8281V34.0266Z" fill="#4FB1B3"/>
<path d="M33.2578 4.92053H39.3125V10.8776H33.2578V4.92053Z" fill="#4FB1B3"/>
<path d="M33.2578 14.6186H39.3125V20.5756H33.2578V14.6186Z" fill="#4FB1B3"/>
<path d="M33.2578 24.3286H39.3125V30.2856H33.2578V24.3286Z" fill="#4FB1B3"/>
<path d="M33.2578 34.0266H39.3125V39.9836H33.2578V34.0266Z" fill="#4FB1B3"/>
<path d="M48.2578 16.8822H54.3125V22.8392H48.2578V16.8822Z" fill="#239EA0"/>
<path d="M48.2578 26.5922H54.3125V32.5492H48.2578V26.5922Z" fill="#239EA0"/>
<path d="M48.2578 36.2902H54.3125V42.2473H48.2578V36.2902Z" fill="#239EA0"/>
<path d="M48.2578 46.0002H54.3125V51.9572H48.2578V46.0002Z" fill="#239EA0"/>
<path d="M7.67969 16.8822H13.7344V22.8392H7.67969V16.8822Z" fill="#239EA0"/>
<path d="M7.67969 26.5922H13.7344V32.5492H7.67969V26.5922Z" fill="#239EA0"/>
<path d="M7.67969 36.2902H13.7344V42.2473H7.67969V36.2902Z" fill="#239EA0"/>
<path d="M7.67969 46.0002H13.7344V51.9572H7.67969V46.0002Z" fill="#239EA0"/>
</g>
<defs>
<clipPath id="clip0_2981_65562">
<rect width="62" height="61" fill="white"/>
</clipPath>
</defs>
</svg>
