<svg width="62" height="61" viewBox="0 0 62 61" fill="none" xmlns="http://www.w3.org/2000/svg">
<g clip-path="url(#clip0_2981_65633)">
<path d="M13.6451 25.9498H1.24751C0.558484 25.9498 0 26.4993 0 27.1772V59.5271C0 60.205 0.558484 60.7545 1.24751 60.7545H13.5204L13.6451 60.0796V25.9498Z" fill="#DFE2E9"/>
<path d="M9.86611 25.9498V55.8451C9.86611 56.523 9.30763 57.0725 8.61861 57.0725H0V59.5272C0 60.2051 0.558484 60.7546 1.24751 60.7546H13.6451V25.9498H9.86611Z" fill="#CED5E2"/>
<path d="M53.0827 29.3441L48.307 32.0568C48.1197 32.1633 47.9062 32.2196 47.6897 32.2196C47.4733 32.2196 47.26 32.1633 47.0724 32.0568L42.2967 29.3441C41.7802 29.0508 41.2828 28.7329 40.8047 28.3932V60.0795L40.9294 60.7545H53.2023C53.8913 60.7545 54.4498 60.205 54.4498 59.5271V28.4796C54.0101 28.7865 53.5548 29.076 53.0827 29.3441Z" fill="#DFE2E9"/>
<path d="M50.6709 30.714V55.8449C50.6709 56.5228 50.1124 57.0723 49.4234 57.0723H40.8047V60.0794L40.9295 60.7543H53.2024C53.8913 60.7543 54.4499 60.2049 54.4499 59.5269V28.4796C54.01 28.7865 53.5545 29.076 53.0826 29.3441L50.6709 30.714Z" fill="#CED5E2"/>
<path d="M40.9346 60.7545H13.5234V12.1301C13.5234 11.4522 14.0819 10.9027 14.7709 10.9027H39.6872C40.3762 10.9027 40.9347 11.4522 40.9347 12.1301L40.9346 60.7545Z" fill="#DFE2E9"/>
<path d="M39.6872 10.9027H35.9448V55.8449C35.9448 56.5228 35.3863 57.0723 34.6973 57.0723H13.5234V60.7544H40.9346V12.1301C40.9346 11.4522 40.3761 10.9027 39.6872 10.9027Z" fill="#CED5E2"/>
<path d="M29.2021 60.7545H25.25V54.1347C25.25 53.9313 25.4176 53.7664 25.6243 53.7664H28.828C29.0347 53.7664 29.2023 53.9313 29.2023 54.1347V60.7545H29.2021Z" fill="#D4D9E3"/>
<path d="M25.25 57.0723H29.2021V60.7544H25.25V57.0723Z" fill="#C0C9D8"/>
<path d="M49.2968 31.4988H49.2946L48.3122 32.0568C48.1249 32.1633 47.9114 32.2196 47.6949 32.2196C47.4785 32.2196 47.2651 32.1633 47.0775 32.0568L46.0951 31.4988H46.0931C45.8863 31.4988 45.7188 31.6637 45.7188 31.867V36.8912C45.7188 37.0946 45.8863 37.2595 46.0931 37.2595H49.2967C49.5034 37.2595 49.671 37.0946 49.671 36.8912V31.867C49.6711 31.6637 49.5035 31.4988 49.2968 31.4988Z" fill="#C0C9D8"/>
<path d="M8.35921 37.2593H5.15555C4.94884 37.2593 4.78125 37.0945 4.78125 36.8911V31.8669C4.78125 31.6635 4.94884 31.4987 5.15555 31.4987H8.35921C8.56591 31.4987 8.73351 31.6635 8.73351 31.8669V36.8911C8.73351 37.0946 8.56591 37.2593 8.35921 37.2593Z" fill="#C0C9D8"/>
<path d="M49.2967 49.3566H46.0931C45.8863 49.3566 45.7188 49.1917 45.7188 48.9884V43.9642C45.7188 43.7608 45.8863 43.5959 46.0931 43.5959H49.2967C49.5034 43.5959 49.671 43.7608 49.671 43.9642V48.9884C49.671 49.1919 49.5034 49.3566 49.2967 49.3566Z" fill="#C0C9D8"/>
<path d="M21.0936 26.3143H17.8899C17.6832 26.3143 17.5156 26.1494 17.5156 25.946V20.9219C17.5156 20.7185 17.6832 20.5536 17.8899 20.5536H21.0936C21.3003 20.5536 21.4679 20.7185 21.4679 20.9219V25.946C21.4678 26.1494 21.3002 26.3143 21.0936 26.3143Z" fill="white"/>
<path d="M21.0936 37.8355H17.8899C17.6832 37.8355 17.5156 37.6706 17.5156 37.4673V32.4431C17.5156 32.2397 17.6832 32.0748 17.8899 32.0748H21.0936C21.3003 32.0748 21.4679 32.2397 21.4679 32.4431V37.4673C21.4678 37.6706 21.3002 37.8355 21.0936 37.8355Z" fill="white"/>
<path d="M21.0936 49.3567H17.8899C17.6832 49.3567 17.5156 49.1918 17.5156 48.9884V43.9643C17.5156 43.7609 17.6832 43.596 17.8899 43.596H21.0936C21.3003 43.596 21.4679 43.7609 21.4679 43.9643V48.9884C21.4678 49.1919 21.3002 49.3567 21.0936 49.3567Z" fill="white"/>
<path d="M28.828 26.3143H25.6243C25.4176 26.3143 25.25 26.1494 25.25 25.946V20.9219C25.25 20.7185 25.4176 20.5536 25.6243 20.5536H28.828C29.0347 20.5536 29.2023 20.7185 29.2023 20.9219V25.946C29.2021 26.1494 29.0347 26.3143 28.828 26.3143Z" fill="white"/>
<path d="M28.828 37.8355H25.6243C25.4176 37.8355 25.25 37.6706 25.25 37.4673V32.4431C25.25 32.2397 25.4176 32.0748 25.6243 32.0748H28.828C29.0347 32.0748 29.2023 32.2397 29.2023 32.4431V37.4673C29.2021 37.6706 29.0347 37.8355 28.828 37.8355Z" fill="white"/>
<path d="M28.828 49.3567H25.6243C25.4176 49.3567 25.25 49.1918 25.25 48.9884V43.9643C25.25 43.7609 25.4176 43.596 25.6243 43.596H28.828C29.0347 43.596 29.2023 43.7609 29.2023 43.9643V48.9884C29.2021 49.1919 29.0347 49.3567 28.828 49.3567Z" fill="white"/>
<path d="M36.5623 37.8355H33.3587C33.152 37.8355 32.9844 37.6706 32.9844 37.4673V32.4431C32.9844 32.2397 33.152 32.0748 33.3587 32.0748H36.5623C36.769 32.0748 36.9366 32.2397 36.9366 32.4431V37.4673C36.9366 37.6706 36.769 37.8355 36.5623 37.8355Z" fill="white"/>
<path d="M36.5623 26.3143H33.3587C33.152 26.3143 32.9844 26.1494 32.9844 25.946V20.9219C32.9844 20.7185 33.152 20.5536 33.3587 20.5536H36.5623C36.769 20.5536 36.9366 20.7185 36.9366 20.9219V25.946C36.9366 26.1494 36.769 26.3143 36.5623 26.3143Z" fill="white"/>
<path d="M35.9453 26.3143H36.5659C36.7726 26.3143 36.9402 26.1494 36.9402 25.946V20.9219C36.9402 20.7185 36.7726 20.5536 36.5659 20.5536H35.9453V26.3143Z" fill="#F8F6F6"/>
<path d="M36.5623 49.3567H33.3587C33.152 49.3567 32.9844 49.1918 32.9844 48.9884V43.9643C32.9844 43.7609 33.152 43.596 33.3587 43.596H36.5623C36.769 43.596 36.9366 43.7609 36.9366 43.9643V48.9884C36.9366 49.1919 36.769 49.3567 36.5623 49.3567Z" fill="white"/>
<path d="M36.5623 49.3567H33.3587C33.152 49.3567 32.9844 49.1918 32.9844 48.9884V43.9643C32.9844 43.7609 33.152 43.596 33.3587 43.596H36.5623C36.769 43.596 36.9366 43.7609 36.9366 43.9643V48.9884C36.9366 49.1919 36.769 49.3567 36.5623 49.3567Z" fill="white"/>
<path d="M35.9453 49.3567H36.5659C36.7726 49.3567 36.9402 49.1918 36.9402 48.9884V43.9643C36.9402 43.7609 36.7726 43.596 36.5659 43.596H35.9453V49.3567Z" fill="#F8F6F6"/>
<path d="M8.35921 49.3566H5.15555C4.94884 49.3566 4.78125 49.1917 4.78125 48.9884V43.9642C4.78125 43.7608 4.94884 43.5959 5.15555 43.5959H8.35921C8.56591 43.5959 8.73351 43.7608 8.73351 43.9642V48.9884C8.73351 49.1919 8.56591 49.3566 8.35921 49.3566Z" fill="#C0C9D8"/>
<path d="M42.2357 29.4504C36.7574 26.3386 33.3828 20.5876 33.3828 14.364V8.93831C33.3828 8.46056 33.642 8.01902 34.0625 7.78015L47.0114 0.424763C47.432 0.185886 47.9501 0.185886 48.3707 0.424763L61.3196 7.78015C61.7402 8.01902 61.9993 8.46056 61.9993 8.93831V14.364C61.9993 20.5876 58.6246 26.3386 53.1464 29.4504L48.3707 32.1631C47.9501 32.402 47.432 32.402 47.0114 32.1631L42.2357 29.4504Z" fill="#9AD2D3"/>
<path d="M61.3186 7.78013L53.9587 3.59949V11.3635C53.9587 17.5872 50.5839 22.1107 45.1058 25.2226L40.1328 28.0474C40.7935 28.5592 41.4941 29.0297 42.2349 29.4504L47.0106 32.1631C47.4311 32.402 47.9493 32.402 48.3698 32.1631L53.1455 29.4504C58.6236 26.3385 61.9983 20.5876 61.9983 14.3641V8.93842C61.9983 8.46054 61.7392 8.01913 61.3186 7.78013Z" fill="#239EA0"/>
<path d="M44.7808 25.1071C40.8798 22.8911 38.4766 18.7959 38.4766 14.364V11.2549C38.4766 11.1354 38.5413 11.025 38.6465 10.9654L47.5174 5.9263C47.6225 5.86661 47.7521 5.86661 47.8572 5.9263L56.7284 10.9654C56.8335 11.025 56.8983 11.1355 56.8983 11.2549V14.3641C56.8983 18.796 54.4951 22.8913 50.5939 25.1072L47.8572 26.6616C47.7521 26.7213 47.6225 26.7213 47.5174 26.6616L44.7808 25.1071Z" fill="white"/>
<path d="M56.7316 10.9652L53.9593 9.39044V11.3634C53.9593 17.5871 50.5845 22.1106 45.1063 25.2224L45.0469 25.2563L47.5207 26.6615C47.6258 26.7212 47.7554 26.7212 47.8605 26.6615L50.5972 25.1071C54.4984 22.8912 56.9016 18.7959 56.9016 14.364V11.2549C56.9015 11.1354 56.8367 11.0251 56.7316 10.9652Z" fill="#F8F6F6"/>
<path d="M47.1659 20.0893C46.9175 20.0893 46.6797 19.9892 46.5082 19.8119L43.1099 16.3013C42.764 15.9439 42.778 15.3783 43.1412 15.038C43.5045 14.6978 44.0794 14.7114 44.4253 15.0688L47.1429 17.8762L51.2447 13.3362C51.5778 12.9674 52.1519 12.9341 52.5268 13.2619C52.9017 13.5898 52.9355 14.1545 52.6022 14.5234L47.8447 19.7893C47.6759 19.976 47.4354 20.0848 47.1815 20.089C47.1763 20.0893 47.1711 20.0893 47.1659 20.0893Z" fill="#239EA0"/>
<path d="M35.9453 37.8355H36.5659C36.7726 37.8355 36.9402 37.6706 36.9402 37.4673V32.4431C36.9402 32.2397 36.7726 32.0748 36.5659 32.0748H35.9453V37.8355Z" fill="#F8F6F6"/>
</g>
<defs>
<clipPath id="clip0_2981_65633">
<rect width="62" height="61" fill="white"/>
</clipPath>
</defs>
</svg>
