<svg width="90" height="67" viewBox="0 0 90 67" fill="none" xmlns="http://www.w3.org/2000/svg">
<g clip-path="url(#clip0_4167_67420)">
<path d="M56.0441 67C74.7978 67 90.0007 52.0015 90.0007 33.5C90.0007 14.9985 74.7978 0 56.0441 0C37.2903 0 22.0874 14.9985 22.0874 33.5C22.0874 52.0015 37.2903 67 56.0441 67Z" fill="#239FA1"/>
<path d="M33.7603 9.94531H78.3284V65.9531H33.7603V9.94531Z" fill="white"/>
<path d="M78.3283 67.0001H33.7602C33.6186 67.0085 33.4769 66.9871 33.3443 66.9375C33.2117 66.8879 33.0913 66.811 32.991 66.7121C32.8907 66.6132 32.8128 66.4944 32.7625 66.3635C32.7122 66.2327 32.6906 66.0929 32.6991 65.9532V9.94539C32.6906 9.80572 32.7122 9.66586 32.7625 9.53504C32.8128 9.40422 32.8907 9.28543 32.991 9.18649C33.0913 9.08755 33.2117 9.01072 33.3443 8.96108C33.4769 8.91144 33.6186 8.89012 33.7602 8.89851H78.3283C78.4699 8.89012 78.6117 8.91144 78.7443 8.96108C78.8769 9.01072 78.9973 9.08755 79.0976 9.18649C79.1979 9.28543 79.2757 9.40422 79.326 9.53504C79.3764 9.66586 79.398 9.80572 79.3895 9.94539V65.9532C79.398 66.0929 79.3764 66.2327 79.326 66.3635C79.2757 66.4944 79.1979 66.6132 79.0976 66.7121C78.9973 66.811 78.8769 66.8879 78.7443 66.9375C78.6117 66.9871 78.4699 67.0085 78.3283 67.0001ZM34.8214 64.9063H77.2672V10.9923H34.8214V64.9063Z" fill="#183651"/>
<path d="M80.5563 67.0001H31.5314C31.2499 67.0001 30.98 66.8898 30.781 66.6935C30.582 66.4971 30.4702 66.2308 30.4702 65.9532C30.4702 65.6756 30.582 65.4093 30.781 65.2129C30.98 65.0166 31.2499 64.9063 31.5314 64.9063H80.4502C80.5917 64.8979 80.7335 64.9193 80.8661 64.9689C80.9987 65.0185 81.1191 65.0954 81.2194 65.1943C81.3197 65.2932 81.3976 65.412 81.4479 65.5429C81.4982 65.6737 81.5198 65.8135 81.5113 65.9532C81.5225 66.0847 81.5063 66.2171 81.4636 66.3421C81.421 66.4672 81.3528 66.5823 81.2633 66.6804C81.1738 66.7785 81.0649 66.8575 80.9433 66.9125C80.8217 66.9674 80.69 66.9972 80.5563 67.0001Z" fill="#183651"/>
<path d="M39.8086 4.08276H72.2796V9.94526H39.8086V4.08276Z" fill="#CEF6D3"/>
<path d="M72.2796 10.9922H39.8086C39.667 11.0006 39.5252 10.9793 39.3926 10.9296C39.26 10.88 39.1396 10.8032 39.0393 10.7042C38.939 10.6053 38.8612 10.4865 38.8108 10.3557C38.7605 10.2249 38.7389 10.085 38.7474 9.94534V4.08284C38.7389 3.94317 38.7605 3.80331 38.8108 3.67249C38.8612 3.54168 38.939 3.42288 39.0393 3.32394C39.1396 3.225 39.26 3.14817 39.3926 3.09853C39.5252 3.04889 39.667 3.02757 39.8086 3.03596H72.2796C72.4212 3.02757 72.5629 3.04889 72.6955 3.09853C72.8281 3.14817 72.9486 3.225 73.0488 3.32394C73.1491 3.42288 73.227 3.54168 73.2773 3.67249C73.3276 3.80331 73.3493 3.94317 73.3408 4.08284V9.94534C73.3221 10.2169 73.2044 10.4727 73.0092 10.6652C72.8141 10.8576 72.5549 10.9738 72.2796 10.9922ZM40.8697 8.89846H71.2185V5.12971H40.8697V8.89846Z" fill="#183651"/>
<path d="M74.2959 5.12971H37.7924C37.6509 5.13811 37.5091 5.11678 37.3765 5.06714C37.2439 5.0175 37.1235 4.94067 37.0232 4.84174C36.9229 4.7428 36.845 4.624 36.7947 4.49318C36.7444 4.36236 36.7228 4.2225 36.7313 4.08284C36.7228 3.94317 36.7444 3.80331 36.7947 3.67249C36.845 3.54168 36.9229 3.42288 37.0232 3.32394C37.1235 3.225 37.2439 3.14817 37.3765 3.09853C37.5091 3.04889 37.6509 3.02757 37.7924 3.03596H74.2959C74.4374 3.02757 74.5792 3.04889 74.7118 3.09853C74.8444 3.14817 74.9648 3.225 75.0651 3.32394C75.1654 3.42288 75.2433 3.54168 75.2936 3.67249C75.3439 3.80331 75.3655 3.94317 75.357 4.08284C75.357 4.36049 75.2452 4.62676 75.0462 4.82309C74.8472 5.01942 74.5773 5.12971 74.2959 5.12971Z" fill="#183651"/>
<path d="M65.9385 53.2368V65.904H45.9889V53.2368H65.9385Z" fill="#E1E6E9"/>
<path d="M66.0188 67H46.0693C45.9277 67.0084 45.786 66.9871 45.6534 66.9375C45.5208 66.8878 45.4003 66.811 45.3001 66.7121C45.1998 66.6131 45.1219 66.4943 45.0716 66.3635C45.0213 66.2327 44.9996 66.0928 45.0082 65.9531V53.286C44.9996 53.1463 45.0213 53.0064 45.0716 52.8756C45.1219 52.7448 45.1998 52.626 45.3001 52.5271C45.4003 52.4281 45.5208 52.3513 45.6534 52.3017C45.786 52.252 45.9277 52.2307 46.0693 52.2391H66.0188C66.1604 52.2307 66.3022 52.252 66.4348 52.3017C66.5674 52.3513 66.6878 52.4281 66.7881 52.5271C66.8884 52.626 66.9662 52.7448 67.0166 52.8756C67.0669 53.0064 67.0885 53.1463 67.08 53.286V65.9531C67.08 66.2308 66.9682 66.4971 66.7692 66.6934C66.5702 66.8897 66.3003 67 66.0188 67ZM47.1304 64.9063H64.9577V54.3328H47.1304V64.9063Z" fill="#183651"/>
<path d="M67.8227 54.3328H44.2652C43.9838 54.3328 43.7139 54.2225 43.5149 54.0262C43.3159 53.8299 43.2041 53.5636 43.2041 53.286C43.2041 53.0083 43.3159 52.742 43.5149 52.5457C43.7139 52.3494 43.9838 52.2391 44.2652 52.2391H67.8227C67.9642 52.2307 68.106 52.252 68.2386 52.3017C68.3712 52.3513 68.4916 52.4281 68.5919 52.5271C68.6922 52.626 68.7701 52.7448 68.8204 52.8756C68.8707 53.0064 68.8923 53.1463 68.8838 53.286C68.8838 53.5636 68.772 53.8299 68.573 54.0262C68.374 54.2225 68.1041 54.3328 67.8227 54.3328Z" fill="#183651"/>
<path d="M56.0439 66.9999C55.9023 67.0083 55.7606 66.987 55.628 66.9374C55.4954 66.8877 55.375 66.8109 55.2747 66.712C55.1744 66.613 55.0965 66.4942 55.0462 66.3634C54.9959 66.2326 54.9743 66.0927 54.9828 65.9531V53.2859C54.9828 53.0082 55.0946 52.742 55.2936 52.5456C55.4926 52.3493 55.7625 52.239 56.0439 52.239C56.3253 52.239 56.5953 52.3493 56.7943 52.5456C56.9933 52.742 57.1051 53.0082 57.1051 53.2859V65.9531C57.1051 66.2307 56.9933 66.497 56.7943 66.6933C56.5953 66.8897 56.3253 66.9999 56.0439 66.9999Z" fill="#183651"/>
<path d="M37.7925 20.728H43.841V26.6952H37.7925V20.728Z" fill="#219788"/>
<path d="M47.9795 20.728H54.028V26.6952H47.9795V20.728Z" fill="#219788"/>
<path d="M58.0605 20.728H64.1091V26.6952H58.0605V20.728Z" fill="#219788"/>
<path d="M68.2476 20.728H74.2961V26.6952H68.2476V20.728Z" fill="#219788"/>
<path d="M37.7925 29.6265H43.841V35.5937H37.7925V29.6265Z" fill="#219788"/>
<path d="M47.9795 29.6265H54.028V35.5937H47.9795V29.6265Z" fill="#219788"/>
<path d="M58.0605 29.6265H64.1091V35.5937H58.0605V29.6265Z" fill="#219788"/>
<path d="M68.2476 29.6265H74.2961V35.5937H68.2476V29.6265Z" fill="#219788"/>
<path d="M37.7925 38.4204H43.841V44.3876H37.7925V38.4204Z" fill="#219788"/>
<path d="M47.9795 38.4204H54.028V44.3876H47.9795V38.4204Z" fill="#219788"/>
<path d="M58.0605 38.4204H64.1091V44.3876H58.0605V38.4204Z" fill="#219788"/>
<path d="M68.2476 38.4204H74.2961V44.3876H68.2476V38.4204Z" fill="#219788"/>
<path d="M17.8125 49.4272H26.3621V56.8077H17.8125V49.4272Z" fill="url(#paint0_linear_4167_67420)"/>
<path d="M17.8125 53.645C18.3686 54.2066 19.0339 54.6518 19.7686 54.9538C20.5032 55.2558 21.292 55.4085 22.0879 55.4027C22.8854 55.4219 23.6782 55.2754 24.4146 54.9725C25.151 54.6697 25.8145 54.2174 26.3621 53.645V67.0011H17.8125V53.645Z" fill="#23A2A4"/>
<path d="M17.8126 53.645C18.3687 54.2066 19.034 54.6518 19.7687 54.9538C20.5033 55.2558 21.2921 55.4085 22.088 55.4027C22.8855 55.4219 23.6783 55.2754 24.4147 54.9725C25.1511 54.6697 25.8146 54.2174 26.3622 53.645C26.757 53.7309 27.2451 53.8471 27.7959 53.9874C26.9671 55.6289 24.727 56.8076 22.0869 56.8076C19.4468 56.8076 17.2056 55.6289 16.3779 53.9874C16.9297 53.846 17.4179 53.7309 17.8126 53.645Z" fill="#6CB7B8"/>
<path d="M11.7564 57.5101L5.34393 56.8076C2.74977 59.7263 0.915561 63.2247 0 67H11.7564V57.5101Z" fill="url(#paint1_linear_4167_67420)"/>
<path d="M16.3871 53.2932C13.8478 53.8481 7.44906 55.2823 5.34375 56.8076L8.90602 66.9999H20.6624L16.3871 53.2932Z" fill="url(#paint2_linear_4167_67420)"/>
<path d="M32.418 57.5101L38.8305 56.8076C41.4246 59.7263 43.2588 63.2247 44.1744 67H32.418V57.5101Z" fill="url(#paint3_linear_4167_67420)"/>
<path d="M27.7871 53.2932C30.3264 53.8481 36.7251 55.2823 38.8304 56.8076L35.2682 66.9999H23.5117L27.7871 53.2932Z" fill="url(#paint4_linear_4167_67420)"/>
<path d="M34.9117 41.292C34.9117 42.8445 33.7954 44.5049 32.418 44.5049C31.0406 44.5049 29.9243 42.8466 29.9243 41.292C29.9432 40.652 30.2143 40.0444 30.6799 39.5983C31.1455 39.1521 31.769 38.9026 32.418 38.9026C33.0671 38.9026 33.6906 39.1521 34.1562 39.5983C34.6217 40.0444 34.8928 40.652 34.9117 41.292Z" fill="url(#paint5_linear_4167_67420)"/>
<path d="M13.8934 41.292C13.8934 42.8445 12.7771 44.5049 11.3997 44.5049C10.0223 44.5049 8.906 42.8466 8.906 41.292C8.89022 40.9672 8.94435 40.6428 9.06481 40.3401C9.18528 40.0374 9.36936 39.7633 9.60493 39.5358C9.8405 39.3084 10.1222 39.1327 10.4316 39.0204C10.7409 38.9081 11.0709 38.8617 11.3997 38.8842C11.7285 38.8617 12.0585 38.9081 12.3678 39.0204C12.6771 39.1327 12.9589 39.3084 13.1944 39.5358C13.43 39.7633 13.6141 40.0374 13.7346 40.3401C13.855 40.6428 13.9092 40.9672 13.8934 41.292Z" fill="url(#paint6_linear_4167_67420)"/>
<path d="M30.9938 32.5579H13.1814C12.783 32.6592 12.4287 32.8853 12.1718 33.2023C11.9148 33.5192 11.769 33.9099 11.7563 34.3156V41.3516C11.7119 42.7176 11.9463 44.0784 12.4455 45.3532C12.9447 46.6281 13.6986 47.7909 14.6623 48.7727C15.6261 49.7544 16.78 50.535 18.0556 51.0681C19.3311 51.6012 20.7023 51.8759 22.0876 51.8759C23.4729 51.8759 24.8441 51.6012 26.1196 51.0681C27.3952 50.535 28.5491 49.7544 29.5128 48.7727C30.4766 47.7909 31.2305 46.6281 31.7297 45.3532C32.2289 44.0784 32.4633 42.7176 32.4189 41.3516V34.3156C32.4076 33.9095 32.2623 33.5182 32.0051 33.201C31.7479 32.8837 31.3928 32.658 30.9938 32.5579Z" fill="url(#paint7_linear_4167_67420)"/>
<path d="M22.0867 23.4197C27.6747 23.4197 33.8431 27.7035 33.8431 34.3145C33.8617 36.729 33.3767 39.1215 32.418 41.3432C32.227 38.9788 31.8699 36.6302 31.3494 34.3145C25.2935 35.7205 13.1805 32.9086 13.1805 32.9086C13.1805 32.9086 11.7554 35.017 11.7554 41.3432C10.313 39.4125 9.56132 37.064 9.61824 34.6663C9.61824 29.4068 12.1119 28.34 12.1119 28.34C12.1119 28.34 12.824 23.4197 22.0867 23.4197Z" fill="url(#paint8_linear_4167_67420)"/>
<path d="M22.0804 49.4272C21.24 49.4185 20.4236 49.1501 19.7459 48.6598C19.6688 48.6058 19.6166 48.5238 19.6007 48.4319C19.5849 48.3399 19.6068 48.2455 19.6615 48.1694C19.7162 48.0933 19.7994 48.0418 19.8926 48.0262C19.9858 48.0106 20.0815 48.0322 20.1587 48.0862C20.7144 48.5026 21.3931 48.728 22.091 48.728C22.7889 48.728 23.4676 48.5026 24.0233 48.0862C24.1008 48.0341 24.1959 48.0142 24.2881 48.0308C24.3802 48.0474 24.4621 48.0991 24.5159 48.1748C24.5697 48.2505 24.5912 48.344 24.5757 48.4352C24.5602 48.5263 24.5089 48.6078 24.433 48.6619C23.7482 49.1516 22.9261 49.4191 22.0804 49.4272Z" fill="url(#paint9_linear_4167_67420)"/>
<path d="M17.6456 42.2625C18.2317 42.2625 18.7068 41.7937 18.7068 41.2156C18.7068 40.6374 18.2317 40.1687 17.6456 40.1687C17.0596 40.1687 16.5845 40.6374 16.5845 41.2156C16.5845 41.7937 17.0596 42.2625 17.6456 42.2625Z" fill="url(#paint10_linear_4167_67420)"/>
<path d="M27.1959 42.2625C27.782 42.2625 28.2571 41.7937 28.2571 41.2156C28.2571 40.6374 27.782 40.1687 27.1959 40.1687C26.6099 40.1687 26.1348 40.6374 26.1348 41.2156C26.1348 41.7937 26.6099 42.2625 27.1959 42.2625Z" fill="url(#paint11_linear_4167_67420)"/>
<path d="M19.593 38.882C19.5266 38.8818 19.4616 38.8633 19.4052 38.8286C18.8589 38.4152 18.1917 38.1871 17.5033 38.1784C16.8148 38.1698 16.1419 38.3809 15.5851 38.7805L15.5108 38.8276C15.4309 38.8759 15.3349 38.8913 15.2436 38.8704C15.1523 38.8494 15.073 38.7939 15.0229 38.7157C14.9728 38.6375 14.956 38.543 14.976 38.4527C14.996 38.3623 15.0513 38.2834 15.1299 38.2329L15.1999 38.189C15.8693 37.7148 16.6745 37.4634 17.4986 37.4711C18.3226 37.4788 19.1228 37.7453 19.783 38.2319C19.8482 38.2726 19.8982 38.333 19.9257 38.4041C19.9531 38.4752 19.9564 38.5531 19.9352 38.6263C19.9139 38.6994 19.8691 38.7638 19.8076 38.8097C19.7461 38.8556 19.6712 38.8806 19.5941 38.881L19.593 38.882Z" fill="url(#paint12_linear_4167_67420)"/>
<path d="M24.5805 38.8819C24.5034 38.8816 24.4284 38.8566 24.3669 38.8107C24.3055 38.7647 24.2607 38.7004 24.2394 38.6273C24.2181 38.5541 24.2215 38.4762 24.2489 38.405C24.2763 38.3339 24.3264 38.2735 24.3916 38.2329C25.0518 37.7463 25.852 37.4798 26.676 37.4721C27.5001 37.4644 28.3052 37.7158 28.9747 38.1899L29.0447 38.2339C29.1233 38.2844 29.1786 38.3633 29.1986 38.4537C29.2186 38.544 29.2017 38.6385 29.1517 38.7167C29.1016 38.7949 29.0223 38.8504 28.931 38.8714C28.8397 38.8923 28.7437 38.8769 28.6638 38.8285L28.5884 38.7814C28.0315 38.3821 27.3587 38.171 26.6703 38.1797C25.9818 38.1883 25.3147 38.4163 24.7683 38.8296C24.7119 38.8639 24.6468 38.8821 24.5805 38.8819Z" fill="url(#paint13_linear_4167_67420)"/>
<path d="M22.0854 46.2645C21.9002 46.2579 21.7185 46.2133 21.5517 46.1337C21.3849 46.054 21.2367 45.941 21.1166 45.8018C21.0823 45.7686 21.0551 45.7288 21.0368 45.685C21.0184 45.6412 21.0092 45.5941 21.0098 45.5467C21.0103 45.4992 21.0206 45.4524 21.04 45.409C21.0594 45.3655 21.0875 45.3264 21.1226 45.294C21.1577 45.2616 21.199 45.2365 21.2442 45.2202C21.2894 45.204 21.3374 45.1969 21.3855 45.1995C21.4335 45.202 21.4805 45.2141 21.5236 45.2351C21.5668 45.256 21.6052 45.2853 21.6366 45.3213C21.7485 45.457 21.9102 45.5435 22.0865 45.5621C22.2647 45.5439 22.4283 45.457 22.5417 45.3203C22.6077 45.2573 22.6957 45.2219 22.7875 45.2213C22.8793 45.2208 22.9677 45.2552 23.0344 45.3174C23.1012 45.3796 23.141 45.4647 23.1457 45.5551C23.1504 45.6456 23.1195 45.7343 23.0596 45.8029C22.9385 45.9422 22.7894 46.0552 22.6217 46.1347C22.454 46.2142 22.2714 46.2584 22.0854 46.2645Z" fill="url(#paint14_linear_4167_67420)"/>
<path d="M17.8125 52.239L20.6627 66.9999L14.9633 61.7279L15.6753 58.916L13.1816 58.5653L16.0319 53.2932C16.2273 52.995 16.4894 52.7449 16.7981 52.5621C17.1068 52.3794 17.4538 52.2688 17.8125 52.239Z" fill="url(#paint15_linear_4167_67420)"/>
<path d="M26.3634 52.239L23.5132 66.9999L29.2126 61.7279L28.5006 58.917L30.9943 58.5653L28.144 53.2932C27.9486 52.995 27.6865 52.7449 27.3778 52.5621C27.0691 52.3794 26.7221 52.2688 26.3634 52.239Z" fill="url(#paint16_linear_4167_67420)"/>
<path d="M16.0307 64.5398H14.249C14.2006 64.5424 14.1522 64.5353 14.1067 64.5188C14.0612 64.5024 14.0196 64.4769 13.9844 64.444C13.9492 64.4112 13.9212 64.3716 13.902 64.3276C13.8829 64.2837 13.873 64.2364 13.873 64.1886C13.873 64.1408 13.8829 64.0935 13.902 64.0496C13.9212 64.0057 13.9492 63.9661 13.9844 63.9332C14.0196 63.9003 14.0612 63.8749 14.1067 63.8584C14.1522 63.8419 14.2006 63.8348 14.249 63.8374H16.0307C16.2194 63.8371 16.4004 63.763 16.5338 63.6313C16.6673 63.4997 16.7424 63.3212 16.7427 63.1349V59.6195C16.7427 58.7806 16.4049 57.9761 15.8036 57.3829C15.2023 56.7897 14.3868 56.4564 13.5364 56.4564C12.6861 56.4564 11.8706 56.7897 11.2693 57.3829C10.668 57.9761 10.3302 58.7806 10.3302 59.6195V63.1339C10.3305 63.3201 10.4056 63.4986 10.5391 63.6303C10.6725 63.762 10.8535 63.8361 11.0422 63.8363H12.4673C12.5157 63.8337 12.5641 63.8409 12.6096 63.8574C12.6551 63.8738 12.6967 63.8993 12.7319 63.9322C12.7671 63.965 12.7951 64.0046 12.8143 64.0485C12.8334 64.0925 12.8433 64.1398 12.8433 64.1876C12.8433 64.2354 12.8334 64.2827 12.8143 64.3266C12.7951 64.3705 12.7671 64.4101 12.7319 64.443C12.6967 64.4759 12.6551 64.5013 12.6096 64.5178C12.5641 64.5343 12.5157 64.5414 12.4673 64.5388H11.0433C10.6656 64.5385 10.3034 64.3904 10.0363 64.1271C9.76909 63.8637 9.61873 63.5065 9.61816 63.1339V59.6195C9.61816 58.5942 10.031 57.6108 10.766 56.8858C11.5009 56.1607 12.4976 55.7534 13.537 55.7534C14.5763 55.7534 15.5731 56.1607 16.308 56.8858C17.0429 57.6108 17.4558 58.5942 17.4558 59.6195V63.1339C17.4555 63.5067 17.3053 63.8641 17.0381 64.1277C16.7709 64.3913 16.4085 64.5396 16.0307 64.5398Z" fill="url(#paint17_linear_4167_67420)"/>
<path d="M13.537 55.7534C12.4982 55.7554 11.5026 56.1633 10.7681 56.8879C10.0336 57.6125 9.62013 58.5948 9.61816 59.6195H10.3302C10.3302 58.7806 10.668 57.9761 11.2693 57.3829C11.8706 56.7897 12.6861 56.4564 13.5364 56.4564C14.3868 56.4564 15.2023 56.7897 15.8036 57.3829C16.4049 57.9761 16.7427 58.7806 16.7427 59.6195H17.4547C17.4528 58.5949 17.0394 57.6129 16.3051 56.8883C15.5709 56.1637 14.5755 55.7556 13.537 55.7534Z" fill="url(#paint18_linear_4167_67420)"/>
<path d="M12.4674 63.8362H11.7554V64.5387H12.4674C12.5158 64.5413 12.5642 64.5341 12.6097 64.5177C12.6552 64.5012 12.6968 64.4757 12.732 64.4429C12.7672 64.41 12.7952 64.3704 12.8144 64.3265C12.8335 64.2826 12.8434 64.2353 12.8434 64.1874C12.8434 64.1396 12.8335 64.0923 12.8144 64.0484C12.7952 64.0045 12.7672 63.9649 12.732 63.932C12.6968 63.8992 12.6552 63.8737 12.6097 63.8572C12.5642 63.8408 12.5158 63.8336 12.4674 63.8362Z" fill="url(#paint19_linear_4167_67420)"/>
<path d="M14.25 63.8362H14.962V64.5387H14.25C14.2016 64.5413 14.1532 64.5341 14.1077 64.5177C14.0622 64.5012 14.0206 64.4757 13.9854 64.4429C13.9502 64.41 13.9222 64.3704 13.9031 64.3265C13.8839 64.2826 13.874 64.2353 13.874 64.1874C13.874 64.1396 13.8839 64.0923 13.9031 64.0484C13.9222 64.0045 13.9502 63.9649 13.9854 63.932C14.0206 63.8992 14.0622 63.8737 14.1077 63.8572C14.1532 63.8408 14.2016 63.8336 14.25 63.8362Z" fill="url(#paint20_linear_4167_67420)"/>
<path d="M27.7807 50.1777C27.4159 50.4202 27.0355 50.6391 26.6421 50.8331H27.074C28.3963 50.8345 29.664 51.3533 30.599 52.2757C31.534 53.1982 32.0599 54.4489 32.0614 55.7534V59.9702C32.0587 60.0179 32.066 60.0657 32.0827 60.1106C32.0994 60.1555 32.1252 60.1965 32.1585 60.2312C32.1918 60.2659 32.2319 60.2936 32.2764 60.3125C32.321 60.3314 32.3689 60.3411 32.4174 60.3411C32.4658 60.3411 32.5138 60.3314 32.5583 60.3125C32.6028 60.2936 32.643 60.2659 32.6763 60.2312C32.7096 60.1965 32.7354 60.1555 32.7521 60.1106C32.7688 60.0657 32.776 60.0179 32.7734 59.9702V55.7534C32.7711 54.3839 32.2628 53.0622 31.3438 52.0359C30.4248 51.0095 29.158 50.3489 27.7807 50.1777Z" fill="url(#paint21_linear_4167_67420)"/>
<path d="M16.4157 50.1924C15.5102 50.352 14.6903 50.8203 14.099 51.5153C13.5077 52.2104 13.1825 53.0882 13.1802 53.9957V56.1041C13.1776 56.1518 13.1848 56.1996 13.2015 56.2445C13.2182 56.2893 13.244 56.3304 13.2773 56.3651C13.3107 56.3998 13.3508 56.4275 13.3953 56.4464C13.4398 56.4653 13.4878 56.475 13.5362 56.475C13.5847 56.475 13.6326 56.4653 13.6772 56.4464C13.7217 56.4275 13.7618 56.3998 13.7951 56.3651C13.8284 56.3304 13.8542 56.2893 13.8709 56.2445C13.8876 56.1996 13.8949 56.1518 13.8922 56.1041V53.9957C13.8934 53.1572 14.2315 52.3535 14.8324 51.7606C15.4334 51.1677 16.2481 50.8342 17.098 50.8331C17.1887 50.8327 17.2757 50.7978 17.341 50.7357C17.0231 50.5708 16.7142 50.3894 16.4157 50.1924Z" fill="url(#paint22_linear_4167_67420)"/>
<path d="M32.5027 63.2019C33.6748 63.2019 34.625 62.4989 34.625 61.6316C34.625 60.7643 33.6748 60.0613 32.5027 60.0613C31.3306 60.0613 30.3804 60.7643 30.3804 61.6316C30.3804 62.4989 31.3306 63.2019 32.5027 63.2019Z" fill="url(#paint23_linear_4167_67420)"/>
<path d="M32.5027 63.2019C33.6748 63.2019 34.625 62.4989 34.625 61.6316C34.625 60.7643 33.6748 60.0613 32.5027 60.0613C31.3306 60.0613 30.3804 60.7643 30.3804 61.6316C30.3804 62.4989 31.3306 63.2019 32.5027 63.2019Z" fill="url(#paint24_linear_4167_67420)"/>
<mask id="mask0_4167_67420" style="mask-type:luminance" maskUnits="userSpaceOnUse" x="30" y="60" width="5" height="4">
<path d="M32.5027 63.2019C33.6748 63.2019 34.625 62.4989 34.625 61.6316C34.625 60.7643 33.6748 60.0613 32.5027 60.0613C31.3306 60.0613 30.3804 60.7643 30.3804 61.6316C30.3804 62.4989 31.3306 63.2019 32.5027 63.2019Z" fill="white"/>
</mask>
<g mask="url(#mask0_4167_67420)">
<path d="M30.6372 59.6194H34.1995V63.1337H30.6372V59.6194Z" fill="url(#paint25_linear_4167_67420)"/>
</g>
<path d="M32.4179 63.4856C31.9952 63.4856 31.582 63.362 31.2306 63.1303C30.8791 62.8986 30.6052 62.5693 30.4434 62.1841C30.2817 61.7988 30.2394 61.3749 30.3218 60.9659C30.4043 60.5569 30.6078 60.1812 30.9067 59.8863C31.2056 59.5915 31.5864 59.3907 32.001 59.3093C32.4155 59.228 32.8452 59.2697 33.2358 59.4293C33.6263 59.5889 33.9601 59.8591 34.1949 60.2058C34.4297 60.5526 34.5551 60.9602 34.5551 61.3772C34.5545 61.9362 34.3292 62.4722 33.9285 62.8675C33.5278 63.2627 32.9845 63.4851 32.4179 63.4856ZM32.4179 59.9713C32.136 59.9713 31.8605 60.0537 31.6262 60.2082C31.3918 60.3627 31.2091 60.5823 31.1013 60.8392C30.9934 61.0961 30.9652 61.3788 31.0202 61.6515C31.0752 61.9242 31.2109 62.1747 31.4102 62.3714C31.6095 62.568 31.8634 62.7019 32.1399 62.7561C32.4163 62.8104 32.7029 62.7826 32.9633 62.6761C33.2237 62.5697 33.4463 62.3895 33.6029 62.1583C33.7594 61.9271 33.843 61.6553 33.843 61.3772C33.843 61.0042 33.6929 60.6465 33.4257 60.3827C33.1585 60.1188 32.796 59.9715 32.4179 59.9713Z" fill="url(#paint26_linear_4167_67420)"/>
</g>
<defs>
<linearGradient id="paint0_linear_4167_67420" x1="22.0873" y1="55.6933" x2="22.0873" y2="52.003" gradientUnits="userSpaceOnUse">
<stop stop-color="#F6CFBE"/>
<stop offset="1" stop-color="#EDAD99"/>
</linearGradient>
<linearGradient id="paint1_linear_4167_67420" x1="4.89068" y1="76.326" x2="5.81157" y2="64.754" gradientUnits="userSpaceOnUse">
<stop stop-color="#EFF0F0"/>
<stop offset="1" stop-color="#E4E5E6"/>
</linearGradient>
<linearGradient id="paint2_linear_4167_67420" x1="11.6091" y1="73.7025" x2="10.7118" y2="83.2221" gradientUnits="userSpaceOnUse">
<stop stop-color="#EFF0F0"/>
<stop offset="1" stop-color="#E4E5E6"/>
</linearGradient>
<linearGradient id="paint3_linear_4167_67420" x1="505.074" y1="76.326" x2="505.995" y2="64.754" gradientUnits="userSpaceOnUse">
<stop stop-color="#EFF0F0"/>
<stop offset="1" stop-color="#E4E5E6"/>
</linearGradient>
<linearGradient id="paint4_linear_4167_67420" x1="535.294" y1="73.7025" x2="534.397" y2="83.2221" gradientUnits="userSpaceOnUse">
<stop stop-color="#EFF0F0"/>
<stop offset="1" stop-color="#E4E5E6"/>
</linearGradient>
<linearGradient id="paint5_linear_4167_67420" x1="29.9243" y1="31.0818" x2="36.0607" y2="47.6997" gradientUnits="userSpaceOnUse">
<stop stop-color="#F6CFBE"/>
<stop offset="1" stop-color="#EDAD99"/>
</linearGradient>
<linearGradient id="paint6_linear_4167_67420" x1="8.90332" y1="31.0245" x2="15.0808" y2="47.7005" gradientUnits="userSpaceOnUse">
<stop stop-color="#F6CFBE"/>
<stop offset="1" stop-color="#EDAD99"/>
</linearGradient>
<linearGradient id="paint7_linear_4167_67420" x1="23.8241" y1="29.4477" x2="24.676" y2="24.424" gradientUnits="userSpaceOnUse">
<stop stop-color="#F6CFBE"/>
<stop offset="1" stop-color="#EDAD99"/>
</linearGradient>
<linearGradient id="paint8_linear_4167_67420" x1="21.7294" y1="16.6625" x2="21.7294" y2="45.8958" gradientUnits="userSpaceOnUse">
<stop stop-color="#957E7F"/>
<stop offset="1" stop-color="#373638"/>
</linearGradient>
<linearGradient id="paint9_linear_4167_67420" x1="22.5219" y1="41.9854" x2="22.5076" y2="44.6239" gradientUnits="userSpaceOnUse">
<stop stop-color="#F6CFBE"/>
<stop offset="1" stop-color="#EDAD99"/>
</linearGradient>
<linearGradient id="paint10_linear_4167_67420" x1="17.5586" y1="52.5574" x2="17.602" y2="46.7556" gradientUnits="userSpaceOnUse">
<stop stop-color="#58595B"/>
<stop offset="1" stop-color="#414042"/>
</linearGradient>
<linearGradient id="paint11_linear_4167_67420" x1="27.1089" y1="52.6077" x2="27.1523" y2="46.808" gradientUnits="userSpaceOnUse">
<stop stop-color="#58595B"/>
<stop offset="1" stop-color="#414042"/>
</linearGradient>
<linearGradient id="paint12_linear_4167_67420" x1="17.3139" y1="57.3753" x2="17.3187" y2="49.5439" gradientUnits="userSpaceOnUse">
<stop stop-color="#58595B"/>
<stop offset="1" stop-color="#414042"/>
</linearGradient>
<linearGradient id="paint13_linear_4167_67420" x1="26.5717" y1="57.4278" x2="26.5765" y2="49.6022" gradientUnits="userSpaceOnUse">
<stop stop-color="#58595B"/>
<stop offset="1" stop-color="#414042"/>
</linearGradient>
<linearGradient id="paint14_linear_4167_67420" x1="13.8764" y1="47.3418" x2="15.8474" y2="45.7229" gradientUnits="userSpaceOnUse">
<stop stop-color="#F6CFBE"/>
<stop offset="1" stop-color="#EDAD99"/>
</linearGradient>
<linearGradient id="paint15_linear_4167_67420" x1="20.6253" y1="78.4397" x2="18.7603" y2="76.2878" gradientUnits="userSpaceOnUse">
<stop stop-color="#EFF0F0"/>
<stop offset="1" stop-color="#E4E5E6"/>
</linearGradient>
<linearGradient id="paint16_linear_4167_67420" x1="520.788" y1="78.4397" x2="518.923" y2="76.2878" gradientUnits="userSpaceOnUse">
<stop stop-color="#EFF0F0"/>
<stop offset="1" stop-color="#E4E5E6"/>
</linearGradient>
<linearGradient id="paint17_linear_4167_67420" x1="14.0621" y1="67.3258" x2="13.9638" y2="66.4053" gradientUnits="userSpaceOnUse">
<stop stop-color="#D0D3D3"/>
<stop offset="1" stop-color="#AAAEB1"/>
</linearGradient>
<linearGradient id="paint18_linear_4167_67420" x1="12.3374" y1="50.02" x2="12.3585" y2="50.7256" gradientUnits="userSpaceOnUse">
<stop stop-color="#58595B"/>
<stop offset="1" stop-color="#414042"/>
</linearGradient>
<linearGradient id="paint19_linear_4167_67420" x1="12.3364" y1="64.7742" x2="12.3336" y2="64.6966" gradientUnits="userSpaceOnUse">
<stop stop-color="#58595B"/>
<stop offset="1" stop-color="#414042"/>
</linearGradient>
<linearGradient id="paint20_linear_4167_67420" x1="10.8287" y1="64.7742" x2="10.8259" y2="64.6966" gradientUnits="userSpaceOnUse">
<stop stop-color="#58595B"/>
<stop offset="1" stop-color="#414042"/>
</linearGradient>
<linearGradient id="paint21_linear_4167_67420" x1="29.0519" y1="47.952" x2="29.2866" y2="48.6127" gradientUnits="userSpaceOnUse">
<stop stop-color="#58595B"/>
<stop offset="1" stop-color="#414042"/>
</linearGradient>
<linearGradient id="paint22_linear_4167_67420" x1="14.7901" y1="49.7149" x2="14.9811" y2="50.3958" gradientUnits="userSpaceOnUse">
<stop stop-color="#58595B"/>
<stop offset="1" stop-color="#414042"/>
</linearGradient>
<linearGradient id="paint23_linear_4167_67420" x1="36.8194" y1="62.7654" x2="37.7595" y2="63.2169" gradientUnits="userSpaceOnUse">
<stop stop-color="#6C6F73"/>
<stop offset="1" stop-color="#56585B"/>
</linearGradient>
<linearGradient id="paint24_linear_4167_67420" x1="24.2045" y1="60.815" x2="27.4811" y2="61.4032" gradientUnits="userSpaceOnUse">
<stop stop-color="#58595B"/>
<stop offset="1" stop-color="#414042"/>
</linearGradient>
<linearGradient id="paint25_linear_4167_67420" x1="25.4541" y1="60.4628" x2="28.242" y2="60.8382" gradientUnits="userSpaceOnUse">
<stop stop-color="#6C6F73"/>
<stop offset="1" stop-color="#56585B"/>
</linearGradient>
<linearGradient id="paint26_linear_4167_67420" x1="25.4551" y1="60.4622" x2="28.2449" y2="60.8389" gradientUnits="userSpaceOnUse">
<stop stop-color="#D0D3D3"/>
<stop offset="1" stop-color="#AAAEB1"/>
</linearGradient>
<clipPath id="clip0_4167_67420">
<rect width="90" height="67" fill="white"/>
</clipPath>
</defs>
</svg>
