<svg width="33" height="32" viewBox="0 0 33 32" fill="none" xmlns="http://www.w3.org/2000/svg">
<g clip-path="url(#clip0_76_6910)">
<path fill-rule="evenodd" clip-rule="evenodd" d="M10.1167 24.3738C6.58545 30.3694 14.0852 32.6961 20.1504 30.9808C28.6142 28.1898 30.8197 17.6773 28.9654 9.36194C26.3138 -2.52237 5.09989 -2.36469 10.3169 9.04831C13.2388 15.4452 13.8956 17.9576 10.1167 24.3738Z" fill="#F47C7C"/>
<path fill-rule="evenodd" clip-rule="evenodd" d="M25.8767 9.02031C27.7327 17.3357 25.5255 27.8464 17.0634 30.6392C15.8079 30.9931 14.4927 31.1753 13.2249 31.1876H13.2266C15.0353 31.6431 17.2302 31.6466 19.3251 31.1876C19.6025 31.128 19.8782 31.0579 20.1504 30.9808C28.6142 28.1898 30.8197 17.6773 28.9654 9.36194C27.6292 3.37688 21.5851 0.445627 16.5788 0.46844C20.7299 1.4005 24.809 4.23363 25.8767 9.02031Z" fill="#EE6161"/>
<path fill-rule="evenodd" clip-rule="evenodd" d="M14.6945 7.22094C13.3846 7.59763 12.1852 8.41588 11.4389 9.5705C11.1123 10.0733 10.8823 10.606 10.6242 11.1439C10.4767 11.4505 10.2818 11.8464 10.0307 12.0813C9.78839 12.3108 9.49339 12.3633 9.16851 12.3633H4.78376C4.22007 12.3633 3.76001 12.8224 3.76001 13.3848C3.76001 13.9472 4.22007 14.4062 4.78376 14.4062H17.4163C17.2406 13.7562 17.0089 13.0799 16.7332 12.3633H12.3011C12.5856 11.8061 12.8086 11.2209 13.1598 10.6778C13.6427 9.92963 14.4856 9.39525 15.3653 9.16044C15.3337 9.09038 15.3039 9.022 15.2723 8.95369C15.0036 8.358 14.8122 7.77806 14.6945 7.22094Z" fill="#FFD772"/>
<path fill-rule="evenodd" clip-rule="evenodd" d="M15.3039 24.1267C13.9711 23.8569 12.7191 23.2384 11.9851 22.1031C11.6602 21.5984 11.4285 21.0676 11.1704 20.5297C11.0229 20.2231 10.8297 19.8271 10.5786 19.5906C10.3363 19.3628 10.0395 19.3102 9.71466 19.3102H6.97004C6.40635 19.3102 5.94629 18.8512 5.94629 18.2871C5.94629 17.7246 6.40635 17.2656 6.97004 17.2656H17.8132C17.8045 17.9367 17.7184 18.6094 17.5463 19.3103H12.8473C13.1317 19.8657 13.3548 20.4527 13.706 20.9958C14.2521 21.8386 15.3672 22.1452 16.4032 22.2275C16.0924 22.8266 15.7289 23.4574 15.3039 24.1267Z" fill="#FFD772"/>
<path fill-rule="evenodd" clip-rule="evenodd" d="M14.6945 7.22094C13.9131 7.44519 13.1721 7.82719 12.5435 8.34225C12.6172 8.54375 12.7015 8.747 12.7946 8.95375C13.0123 9.43556 13.2178 9.89638 13.4127 10.3414C13.9079 9.77019 14.6243 9.35844 15.3653 9.1605L15.2723 8.95375C15.0036 8.358 14.8122 7.77806 14.6945 7.22094Z" fill="#FBBA58"/>
<path fill-rule="evenodd" clip-rule="evenodd" d="M15.3355 17.2656C15.3268 17.9366 15.2407 18.6094 15.0686 19.3103H17.5463C17.7184 18.6094 17.8044 17.9366 17.8132 17.2656H15.3355Z" fill="#FBBA58"/>
<path fill-rule="evenodd" clip-rule="evenodd" d="M14.2519 21.5616C13.9868 22.1328 13.6689 22.7303 13.2949 23.3645C13.8955 23.7359 14.589 23.9813 15.3037 24.1266C15.7287 23.4573 16.0922 22.8266 16.403 22.2274C15.6427 22.1679 14.8419 21.9874 14.2519 21.5616Z" fill="#FBBA58"/>
<path fill-rule="evenodd" clip-rule="evenodd" d="M14.9387 14.4062H17.4164C17.2408 13.7562 17.009 13.0799 16.7333 12.3633H14.2539C14.5313 13.0799 14.7613 13.7562 14.9387 14.4062Z" fill="#FBBA58"/>
<path d="M29.4229 9.25988C29.1211 7.90694 28.5702 6.64232 27.7853 5.50107C27.6386 5.28775 27.3467 5.23375 27.1334 5.38044C26.9201 5.52719 26.8661 5.819 27.0128 6.03232C27.7293 7.07419 28.2323 8.22875 28.5078 9.464C30.3928 17.9168 28.0801 27.8655 20.013 30.5325C18.7333 30.8934 17.4186 31.0654 16.1733 31.0654C13.5881 31.0653 11.3058 30.3233 10.2768 28.9895C9.39826 27.8507 9.48032 26.3778 10.5203 24.6119C10.971 23.8481 11.3531 23.1464 11.6791 22.4861C12.3125 23.3913 13.2978 24.0529 14.5597 24.4244C14.0378 25.2833 13.7094 26.2061 13.6071 27.1066C13.5779 27.3639 13.7628 27.5961 14.0199 27.6253C14.0379 27.6273 14.0558 27.6284 14.0734 27.6284C14.3086 27.6284 14.5114 27.4518 14.5386 27.2125C14.6321 26.3886 14.9526 25.5351 15.4649 24.7449C15.6817 24.4115 15.8926 24.0744 16.0968 23.7331C16.3508 23.3086 16.6026 22.8786 16.8226 22.4353C19.3979 17.4476 18.2838 14.4929 15.6996 8.76138C14.9824 7.16913 14.8192 5.64438 15.2274 4.35225C15.3054 4.10538 15.1685 3.84207 14.9216 3.76407C14.6747 3.68619 14.4114 3.823 14.3334 4.06982C14.0566 4.94625 13.9994 5.90307 14.1574 6.90338C12.8524 7.36982 11.7572 8.2145 11.0456 9.31532C11.0271 9.34388 11.0096 9.37275 10.9916 9.4015C10.9118 9.2245 10.8292 9.04238 10.743 8.85363C9.41532 5.94938 9.7727 3.66457 11.7764 2.24632C13.3566 1.12794 15.7826 0.697441 18.4318 1.06513C21.1972 1.449 23.8387 2.68788 25.679 4.46419C25.8653 4.644 26.162 4.63869 26.3418 4.45244C26.5216 4.26619 26.5163 3.96944 26.3301 3.78963C24.3209 1.85044 21.5617 0.553066 18.5606 0.136504C15.6776 -0.263684 13.0074 0.226378 11.2348 1.48107C10.1221 2.26857 9.39682 3.34813 9.13732 4.603C8.85457 5.97057 9.10788 7.53175 9.89026 9.24319C10.0874 9.67513 10.266 10.0723 10.4333 10.4512C10.3559 10.6143 10.2796 10.778 10.2016 10.9408C10.0908 11.1711 9.90526 11.5567 9.7082 11.741C9.59145 11.8516 9.44007 11.8947 9.16832 11.8947H4.78376C3.96082 11.8947 3.29126 12.5632 3.29126 13.3849C3.29126 14.2066 3.96082 14.8751 4.78376 14.8751H7.17895C7.43788 14.8751 7.6477 14.6653 7.6477 14.4064C7.6477 14.1474 7.43788 13.9376 7.17895 13.9376H4.78376C4.47776 13.9376 4.22876 13.6897 4.22876 13.3849C4.22876 13.0801 4.4777 12.8322 4.78376 12.8322H9.16851C9.49095 12.8322 9.96451 12.7896 10.3508 12.4238C10.6491 12.1449 10.8581 11.739 11.0468 11.3468C11.0958 11.2447 11.1438 11.1428 11.1916 11.0413C11.3934 10.6126 11.5842 10.2076 11.8326 9.82507C12.4031 8.94257 13.3083 8.23163 14.3611 7.82682C14.4589 8.17357 14.5816 8.524 14.7285 8.87675C14.7284 8.877 14.7284 8.87725 14.7284 8.8775C13.8996 9.20369 13.201 9.74988 12.7663 10.4234C12.5151 10.8118 12.3288 11.2118 12.1486 11.5987C12.0594 11.7902 11.9752 11.9711 11.8838 12.1503C11.8096 12.2956 11.8163 12.4691 11.9014 12.6081C11.9866 12.7473 12.1381 12.8321 12.3012 12.8321H16.4034C16.5445 13.2124 16.6711 13.58 16.7821 13.9375H9.33351C9.07457 13.9375 8.86476 14.1473 8.86476 14.4063C8.86476 14.6652 9.07457 14.875 9.33351 14.875H12.0252C12.1742 15.5486 12.2513 16.1831 12.2613 16.7969H6.97001C6.14707 16.7969 5.47751 17.4654 5.47751 18.2872C5.47751 19.1098 6.14707 19.7791 6.97001 19.7791H9.71463C9.98807 19.7791 10.1403 19.8221 10.2572 19.9319C10.4499 20.1134 10.6293 20.4863 10.7478 20.7326C10.8699 20.9869 10.9878 21.2432 11.1126 21.4961C10.7447 22.2988 10.2863 23.1641 9.71282 24.1359C8.1512 26.7874 8.75401 28.5503 9.53464 29.5623C10.4218 30.7123 12.0481 31.5229 14.1138 31.8447C14.7812 31.9486 15.4753 32.0001 16.1809 32.0001C17.5436 32 18.9479 31.8081 20.2779 31.4319C20.2844 31.4301 20.2908 31.4281 20.2972 31.426C24.3364 30.094 27.3011 26.9711 28.8706 22.3951C30.2113 18.4859 30.4126 13.6983 29.4229 9.25988ZM13.0449 11.8945C13.2026 11.5569 13.3568 11.2363 13.5536 10.9319C13.8843 10.4198 14.4502 9.98975 15.1098 9.73638C15.4543 10.5075 15.7653 11.2221 16.0383 11.8945H13.0449ZM16.1314 21.7283C15.3792 21.6319 14.5119 21.3776 14.0996 20.7413C13.9031 20.4374 13.7492 20.1169 13.5914 19.779H16.9273C16.7352 20.3985 16.4711 21.0429 16.1314 21.7283ZM12.9837 14.8749H17.0417C17.2007 15.5354 17.2981 16.169 17.3268 16.7968H13.2C13.191 16.1774 13.1197 15.5418 12.9837 14.8749ZM9.71457 18.8415H6.96995C6.66395 18.8415 6.41495 18.5928 6.41495 18.2871C6.41495 17.9823 6.66389 17.7343 6.96995 17.7343H17.3162C17.2917 18.1003 17.2424 18.468 17.167 18.8415H12.8472C12.6839 18.8415 12.5324 18.9264 12.4473 19.0658C12.3621 19.205 12.3556 19.3786 12.43 19.5239C12.5224 19.7044 12.6076 19.8871 12.6977 20.0808C12.8771 20.4658 13.0625 20.864 13.3126 21.2507C13.7669 21.9519 14.5571 22.4062 15.6668 22.6059C15.5331 22.845 15.3918 23.088 15.2436 23.3336C15.2381 23.3428 15.2326 23.3519 15.227 23.3611C15.1798 23.4393 15.1319 23.5176 15.0833 23.5963C14.1623 23.3649 13.0437 22.8769 12.3793 21.8493C12.1293 21.461 11.936 21.0517 11.7314 20.6183C11.6857 20.5214 11.6398 20.4243 11.5928 20.3265C11.4352 19.9988 11.2193 19.5501 10.8996 19.249C10.5109 18.8838 10.0371 18.8415 9.71457 18.8415Z" fill="black"/>
</g>
<defs>
<clipPath id="clip0_76_6910">
<rect width="32" height="32" fill="white" transform="translate(0.66748)"/>
</clipPath>
</defs>
</svg>
