<svg width="116" height="116" viewBox="0 0 116 116" fill="none" xmlns="http://www.w3.org/2000/svg">
<g clip-path="url(#clip0_4137_70716)">
<path d="M61.151 51.8723L71.5244 47.6166C72.6791 47.1428 73.2312 45.8227 72.7575 44.6679L64.3926 24.2785C63.9189 23.1237 62.5988 22.5717 61.444 23.0454L51.0706 27.3011C49.9159 27.7748 49.3638 29.095 49.8376 30.2497L58.2024 50.6392C58.6761 51.7939 59.9963 52.346 61.151 51.8723Z" fill="#4377D1"/>
<path d="M61.1493 51.8731L64.581 50.4652C65.7358 49.9915 66.2878 48.6713 65.8141 47.5166L57.4493 27.1271C56.9755 25.9724 55.6554 25.4203 54.5007 25.894L51.069 27.3019C49.9142 27.7756 49.3621 29.0958 49.8359 30.2505L58.2007 50.64C58.6745 51.7947 59.9946 52.3468 61.1493 51.8731Z" fill="#524FAE"/>
<path d="M66.7581 36.4278L66.9095 36.3656C68.0641 35.8913 68.6155 34.5709 68.1412 33.4164L64.3879 24.2801C63.9136 23.1256 62.5932 22.5741 61.4387 23.0484L61.2872 23.1107C60.1327 23.5849 59.5812 24.9054 60.0555 26.0599L63.8088 35.1962C64.2831 36.3507 65.6035 36.9021 66.7581 36.4278Z" fill="#6BB3F4"/>
<path d="M68.5452 40.7843L68.6967 40.7221C69.8512 40.2478 70.4026 38.9274 69.9283 37.7728L67.7116 32.3769C67.2373 31.2224 65.9169 30.6709 64.7624 31.1452L64.6109 31.2075C63.4564 31.6817 62.9049 33.0022 63.3792 34.1567L65.5959 39.5526C66.0702 40.7071 67.3906 41.2586 68.5452 40.7843Z" fill="#C5EFF4"/>
<path d="M57.3596 51.0941L48.9185 30.5157C48.7634 30.1379 48.6842 29.7332 48.6856 29.3248C48.687 28.9164 48.7688 28.5123 48.9265 28.1356C49.0841 27.7589 49.3146 27.4169 49.6045 27.1292C49.8944 26.8416 50.2381 26.6139 50.616 26.4591L61.1768 22.1255C61.5546 21.9704 61.9592 21.8912 62.3676 21.8926C62.776 21.8939 63.1803 21.9758 63.5571 22.1334C63.9338 22.291 64.2758 22.5213 64.5636 22.8111C64.8513 23.1009 65.0791 23.4446 65.234 23.8225L73.6754 44.4002C73.8308 44.778 73.9101 45.1827 73.909 45.5911C73.9078 45.9996 73.8262 46.4038 73.6687 46.7807C73.5113 47.1575 73.2809 47.4997 72.9911 47.7875C72.7013 48.0754 72.3578 48.3032 71.9799 48.4582C60.6528 53.105 61.1139 53.0238 60.2433 53.0238C59.6255 53.0241 59.0215 52.8409 58.508 52.4973C57.9946 52.1537 57.5949 51.6653 57.3596 51.0941ZM51.3373 28.2196C51.1906 28.2796 51.0571 28.3679 50.9445 28.4795C50.832 28.5911 50.7425 28.7239 50.6813 28.8701C50.6201 29.0163 50.5885 29.1732 50.588 29.3317C50.5876 29.4902 50.6183 29.6472 50.6786 29.7938L59.1208 50.3715C59.2423 50.6675 59.4766 50.903 59.7718 51.0264C60.067 51.1498 60.3991 51.1508 60.695 51.0293C60.7913 51.0293 59.6599 51.4544 71.2585 46.6964C71.5545 46.5747 71.7902 46.3404 71.9136 46.0451C72.0369 45.7498 72.0378 45.4176 71.9162 45.1215L63.4734 24.5438C63.3828 24.322 63.2284 24.1322 63.0296 23.9985C62.8308 23.8649 62.5968 23.7934 62.3573 23.7932C62.0195 23.7952 62.906 23.4732 51.3373 28.2196Z" fill="#302D3D"/>
<path d="M65.1162 45.2923L57.3197 48.4909L50.7173 32.3973L58.5138 29.1988C59.0682 28.9714 59.6903 28.9734 60.2431 29.2045C60.796 29.4356 61.2345 29.8769 61.4621 30.4312L66.3493 42.3437C66.5768 42.8983 66.5746 43.5204 66.3434 44.0734C66.1122 44.6264 65.6707 45.0648 65.1162 45.2923Z" fill="#70C2EF"/>
<path d="M56.4392 48.8518L49.8369 32.7585C49.7895 32.643 49.7652 32.5192 49.7656 32.3943C49.7661 32.2695 49.791 32.1458 49.8393 32.0306C49.8875 31.9154 49.9582 31.8109 50.0468 31.7229C50.1355 31.6349 50.2404 31.5653 50.356 31.518L58.2454 28.2802C58.6232 28.1249 59.028 28.0456 59.4365 28.0469C59.845 28.0481 60.2494 28.1299 60.6263 28.2875C61.0032 28.4451 61.3454 28.6755 61.6332 28.9654C61.921 29.2554 62.1487 29.5992 62.3035 29.9773L67.2676 42.0774C67.5798 42.8404 67.5765 43.6961 67.2586 44.4567C66.9407 45.2173 66.3343 45.8208 65.572 46.1347C56.9437 49.6734 57.5842 49.4434 57.3208 49.4434C57.1318 49.4431 56.9473 49.3867 56.7904 49.2814C56.6335 49.1761 56.5112 49.0266 56.4392 48.8518ZM51.959 32.9168L57.8383 47.2496L64.8494 44.3735C65.1451 44.2516 65.3804 44.0173 65.5037 43.7221C65.627 43.4268 65.6282 43.0948 65.5071 42.7986L60.5443 30.6992C60.4536 30.4774 60.2988 30.2877 60.0999 30.154C59.901 30.0204 59.6668 29.9489 59.4272 29.9486C59.0894 29.95 59.5815 29.7903 51.959 32.9168Z" fill="#302D3D"/>
<path d="M64.2198 56.3084L72.4531 52.9307L70.453 48.0552L62.2196 51.4329L64.2198 56.3084Z" fill="#70C2EF"/>
<path d="M64.2218 56.3084L68.6465 54.4932L66.6463 49.6177L62.2216 51.4329L64.2218 56.3084Z" fill="#4D7CEF"/>
<path d="M63.342 56.6697L61.3393 51.7943C61.2447 51.5606 61.2464 51.2989 61.3439 51.0664C61.4415 50.8339 61.627 50.6494 61.86 50.5531L70.0926 47.1754C70.3261 47.0808 70.5874 47.0822 70.8199 47.1795C71.0524 47.2768 71.2371 47.4619 71.3337 47.6947L73.3344 52.5701C73.4291 52.8036 73.4275 53.065 73.3304 53.2975C73.2333 53.5299 73.0483 53.7146 72.8156 53.8113C63.8018 57.509 64.4878 57.2606 64.2183 57.2606C64.0301 57.26 63.8462 57.2034 63.6902 57.0982C63.5342 56.993 63.4131 56.8439 63.342 56.6697ZM69.935 49.2969L63.4626 51.9519L64.7414 55.0668L71.2131 52.4118L69.935 49.2969Z" fill="#302D3D"/>
<path d="M52.1417 26.8611L60.375 23.4834L58.5403 19.0113L50.307 22.3891L52.1417 26.8611Z" fill="#D1D3D4"/>
<path d="M52.1418 26.8613L57.3809 24.7119L55.5462 20.2398L50.3071 22.3892L52.1418 26.8613Z" fill="#A4B0CF"/>
<path d="M51.2597 27.2227L49.4245 22.7506C49.3289 22.5173 49.3299 22.2556 49.4272 22.023C49.5244 21.7904 49.7101 21.6059 49.9433 21.51L58.1765 18.1317C58.4101 18.0368 58.6718 18.0382 58.9045 18.1355C59.1371 18.2327 59.3217 18.418 59.4182 18.651L61.2534 23.1231C61.3481 23.3567 61.3463 23.6182 61.2491 23.8507C61.1518 24.0831 60.9667 24.2678 60.734 24.3644C51.7215 28.062 52.4058 27.8136 52.1363 27.8136C51.948 27.813 51.7643 27.7565 51.6082 27.6513C51.4521 27.5461 51.3309 27.397 51.2597 27.2227ZM58.0149 20.2532L51.5412 22.9089L52.655 25.6206L59.1277 22.9655L58.0149 20.2532Z" fill="#302D3D"/>
<path d="M49.0096 22.9208L59.8337 18.4802C60.864 18.0575 61.3566 16.8796 60.9339 15.8494C60.5112 14.8191 59.3334 14.3265 58.3031 14.7492L47.479 19.1898C46.4487 19.6125 45.9562 20.7904 46.3788 21.8206C46.8015 22.8509 47.9793 23.3435 49.0096 22.9208Z" fill="#4377D1"/>
<path d="M49.0091 22.9202L52.574 21.4577C53.6043 21.035 54.0968 19.8572 53.6741 18.8269C53.2515 17.7966 52.0736 17.3041 51.0434 17.7268L47.4784 19.1893C46.4482 19.6119 45.9556 20.7898 46.3783 21.8201C46.801 22.8503 47.9788 23.3429 49.0091 22.9202Z" fill="#524FAE"/>
<path d="M47.1 23.7935C46.5603 23.5653 46.1002 23.1827 45.7773 22.6937C45.4544 22.2048 45.2831 21.6313 45.2852 21.0454C45.2872 20.4595 45.4626 19.8872 45.7889 19.4005C46.1152 18.9139 46.5781 18.5345 47.1193 18.3101L57.9447 13.8693C58.3053 13.7215 58.6914 13.6461 59.0812 13.6475C59.4709 13.6489 59.8565 13.727 60.216 13.8774C60.5755 14.0278 60.9019 14.2476 61.1765 14.5242C61.4511 14.8007 61.6687 15.1286 61.8166 15.4892C61.9644 15.8498 62.0395 16.236 62.0381 16.6257C62.0367 17.0154 61.9587 17.401 61.8082 17.7605C61.6578 18.1201 61.4381 18.4464 61.1615 18.721C60.885 18.9956 60.5572 19.213 60.1967 19.3609C48.4731 24.1694 49.0885 24.0248 48.2458 24.0248C47.8524 24.0243 47.4628 23.9457 47.1 23.7935ZM47.841 20.0705C47.7111 20.1232 47.5932 20.201 47.4935 20.2994C47.3937 20.3978 47.3143 20.5149 47.2599 20.6441C47.2056 20.7733 47.1773 20.9119 47.1766 21.052C47.176 21.1921 47.2028 21.331 47.2559 21.4607C47.3091 21.5903 47.3874 21.7082 47.4862 21.8076C47.585 21.907 47.7023 21.9859 47.8317 22.0397C47.961 22.0936 48.1 22.1214 48.2401 22.1215C48.3803 22.1217 48.5188 22.0941 48.6483 22.0405C48.7445 22.0405 47.5403 22.4963 59.474 17.5997C59.7012 17.5052 59.8887 17.3349 60.0047 17.1178C60.1208 16.9007 60.158 16.6502 60.1104 16.4087C60.0627 16.1672 59.933 15.9496 59.7432 15.7928C59.5534 15.6361 59.3153 15.5498 59.0692 15.5486C58.7723 15.5493 59.6716 15.217 47.841 20.0705Z" fill="#302D3D"/>
<path d="M45.1957 37.6318H50.8134V45.9565H45.0761C35.6057 45.9565 27.5282 53.3068 27.1713 62.7704C27.0839 65.1208 27.4709 67.4649 28.3094 69.6624C29.1479 71.86 30.4208 73.8661 32.0517 75.561C33.6826 77.2559 35.638 78.6048 37.8017 79.5272C39.9654 80.4497 42.2928 80.9267 44.6449 80.9298H81.8671C82.7717 80.9298 83.6639 81.1412 84.4723 81.5472C85.2806 81.9532 85.9829 82.5426 86.523 83.2683L87.895 85.1106C88.1827 85.4963 88.3577 85.9545 88.3998 86.4339C88.4419 86.9132 88.3499 87.3948 88.1339 87.8248C87.9179 88.2548 87.5864 88.6162 87.1767 88.8686C86.767 89.121 86.2952 89.2544 85.814 89.2539H44.6449C41.1899 89.2496 37.7709 88.5526 34.5899 87.2042C31.4089 85.8557 28.5306 83.8832 26.1251 81.4031C23.7196 78.9231 21.8357 75.9859 20.585 72.7653C19.3342 69.5446 18.7419 66.1058 18.8431 62.6523C19.2641 48.6197 31.1515 37.6318 45.1957 37.6318Z" fill="#A4B0CF"/>
<path d="M81.8708 80.9287H63.4043V89.2534H85.8203C86.3008 89.2536 86.7719 89.1201 87.1807 88.8677C87.5895 88.6153 87.9201 88.2541 88.1353 87.8245C88.3504 87.3948 88.4416 86.9138 88.3988 86.4353C88.356 85.9567 88.1807 85.4995 87.8927 85.115L86.524 83.2726C85.9849 82.5461 85.2832 81.9558 84.4753 81.5488C83.6674 81.1418 82.7754 80.9295 81.8708 80.9287Z" fill="#D1D3D4"/>
<path d="M82.3869 80.9287H74.3823C72.1899 80.9287 73.0606 85.091 76.0882 85.091H83.5258C83.8434 85.0911 84.1549 85.003 84.4253 84.8364C84.6958 84.6698 84.9146 84.4314 85.0574 84.1476C85.2002 83.8639 85.2613 83.5462 85.234 83.2297C85.2067 82.9132 85.0921 82.6106 84.9028 82.3555L84.7125 82.0989C84.443 81.7361 84.0921 81.4413 83.6883 81.2382C83.2846 81.035 82.839 80.929 82.3869 80.9287Z" fill="#EFECF2"/>
<path d="M50.502 41.7501C50.5025 41.8331 50.5356 41.9125 50.5942 41.9713C50.6528 42.03 50.7322 42.0633 50.8151 42.064V41.4355C50.7321 41.4363 50.6525 41.4697 50.5939 41.5286C50.5353 41.5875 50.5023 41.667 50.502 41.7501Z" fill="#F4ECF7"/>
<path d="M27.6289 44.2343L33.5095 50.1135C35.082 48.8105 36.8645 47.7841 38.7808 47.0784C37.5948 44.418 37.3306 41.4379 38.0301 38.6104C34.1852 39.6813 30.6303 41.6034 27.6289 44.2343Z" fill="#D1D3D4"/>
<path d="M27.5449 82.7466C29.6926 84.6659 32.1501 86.2068 34.8132 87.304V77.8944C34.3363 77.5733 33.8793 77.2238 33.4445 76.8477L27.5449 82.7466Z" fill="#D1D3D4"/>
<path d="M42.9019 40.1456C42.8995 40.6194 42.7312 41.0774 42.4261 41.4399C42.1211 41.8024 41.6988 42.0466 41.2323 42.1299C35.7141 43.1361 30.7629 46.1479 27.3321 50.5856C27.088 50.8983 26.7573 51.1322 26.3812 51.2582C26.005 51.3842 25.5999 51.3966 25.2167 51.2939C24.8864 51.2148 24.5812 51.0546 24.3284 50.8277C24.0757 50.6008 23.8835 50.3145 23.7694 49.9946C23.6552 49.6747 23.6224 49.3314 23.6744 48.9958C23.7264 48.6601 23.8613 48.3428 24.0669 48.0725C28.1138 42.7845 33.997 39.2069 40.554 38.0466C40.8518 37.9993 41.1566 38.0189 41.4459 38.104C41.7352 38.189 42.0017 38.3374 42.2265 38.5384C42.4514 38.7393 42.6288 38.9878 42.7456 39.2658C42.8625 39.5438 42.9157 39.8443 42.9019 40.1456Z" fill="#EFECF2"/>
<path d="M21.993 68.51C22.3613 68.5081 22.7202 68.6263 23.0152 68.8469C23.3102 69.0675 23.525 69.3783 23.6273 69.7321C24.9287 74.3616 27.7059 78.4396 31.537 81.3462C35.368 84.2529 40.0436 85.8292 44.8525 85.8357H64.4988C64.9512 85.8357 65.385 86.0154 65.7049 86.3353C66.0248 86.6552 66.2047 87.0891 66.2047 87.5415C66.2047 87.994 66.0248 88.4279 65.7049 88.7478C65.385 89.0677 64.9512 89.2474 64.4988 89.2474H44.6423C39.0622 89.2391 33.6344 87.4256 29.17 84.078C24.7057 80.7303 21.4444 76.0281 19.873 70.6738C19.8011 70.4195 19.7892 70.1521 19.8383 69.8924C19.8875 69.6328 19.9963 69.3882 20.1562 69.1778C20.316 68.9674 20.5223 68.797 20.7592 68.68C20.9962 68.5631 21.2573 68.5028 21.5216 68.5039L21.993 68.51Z" fill="#8188BB"/>
<path d="M17.8907 62.6304C18.3206 48.3229 30.5689 36.6826 45.1952 36.6826H50.8136C51.0657 36.6828 51.3074 36.7831 51.4856 36.9614C51.6638 37.1398 51.7642 37.3816 51.7642 37.6338V45.9585C51.7642 46.0834 51.7396 46.2071 51.6919 46.3225C51.6441 46.4379 51.5742 46.5427 51.4859 46.6311C51.3977 46.7194 51.2928 46.7895 51.1774 46.8373C51.0621 46.8851 50.9385 46.9097 50.8136 46.9097H45.0756C36.0576 46.9097 28.4516 54.0417 28.122 62.8085C28.0378 65.0314 28.4026 67.2485 29.1949 69.3272C29.9871 71.4058 31.1902 73.3033 32.7326 74.9063C34.2749 76.5093 36.1248 77.7848 38.1714 78.6566C40.218 79.5283 42.4193 79.9784 44.6438 79.98H81.8626C82.9151 79.9822 83.9527 80.2292 84.8933 80.7015C85.8338 81.1738 86.6514 81.8584 87.2818 82.7012L88.6549 84.5435C89.0466 85.0711 89.284 85.6971 89.3409 86.3517C89.3977 87.0063 89.2719 87.6639 88.977 88.2512C88.6822 88.8384 88.23 89.3322 87.671 89.6775C87.1119 90.0228 86.4679 90.2062 85.8108 90.2071H44.6404C41.0582 90.2044 37.5127 89.4832 34.2142 88.0859C30.9157 86.6887 27.9311 84.644 25.4369 82.0727C22.9427 79.5014 20.9897 76.4558 19.6936 73.1163C18.3974 69.7768 17.7843 66.2111 17.8907 62.6304ZM44.6438 81.8851C42.1634 81.8834 39.7088 81.3815 37.4267 80.4095C35.1447 79.4375 33.082 78.0154 31.3622 76.2281C29.6424 74.4408 28.3005 72.325 27.417 70.0073C26.5335 67.6896 26.1266 65.2176 26.2202 62.7389C26.5894 52.9629 35.0477 45.0087 45.0762 45.0087H49.863V38.585H45.1958C31.5877 38.585 20.1923 49.3969 19.7945 62.6871C19.6947 66.0138 20.2634 69.3268 21.4671 72.4298C22.6708 75.5327 24.4849 78.3626 26.802 80.7518C29.1191 83.141 31.8922 85.041 34.9569 86.3391C38.0215 87.6373 41.3155 88.3073 44.6438 88.3094H85.8142C86.119 88.3099 86.4179 88.2254 86.6774 88.0656C86.937 87.9057 87.147 87.6768 87.2838 87.4043C87.4206 87.1319 87.4789 86.8268 87.4521 86.5232C87.4252 86.2195 87.3143 85.9293 87.1319 85.6851L85.7589 83.8428C85.3067 83.2375 84.7197 82.7457 84.0446 82.4064C83.3696 82.0671 82.6248 81.8896 81.8693 81.8878L44.6438 81.8851Z" fill="#302D3D"/>
<path d="M38.6152 77.4435V93.7108H59.5963V77.4435C59.5956 77.0446 59.5167 76.6496 59.3634 76.2813C59.2101 75.9129 58.9856 75.5785 58.703 75.2969C58.4204 75.0153 58.085 74.7921 57.7161 74.6401C57.3472 74.4881 56.9519 74.4103 56.553 74.4111H41.6572C41.2583 74.4103 40.8632 74.4882 40.4944 74.6402C40.1256 74.7921 39.7903 75.0153 39.5078 75.2969C39.2253 75.5786 39.0013 75.9131 38.8481 76.2814C38.695 76.6497 38.6157 77.0446 38.6152 77.4435Z" fill="#5C86C7"/>
<path d="M37.6641 93.7092V77.4426C37.6664 76.3852 38.0884 75.3721 38.8369 74.6252C39.5853 73.8784 40.5992 73.459 41.6566 73.459H56.5504C57.6079 73.4588 58.6224 73.8781 59.3711 74.6249C60.1198 75.3718 60.5417 76.3851 60.5442 77.4426V93.7092C60.5442 93.9614 60.4441 94.2034 60.2657 94.3818C60.0873 94.5602 59.8453 94.6604 59.593 94.6604H38.6153C38.363 94.6604 38.1213 94.5602 37.9429 94.3818C37.7645 94.2034 37.6641 93.9614 37.6641 93.7092ZM58.6418 77.4426C58.6396 76.8897 58.4183 76.3602 58.0264 75.9702C57.6345 75.5803 57.1039 75.3615 56.551 75.3621H41.6572C41.1044 75.3615 40.574 75.5803 40.1822 75.9703C39.7904 76.3603 39.5692 76.8897 39.5672 77.4426V92.7573H58.6424L58.6418 77.4426Z" fill="#302D3D"/>
<path d="M38.6191 82.042V93.7061H59.5972V82.042C59.5959 81.236 59.2746 80.4635 58.7039 79.8943C58.1332 79.3252 57.3599 79.0059 56.5539 79.0068H41.6514C41.253 79.0068 40.8584 79.0854 40.4903 79.2379C40.1222 79.3905 39.788 79.6141 39.5064 79.896C39.2248 80.1778 39.0013 80.5125 38.849 80.8807C38.6968 81.2489 38.6188 81.6435 38.6191 82.042Z" fill="#5C63A4"/>
<path d="M41.4728 82.0422V86.0681C41.5458 86.0558 56.6176 86.0504 56.7418 86.0681V82.0422C56.7397 81.9935 56.719 81.9475 56.6838 81.9138C56.6486 81.8801 56.6016 81.8614 56.5529 81.8614H41.6517C41.6279 81.8607 41.6039 81.865 41.5817 81.8738C41.5596 81.8827 41.5395 81.896 41.5228 81.913C41.506 81.93 41.4931 81.9502 41.4845 81.9724C41.4758 81.9947 41.4718 82.0184 41.4728 82.0422Z" fill="#7A86C2"/>
<path d="M38.6191 90.3388V93.7076H59.5972V90.3388C59.5943 89.5333 59.2726 88.7618 58.7022 88.193C58.1319 87.6242 57.3594 87.3044 56.5539 87.3037H41.6514C40.8471 87.3052 40.0762 87.6255 39.5077 88.1944C38.9393 88.7634 38.6199 89.5345 38.6191 90.3388Z" fill="#52407C"/>
<path d="M37.6641 93.7088V82.0405C37.6666 80.9833 38.0884 79.9702 38.8369 79.2236C39.5853 78.4769 40.5994 78.0576 41.6566 78.0576H56.5504C57.6078 78.0574 58.622 78.4767 59.3707 79.2233C60.1195 79.97 60.5415 80.9831 60.5442 82.0405V93.7088C60.5442 93.961 60.4441 94.203 60.2657 94.3814C60.0873 94.5597 59.8453 94.6599 59.593 94.6599H38.6153C38.363 94.6599 38.1213 94.5597 37.9429 94.3814C37.7645 94.203 37.6641 93.961 37.6641 93.7088ZM58.6418 82.0405C58.6394 81.4877 58.4179 80.9584 58.026 80.5686C57.6341 80.1787 57.1038 79.9602 56.551 79.9607H41.6572C41.1045 79.9602 40.5744 80.1788 40.1826 80.5686C39.7908 80.9585 39.5694 81.4878 39.5672 82.0405V92.7596H58.6424L58.6418 82.0405Z" fill="#302D3D"/>
<path d="M49.104 89.2579C50.9909 89.2579 52.5206 87.7282 52.5206 85.8413C52.5206 83.9544 50.9909 82.4248 49.104 82.4248C47.2171 82.4248 45.6875 83.9544 45.6875 85.8413C45.6875 87.7282 47.2171 89.2579 49.104 89.2579Z" fill="#84AEEA"/>
<path d="M44.7363 85.8417C44.7363 84.978 44.9925 84.1337 45.4723 83.4155C45.9522 82.6973 46.6344 82.1376 47.4324 81.807C48.2304 81.4765 49.1085 81.39 49.9556 81.5585C50.8027 81.727 51.5808 82.143 52.1916 82.7537C52.8023 83.3645 53.2182 84.1426 53.3867 84.9897C53.5552 85.8369 53.4687 86.7149 53.1381 87.5129C52.8076 88.3109 52.2477 88.9929 51.5295 89.4728C50.8114 89.9526 49.967 90.2088 49.1033 90.2088C47.9456 90.2071 46.836 89.7465 46.0174 88.9279C45.1988 88.1093 44.738 86.9994 44.7363 85.8417ZM46.6381 85.8417C46.6381 86.3294 46.7827 86.8062 47.0536 87.2117C47.3245 87.6172 47.7099 87.9333 48.1604 88.1199C48.611 88.3066 49.1068 88.3555 49.5851 88.2604C50.0634 88.1653 50.5026 87.9305 50.8475 87.5857C51.1924 87.2409 51.4276 86.8015 51.5229 86.3232C51.6181 85.8449 51.5691 85.3491 51.3826 84.8984C51.1961 84.4478 50.8801 84.0626 50.4747 83.7916C50.0692 83.5205 49.5927 83.3758 49.105 83.3757C48.4512 83.3766 47.8242 83.6366 47.3618 84.0989C46.8994 84.5612 46.6392 85.1879 46.6381 85.8417Z" fill="#302D3D"/>
<path d="M24.8691 100.151H97.1766L94.2282 95.7305C93.8148 95.1103 93.2545 94.6019 92.5973 94.2503C91.9401 93.8986 91.2063 93.7147 90.461 93.7148H31.5847C30.8394 93.7151 30.1058 93.8992 29.4487 94.2508C28.7916 94.6024 28.2312 95.1106 27.8175 95.7305L24.8691 100.151Z" fill="#4377D1"/>
<path d="M24.0784 99.6224L27.0264 95.2015C27.5265 94.4506 28.2044 93.8351 28.9998 93.4096C29.7953 92.9841 30.6835 92.7619 31.5856 92.7627H90.4599C91.3621 92.7617 92.2503 92.9839 93.0457 93.4095C93.8411 93.8352 94.5188 94.451 95.0185 95.2021L97.9671 99.6224C98.0628 99.7657 98.1177 99.9322 98.1261 100.104C98.1344 100.276 98.096 100.447 98.0148 100.599C97.9335 100.751 97.8124 100.878 97.6646 100.967C97.5168 101.055 97.3477 101.102 97.1755 101.102H24.8694C24.6978 101.1 24.5295 101.053 24.3826 100.964C24.2358 100.875 24.1157 100.748 24.0348 100.597C23.9539 100.445 23.9151 100.275 23.9228 100.104C23.9305 99.9321 23.9843 99.7659 24.0784 99.6224ZM93.4362 96.2577C93.1099 95.7675 92.6675 95.3656 92.1481 95.0878C91.6288 94.81 91.0488 94.665 90.4599 94.6658H31.5856C30.9968 94.665 30.4171 94.8099 29.8978 95.0875C29.3784 95.3652 28.9358 95.767 28.6093 96.2571L26.6476 99.1987H95.3986L93.4362 96.2577Z" fill="#302D3D"/>
<path d="M43.541 100.151H73.5769L70.7159 95.8601C70.2755 95.2001 69.679 94.6589 68.9793 94.2846C68.2796 93.9104 67.4985 93.7147 66.705 93.7148H50.4125C49.6193 93.7151 48.8383 93.911 48.1389 94.2852C47.4395 94.6594 46.8434 95.2004 46.403 95.8601L43.541 100.151Z" fill="#70C2EF"/>
<path d="M42.7503 99.6224L45.6116 95.3318C46.1382 94.5408 46.8521 93.8923 47.69 93.4441C48.5279 92.9958 49.4638 92.7618 50.4141 92.7627H66.7053C67.6555 92.7615 68.5912 92.9955 69.429 93.4438C70.2668 93.892 70.9804 94.5406 71.5067 95.3318L74.3727 99.6224C74.467 99.766 74.5207 99.9324 74.5283 100.104C74.536 100.276 74.4971 100.446 74.416 100.597C74.335 100.749 74.2146 100.876 74.0675 100.964C73.9205 101.053 73.7522 101.101 73.5804 101.102H43.5439C43.372 101.101 43.2037 101.054 43.0565 100.965C42.9092 100.876 42.7885 100.75 42.7073 100.598C42.626 100.447 42.5871 100.276 42.5947 100.104C42.6023 99.9326 42.656 99.7661 42.7503 99.6224ZM69.9258 96.3874C69.5726 95.8572 69.0939 95.4226 68.5321 95.1223C67.9703 94.8219 67.343 94.6651 66.7059 94.6658H50.4148C49.7778 94.6651 49.1506 94.822 48.5889 95.1223C48.0272 95.4227 47.5484 95.8573 47.1952 96.3874L45.3208 99.1987H71.8009L69.9258 96.3874Z" fill="#302D3D"/>
<path d="M95.3737 104.029L26.671 104.029C26.4343 104.029 26.2 103.983 25.9814 103.892C25.7627 103.802 25.5641 103.669 25.3967 103.501C25.2294 103.334 25.0966 103.135 25.0061 102.917C24.9155 102.698 24.8689 102.464 24.8689 102.227V100.151L97.1758 100.151V102.227C97.1758 102.705 96.9859 103.164 96.648 103.501C96.31 103.839 95.8516 104.029 95.3737 104.029Z" fill="#5C63A4"/>
<path d="M23.9199 102.307V100.15C23.921 99.8983 24.0215 99.6569 24.1998 99.4788C24.3781 99.3006 24.6198 99.2001 24.8718 99.1992H97.1772C97.4294 99.1994 97.6714 99.2997 97.8496 99.478C98.0278 99.6564 98.1278 99.8983 98.1278 100.15V102.308C98.1273 103.017 97.8457 103.696 97.3448 104.197C96.844 104.698 96.1648 104.98 95.4564 104.981H26.5914C25.8828 104.98 25.2034 104.698 24.7026 104.197C24.2017 103.695 23.9203 103.016 23.9199 102.307ZM25.8224 101.101V102.307C25.8227 102.511 25.904 102.707 26.0483 102.851C26.1925 102.995 26.388 103.077 26.592 103.077H95.457C95.6609 103.076 95.8564 102.995 96.0004 102.851C96.1445 102.707 96.2252 102.511 96.2253 102.307V101.101H25.8224Z" fill="#302D3D"/>
<path d="M54.4785 50.3635C59.2325 48.3379 61.4443 42.8419 59.4187 38.0879C57.3931 33.3339 51.8971 31.1221 47.1431 33.1477C42.389 35.1733 40.1772 40.6693 42.2029 45.4233C44.2285 50.1774 49.7245 52.3892 54.4785 50.3635Z" fill="#5C63A4"/>
<path d="M41.4551 41.7486C41.456 43.5989 42.0055 45.4073 43.034 46.9453C44.0626 48.4834 45.5238 49.6819 47.2334 50.3896C48.943 51.0972 50.8239 51.2821 52.6386 50.9209C54.4533 50.5597 56.1201 49.6686 57.4284 48.3603C58.7367 47.052 59.628 45.3851 59.9892 43.5705C60.3504 41.7558 60.1654 39.8748 59.4578 38.1652C58.7502 36.4556 57.5514 34.9942 56.0134 33.9657C54.4753 32.9371 52.667 32.3877 50.8168 32.3867C49.5872 32.3863 48.3698 32.6281 47.2338 33.0984C46.0977 33.5688 45.0652 34.2583 44.1958 35.1278C43.3264 35.9972 42.6371 37.0294 42.1668 38.1654C41.6964 39.3015 41.4546 40.5191 41.4551 41.7486ZM46.6973 41.7486C46.6984 40.9353 46.9408 40.1405 47.3933 39.4646C47.8459 38.7888 48.4885 38.2623 49.2402 37.9516C49.9918 37.6409 50.8187 37.5599 51.6164 37.7189C52.4141 37.8778 53.1467 38.2697 53.7218 38.8449C54.2969 39.4201 54.6884 40.1528 54.8473 40.9504C55.0061 41.7481 54.9252 42.575 54.6144 43.3266C54.3035 44.0782 53.7766 44.7208 53.1007 45.1733C52.4248 45.6257 51.6301 45.8677 50.8168 45.8686C49.7242 45.8683 48.6766 45.4341 47.9041 44.6615C47.1316 43.8889 46.6975 42.8412 46.6973 41.7486Z" fill="#5C63A4"/>
<path d="M47.3542 39.5384C47.1349 39.9047 46.8213 40.2055 46.4462 40.4095C46.0712 40.6135 45.6485 40.7133 45.2218 40.6984L44.9489 40.6847C44.5015 40.6651 44.067 40.5282 43.6892 40.2877C43.3114 40.0473 43.0033 39.7118 42.7959 39.3148C42.5886 38.9179 42.4895 38.4734 42.5081 38.0259C42.5266 37.5785 42.6624 37.1437 42.9019 36.7653C43.7602 35.3993 44.9575 34.2789 46.3773 33.5129C47.7971 32.747 49.3909 32.3617 51.0038 32.3945C52.6167 32.4274 54.1936 32.8772 55.581 33.7003C56.9685 34.5234 58.1195 35.6917 58.9215 37.0915C59.1437 37.4987 59.2503 37.959 59.2297 38.4224C59.2091 38.8859 59.0618 39.3348 58.8042 39.7207C58.5467 40.1066 58.1888 40.4146 57.7687 40.6115C57.3486 40.8084 56.8826 40.8866 56.4213 40.8376C55.9848 40.8167 55.56 40.6878 55.1856 40.4623C54.8111 40.2369 54.4987 39.922 54.276 39.5459C53.9075 38.9614 53.3971 38.4797 52.7923 38.1457C52.1876 37.8116 51.5082 37.636 50.8172 37.6353C50.1263 37.6345 49.4463 37.8086 48.8408 38.1414C48.2353 38.4741 47.7239 38.9547 47.3542 39.5384Z" fill="#7A86C2"/>
<path d="M45.8505 43.7306C46.2209 43.7158 46.5899 43.7822 46.9317 43.9253C47.2736 44.0685 47.58 44.2847 47.8293 44.5589C48.2145 44.9779 48.6836 45.3112 49.206 45.537C49.7284 45.7629 50.2925 45.8762 50.8616 45.8698C51.4307 45.8633 51.992 45.7373 52.5092 45.4997C53.0263 45.2621 53.4876 44.9183 53.8632 44.4907C54.1356 44.1708 54.4805 43.9205 54.8691 43.7605C55.2576 43.6006 55.6788 43.5356 56.0975 43.5709C56.5794 43.6081 57.0413 43.7787 57.4319 44.0634C57.8225 44.3481 58.1262 44.7359 58.3092 45.1833C58.4921 45.6307 58.547 46.1201 58.4677 46.5969C58.3885 47.0737 58.1785 47.5191 57.8607 47.8834C56.9974 48.8786 55.933 49.6798 54.7378 50.2343C53.5426 50.7887 52.2436 51.0838 50.9262 51.1002C49.6088 51.1166 48.3029 50.8538 47.0943 50.3293C45.8857 49.8047 44.8019 49.0302 43.9141 48.0566C43.5803 47.683 43.3617 47.2206 43.2847 46.7255C43.2078 46.2303 43.2756 45.7235 43.4803 45.2661C43.685 44.8087 44.018 44.4204 44.4385 44.1479C44.8591 43.8754 45.3494 43.7305 45.8505 43.7306Z" fill="#52407C"/>
<path d="M40.5059 41.7494C40.5057 39.7106 41.1101 37.7175 42.2427 36.0222C43.3754 34.3269 44.9853 33.0055 46.8689 32.2252C48.7526 31.4449 50.8252 31.2408 52.8249 31.6385C54.8245 32.0362 56.6614 33.018 58.1031 34.4596C59.5448 35.9013 60.5267 37.7382 60.9245 39.7378C61.3222 41.7375 61.1177 43.8102 60.3374 45.6939C59.5571 47.5775 58.2358 49.1874 56.5405 50.3201C54.8452 51.4527 52.8523 52.0572 50.8135 52.0571C48.0807 52.0538 45.4608 50.9668 43.5285 49.0344C41.5961 47.1021 40.5091 44.4822 40.5059 41.7494ZM42.409 41.7494C42.409 43.4118 42.9018 45.0369 43.8253 46.4191C44.7489 47.8013 46.0617 48.8787 47.5976 49.5148C49.1335 50.151 50.8232 50.3174 52.4537 49.9931C54.0842 49.6688 55.5819 48.8683 56.7574 47.6928C57.9329 46.5173 58.7333 45.0197 59.0577 43.3892C59.382 41.7588 59.2157 40.0687 58.5796 38.5329C57.9434 36.997 56.8659 35.6843 55.4836 34.7607C54.1014 33.8371 52.4765 33.3442 50.8141 33.3442C48.5855 33.3464 46.4488 34.2326 44.8729 35.8084C43.2969 37.3842 42.4103 39.5208 42.408 41.7494H42.409Z" fill="#302D3D"/>
<path d="M50.8133 45.8678C53.0876 45.8678 54.9313 44.0241 54.9313 41.7498C54.9313 39.4755 53.0876 37.6318 50.8133 37.6318C48.539 37.6318 46.6953 39.4755 46.6953 41.7498C46.6953 44.0241 48.539 45.8678 50.8133 45.8678Z" fill="#84AEEA"/>
<path d="M45.7441 41.7509C45.7441 40.7483 46.0415 39.7683 46.5984 38.9347C47.1554 38.1011 47.9472 37.4514 48.8734 37.0676C49.7996 36.6839 50.8187 36.5835 51.802 36.7789C52.7853 36.9744 53.6885 37.4571 54.3975 38.1659C55.1065 38.8747 55.5894 39.7778 55.7852 40.7611C55.9809 41.7443 55.8808 42.7635 55.4973 43.6898C55.1139 44.6161 54.4643 45.4079 53.6308 45.9651C52.7974 46.5223 51.8173 46.8198 50.8148 46.8201C49.4707 46.8185 48.1823 46.2839 47.2318 45.3336C46.2813 44.3833 45.7461 43.0949 45.7441 41.7509ZM47.6479 41.7509C47.6479 42.377 47.8338 42.9892 48.1817 43.5098C48.5296 44.0305 49.0239 44.4362 49.6024 44.6759C50.1809 44.9156 50.8174 44.9783 51.4315 44.8562C52.0457 44.7341 52.61 44.4326 53.0528 43.9899C53.4956 43.5472 53.7971 42.9831 53.9194 42.369C54.0416 41.7548 53.979 41.1183 53.7395 40.5397C53.4999 39.9612 53.0942 39.4666 52.5737 39.1187C52.0531 38.7707 51.441 38.5849 50.8148 38.5847C49.9753 38.5855 49.1702 38.9192 48.5765 39.5128C47.9828 40.1064 47.6488 40.9113 47.6479 41.7509Z" fill="#302D3D"/>
<path d="M21.0561 79.7307C21.2591 80.0281 21.5252 80.2772 21.8351 80.4604C22.145 80.6436 22.4912 80.7565 22.8496 80.791C23.208 80.8255 23.5696 80.7808 23.9088 80.6601C24.248 80.5394 24.5567 80.3455 24.8127 80.0923L31.445 73.4613C31.8242 73.0761 32.0667 72.5773 32.1354 72.0412C32.204 71.5051 32.0951 70.9612 31.8252 70.493C30.6227 68.3349 29.9987 65.9025 30.0137 63.4321C30.0286 60.9616 30.682 58.537 31.9105 56.3936C32.1685 55.9315 32.2683 55.3976 32.1943 54.8736C32.1204 54.3495 31.8768 53.8641 31.501 53.4915L24.9073 46.8993C24.6525 46.6462 24.3452 46.4522 24.0071 46.3311C23.669 46.21 23.3085 46.1646 22.9509 46.1983C22.5933 46.2319 22.2473 46.3438 21.9377 46.5259C21.6281 46.708 21.3626 46.9559 21.1594 47.2521C17.7942 51.9939 15.9776 57.6605 15.9591 63.4751C15.9407 69.2896 17.721 74.9676 21.0561 79.7307Z" fill="#52407C"/>
<path d="M18.3538 69.1415C18.6564 69.1395 18.9552 69.0737 19.2307 68.9485C19.5062 68.8233 19.7523 68.6414 19.9527 68.4147C20.1531 68.188 20.3033 67.9216 20.3938 67.6328C20.4844 67.3441 20.5132 67.0395 20.4781 66.7389C20.2212 64.2611 20.2932 61.7602 20.6924 59.3013C20.7383 58.9975 20.7178 58.6874 20.6324 58.3922C20.547 58.0971 20.3986 57.824 20.1976 57.5917C19.9966 57.3593 19.7477 57.1733 19.4679 57.0464C19.1881 56.9194 18.8842 56.8546 18.577 56.8564C18.065 56.8413 17.5643 57.0095 17.1653 57.3308C16.7664 57.6521 16.4954 58.1052 16.401 58.6087C15.8831 61.4718 15.8239 64.3991 16.2261 67.2807C16.2957 67.7957 16.5499 68.268 16.9411 68.6102C17.3323 68.9523 17.8341 69.1411 18.3538 69.1415Z" fill="#3E3168"/>
<path d="M25.1762 79.7302L31.445 73.4608C31.8244 73.0758 32.0672 72.5771 32.136 72.041C32.2049 71.5048 32.0959 70.9609 31.8262 70.4925C30.6234 68.3345 29.9994 65.9021 30.0144 63.4316C30.0293 60.961 30.6827 58.5364 31.9115 56.3931C32.1694 55.931 32.2693 55.3972 32.1954 54.8731C32.1214 54.3491 31.878 53.8637 31.5023 53.491C25.0398 47.0291 25.6136 47.5061 25.5174 47.6016C22.1981 52.2861 20.3868 57.8717 20.3258 63.6126C20.2648 69.3535 21.9571 74.9764 25.1762 79.7302Z" fill="#5C63A4"/>
<path d="M28.8682 72.0007C28.967 71.9009 29.0317 71.7726 29.0531 71.6339C29.0746 71.4951 29.0515 71.3532 28.9875 71.2282C27.7794 68.8202 27.1539 66.1622 27.161 63.4681C27.1681 60.774 27.8077 58.1193 29.0285 55.7177C29.0948 55.5923 29.1193 55.449 29.0984 55.3087C29.0776 55.1684 29.0125 55.0384 28.9125 54.9378L26.7489 52.7747C26.6733 52.6986 26.5806 52.6416 26.4786 52.6084C26.3767 52.5752 26.268 52.5667 26.1621 52.5837C26.0562 52.6007 25.956 52.6427 25.8696 52.7062C25.7831 52.7696 25.713 52.8528 25.665 52.9487C24.0805 56.2613 23.2334 59.8782 23.1822 63.5499C23.1309 67.2216 23.8767 70.8608 25.3682 74.2163C25.4139 74.3151 25.4831 74.4013 25.5694 74.4677C25.6557 74.5341 25.7567 74.5786 25.8639 74.5975C25.9711 74.6164 26.0813 74.6091 26.1851 74.5763C26.2889 74.5434 26.3832 74.4859 26.46 74.4087L28.8682 72.0007Z" fill="#7A86C2"/>
<path d="M20.2794 80.2763C16.8334 75.3511 14.9938 69.4813 15.0119 63.4703C15.0299 57.4593 16.9051 51.6007 20.3807 46.6963C20.6652 46.2881 21.0353 45.9471 21.4655 45.6971C21.8958 45.4472 22.3754 45.2943 22.8709 45.2493C23.3664 45.2043 23.866 45.2683 24.3342 45.4367C24.8024 45.605 25.228 45.8738 25.5813 46.2241L32.1743 52.817C32.7003 53.3359 33.0408 54.0136 33.1432 54.7453C33.2455 55.477 33.1041 56.2221 32.7407 56.8654C31.5909 58.8666 30.9791 61.1315 30.9648 63.4394C30.9506 65.7474 31.5344 68.0196 32.6594 70.0348C33.032 70.6831 33.1812 71.4359 33.0842 72.1774C32.9872 72.9188 32.6492 73.6079 32.1223 74.1385L25.4894 80.7655C25.1348 81.1165 24.7074 81.3854 24.2376 81.5534C23.7678 81.7213 23.267 81.7842 22.7703 81.7376C22.2735 81.6909 21.7929 81.5359 21.3626 81.2834C20.9323 81.0309 20.5625 80.6871 20.2794 80.2763ZM21.9343 47.7962C18.6845 52.381 16.9312 57.8581 16.9143 63.4778C16.8975 69.0975 18.6178 74.5851 21.84 79.1893C21.964 79.3721 22.1267 79.5255 22.3165 79.6385C22.5063 79.7515 22.7187 79.8213 22.9385 79.8431C23.1584 79.8648 23.3803 79.8379 23.5886 79.7643C23.7969 79.6907 23.9863 79.5722 24.1437 79.4172L30.7776 72.7902C31.0094 72.5496 31.1559 72.2397 31.1947 71.9079C31.2336 71.5762 31.1625 71.2408 30.9925 70.9533C29.7113 68.6507 29.0471 66.056 29.0644 63.4211C29.0817 60.7861 29.7801 58.2004 31.0915 55.9149C31.2458 55.6345 31.3036 55.3111 31.256 54.9946C31.2085 54.678 31.0579 54.3859 30.8279 54.1633L24.2359 47.5711C24.0788 47.4164 23.8894 47.2981 23.6815 47.2245C23.4737 47.151 23.2523 47.1239 23.0328 47.1452C22.8134 47.1666 22.6013 47.2358 22.4114 47.3481C22.2216 47.4603 22.0588 47.6128 21.9343 47.7949V47.7962Z" fill="#302D3D"/>
<path d="M23.0975 66.739C24.8902 66.739 26.3435 65.2857 26.3435 63.493C26.3435 61.7003 24.8902 60.2471 23.0975 60.2471C21.3048 60.2471 19.8516 61.7003 19.8516 63.493C19.8516 65.2857 21.3048 66.739 23.0975 66.739Z" fill="#84AEEA"/>
<path d="M18.9023 63.4928C18.9022 62.6626 19.1482 61.8511 19.6094 61.1608C20.0705 60.4705 20.7259 59.9324 21.4928 59.6146C22.2597 59.2968 23.1038 59.2136 23.918 59.3755C24.7323 59.5374 25.4803 59.937 26.0674 60.524C26.6544 61.111 27.0542 61.8588 27.2162 62.673C27.3782 63.4872 27.2949 64.3311 26.9773 65.0981C26.6596 65.8651 26.1219 66.5206 25.4317 66.9819C24.7414 67.4431 23.9299 67.6892 23.0997 67.6892C21.9872 67.6878 20.9206 67.2452 20.1338 66.4586C19.347 65.6719 18.904 64.6053 18.9023 63.4928ZM20.8048 63.4928C20.8048 63.9466 20.9395 64.3903 21.1916 64.7677C21.4438 65.145 21.8022 65.4391 22.2215 65.6128C22.6408 65.7865 23.1021 65.832 23.5472 65.7434C23.9923 65.6549 24.4014 65.4363 24.7223 65.1154C25.0433 64.7945 25.2618 64.3856 25.3504 63.9405C25.4389 63.4953 25.3935 63.0339 25.2198 62.6146C25.0461 62.1953 24.7519 61.8369 24.3745 61.5848C23.9971 61.3326 23.5536 61.198 23.0997 61.198C22.4911 61.1982 21.9074 61.44 21.4768 61.8703C21.0463 62.3005 20.804 62.8841 20.8035 63.4928H20.8048Z" fill="#302D3D"/>
</g>
<defs>
<clipPath id="clip0_4137_70716">
<rect width="116" height="116" fill="white"/>
</clipPath>
</defs>
</svg>
