<svg width="62" height="61" viewBox="0 0 62 61" fill="none" xmlns="http://www.w3.org/2000/svg">
<path d="M16.4688 56.2344L21.761 45.8215C22.2084 44.9407 22.8963 44.2 23.7476 43.6823C24.5988 43.1647 25.5798 42.8905 26.5806 42.8906C28.0096 42.8906 29.3801 43.4491 30.3906 44.4433C31.4011 45.4375 31.9688 46.7859 31.9688 48.1919V56.2344H16.4688Z" fill="#239EA0"/>
<path d="M27.125 49.5625C28.1951 49.5625 29.0625 48.709 29.0625 47.6562C29.0625 46.6035 28.1951 45.75 27.125 45.75C26.0549 45.75 25.1875 46.6035 25.1875 47.6562C25.1875 48.709 26.0549 49.5625 27.125 49.5625Z" fill="#2B2B37"/>
<path d="M23.9592 28.5938C24.1725 28.9572 24.2579 29.3798 24.2021 29.7959C24.1464 30.2121 23.9526 30.5984 23.6509 30.8951C23.3492 31.1919 22.9564 31.3823 22.5334 31.4369C22.1104 31.4915 21.681 31.4073 21.3116 31.1972C20.9423 30.9872 20.6538 30.6631 20.4908 30.2752C20.3278 29.8874 20.2994 29.4574 20.4102 29.0521C20.5209 28.6468 20.7645 28.2887 21.1032 28.0335C21.4418 27.7783 21.8566 27.6402 22.2832 27.6406C22.6231 27.6405 22.957 27.7285 23.2512 27.8959C23.5455 28.0632 23.7897 28.3039 23.9592 28.5938Z" fill="#2B2B37"/>
<path d="M23.2501 18.1094C23.9377 18.1084 24.6033 18.3478 25.1283 18.7848C25.6532 19.2218 26.0033 19.8281 26.1162 20.4955C26.2291 21.1629 26.0973 21.848 25.7445 22.4287C25.3917 23.0094 24.8407 23.4479 24.1898 23.6661C23.8886 23.7738 23.5705 23.8286 23.2501 23.8281C22.4793 23.8281 21.7401 23.5269 21.195 22.9906C20.65 22.4544 20.3438 21.7271 20.3438 20.9688C20.3417 20.6611 20.3908 20.3553 20.4891 20.0633C20.7112 19.4136 21.1611 18.8628 21.7582 18.5097C22.2112 18.2499 22.7257 18.1118 23.2501 18.1094Z" fill="#2B2B37"/>
<path d="M44.5625 44.7969L45.5312 47.6562L36.8125 51.4688L35.8438 48.6094L44.5625 44.7969Z" fill="#EDF4FA"/>
<path d="M24.1897 23.6661L26.5147 28.5938H23.9572C23.7435 28.2313 23.4144 27.9482 23.0207 27.7883C22.6271 27.6284 22.1909 27.6005 21.7795 27.709C21.3682 27.8175 21.0046 28.0563 20.7451 28.3886C20.4856 28.7208 20.3445 29.1279 20.3438 29.5469L19.1328 30.4428C18.3055 31.053 17.634 31.8445 17.1716 32.7544C16.7092 33.6643 16.4685 34.6677 16.4688 35.685C16.4658 36.0814 16.5014 36.4772 16.5753 36.8669C16.9338 38.7255 18.2997 44.0153 22.2812 44.7969L22.3684 44.8827C22.1339 45.1733 21.9295 45.4862 21.7581 45.8167L19.375 50.5156C19.375 50.5156 9.6875 45.75 9.6875 32.4062C9.6875 24.7812 15.5 20.0156 15.5 20.0156H20.3438L20.4891 20.0633C20.3907 20.3553 20.3416 20.6611 20.3438 20.9688C20.3438 21.7271 20.6499 22.4544 21.195 22.9906C21.74 23.5269 22.4792 23.8281 23.25 23.8281C23.5705 23.8286 23.8885 23.7738 24.1897 23.6661Z" fill="#EDF4FA"/>
<path d="M44.2356 39.345C44.3379 39.5589 44.3505 39.8037 44.2707 40.0267C44.1909 40.2496 44.0252 40.4327 43.8094 40.5364L38.9656 42.8049C38.8597 42.8548 38.7446 42.8834 38.6273 42.8888C38.51 42.8942 38.3927 42.8764 38.2825 42.8364C38.1723 42.7964 38.0713 42.735 37.9857 42.6559C37.9 42.5768 37.8313 42.4816 37.7838 42.376L37.125 40.9653L43.6156 37.9916L44.2356 39.345Z" fill="#A8B7D4"/>
<path d="M43.6166 37.9916L37.1259 40.9653L32.9409 42.8906L31.6719 39.8311L46.3194 33.3403L47.4722 36.2188L43.6166 37.9916Z" fill="#239EA0"/>
<path d="M23.2791 0.953125L26.6116 8.02531L21.2544 10.5034L17.9219 3.43125L23.2791 0.953125Z" fill="#393D48"/>
<path d="M34.9353 25.7153L38.2678 32.7875L32.9106 35.2656L29.5781 28.1935L34.9353 25.7153Z" fill="#393D48"/>
<path d="M52.3125 60.0469H13.5625C13.5643 59.036 13.9717 58.0666 14.6959 57.3495C15.1961 56.8652 15.8179 56.5199 16.4978 56.3488C16.8049 56.2721 17.1206 56.2337 17.4375 56.2344H48.4375C49.4652 56.2344 50.4508 56.6361 51.1775 57.351C51.9042 58.066 52.3125 59.0357 52.3125 60.0469Z" fill="#393D48"/>
<path d="M24.1891 23.6661C24.84 23.4479 25.391 23.0094 25.7438 22.4287C26.0966 21.848 26.2284 21.1628 26.1155 20.4955C26.0026 19.8281 25.6525 19.2218 25.1276 18.7848C24.6027 18.3478 23.937 18.1084 23.2494 18.1094C22.725 18.1118 22.2105 18.2499 21.7575 18.5097L18.5703 11.7425L21.2538 10.5034L26.6109 8.02531L29.2847 6.79578L37.6159 24.4762L34.9325 25.7153L29.5753 28.1934L26.9016 29.423L26.5141 28.5937L24.1891 23.6661Z" fill="#239EA0"/>
<path d="M24.0618 7.82707C23.5896 8.02621 23.0563 8.03265 22.5792 7.84497C22.1021 7.65729 21.7204 7.29087 21.5179 6.82629L19.684 2.61633L17.9219 3.43125L21.2544 10.5034L26.6116 8.02532L26.1107 6.96354L24.0618 7.82707Z" fill="#2B2B37"/>
<path d="M33.6052 28.7434L35.8459 27.6406L34.9353 25.7153L29.5781 28.1935L32.9106 35.2656L34.202 34.668L32.6907 31.1987C32.4963 30.7518 32.4826 30.2488 32.6526 29.7924C32.8226 29.3361 33.1634 28.9608 33.6052 28.7434Z" fill="#2B2B37"/>
<path d="M34.2873 23.3992C32.8959 24.0215 31.3114 24.0795 29.8769 23.5607C28.4423 23.042 27.2732 21.9882 26.6226 20.6275L21.6819 10.3052L21.2538 10.5034L18.5703 11.7425L21.7575 18.5097C22.2114 18.2494 22.7269 18.1113 23.2523 18.1094C23.9399 18.1084 24.6056 18.3478 25.1305 18.7848C25.6554 19.2218 26.0055 19.8281 26.1184 20.4955C26.2313 21.1628 26.0995 21.848 25.7467 22.4287C25.3939 23.0094 24.8429 23.4479 24.192 23.6661L26.517 28.5937L26.9045 29.423L29.5782 28.1934L34.9354 25.7153L37.6188 24.4762L36.621 22.3555L34.2873 23.3992Z" fill="#209092"/>
<path d="M30.0287 14.2968C29.8478 14.2978 29.6703 14.249 29.5162 14.1558C29.3622 14.0627 29.2376 13.9289 29.1568 13.7698L27.2193 9.95727C27.1045 9.73103 27.0857 9.46916 27.1671 9.22929C27.2484 8.98941 27.4234 8.79117 27.6533 8.67817C27.8833 8.56518 28.1494 8.54669 28.3932 8.62677C28.637 8.70684 28.8385 8.87893 28.9534 9.10517L30.8909 12.9177C30.9645 13.0627 30.9994 13.2237 30.9921 13.3857C30.9849 13.5476 30.9358 13.705 30.8495 13.8431C30.7632 13.9811 30.6425 14.0953 30.4989 14.1747C30.3553 14.2541 30.1934 14.2961 30.0287 14.2968Z" fill="#BBE1E2"/>
<path d="M35.7183 39.6777C35.4912 39.7736 35.2353 39.7805 35.0031 39.6968C34.771 39.6132 34.5801 39.4454 34.4696 39.2278L34.2061 38.7083L31.6719 39.8311L32.9409 42.8907L37.1259 40.9653L43.6166 37.9916L47.4722 36.2188L46.8958 34.7805L35.7183 39.6777Z" fill="#209092"/>
<path d="M40.6057 40.1742L43.946 38.7131L43.6156 37.9916L37.125 40.9653L37.7838 42.376C37.8313 42.4816 37.9 42.5768 37.9857 42.6559C38.0713 42.735 38.1723 42.7964 38.2825 42.8364C38.3927 42.8764 38.51 42.8942 38.6273 42.8888C38.7446 42.8834 38.8597 42.8548 38.9656 42.8049L39.5653 42.5237C39.4093 42.075 39.4296 41.5851 39.6221 41.1503C39.8147 40.7156 40.1655 40.3674 40.6057 40.1742Z" fill="#8698BA"/>
<path d="M39.7255 49.1365C39.6019 49.1904 39.4682 49.2183 39.333 49.2184C39.1978 49.2184 39.064 49.1906 38.9404 49.1368C38.8167 49.0829 38.7059 49.0042 38.6151 48.9056C38.5242 48.8071 38.4553 48.6909 38.4129 48.5646L38.0942 47.6239L35.8438 48.6094L36.8125 51.4688L45.5312 47.6563L45.2183 46.7336L39.7255 49.1365Z" fill="#C1CFE8"/>
<path d="M23.25 22.875C24.3201 22.875 25.1875 22.0215 25.1875 20.9688C25.1875 19.916 24.3201 19.0625 23.25 19.0625C22.1799 19.0625 21.3125 19.916 21.3125 20.9688C21.3125 22.0215 22.1799 22.875 23.25 22.875Z" fill="#8394B2"/>
<path d="M22.2812 30.5C22.8163 30.5 23.25 30.0733 23.25 29.5469C23.25 29.0205 22.8163 28.5938 22.2812 28.5938C21.7462 28.5938 21.3125 29.0205 21.3125 29.5469C21.3125 30.0733 21.7462 30.5 22.2812 30.5Z" fill="#8394B2"/>
<path d="M27.125 48.6094C27.66 48.6094 28.0938 48.1826 28.0938 47.6562C28.0938 47.1299 27.66 46.7031 27.125 46.7031C26.59 46.7031 26.1562 47.1299 26.1562 47.6562C26.1562 48.1826 26.59 48.6094 27.125 48.6094Z" fill="#8394B2"/>
<path d="M29.8172 54.3281H26.5893C23.5183 54.3281 21.4355 51.5641 22.6174 49.0497L24.6867 44.6501C24.9229 44.1815 25.2742 43.7782 25.7087 43.4768C26.1433 43.1754 26.6474 42.9854 27.1754 42.924C26.9779 42.9023 26.7793 42.8911 26.5806 42.8906C25.5798 42.8905 24.5988 43.1647 23.7476 43.6823C22.8963 44.2 22.2084 44.9407 21.761 45.8215L16.4688 56.2344H31.9688V52.4219C31.939 52.9549 31.6959 53.4546 31.2927 53.8118C30.8895 54.169 30.359 54.3546 29.8172 54.3281Z" fill="#209092"/>
<path d="M51.0444 57.2428C50.8715 57.5171 50.6303 57.7435 50.3436 57.9006C50.057 58.0577 49.7344 58.1403 49.4062 58.1406H20.3438C20.0868 58.1406 19.8404 58.0402 19.6587 57.8615C19.4771 57.6827 19.375 57.4403 19.375 57.1875C19.375 56.9347 19.4771 56.6923 19.6587 56.5135C19.8404 56.3348 20.0868 56.2344 20.3438 56.2344H17.4375C17.1206 56.2337 16.8049 56.2721 16.4978 56.3488C15.8179 56.5199 15.1961 56.8652 14.6959 57.3495C13.9717 58.0666 13.5643 59.036 13.5625 60.0469H52.3125C52.3116 59.5183 52.1984 58.9958 51.98 58.5128C51.7616 58.0299 51.4429 57.5973 51.0444 57.2428Z" fill="#2B2B37"/>
<path d="M24.1902 23.6661C23.889 23.7738 23.5709 23.8286 23.2505 23.8281C22.4797 23.8281 21.7405 23.5269 21.1954 22.9906C20.6504 22.4544 20.3442 21.7271 20.3442 20.9688C20.3421 20.6611 20.3912 20.3553 20.4895 20.0633L20.3442 20.0156H15.5005L17.6201 24.1875C17.8183 24.5875 17.8686 25.0429 17.7626 25.4755C17.6565 25.908 17.4006 26.2908 17.0388 26.5579C15.609 27.653 13.563 29.9758 13.563 34.3125C13.5368 37.7085 14.5999 41.0261 16.601 43.7932C16.833 44.113 16.96 44.4951 16.9649 44.888C16.9697 45.2809 16.8522 45.6659 16.6281 45.9911L15.5538 47.5781C16.6695 48.7416 17.9581 49.732 19.3755 50.5156L21.7586 45.8167C21.9299 45.4862 22.1344 45.1733 22.3689 44.8827L22.2817 44.7969C18.3002 44.0153 16.9342 38.7255 16.5758 36.8669C16.5019 36.4772 16.4662 36.0814 16.4692 35.685C16.469 34.6677 16.7096 33.6643 17.172 32.7544C17.6345 31.8445 18.306 31.053 19.1333 30.4428L20.3442 29.5469C20.345 29.1279 20.486 28.7208 20.7456 28.3886C21.0051 28.0563 21.3687 27.8175 21.78 27.709C22.1914 27.6005 22.6276 27.6284 23.0212 27.7883C23.4149 27.9482 23.744 28.2313 23.9577 28.5938H26.5152L24.1902 23.6661Z" fill="#C1CFE8"/>
<path d="M48.3532 32.4425C48.2475 32.2123 48.0532 32.0328 47.8131 31.9435C47.573 31.8541 47.3066 31.8622 47.0725 31.9659L28.6663 40.119C28.4964 40.1939 28.3521 40.3153 28.2506 40.4688C28.149 40.6223 28.0946 40.8013 28.0938 40.9844V43.1061C28.7832 43.3044 29.4255 43.6362 29.9828 44.0821C30.0094 44.005 30.0257 43.9249 30.0312 43.8438V41.6001L47.865 33.7025C47.9812 33.6514 48.086 33.5782 48.1734 33.4872C48.2608 33.3962 48.3291 33.2891 48.3745 33.1721C48.4198 33.055 48.4413 32.9304 48.4376 32.8052C48.434 32.68 48.4053 32.5568 48.3532 32.4425Z" fill="#C1CFE8"/>
<path d="M44.9558 45.668C45.0721 45.6172 45.1771 45.5443 45.2647 45.4536C45.3524 45.3629 45.421 45.2561 45.4667 45.1392C45.5124 45.0224 45.5343 44.8979 45.5311 44.7727C45.5278 44.6476 45.4996 44.5243 45.4479 44.4099C45.3963 44.2955 45.3222 44.1922 45.23 44.106C45.1378 44.0197 45.0292 43.9522 44.9105 43.9072C44.7917 43.8623 44.6652 43.8408 44.538 43.8439C44.4108 43.8471 44.2855 43.8749 44.1692 43.9257L31.9688 49.2603V51.3467L44.9558 45.668Z" fill="#8394B2"/>
</svg>
