<svg width="57" height="45" viewBox="0 0 57 45" fill="none" xmlns="http://www.w3.org/2000/svg">
<path d="M23.2559 4.76096H53.9579V43.3436H23.2559V4.76096Z" fill="white"/>
<path d="M53.9578 44.0648H23.2557C23.1582 44.0706 23.0605 44.0559 22.9692 44.0217C22.8778 43.9875 22.7949 43.9346 22.7258 43.8664C22.6567 43.7983 22.603 43.7164 22.5684 43.6263C22.5337 43.5362 22.5188 43.4398 22.5247 43.3436V4.76097C22.5188 4.66476 22.5337 4.56841 22.5684 4.4783C22.603 4.38818 22.6567 4.30634 22.7258 4.23818C22.7949 4.17003 22.8778 4.1171 22.9692 4.08291C23.0605 4.04871 23.1582 4.03402 23.2557 4.0398H53.9578C54.0553 4.03402 54.1529 4.04871 54.2443 4.08291C54.3356 4.1171 54.4186 4.17003 54.4877 4.23818C54.5568 4.30634 54.6104 4.38818 54.6451 4.4783C54.6797 4.56841 54.6946 4.66476 54.6888 4.76097V43.3436C54.6946 43.4398 54.6797 43.5362 54.6451 43.6263C54.6104 43.7164 54.5568 43.7983 54.4877 43.8664C54.4186 43.9346 54.3356 43.9875 54.2443 44.0217C54.1529 44.0559 54.0553 44.0706 53.9578 44.0648ZM23.9867 42.6225H53.2268V5.48214H23.9867V42.6225Z" fill="#183651"/>
<path d="M55.4935 44.0648H21.7212C21.5274 44.0648 21.3414 43.9888 21.2043 43.8536C21.0673 43.7183 20.9902 43.5349 20.9902 43.3436C20.9902 43.1524 21.0673 42.9689 21.2043 42.8337C21.3414 42.6984 21.5274 42.6225 21.7212 42.6225H55.4204C55.5179 42.6167 55.6156 42.6314 55.707 42.6656C55.7983 42.6998 55.8813 42.7527 55.9503 42.8208C56.0194 42.889 56.0731 42.9708 56.1077 43.0609C56.1424 43.1511 56.1573 43.2474 56.1514 43.3436C56.1591 43.4342 56.1479 43.5254 56.1186 43.6116C56.0892 43.6977 56.0422 43.777 55.9806 43.8446C55.9189 43.9122 55.8439 43.9666 55.7602 44.0044C55.6764 44.0423 55.5856 44.0628 55.4935 44.0648Z" fill="#183651"/>
<path d="M27.4238 0.722382H49.7925V4.76094H27.4238V0.722382Z" fill="#CEF6D3"/>
<path d="M49.7923 5.48213H27.4237C27.3261 5.48791 27.2285 5.47322 27.1371 5.43902C27.0458 5.40483 26.9628 5.3519 26.8937 5.28375C26.8246 5.21559 26.771 5.13375 26.7363 5.04364C26.7017 4.95352 26.6868 4.85717 26.6927 4.76096V0.722399C26.6868 0.626185 26.7017 0.529839 26.7363 0.439721C26.771 0.349604 26.8246 0.267765 26.8937 0.199609C26.9628 0.131452 27.0458 0.0785288 27.1371 0.0443323C27.2285 0.0101358 27.3261 -0.00455553 27.4237 0.001228H49.7923C49.8898 -0.00455553 49.9875 0.0101358 50.0788 0.0443323C50.1702 0.0785288 50.2531 0.131452 50.3222 0.199609C50.3913 0.267765 50.445 0.349604 50.4796 0.439721C50.5143 0.529839 50.5292 0.626185 50.5233 0.722399V4.76096C50.5105 4.94806 50.4293 5.12423 50.2949 5.25683C50.1605 5.38943 49.982 5.46947 49.7923 5.48213ZM28.1547 4.03979H49.0613V1.44357H28.1547V4.03979Z" fill="#183651"/>
<path d="M51.1814 1.44357H26.035C25.9375 1.44935 25.8398 1.43466 25.7484 1.40047C25.6571 1.36627 25.5741 1.31335 25.5051 1.24519C25.436 1.17703 25.3823 1.09519 25.3477 1.00508C25.313 0.914959 25.2981 0.818613 25.304 0.722399C25.2981 0.626185 25.313 0.529839 25.3477 0.439721C25.3823 0.349604 25.436 0.267765 25.5051 0.199609C25.5741 0.131452 25.6571 0.0785288 25.7484 0.0443323C25.8398 0.0101358 25.9375 -0.00455553 26.035 0.001228H51.1814C51.279 -0.00455553 51.3766 0.0101358 51.468 0.0443323C51.5593 0.0785288 51.6423 0.131452 51.7114 0.199609C51.7804 0.267765 51.8341 0.349604 51.8688 0.439721C51.9034 0.529839 51.9183 0.626185 51.9124 0.722399C51.9124 0.913666 51.8354 1.0971 51.6983 1.23234C51.5613 1.36759 51.3753 1.44357 51.1814 1.44357Z" fill="#183651"/>
<path d="M45.4219 34.5835V43.3097H31.679V34.5835H45.4219Z" fill="#E1E6E9"/>
<path d="M45.479 44.0648H31.7362C31.6386 44.0706 31.541 44.0559 31.4496 44.0217C31.3583 43.9875 31.2753 43.9346 31.2062 43.8664C31.1372 43.7982 31.0835 43.7164 31.0488 43.6263C31.0142 43.5362 30.9993 43.4398 31.0052 43.3436V34.6174C30.9993 34.5212 31.0142 34.4249 31.0488 34.3348C31.0835 34.2446 31.1372 34.1628 31.2062 34.0947C31.2753 34.0265 31.3583 33.9736 31.4496 33.9394C31.541 33.9052 31.6386 33.8905 31.7362 33.8963H45.479C45.5765 33.8905 45.6742 33.9052 45.7655 33.9394C45.8569 33.9736 45.9398 34.0265 46.0089 34.0947C46.078 34.1628 46.1316 34.2446 46.1663 34.3348C46.201 34.4249 46.2159 34.5212 46.21 34.6174V43.3436C46.21 43.5349 46.133 43.7183 45.9959 43.8536C45.8588 43.9888 45.6729 44.0648 45.479 44.0648ZM32.4672 42.6224H44.748V35.3386H32.4672V42.6224Z" fill="#183651"/>
<path d="M46.721 35.3386H30.4927C30.2988 35.3386 30.1129 35.2626 29.9758 35.1274C29.8387 34.9921 29.7617 34.8087 29.7617 34.6174C29.7617 34.4262 29.8387 34.2427 29.9758 34.1075C30.1129 33.9723 30.2988 33.8963 30.4927 33.8963H46.721C46.8185 33.8905 46.9161 33.9052 47.0075 33.9394C47.0988 33.9736 47.1818 34.0265 47.2509 34.0947C47.32 34.1628 47.3736 34.2446 47.4083 34.3348C47.4429 34.4249 47.4578 34.5212 47.452 34.6174C47.452 34.8087 47.3749 34.9921 47.2379 35.1274C47.1008 35.2626 46.9148 35.3386 46.721 35.3386Z" fill="#183651"/>
<path d="M38.6072 44.0648C38.5097 44.0706 38.4121 44.0559 38.3207 44.0217C38.2294 43.9875 38.1464 43.9346 38.0773 43.8664C38.0082 43.7983 37.9546 43.7164 37.9199 43.6263C37.8853 43.5362 37.8704 43.4398 37.8762 43.3436V34.6174C37.8762 34.4262 37.9533 34.2427 38.0903 34.1075C38.2274 33.9723 38.4134 33.8963 38.6072 33.8963C38.8011 33.8963 38.9871 33.9723 39.1241 34.1075C39.2612 34.2427 39.3382 34.4262 39.3382 34.6174V43.3436C39.3382 43.5349 39.2612 43.7183 39.1241 43.8536C38.9871 43.9888 38.8011 44.0648 38.6072 44.0648Z" fill="#183651"/>
<path d="M26.0332 12.189H30.1999V16.2997H26.0332V12.189Z" fill="#219788"/>
<path d="M33.0508 12.189H37.2175V16.2997H33.0508V12.189Z" fill="#219788"/>
<path d="M39.9961 12.189H44.1628V16.2997H39.9961V12.189Z" fill="#219788"/>
<path d="M47.0137 12.189H51.1804V16.2997H47.0137V12.189Z" fill="#219788"/>
<path d="M26.0332 18.319H30.1999V22.4296H26.0332V18.319Z" fill="#219788"/>
<path d="M33.0508 18.319H37.2175V22.4296H33.0508V18.319Z" fill="#219788"/>
<path d="M39.9961 18.319H44.1628V22.4296H39.9961V18.319Z" fill="#219788"/>
<path d="M47.0137 18.319H51.1804V22.4296H47.0137V18.319Z" fill="#219788"/>
<path d="M26.0332 24.3768H30.1999V28.4875H26.0332V24.3768Z" fill="#219788"/>
<path d="M33.0508 24.3768H37.2175V28.4875H33.0508V24.3768Z" fill="#219788"/>
<path d="M39.9961 24.3768H44.1628V28.4875H39.9961V24.3768Z" fill="#219788"/>
<path d="M47.0137 24.3768H51.1804V28.4875H47.0137V24.3768Z" fill="#219788"/>
<path d="M12.2715 31.9593H18.1612V37.0435H12.2715V31.9593Z" fill="url(#paint0_linear_851_14453)"/>
<path d="M12.2715 34.8649C12.6546 35.2518 13.1129 35.5584 13.619 35.7665C14.125 35.9745 14.6685 36.0797 15.2167 36.0757C15.7661 36.0889 16.3122 35.988 16.8195 35.7794C17.3268 35.5708 17.7839 35.2592 18.1612 34.8649V44.0656H12.2715V34.8649Z" fill="#23A2A4"/>
<path d="M12.2715 34.8649C12.6546 35.2518 13.1129 35.5584 13.619 35.7665C14.1251 35.9745 14.6685 36.0797 15.2167 36.0757C15.7662 36.0889 16.3123 35.988 16.8196 35.7794C17.3268 35.5708 17.784 35.2592 18.1612 34.8649C18.4331 34.924 18.7694 35.0041 19.1488 35.1007C18.5779 36.2315 17.0347 37.0435 15.216 37.0435C13.3973 37.0435 11.8534 36.2315 11.2832 35.1007C11.6633 35.0033 11.9996 34.924 12.2715 34.8649Z" fill="#6CB7B8"/>
<path d="M8.09877 37.5274L3.68133 37.0435C1.89426 39.0542 0.630712 41.4641 0 44.0648H8.09877V37.5274Z" fill="url(#paint1_linear_851_14453)"/>
<path d="M11.2892 34.6226C9.53989 35.0048 5.13195 35.9928 3.68164 37.0435L6.13561 44.0649H14.2344L11.2892 34.6226Z" fill="url(#paint2_linear_851_14453)"/>
<path d="M22.332 37.5274L26.7495 37.0435C28.5365 39.0542 29.8001 41.4641 30.4308 44.0648H22.332V37.5274Z" fill="url(#paint3_linear_851_14453)"/>
<path d="M19.1425 34.6226C20.8918 35.0048 25.2997 35.9928 26.75 37.0435L24.296 44.0649H16.1973L19.1425 34.6226Z" fill="url(#paint4_linear_851_14453)"/>
<path d="M24.049 26.355C24.049 27.4245 23.28 28.5683 22.3311 28.5683C21.3823 28.5683 20.6133 27.426 20.6133 26.355C20.6263 25.9141 20.813 25.4956 21.1338 25.1883C21.4545 24.8809 21.884 24.709 22.3311 24.709C22.7783 24.709 23.2078 24.8809 23.5285 25.1883C23.8492 25.4956 24.0359 25.9141 24.049 26.355Z" fill="url(#paint5_linear_851_14453)"/>
<path d="M9.57036 26.355C9.57036 27.4245 8.80135 28.5683 7.85251 28.5683C6.90367 28.5683 6.13466 27.426 6.13466 26.355C6.12379 26.1313 6.16107 25.9078 6.24406 25.6993C6.32705 25.4907 6.45386 25.3019 6.61614 25.1452C6.77842 24.9885 6.97249 24.8675 7.18559 24.7902C7.39869 24.7128 7.62598 24.6808 7.85251 24.6964C8.07904 24.6808 8.30633 24.7128 8.51943 24.7902C8.73252 24.8675 8.9266 24.9885 9.08888 25.1452C9.25116 25.3019 9.37797 25.4907 9.46096 25.6993C9.54394 25.9078 9.58123 26.1313 9.57036 26.355Z" fill="url(#paint6_linear_851_14453)"/>
<path d="M21.3517 20.3383H9.08109C8.80666 20.4081 8.5626 20.5639 8.38557 20.7823C8.20854 21.0006 8.10811 21.2697 8.09936 21.5492V26.3962C8.06879 27.3372 8.23025 28.2746 8.57415 29.1528C8.91806 30.031 9.43739 30.8321 10.1013 31.5084C10.7652 32.1847 11.5601 32.7224 12.4388 33.0897C13.3175 33.4569 14.2621 33.6461 15.2164 33.6461C16.1707 33.6461 17.1153 33.4569 17.994 33.0897C18.8727 32.7224 19.6676 32.1847 20.3315 31.5084C20.9954 30.8321 21.5147 30.031 21.8586 29.1528C22.2025 28.2746 22.364 27.3372 22.3334 26.3962V21.5492C22.3256 21.2695 22.2255 20.9999 22.0484 20.7813C21.8712 20.5628 21.6266 20.4073 21.3517 20.3383Z" fill="url(#paint7_linear_851_14453)"/>
<path d="M15.2144 14.0432C19.0638 14.0432 23.3132 16.9942 23.3132 21.5484C23.326 23.2118 22.9918 24.8599 22.3314 26.3904C22.1998 24.7616 21.9539 23.1437 21.5953 21.5484C17.4235 22.517 9.07909 20.5799 9.07909 20.5799C9.07909 20.5799 8.09736 22.0323 8.09736 26.3904C7.10375 25.0604 6.58591 23.4425 6.62512 21.7908C6.62512 18.1676 8.34298 17.4327 8.34298 17.4327C8.34298 17.4327 8.83348 14.0432 15.2144 14.0432Z" fill="url(#paint8_linear_851_14453)"/>
<path d="M15.2097 31.9593C14.6308 31.9532 14.0684 31.7684 13.6015 31.4306C13.5484 31.3934 13.5124 31.3369 13.5015 31.2736C13.4906 31.2102 13.5057 31.1452 13.5434 31.0928C13.5811 31.0404 13.6384 31.0049 13.7026 30.9941C13.7668 30.9834 13.8327 30.9982 13.8859 31.0354C14.2687 31.3223 14.7363 31.4776 15.217 31.4776C15.6978 31.4776 16.1653 31.3223 16.5482 31.0354C16.6015 30.9996 16.667 30.9859 16.7305 30.9973C16.794 31.0088 16.8504 31.0444 16.8875 31.0965C16.9246 31.1486 16.9394 31.2131 16.9287 31.2759C16.918 31.3387 16.8826 31.3948 16.8303 31.4321C16.3586 31.7694 15.7923 31.9537 15.2097 31.9593Z" fill="url(#paint9_linear_851_14453)"/>
<path d="M12.1548 27.0236C12.5586 27.0236 12.8858 26.7007 12.8858 26.3024C12.8858 25.9041 12.5586 25.5812 12.1548 25.5812C11.7511 25.5812 11.4238 25.9041 11.4238 26.3024C11.4238 26.7007 11.7511 27.0236 12.1548 27.0236Z" fill="url(#paint10_linear_851_14453)"/>
<path d="M18.7349 27.0236C19.1386 27.0236 19.4659 26.7007 19.4659 26.3024C19.4659 25.9041 19.1386 25.5812 18.7349 25.5812C18.3312 25.5812 18.0039 25.9041 18.0039 26.3024C18.0039 26.7007 18.3312 27.0236 18.7349 27.0236Z" fill="url(#paint11_linear_851_14453)"/>
<path d="M13.4968 24.6949C13.451 24.6948 13.4062 24.6821 13.3674 24.6581C12.9911 24.3733 12.5315 24.2162 12.0572 24.2102C11.5829 24.2043 11.1194 24.3497 10.7358 24.625L10.6846 24.6574C10.6296 24.6907 10.5635 24.7013 10.5006 24.6869C10.4377 24.6725 10.383 24.6342 10.3485 24.5804C10.314 24.5265 10.3024 24.4614 10.3162 24.3992C10.33 24.3369 10.3681 24.2825 10.4222 24.2478L10.4704 24.2175C10.9316 23.8909 11.4863 23.7177 12.0539 23.723C12.6216 23.7283 13.1728 23.9119 13.6276 24.2471C13.6726 24.2751 13.707 24.3167 13.7259 24.3657C13.7448 24.4147 13.7471 24.4684 13.7325 24.5188C13.7178 24.5691 13.687 24.6135 13.6446 24.6451C13.6023 24.6767 13.5507 24.694 13.4975 24.6942L13.4968 24.6949Z" fill="url(#paint12_linear_851_14453)"/>
<path d="M16.932 24.6949C16.8789 24.6947 16.8272 24.6774 16.7849 24.6458C16.7425 24.6142 16.7117 24.5698 16.697 24.5195C16.6824 24.4691 16.6847 24.4154 16.7036 24.3664C16.7225 24.3174 16.757 24.2758 16.8019 24.2478C17.2567 23.9126 17.8079 23.729 18.3756 23.7237C18.9432 23.7184 19.4979 23.8916 19.9591 24.2182L20.0073 24.2485C20.0614 24.2833 20.0995 24.3376 20.1133 24.3999C20.1271 24.4621 20.1155 24.5272 20.081 24.5811C20.0465 24.6349 19.9919 24.6732 19.929 24.6876C19.866 24.7021 19.7999 24.6915 19.7449 24.6581L19.693 24.6257C19.3093 24.3506 18.8458 24.2052 18.3716 24.2111C17.8973 24.2171 17.4378 24.3742 17.0614 24.6589C17.0225 24.6825 16.9777 24.695 16.932 24.6949Z" fill="url(#paint13_linear_851_14453)"/>
<path d="M15.2137 29.7806C15.0861 29.776 14.9609 29.7454 14.846 29.6905C14.7311 29.6356 14.629 29.5577 14.5463 29.4619C14.5226 29.439 14.5039 29.4116 14.4913 29.3814C14.4786 29.3512 14.4723 29.3188 14.4727 29.2861C14.4731 29.2534 14.4801 29.2211 14.4935 29.1912C14.5068 29.1613 14.5262 29.1344 14.5504 29.112C14.5745 29.0897 14.603 29.0724 14.6342 29.0612C14.6653 29.05 14.6984 29.0452 14.7315 29.0469C14.7645 29.0487 14.7969 29.057 14.8267 29.0714C14.8564 29.0859 14.8828 29.1061 14.9044 29.1308C14.9815 29.2243 15.0929 29.2839 15.2144 29.2967C15.3371 29.2842 15.4499 29.2243 15.528 29.1301C15.5734 29.0868 15.6341 29.0623 15.6973 29.062C15.7605 29.0616 15.8215 29.0853 15.8674 29.1281C15.9134 29.171 15.9408 29.2296 15.944 29.2919C15.9473 29.3542 15.926 29.4153 15.8847 29.4626C15.8013 29.5586 15.6986 29.6364 15.5831 29.6912C15.4675 29.7459 15.3418 29.7764 15.2137 29.7806Z" fill="url(#paint14_linear_851_14453)"/>
<path d="M12.2702 33.8963L14.2336 44.0649L10.3074 40.433L10.7979 38.496L9.08008 38.2544L11.0435 34.6226C11.1782 34.4171 11.3587 34.2448 11.5714 34.1189C11.784 33.993 12.0231 33.9169 12.2702 33.8963Z" fill="url(#paint15_linear_851_14453)"/>
<path d="M18.1607 33.8963L16.1973 44.0648L20.1235 40.433L19.633 38.4967L21.3508 38.2544L19.3874 34.6226C19.2527 34.4171 19.0722 34.2448 18.8595 34.1189C18.6469 33.993 18.4078 33.9169 18.1607 33.8963Z" fill="url(#paint16_linear_851_14453)"/>
<path d="M11.0424 42.3701H9.81509C9.78176 42.3719 9.7484 42.367 9.71707 42.3556C9.68573 42.3443 9.65706 42.3267 9.63282 42.3041C9.60858 42.2814 9.58928 42.2542 9.57608 42.2239C9.56289 42.1937 9.55608 42.1611 9.55608 42.1281C9.55608 42.0952 9.56289 42.0626 9.57608 42.0324C9.58928 42.0021 9.60858 41.9748 9.63282 41.9522C9.65706 41.9295 9.68573 41.912 9.71707 41.9007C9.7484 41.8893 9.78176 41.8844 9.81509 41.8862H11.0424C11.1725 41.886 11.2971 41.8349 11.3891 41.7442C11.481 41.6535 11.5328 41.5306 11.5329 41.4023V38.9806C11.5329 38.4027 11.3002 37.8484 10.886 37.4398C10.4718 37.0311 9.91001 36.8016 9.32423 36.8016C8.73844 36.8016 8.17664 37.0311 7.76242 37.4398C7.34821 37.8484 7.1155 38.4027 7.1155 38.9806V41.4016C7.1157 41.5298 7.16743 41.6528 7.25938 41.7435C7.35133 41.8342 7.47597 41.8853 7.606 41.8855H8.58774C8.62107 41.8837 8.65443 41.8886 8.68577 41.8999C8.7171 41.9113 8.74577 41.9288 8.77001 41.9515C8.79425 41.9741 8.81356 42.0014 8.82675 42.0316C8.83995 42.0619 8.84675 42.0945 8.84675 42.1274C8.84675 42.1603 8.83995 42.1929 8.82675 42.2232C8.81356 42.2534 8.79425 42.2807 8.77001 42.3034C8.74577 42.326 8.7171 42.3435 8.68577 42.3549C8.65443 42.3662 8.62107 42.3712 8.58774 42.3694H7.60674C7.34655 42.3692 7.09706 42.2672 6.91302 42.0857C6.72897 41.9043 6.62539 41.6582 6.625 41.4016V38.9806C6.625 38.2742 6.90942 37.5968 7.41569 37.0974C7.92196 36.5979 8.60861 36.3173 9.32459 36.3173C10.0406 36.3173 10.7272 36.5979 11.2335 37.0974C11.7398 37.5968 12.0242 38.2742 12.0242 38.9806V41.4016C12.024 41.6584 11.9205 41.9046 11.7364 42.0862C11.5524 42.2678 11.3028 42.3699 11.0424 42.3701Z" fill="url(#paint17_linear_851_14453)"/>
<path d="M9.32459 36.3173C8.60903 36.3186 7.92316 36.5997 7.41719 37.0988C6.91121 37.598 6.62635 38.2746 6.625 38.9806H7.1155C7.1155 38.4027 7.34821 37.8484 7.76242 37.4398C8.17664 37.0311 8.73844 36.8016 9.32422 36.8016C9.91001 36.8016 10.4718 37.0311 10.886 37.4398C11.3002 37.8484 11.5329 38.4027 11.5329 38.9806H12.0234C12.0221 38.2748 11.7373 37.5982 11.2315 37.0991C10.7257 36.5999 10.04 36.3188 9.32459 36.3173Z" fill="url(#paint18_linear_851_14453)"/>
<path d="M8.58816 41.8855H8.09766V42.3694H8.58816C8.62149 42.3712 8.65485 42.3662 8.68619 42.3549C8.71752 42.3435 8.74619 42.326 8.77043 42.3034C8.79467 42.2807 8.81397 42.2534 8.82717 42.2232C8.84036 42.1929 8.84717 42.1603 8.84717 42.1274C8.84717 42.0945 8.84036 42.0619 8.82717 42.0316C8.81397 42.0014 8.79467 41.9741 8.77043 41.9515C8.74619 41.9288 8.71752 41.9113 8.68619 41.8999C8.65485 41.8886 8.62149 41.8837 8.58816 41.8855Z" fill="url(#paint19_linear_851_14453)"/>
<path d="M9.81565 41.8855H10.3062V42.3694H9.81565C9.78232 42.3712 9.74896 42.3662 9.71762 42.3549C9.68629 42.3435 9.65762 42.326 9.63338 42.3034C9.60914 42.2807 9.58983 42.2534 9.57664 42.2232C9.56345 42.1929 9.55664 42.1603 9.55664 42.1274C9.55664 42.0945 9.56345 42.0619 9.57664 42.0316C9.58983 42.0014 9.60914 41.9741 9.63338 41.9515C9.65762 41.9288 9.68629 41.9113 9.71762 41.8999C9.74896 41.8886 9.78232 41.8837 9.81565 41.8855Z" fill="url(#paint20_linear_851_14453)"/>
<path d="M19.1359 32.4763C18.8846 32.6433 18.6226 32.7941 18.3516 32.9278H18.6491C19.56 32.9288 20.4333 33.2862 21.0774 33.9216C21.7215 34.5571 22.0838 35.4186 22.0848 36.3173V39.2222C22.083 39.2551 22.088 39.288 22.0995 39.3189C22.111 39.3498 22.1287 39.3781 22.1517 39.402C22.1746 39.4259 22.2023 39.445 22.233 39.458C22.2636 39.471 22.2967 39.4777 22.33 39.4777C22.3634 39.4777 22.3965 39.471 22.4271 39.458C22.4578 39.445 22.4854 39.4259 22.5084 39.402C22.5313 39.3781 22.5491 39.3498 22.5606 39.3189C22.5721 39.288 22.5771 39.2551 22.5753 39.2222V36.3173C22.5737 35.3739 22.2236 34.4634 21.5905 33.7564C20.9574 33.0493 20.0847 32.5943 19.1359 32.4763Z" fill="url(#paint21_linear_851_14453)"/>
<path d="M11.3073 32.4865C10.6836 32.5964 10.1188 32.919 9.71142 33.3978C9.30408 33.8766 9.08008 34.4813 9.07849 35.1065V36.5589C9.07667 36.5918 9.08166 36.6247 9.09317 36.6556C9.10467 36.6865 9.12244 36.7148 9.14539 36.7387C9.16834 36.7626 9.196 36.7817 9.22666 36.7947C9.25733 36.8077 9.29036 36.8144 9.32374 36.8144C9.35712 36.8144 9.39016 36.8077 9.42082 36.7947C9.45149 36.7817 9.47914 36.7626 9.50209 36.7387C9.52504 36.7148 9.54281 36.6865 9.55432 36.6556C9.56582 36.6247 9.57081 36.5918 9.56899 36.5589V35.1065C9.56977 34.5289 9.80268 33.9752 10.2167 33.5668C10.6306 33.1584 11.1919 32.9286 11.7773 32.9278C11.8398 32.9275 11.8998 32.9035 11.9447 32.8607C11.7257 32.7471 11.513 32.6222 11.3073 32.4865Z" fill="url(#paint22_linear_851_14453)"/>
<path d="M22.3897 41.4484C23.1972 41.4484 23.8517 40.9641 23.8517 40.3667C23.8517 39.7692 23.1972 39.2849 22.3897 39.2849C21.5823 39.2849 20.9277 39.7692 20.9277 40.3667C20.9277 40.9641 21.5823 41.4484 22.3897 41.4484Z" fill="url(#paint23_linear_851_14453)"/>
<path d="M22.3897 41.4484C23.1972 41.4484 23.8517 40.9641 23.8517 40.3667C23.8517 39.7692 23.1972 39.2849 22.3897 39.2849C21.5823 39.2849 20.9277 39.7692 20.9277 40.3667C20.9277 40.9641 21.5823 41.4484 22.3897 41.4484Z" fill="url(#paint24_linear_851_14453)"/>
<mask id="mask0_851_14453" style="mask-type:luminance" maskUnits="userSpaceOnUse" x="20" y="39" width="4" height="3">
<path d="M22.3897 41.4484C23.1972 41.4484 23.8517 40.9641 23.8517 40.3667C23.8517 39.7692 23.1972 39.2849 22.3897 39.2849C21.5823 39.2849 20.9277 39.7692 20.9277 40.3667C20.9277 40.9641 21.5823 41.4484 22.3897 41.4484Z" fill="white"/>
</mask>
<g mask="url(#mask0_851_14453)">
<path d="M21.1055 38.9806H23.5594V41.4015H21.1055V38.9806Z" fill="url(#paint25_linear_851_14453)"/>
</g>
<path d="M22.3316 41.6439C22.0404 41.6439 21.7558 41.5587 21.5137 41.3991C21.2716 41.2395 21.0829 41.0127 20.9714 40.7473C20.86 40.4819 20.8309 40.1898 20.8877 39.9081C20.9445 39.6263 21.0847 39.3675 21.2906 39.1644C21.4965 38.9613 21.7588 38.8229 22.0444 38.7669C22.33 38.7109 22.626 38.7396 22.895 38.8496C23.164 38.9595 23.394 39.1457 23.5557 39.3845C23.7175 39.6234 23.8039 39.9042 23.8039 40.1914C23.8035 40.5765 23.6482 40.9457 23.3722 41.218C23.0962 41.4904 22.722 41.6435 22.3316 41.6439ZM22.3316 39.2229C22.1374 39.2229 21.9476 39.2797 21.7862 39.3861C21.6247 39.4926 21.4989 39.6438 21.4246 39.8208C21.3503 39.9978 21.3309 40.1925 21.3687 40.3804C21.4066 40.5683 21.5001 40.7408 21.6374 40.8763C21.7747 41.0117 21.9496 41.104 22.1401 41.1414C22.3305 41.1787 22.5279 41.1596 22.7073 41.0862C22.8867 41.0129 23.04 40.8888 23.1479 40.7295C23.2558 40.5703 23.3134 40.383 23.3134 40.1914C23.3134 39.9345 23.2099 39.6881 23.0259 39.5063C22.8418 39.3246 22.5921 39.2231 22.3316 39.2229Z" fill="url(#paint26_linear_851_14453)"/>
<defs>
<linearGradient id="paint0_linear_851_14453" x1="15.2163" y1="36.2758" x2="15.2163" y2="33.7337" gradientUnits="userSpaceOnUse">
<stop stop-color="#F6CFBE"/>
<stop offset="1" stop-color="#EDAD99"/>
</linearGradient>
<linearGradient id="paint1_linear_851_14453" x1="3.36909" y1="50.4894" x2="4.00348" y2="42.5177" gradientUnits="userSpaceOnUse">
<stop stop-color="#EFF0F0"/>
<stop offset="1" stop-color="#E4E5E6"/>
</linearGradient>
<linearGradient id="paint2_linear_851_14453" x1="7.99771" y1="48.6821" x2="7.3796" y2="55.24" gradientUnits="userSpaceOnUse">
<stop stop-color="#EFF0F0"/>
<stop offset="1" stop-color="#E4E5E6"/>
</linearGradient>
<linearGradient id="paint3_linear_851_14453" x1="347.935" y1="50.4894" x2="348.569" y2="42.5177" gradientUnits="userSpaceOnUse">
<stop stop-color="#EFF0F0"/>
<stop offset="1" stop-color="#E4E5E6"/>
</linearGradient>
<linearGradient id="paint4_linear_851_14453" x1="368.754" y1="48.6821" x2="368.136" y2="55.24" gradientUnits="userSpaceOnUse">
<stop stop-color="#EFF0F0"/>
<stop offset="1" stop-color="#E4E5E6"/>
</linearGradient>
<linearGradient id="paint5_linear_851_14453" x1="20.6133" y1="19.3214" x2="24.8405" y2="30.7692" gradientUnits="userSpaceOnUse">
<stop stop-color="#F6CFBE"/>
<stop offset="1" stop-color="#EDAD99"/>
</linearGradient>
<linearGradient id="paint6_linear_851_14453" x1="6.13281" y1="19.2819" x2="10.3884" y2="30.7697" gradientUnits="userSpaceOnUse">
<stop stop-color="#F6CFBE"/>
<stop offset="1" stop-color="#EDAD99"/>
</linearGradient>
<linearGradient id="paint7_linear_851_14453" x1="16.4127" y1="18.1958" x2="16.9995" y2="14.7351" gradientUnits="userSpaceOnUse">
<stop stop-color="#F6CFBE"/>
<stop offset="1" stop-color="#EDAD99"/>
</linearGradient>
<linearGradient id="paint8_linear_851_14453" x1="14.9683" y1="9.38833" x2="14.9683" y2="29.5266" gradientUnits="userSpaceOnUse">
<stop stop-color="#957E7F"/>
<stop offset="1" stop-color="#373638"/>
</linearGradient>
<linearGradient id="paint9_linear_851_14453" x1="15.5138" y1="26.8328" x2="15.504" y2="28.6504" gradientUnits="userSpaceOnUse">
<stop stop-color="#F6CFBE"/>
<stop offset="1" stop-color="#EDAD99"/>
</linearGradient>
<linearGradient id="paint10_linear_851_14453" x1="12.0949" y1="34.1156" x2="12.1248" y2="30.1188" gradientUnits="userSpaceOnUse">
<stop stop-color="#58595B"/>
<stop offset="1" stop-color="#414042"/>
</linearGradient>
<linearGradient id="paint11_linear_851_14453" x1="18.675" y1="34.1502" x2="18.7048" y2="30.1549" gradientUnits="userSpaceOnUse">
<stop stop-color="#58595B"/>
<stop offset="1" stop-color="#414042"/>
</linearGradient>
<linearGradient id="paint12_linear_851_14453" x1="11.9268" y1="37.4346" x2="11.9301" y2="32.0397" gradientUnits="userSpaceOnUse">
<stop stop-color="#58595B"/>
<stop offset="1" stop-color="#414042"/>
</linearGradient>
<linearGradient id="paint13_linear_851_14453" x1="18.3037" y1="37.4708" x2="18.307" y2="32.0799" gradientUnits="userSpaceOnUse">
<stop stop-color="#58595B"/>
<stop offset="1" stop-color="#414042"/>
</linearGradient>
<linearGradient id="paint14_linear_851_14453" x1="9.55862" y1="30.5227" x2="10.9164" y2="29.4075" gradientUnits="userSpaceOnUse">
<stop stop-color="#F6CFBE"/>
<stop offset="1" stop-color="#EDAD99"/>
</linearGradient>
<linearGradient id="paint15_linear_851_14453" x1="14.2079" y1="51.9454" x2="12.9231" y2="50.463" gradientUnits="userSpaceOnUse">
<stop stop-color="#EFF0F0"/>
<stop offset="1" stop-color="#E4E5E6"/>
</linearGradient>
<linearGradient id="paint16_linear_851_14453" x1="358.76" y1="51.9454" x2="357.475" y2="50.463" gradientUnits="userSpaceOnUse">
<stop stop-color="#EFF0F0"/>
<stop offset="1" stop-color="#E4E5E6"/>
</linearGradient>
<linearGradient id="paint17_linear_851_14453" x1="9.68634" y1="44.2893" x2="9.61863" y2="43.6552" gradientUnits="userSpaceOnUse">
<stop stop-color="#D0D3D3"/>
<stop offset="1" stop-color="#AAAEB1"/>
</linearGradient>
<linearGradient id="paint18_linear_851_14453" x1="8.49826" y1="32.3676" x2="8.51275" y2="32.8537" gradientUnits="userSpaceOnUse">
<stop stop-color="#58595B"/>
<stop offset="1" stop-color="#414042"/>
</linearGradient>
<linearGradient id="paint19_linear_851_14453" x1="8.4979" y1="42.5316" x2="8.49601" y2="42.4782" gradientUnits="userSpaceOnUse">
<stop stop-color="#58595B"/>
<stop offset="1" stop-color="#414042"/>
</linearGradient>
<linearGradient id="paint20_linear_851_14453" x1="7.45876" y1="42.5316" x2="7.45687" y2="42.4782" gradientUnits="userSpaceOnUse">
<stop stop-color="#58595B"/>
<stop offset="1" stop-color="#414042"/>
</linearGradient>
<linearGradient id="paint21_linear_851_14453" x1="20.0116" y1="30.9431" x2="20.1733" y2="31.3982" gradientUnits="userSpaceOnUse">
<stop stop-color="#58595B"/>
<stop offset="1" stop-color="#414042"/>
</linearGradient>
<linearGradient id="paint22_linear_851_14453" x1="10.1875" y1="32.1575" x2="10.3191" y2="32.6266" gradientUnits="userSpaceOnUse">
<stop stop-color="#58595B"/>
<stop offset="1" stop-color="#414042"/>
</linearGradient>
<linearGradient id="paint23_linear_851_14453" x1="25.3635" y1="41.1477" x2="26.011" y2="41.4587" gradientUnits="userSpaceOnUse">
<stop stop-color="#6C6F73"/>
<stop offset="1" stop-color="#56585B"/>
</linearGradient>
<linearGradient id="paint24_linear_851_14453" x1="16.6733" y1="39.8042" x2="18.9305" y2="40.2093" gradientUnits="userSpaceOnUse">
<stop stop-color="#58595B"/>
<stop offset="1" stop-color="#414042"/>
</linearGradient>
<linearGradient id="paint25_linear_851_14453" x1="17.5349" y1="39.5616" x2="19.4555" y2="39.8202" gradientUnits="userSpaceOnUse">
<stop stop-color="#6C6F73"/>
<stop offset="1" stop-color="#56585B"/>
</linearGradient>
<linearGradient id="paint26_linear_851_14453" x1="17.5351" y1="39.5611" x2="19.4569" y2="39.8206" gradientUnits="userSpaceOnUse">
<stop stop-color="#D0D3D3"/>
<stop offset="1" stop-color="#AAAEB1"/>
</linearGradient>
</defs>
</svg>
