<svg width="44" height="44" viewBox="0 0 44 44" fill="none" xmlns="http://www.w3.org/2000/svg">
<g clip-path="url(#clip0_851_14605)">
<path d="M34.6358 44H9.36419C7.82333 44 6.62622 42.6568 6.80239 41.1263L7.85254 32.0195C7.97286 30.9796 8.65176 30.0884 9.622 29.6966L18.0705 26.2831C18.4108 26.1456 18.7743 26.0752 19.1413 26.0752H24.8579C25.2248 26.0752 25.5892 26.1456 25.9295 26.2831L34.3772 29.6966C35.3482 30.0884 36.0272 30.9796 36.1466 32.0195L37.1968 41.1263C37.3729 42.6568 36.1767 44 34.6358 44Z" fill="#E6E7E8"/>
<path d="M34.6358 44H9.36419C7.82333 44 6.62622 42.6568 6.80239 41.1262L7.85254 32.0195C7.97286 30.9796 8.65176 30.0884 9.622 29.6966L16.5529 26.8959C17.4311 29.5513 19.913 36.6893 21.6335 38.0119C23.4657 39.4213 26.6548 29.6192 27.4927 26.9148L34.3772 29.6966C35.3482 30.0884 36.0272 30.9796 36.1466 32.0195L37.1968 41.1262C37.3729 42.6568 36.1767 44 34.6358 44Z" fill="#393D63"/>
<path d="M25.0445 24.139L25.017 24.1553C23.2621 25.2175 21.0707 25.251 19.2841 24.243L19.2626 24.2309C19.1019 24.1398 18.9437 24.0453 18.7891 23.9465V30.8799H25.2129V24.0333C25.1562 24.0694 25.1003 24.1046 25.0445 24.139Z" fill="#EEAB90"/>
<path d="M22.6478 33.373C22.6083 33.4323 22.5885 33.5019 22.6005 33.5715L22.6315 33.7597L22.8145 37.0674L22.9795 40.0434L22.3642 40.7473C22.268 40.8581 22.1339 40.9131 21.9998 40.9131C21.8658 40.9131 21.7317 40.8581 21.6355 40.7473L20.954 39.9678C21.0184 39.0027 21.0838 38.0127 21.1422 37.1155C21.2634 35.2602 21.3562 33.8044 21.3562 33.8044L21.3914 33.6316C21.4086 33.5414 21.3845 33.4503 21.3338 33.373C21.3338 33.373 21.3338 33.373 21.3338 33.3721L20.9402 32.5016C20.7108 32.2833 20.7125 31.9464 20.9463 31.7316L21.4258 31.2898C21.7395 30.9994 22.262 30.9856 22.5963 31.258L23.0646 31.7221C23.2812 31.9378 23.2795 32.2618 23.0586 32.4741L22.6478 33.3721V33.373Z" fill="#F2614E"/>
<path d="M29.056 30.8842L27.2891 31.9567L28.6143 33.5973L22.9794 40.0434L22.3641 40.7473C22.2678 40.8581 22.1338 40.9131 21.9997 40.9131C21.8656 40.9131 21.7316 40.8581 21.6353 40.7473L20.9538 39.9678L15.3851 33.5973L16.7102 31.9567L14.9434 30.8842C14.9434 30.8842 14.1828 26.846 18.7882 25.8998C18.7882 25.8998 18.9902 31.9412 21.142 37.1155C21.3466 37.6088 21.5666 38.0935 21.8038 38.5645C21.8682 38.6925 22.0495 38.6934 22.1149 38.5662C22.3658 38.0789 22.5987 37.5779 22.8144 37.0674C25.0032 31.9034 25.2112 25.8998 25.2112 25.8998C29.8166 26.846 29.056 30.8842 29.056 30.8842Z" fill="#515987"/>
<path d="M19.68 32.3924L21.4159 30.9014L21.4598 30.9246C21.8061 31.1102 22.2229 31.1085 22.5675 30.9194L22.589 30.9074L24.2966 32.3744C24.9205 29.6544 25.125 27.2877 25.186 26.3407C24.9308 28.3757 22.711 30.5499 22.4773 30.7734L22.3999 30.8009C22.1507 30.8894 21.8783 30.8902 21.6282 30.8034L21.5062 30.7613C21.2088 30.4743 19.0527 28.3336 18.8086 26.3304C18.8687 27.2723 19.0673 29.6553 19.68 32.3924Z" fill="white"/>
<path d="M14.1537 15.3012C14.1537 15.3012 13.4473 11.7442 13.4473 8.48117C13.4473 5.21813 14.6598 0 21.3707 0C21.3707 0 24.2582 0.0266407 26.148 0.745938C27.321 1.19195 28.7562 0.9625 29.4927 0.791484C29.7333 0.735625 29.9593 0.928984 29.9421 1.17563C29.8794 2.07367 29.582 3.31633 29.8759 4.17398C30.0719 4.74633 30.5523 6.33875 30.5523 8.43648C30.5523 10.5342 30.0195 15.3708 30.0195 15.3708C30.0195 15.3708 29.423 12.3544 28.4081 10.9536C27.7937 10.1054 27.6888 8.91344 27.6751 8.35828C27.6716 8.20875 27.5247 8.10476 27.382 8.15031C26.0758 8.57312 20.6866 10.1105 16.4345 8.24055C16.2961 8.17953 16.1388 8.26977 16.1216 8.42016C16.0529 9.01313 15.8535 10.3185 15.3602 11.0928C14.7535 12.0424 14.0841 14.4856 14.1537 15.3012Z" fill="#4F3B30"/>
<path d="M31.3178 13.6623C31.3178 13.2069 30.7368 13.151 30.2384 13.1862C30.1224 14.4229 30.0175 15.3699 30.0175 15.3699C30.0175 15.3699 29.4211 12.3535 28.4062 10.9527C27.7917 10.1045 27.6869 8.91257 27.6731 8.35742C27.6697 8.20788 27.5228 8.1039 27.3801 8.14945C26.0738 8.57226 20.6847 10.1097 16.4325 8.23968C16.2942 8.17866 16.1369 8.2689 16.1197 8.41929C16.051 9.01226 15.8516 10.3177 15.3583 11.0919C14.7524 12.0424 14.0839 14.4865 14.1535 15.302C14.1535 15.302 13.9842 14.4469 13.8106 13.1905C13.3018 13.1476 12.6796 13.1914 12.6796 13.6623C12.6796 14.4392 12.4278 16.3522 14.0899 17.038C14.6665 20.0484 16.5374 22.6952 19.2607 24.2309L19.2822 24.243C21.0689 25.251 23.2603 25.2166 25.0151 24.1553L25.0426 24.139C27.6499 22.5612 29.416 19.9538 29.9522 17.0199C31.5653 16.3187 31.3178 14.4323 31.3178 13.6623Z" fill="#F8CCB9"/>
</g>
<defs>
<clipPath id="clip0_851_14605">
<rect width="44" height="44" fill="white"/>
</clipPath>
</defs>
</svg>
