<svg width="112" height="32" viewBox="0 0 112 32" fill="none" xmlns="http://www.w3.org/2000/svg">
<g clip-path="url(#clip0_4019_68541)">
<path d="M7.94088 30.884L2.68988 21.847V28.199C2.68988 28.9111 2.407 29.594 1.90346 30.0976C1.39993 30.6011 0.716989 30.884 0.00488281 30.884V17.813H2.76188L7.94588 26.703V20.498C7.94588 20.1455 8.01535 19.7965 8.15032 19.4709C8.2853 19.1453 8.48312 18.8496 8.73248 18.6005C8.98185 18.3514 9.27786 18.1539 9.6036 18.0193C9.92935 17.8847 10.2784 17.8156 10.6309 17.816V30.887L7.94088 30.884Z" fill="#078B60"/>
<path d="M21.5623 28.253H16.6723V28.283C16.4206 29.0391 15.9376 29.697 15.2916 30.1636C14.6455 30.6302 13.8692 30.8818 13.0723 30.883L17.2023 19.209C17.3468 18.8002 17.6143 18.4461 17.9681 18.1955C18.3219 17.9448 18.7447 17.8098 19.1783 17.809C19.6147 17.8087 20.0404 17.9445 20.3962 18.1974C20.7519 18.4502 21.0201 18.8077 21.1633 19.22L25.2003 30.88H25.1783C24.379 30.8775 23.6009 30.6231 22.9546 30.1529C22.3083 29.6827 21.8267 29.0207 21.5783 28.261L21.5623 28.253ZM20.8323 26.006L19.1323 20.894L17.4143 26.003L20.8323 26.006Z" fill="#078B60"/>
<path d="M29.728 25.7V28.682C29.728 29.2655 29.4962 29.8251 29.0836 30.2376C28.671 30.6502 28.1114 30.882 27.5279 30.882H27.0439V19.54C27.0439 19.082 27.2259 18.6427 27.5498 18.3188C27.8736 17.995 28.3129 17.813 28.771 17.813H34.0539C34.5161 17.7812 34.9798 17.8447 35.4164 17.9995C35.853 18.1543 36.2531 18.3972 36.5919 18.713C36.926 19.0649 37.1854 19.4807 37.3547 19.9354C37.5239 20.3901 37.5995 20.8743 37.577 21.359C37.6186 22.0686 37.4223 22.7719 37.0191 23.3573C36.6159 23.9428 36.0288 24.3769 35.3509 24.591C35.677 24.6784 35.9816 24.832 36.2457 25.0422C36.5098 25.2524 36.7277 25.5148 36.8859 25.813C37.1006 26.9747 37.2011 28.1547 37.1859 29.336C37.1739 29.5478 37.2206 29.7589 37.3208 29.9459C37.421 30.1329 37.5709 30.2887 37.7539 30.396V30.889H36.6699C36.0899 30.889 35.5333 30.66 35.1213 30.2517C34.7093 29.8435 34.4752 29.289 34.4699 28.709V28.679C34.4699 28.436 34.4699 28.138 34.4879 27.779V27.253C34.4879 26.2197 33.9343 25.703 32.827 25.703L29.728 25.7ZM29.728 23.453H32.978C33.4755 23.5009 33.9751 23.3861 34.4019 23.126C34.5807 22.9448 34.7175 22.7266 34.8027 22.4868C34.8878 22.2469 34.9194 21.9913 34.895 21.738C34.9212 21.4927 34.8903 21.2446 34.8048 21.0132C34.7193 20.7818 34.5814 20.5733 34.4019 20.404C33.9788 20.1339 33.4778 20.0125 32.978 20.059H29.728V23.453Z" fill="#078B60"/>
<path d="M49.5741 28.253H44.6811V28.283C44.4294 29.0391 43.9464 29.697 43.3004 30.1636C42.6543 30.6302 41.878 30.8818 41.0811 30.883L45.2201 19.209C45.3648 18.7997 45.6328 18.4453 45.9872 18.1946C46.3416 17.9439 46.7649 17.8092 47.1991 17.809C47.6351 17.8094 48.0603 17.9456 48.4154 18.1986C48.7706 18.4517 49.0382 18.809 49.1811 19.221L53.218 30.88H53.1971C52.3974 30.8773 51.619 30.6224 50.9727 30.1517C50.3263 29.6809 49.8449 29.0182 49.5971 28.258L49.5741 28.253ZM48.8441 26.006L47.1441 20.9L45.4261 26.006H48.8441Z" fill="#078B60"/>
<path d="M63.9577 28.253H59.0697V28.283C58.8181 29.0391 58.3351 29.697 57.689 30.1636C57.043 30.6302 56.2666 30.8818 55.4697 30.883L59.6117 19.209C59.7563 18.8002 60.0238 18.4461 60.3776 18.1955C60.7314 17.9448 61.1541 17.8098 61.5877 17.809C62.0238 17.8094 62.4489 17.9456 62.8041 18.1986C63.1593 18.4517 63.4269 18.809 63.5697 19.221L67.6097 30.88H67.5917C66.7921 30.8773 66.0137 30.6224 65.3674 30.1517C64.721 29.6809 64.2396 29.0182 63.9917 28.258L63.9577 28.253ZM63.2277 26.006L61.5277 20.9L59.8097 26.006H63.2277Z" fill="#078B60"/>
<path d="M72.5258 26.52V28.199C72.5262 28.5514 72.4571 28.9005 72.3224 29.2263C72.1878 29.552 71.9904 29.848 71.7413 30.0974C71.4922 30.3468 71.1964 30.5446 70.8708 30.6796C70.5452 30.8145 70.1962 30.884 69.8438 30.884V17.813C70.1962 17.813 70.5452 17.8825 70.8708 18.0174C71.1964 18.1524 71.4922 18.3502 71.7413 18.5996C71.9904 18.849 72.1878 19.145 72.3224 19.4707C72.4571 19.7965 72.5262 20.1455 72.5258 20.498V23.564L76.8358 18.714C77.0873 18.4305 77.3962 18.2036 77.7421 18.0485C78.0879 17.8933 78.4627 17.8134 78.8418 17.814H80.8118L75.5918 23.436L81.3587 30.884H79.4967C79.0777 30.8826 78.6647 30.7836 78.2905 30.5949C77.9163 30.4063 77.5911 30.1331 77.3407 29.797L73.8777 25.115L72.5258 26.52Z" fill="#078B60"/>
<path d="M95.22 17.813H95.238V26.466C95.2767 27.0733 95.1831 27.6818 94.9634 28.2494C94.7438 28.8169 94.4035 29.33 93.966 29.753C92.8472 30.6157 91.4742 31.0836 90.0615 31.0836C88.6487 31.0836 87.2757 30.6157 86.157 29.753C85.7176 29.3314 85.3757 28.8189 85.1553 28.2512C84.9348 27.6836 84.8412 27.0746 84.881 26.467V17.813C85.2332 17.8134 85.5819 17.8831 85.9071 18.0183C86.2323 18.1534 86.5278 18.3513 86.7765 18.6007C87.0253 18.85 87.2225 19.1459 87.357 19.4714C87.4914 19.797 87.5604 20.1458 87.56 20.498V26.466C87.56 28.012 88.3933 28.785 90.06 28.785C91.7266 28.785 92.5546 28.012 92.544 26.466V20.498C92.5436 20.1455 92.6126 19.7965 92.7472 19.4707C92.8819 19.145 93.0794 18.849 93.3285 18.5996C93.5775 18.3502 93.8733 18.1524 94.1989 18.0174C94.5245 17.8825 94.8735 17.813 95.226 17.813H95.22Z" fill="#078B60"/>
<path d="M101.422 20.717V28.198C101.423 28.5504 101.354 28.8995 101.219 29.2253C101.084 29.551 100.887 29.847 100.638 30.0964C100.389 30.3458 100.093 30.5436 99.7673 30.6786C99.4417 30.8135 99.0927 30.883 98.7402 30.883V17.813H102.756L105.129 28.213L107.429 17.813H111.481V30.884C110.769 30.884 110.086 30.6011 109.583 30.0976C109.079 29.594 108.796 28.9111 108.796 28.199V20.717L106.778 29.571C106.694 29.9435 106.485 30.2763 106.186 30.5147C105.888 30.7531 105.517 30.8829 105.135 30.883C104.754 30.8833 104.384 30.7542 104.086 30.517C103.787 30.2798 103.578 29.9484 103.492 29.577L101.422 20.717Z" fill="#078B60"/>
<path d="M42.4076 22.653V19.381C42.4076 18.9662 42.2432 18.5682 41.9505 18.2744C41.6577 17.9805 41.2604 17.8146 40.8456 17.813H39.7256L40.7076 21.36C40.8102 21.732 41.0322 22.0601 41.3392 22.2938C41.6463 22.5276 42.0216 22.6531 42.4076 22.653Z" fill="#078B60"/>
<path d="M25.39 3.772H23.93L26.33 0.138C25.3571 0.138791 24.4004 0.387022 23.5499 0.859346C22.6994 1.33167 21.9829 2.01257 21.468 2.838L19.324 6.238H24.129C25.112 6.26182 26.0517 6.64771 26.7677 7.32167C27.4837 7.99563 27.9258 8.91021 28.009 9.89H17.804C15.759 9.851 14.954 9.163 14.458 6.962C14.2466 6.01303 13.7023 5.17113 12.9238 4.58873C12.1454 4.00633 11.1841 3.72192 10.214 3.787H4.763C1.931 3.787 0 5.778 0 8.875V15.628C0.700172 15.628 1.37167 15.3499 1.86676 14.8548C2.36186 14.3597 2.64 13.6882 2.64 12.988V9.301C2.64 7.367 3.385 6.391 4.878 6.391H6.103C5.87809 6.9982 5.77611 7.64405 5.803 8.291C5.82663 9.43443 6.30343 10.5217 7.12856 11.3136C7.95368 12.1055 9.05956 12.5373 10.203 12.514C10.8669 12.5466 11.5293 12.4256 12.1388 12.1604C12.7482 11.8952 13.2883 11.493 13.717 10.985C14.6259 11.8221 15.7965 12.3188 17.03 12.391V12.448H30.953V11.463C30.941 6.965 29.04 4.154 25.39 3.772ZM10.247 10.352H10.058C9.082 10.352 8.412 9.452 8.412 8.172C8.412 6.892 9.082 5.972 10.193 5.972C11.304 5.972 11.95 6.816 11.95 8.095C11.954 9.605 11.38 10.353 10.251 10.353L10.247 10.352Z" fill="#078B60"/>
<path d="M38.0681 9.893C36.0981 9.893 35.7681 9.20499 35.7681 7.90199V2.796C35.7681 2.08662 35.4864 1.40627 34.985 0.904485C34.4836 0.402695 33.8034 0.120525 33.0941 0.119995V9.30099C33.0583 9.73102 33.118 10.1636 33.2689 10.5679C33.4198 10.9722 33.6582 11.3381 33.967 11.6394C34.2758 11.9408 34.6475 12.1702 35.0553 12.3112C35.4631 12.4522 35.8971 12.5013 36.3261 12.455H78.2941V9.893H73.8461C73.4822 9.71999 73.1824 9.43616 72.9899 9.08224C72.7973 8.72833 72.7217 8.3225 72.7741 7.92299C72.7562 7.41907 72.9014 6.92282 73.1881 6.508C73.3186 6.29866 73.5026 6.12789 73.7211 6.01329C73.9396 5.89869 74.1846 5.8444 74.4311 5.856C74.7752 5.84061 75.1142 5.94414 75.391 6.14919C75.6678 6.35424 75.8655 6.64831 75.9511 6.98199L78.1511 5.967C77.8489 5.24354 77.3383 4.6264 76.6842 4.19418C76.03 3.76196 75.2621 3.53423 74.4781 3.54C73.8943 3.52347 73.3137 3.63261 72.7758 3.86C72.2378 4.0874 71.755 4.42775 71.3601 4.858C70.5644 5.72845 70.1346 6.87196 70.1601 8.05099C70.1775 8.68136 70.3065 9.30365 70.5411 9.889L38.0681 9.893Z" fill="#078B60"/>
<path d="M111.474 3.79001C110.764 3.79001 110.083 4.07226 109.58 4.57467C109.078 5.07708 108.795 5.75849 108.795 6.46901V8.02001C108.795 9.26301 108.335 9.89401 107.437 9.89401H85.6545V3.79401C84.9384 3.79401 84.2516 4.07847 83.7453 4.58482C83.2389 5.09117 82.9545 5.77792 82.9545 6.49401V10.927C82.9545 12.609 82.0745 13.45 80.3145 13.45C80.3133 13.7476 80.3811 14.0414 80.5126 14.3083C80.644 14.5753 80.8356 14.8081 81.0723 14.9885C81.3089 15.1689 81.5841 15.2921 81.8763 15.3482C82.1686 15.4043 82.4698 15.3919 82.7565 15.312C83.4454 15.1579 84.074 14.8053 84.5645 14.2977C85.0551 13.7901 85.386 13.1498 85.5165 12.456H108.001C108.499 12.4806 108.995 12.3879 109.45 12.1856C109.905 11.9832 110.306 11.6768 110.62 11.291C111.195 10.5773 111.495 9.68091 111.464 8.76501V3.79001H111.474Z" fill="#078B60"/>
<path d="M110.232 0H110.016C109.332 0 108.777 0.554719 108.777 1.239C108.777 1.92328 109.332 2.478 110.016 2.478H110.232C110.917 2.478 111.471 1.92328 111.471 1.239C111.471 0.554719 110.917 0 110.232 0Z" fill="#078B60"/>
</g>
<defs>
<clipPath id="clip0_4019_68541">
<rect width="111.48" height="31.082" fill="white"/>
</clipPath>
</defs>
</svg>
