<svg width="52" height="50" viewBox="0 0 52 50" fill="none" xmlns="http://www.w3.org/2000/svg">
<g clip-path="url(#clip0_4019_68556)">
<path d="M34.295 36.7984C34.0176 35.8326 33.6904 34.8761 33.3578 33.9383C33.114 33.2406 32.8629 33.2829 32.6342 32.5664C32.7899 32.3776 32.9295 32.1771 33.0516 31.9667C33.1975 31.7186 33.3299 31.4634 33.448 31.202C33.6704 30.7104 33.8608 30.206 34.0181 29.6917C34.3284 28.6958 34.5634 27.6796 34.7212 26.651C35.0454 24.6148 35.104 22.5477 34.8958 20.4975C34.7004 18.4441 34.1494 16.4365 33.2657 14.5578C32.3941 12.6952 31.0588 11.0678 29.3778 9.81927C30.6967 11.3141 31.6861 13.0509 32.286 14.9244C32.8676 16.7645 33.1745 18.6747 33.1974 20.5978C33.2339 22.5154 33.0625 24.4315 32.6859 26.3149C32.5023 27.2456 32.2595 28.1646 31.9588 29.0667C31.8062 29.5093 31.6374 29.943 31.4512 30.3472C31.3727 30.5132 31.2907 30.6703 31.2074 30.8161C29.4493 30.3197 27.7647 29.6084 26.195 28.6996C25.4169 28.246 24.6796 27.7307 23.9909 27.1588C24.1225 26.9146 24.2547 26.6717 24.3946 26.4311C25.2553 24.9514 26.0745 23.6071 26.8718 22.3707L27.6374 22.9263C27.7137 22.9874 27.8022 23.033 27.8974 23.0603C27.9926 23.0876 28.0925 23.0961 28.1912 23.0852C28.2899 23.0743 28.3853 23.0443 28.4716 22.997C28.5579 22.9496 28.6333 22.886 28.6933 22.8098C28.7532 22.7337 28.7966 22.6467 28.8206 22.554C28.8446 22.4613 28.8488 22.3649 28.833 22.2706C28.8171 22.1763 28.7816 22.0861 28.7285 22.0053C28.6753 21.9246 28.6058 21.8551 28.5239 21.801L27.6593 21.1727C28.4961 19.9245 29.3173 18.788 30.1414 17.726C30.6431 17.0822 30.888 16.2868 30.8315 15.4841C30.775 14.6815 30.4208 13.9251 29.8333 13.3523C29.2459 12.7795 28.4642 12.4284 27.6303 12.3628C26.7965 12.2973 25.9659 12.5216 25.2894 12.995C24.5865 12.7537 23.8215 12.7357 23.1071 12.9438C22.3927 13.1519 21.7667 13.5749 21.3211 14.1508C21.0453 14.5035 20.8446 14.9052 20.7307 15.3328C20.6168 15.7603 20.5918 16.2053 20.6572 16.6422C20.7227 17.079 20.8772 17.4991 21.112 17.8784C21.3467 18.2577 21.6571 18.5886 22.0252 18.8522L25.6922 21.5159C24.8632 22.802 24.0075 24.2007 23.1078 25.7433C23.0293 25.8779 22.9571 26.0162 22.8815 26.1512C22.4337 25.7046 22.0152 25.2317 21.6283 24.7352C20.3827 23.1009 19.4558 21.2628 18.8927 19.3103C18.297 17.3024 18.0129 15.221 18.0496 13.1333C17.5462 15.2337 17.4661 17.4074 17.8135 19.5368C18.1505 21.7237 18.9564 23.8195 20.18 25.6913C20.6967 26.4759 21.289 27.212 21.9492 27.8898C21.5537 28.64 21.1519 29.401 20.7681 30.1648C18.2417 35.1921 14.7902 40.9255 18.9092 45.9458C20.3878 47.7486 22.7528 48.7515 25.1295 48.9738C27.4784 49.1942 29.9751 48.6611 31.7564 47.171C33.4422 45.7596 34.6144 43.6858 34.8227 41.5463C34.9651 39.4914 34.9249 38.7669 34.295 36.7984ZM22.9078 17.7203C22.6941 17.568 22.514 17.3764 22.378 17.1565C22.242 16.9367 22.1527 16.6931 22.1154 16.4398C22.0736 16.1637 22.0939 15.8821 22.1751 15.6142C22.2563 15.3462 22.3965 15.0982 22.5861 14.8869C22.7757 14.6756 23.0103 14.506 23.274 14.3895C23.5378 14.273 23.8245 14.2124 24.1147 14.2117C24.3882 14.2128 24.6587 14.2667 24.9101 14.3702L25.5318 14.6257L26.0526 14.2108C26.4348 13.908 26.919 13.7504 27.4139 13.7677C27.9088 13.785 28.3799 13.976 28.7382 14.3046C29.0965 14.6333 29.3171 15.0768 29.3584 15.5512C29.3997 16.0257 29.2588 16.4983 28.9623 16.8796C28.1362 17.9435 27.3175 19.0782 26.4812 20.3189L22.9078 17.7203ZM32.6605 43.3215C32.325 44.3228 31.7346 45.2276 30.9431 45.9538C29.5528 47.1019 27.7596 47.6972 25.9287 47.6183C23.5657 47.5794 21.1475 46.5867 19.8089 44.714C16.5169 40.1059 19.8577 35.2156 22.0906 30.7772C22.4022 30.1592 22.7245 29.5407 23.0493 28.9265C23.6811 29.4678 24.3532 29.9639 25.0603 30.411C26.9673 31.5878 29.0541 32.4706 31.2449 33.0273C31.4751 33.7433 31.7218 33.6954 31.9656 34.3865C32.8609 36.9293 33.2452 38.1807 33.1208 40.9002C33.0877 41.7246 32.9337 42.5403 32.6634 43.3234L32.6605 43.3215Z" fill="url(#paint0_linear_4019_68556)"/>
<path d="M18.0055 15.2452C18.7599 15.2452 19.3714 14.6572 19.3714 13.9318C19.3714 13.2065 18.7599 12.6185 18.0055 12.6185C17.2512 12.6185 16.6396 13.2065 16.6396 13.9318C16.6396 14.6572 17.2512 15.2452 18.0055 15.2452Z" fill="#239EA0"/>
<path d="M29.3131 11.8674C30.0675 11.8674 30.679 11.2794 30.679 10.554C30.679 9.82872 30.0675 9.24072 29.3131 9.24072C28.5588 9.24072 27.9473 9.82872 27.9473 10.554C27.9473 11.2794 28.5588 11.8674 29.3131 11.8674Z" fill="#239EA0"/>
<path d="M50.4468 22.373C50.1221 22.1582 49.8238 21.9087 49.5574 21.6294C49.0444 21.0458 48.6795 20.3556 48.4914 19.6132C48.2603 18.863 48.1116 18.0696 47.9272 17.2632C47.8785 17.0611 47.8351 16.8571 47.7809 16.6536C47.7268 16.4501 47.6649 16.2377 47.6142 16.0558C47.5079 15.6737 47.4128 15.2751 47.2919 14.8686C47.1728 14.4468 47.0221 14.0339 46.8408 13.6331C46.7417 13.4246 46.6288 13.2225 46.5029 13.0278C46.3751 12.8353 46.2337 12.6515 46.0796 12.4778C45.4952 11.8554 44.817 11.3209 44.0676 10.8921C43.7263 10.6773 43.3903 10.4804 43.0729 10.275L42.0893 9.62281L40.1061 8.32402L39.3805 7.85514C38.2936 7.14479 31.3267 2.22861 30.2422 1.51497L29.6868 1.14784C29.0939 0.757737 27.3179 -0.40508 26.0013 0.854326C24.6847 -0.40508 22.9078 0.758206 22.3158 1.14784L21.7594 1.51497C20.6744 2.22908 13.7086 7.14526 12.6221 7.85514L11.8951 8.32402L9.91186 9.62281L8.9283 10.275C8.61085 10.4799 8.27585 10.6773 7.93353 10.8921C7.18412 11.3209 6.5059 11.8554 5.92155 12.4778C5.76744 12.6515 5.62601 12.8353 5.49829 13.0278C5.37229 13.2223 5.25973 13.4245 5.16133 13.6331C4.97961 14.0337 4.82884 14.4467 4.71027 14.8686C4.58837 15.2747 4.49328 15.6732 4.38697 16.0558C4.33821 16.2377 4.27287 16.4506 4.2202 16.6536C4.16754 16.8567 4.12024 17.0616 4.07391 17.2632C3.88959 18.0696 3.74086 18.8611 3.5107 19.6132C3.32184 20.3555 2.95664 21.0456 2.44376 21.6294C2.17761 21.9089 1.8792 22.1584 1.55431 22.373C1.22794 22.5922 0.888629 22.7931 0.538086 22.9746C1.32344 22.7722 2.05863 22.4204 2.70025 21.9402C3.03741 21.6752 3.32659 21.3583 3.55605 21.0025C3.78992 20.6447 3.99124 20.2682 4.15779 19.8772C4.49084 19.1002 4.72295 18.2985 4.96872 17.5328C5.03016 17.3401 5.09355 17.1516 5.15695 16.9654C5.22034 16.7793 5.28763 16.603 5.36224 16.3981L5.76405 15.2484C5.88745 14.8945 6.03755 14.5498 6.21316 14.2169C6.29617 14.0658 6.38816 13.9194 6.48867 13.7785C6.5897 13.642 6.70068 13.5126 6.82075 13.3912C7.34912 12.8904 7.94752 12.4629 8.59866 12.121C8.93561 11.9292 9.28378 11.7328 9.63585 11.5166L10.6453 10.8799L12.6446 9.59468C12.8884 9.4362 13.1273 9.27537 13.3692 9.11595L13.3721 9.12158C14.461 8.41123 21.4288 3.49505 22.5142 2.77813L23.0706 2.41194C24.3843 1.54733 24.8315 1.72831 25.0748 1.98385C25.1189 2.02456 25.1535 2.07385 25.1762 2.12843C25.1989 2.18301 25.2092 2.24162 25.2065 2.30035C25.1309 2.71002 24.9122 3.08265 24.5867 3.35673C23.8148 4.0727 17.0908 9.04984 16.2423 9.8324C15.2183 10.7753 14.185 11.7276 13.2429 12.603C12.9115 12.5782 12.5785 12.6191 12.2642 12.723C11.8453 12.8602 11.4703 13.0989 11.1753 13.416C10.6594 14.0265 10.3146 14.7539 10.1737 15.5288C10.0289 16.1971 9.84903 16.858 9.63488 17.5089C9.52812 17.8178 9.39062 18.1162 9.22429 18.3997C9.0546 18.6811 8.85467 18.9746 8.66985 19.2625C8.48504 19.5504 8.28511 19.8354 8.08469 20.1168C7.88428 20.3981 7.68289 20.6794 7.47369 20.9579C8.00407 20.5121 8.50457 20.0345 8.97219 19.5279C9.216 19.2742 9.43739 19.0215 9.66804 18.742C9.89895 18.4534 10.0998 18.1437 10.2678 17.8174C10.5788 17.1706 10.8455 16.5049 11.0661 15.8247C11.1672 15.5201 11.2923 15.2234 11.4401 14.9371C11.5697 14.6894 11.7405 14.4637 11.9458 14.2689C12.1237 14.104 12.3442 13.9877 12.5846 13.9323C12.8088 13.8706 13.0465 13.8706 13.2707 13.9323C13.4605 13.9938 13.626 14.11 13.7446 14.2652C13.7894 14.3337 13.8196 14.4101 13.8335 14.4899C13.8475 14.5697 13.845 14.6514 13.8261 14.7303C13.8169 14.7839 13.8041 14.8368 13.7876 14.8888C13.7724 14.9441 13.7427 15.0327 13.7183 15.1063L13.5486 15.5954C13.4087 15.972 13.3077 16.3611 13.2473 16.7568L13.2375 16.8379L13.2307 16.9064L13.217 17.0437L13.1931 17.3176C13.1782 17.4998 13.1663 17.6816 13.1575 17.8629C13.1366 18.2253 13.1258 18.5835 13.118 18.9413L13.0951 21.0428C13.102 21.6881 13.0396 22.3323 12.9088 22.9652C12.8781 23.1148 12.8303 23.254 12.7879 23.3961C12.7384 23.5321 12.6814 23.6654 12.6172 23.7956C12.4914 24.0554 12.3312 24.2985 12.1408 24.5191C12.0458 24.6313 11.9446 24.7385 11.8375 24.8402C11.7234 24.9443 11.6064 25.0461 11.4845 25.1445C11.2385 25.343 10.9802 25.527 10.7111 25.6955C10.1526 26.0358 9.57391 26.3445 8.97804 26.6201L8.06373 27.051C7.91402 27.1227 7.75213 27.2034 7.59365 27.2854C7.43517 27.3675 7.28205 27.457 7.13332 27.555C5.95064 28.3371 4.94902 29.3461 4.19143 30.5183C5.1378 29.5781 6.24027 28.7958 7.4537 28.2035C7.59999 28.1369 7.7492 28.0746 7.89891 28.0159C8.04861 27.9573 8.19636 27.909 8.35923 27.8565L9.31889 27.5283C9.97999 27.3048 10.6234 27.0356 11.2441 26.7228C11.5661 26.5538 11.877 26.3659 12.175 26.1601C12.3276 26.057 12.4724 25.9407 12.6182 25.8244C12.7681 25.6985 12.9107 25.5649 13.0454 25.424C13.6086 24.8316 14.0081 24.1127 14.2074 23.3333C14.3913 22.5958 14.4894 21.841 14.5 21.0827C14.5229 20.3629 14.5249 19.6629 14.5414 18.968C14.5473 18.622 14.5551 18.2788 14.5712 17.9393C14.579 17.7696 14.5889 17.6008 14.6009 17.4329L14.6209 17.1811L14.6429 16.9467C14.6836 16.6497 14.754 16.3572 14.853 16.0732L15.0154 15.5677C15.0432 15.4739 15.0681 15.397 15.0969 15.2826C15.1279 15.1653 15.1504 15.0461 15.1642 14.9258C15.1974 14.6638 15.1834 14.3983 15.1227 14.1409C15.06 13.8752 14.9393 13.6252 14.7687 13.4076C14.7341 13.3635 14.6975 13.3227 14.6604 13.2838C15.4684 12.5336 16.3291 11.7412 17.183 10.9554C18.0368 10.1695 24.7569 5.1952 25.5317 4.47781C25.7034 4.31607 25.8607 4.14072 26.0018 3.95361C26.1426 4.14065 26.2996 4.316 26.4709 4.47781C27.2438 5.1952 33.9678 10.1714 34.8172 10.9568C35.6667 11.7421 36.5317 12.5355 37.3397 13.2852C37.3032 13.3241 37.2666 13.3654 37.2325 13.409C37.0619 13.6268 36.941 13.8766 36.8775 14.1423C36.8173 14.3998 36.8033 14.6652 36.836 14.9272C36.8498 15.0475 36.8723 15.1668 36.9033 15.284C36.9321 15.3984 36.957 15.4749 36.9857 15.5691L37.1471 16.0746C37.2462 16.3586 37.3165 16.6511 37.3573 16.9481L37.3802 17.1825L37.3992 17.4343C37.4113 17.6022 37.4212 17.771 37.429 17.9407C37.4461 18.2802 37.4529 18.6234 37.4587 18.9694C37.4758 19.6643 37.4777 20.3643 37.5012 21.0841C37.5107 21.8423 37.6079 22.5971 37.7908 23.3347C37.9901 24.1141 38.3896 24.833 38.9528 25.4254C39.0878 25.566 39.2304 25.6997 39.38 25.8258C39.5263 25.9421 39.6726 26.0603 39.8233 26.1615C40.1214 26.3671 40.4323 26.555 40.7542 26.7242C41.375 27.037 42.0186 27.3063 42.6798 27.5297L43.6395 27.8579C43.8019 27.9105 43.9496 27.9639 44.0998 28.0174C44.25 28.0708 44.3973 28.1383 44.545 28.2049C45.7586 28.7974 46.8613 29.5797 47.8083 30.5198C47.05 29.3476 46.0481 28.3388 44.8654 27.5564C44.7167 27.4585 44.5611 27.3736 44.4051 27.2868C44.249 27.2001 44.0857 27.1237 43.935 27.0524L43.0207 26.6215C42.4249 26.3457 41.8463 26.037 41.2876 25.6969C41.0185 25.5284 40.7602 25.3444 40.5142 25.1459C40.3923 25.048 40.2753 24.9457 40.1612 24.8416C40.0544 24.7397 39.9532 24.6325 39.8579 24.5205C39.6685 24.3002 39.5089 24.0577 39.3829 23.7989C39.3156 23.6723 39.2669 23.5339 39.2123 23.3994C39.1698 23.2587 39.122 23.1181 39.0913 22.9685C38.9606 22.3356 38.8982 21.6913 38.905 21.0461L38.8831 18.9394C38.8763 18.5826 38.8641 18.2244 38.8446 17.861C38.8345 17.6797 38.8223 17.4979 38.808 17.3157L38.7841 17.0419L38.7714 16.9045L38.7646 16.836L38.7539 16.7549C38.6933 16.3593 38.5927 15.9703 38.4535 15.5935L38.2828 15.1045C38.2589 15.0308 38.2292 14.9422 38.2136 14.8869C38.1974 14.8349 38.1848 14.782 38.176 14.7284C38.1567 14.6496 38.1538 14.5679 38.1676 14.4881C38.1814 14.4082 38.2116 14.3318 38.2565 14.2633C38.3752 14.1082 38.5407 13.9919 38.7305 13.9304C38.9547 13.8688 39.1924 13.8688 39.4166 13.9304C39.6569 13.9859 39.8774 14.1021 40.0554 14.267C40.261 14.4617 40.4321 14.6874 40.562 14.9352C40.7095 15.2216 40.8342 15.5183 40.9351 15.8228C41.1565 16.5028 41.4232 17.1684 41.7333 17.8155C41.9013 18.1419 42.1022 18.4515 42.3331 18.7401C42.5642 19.0215 42.7881 19.2723 43.029 19.526C43.4966 20.0326 43.9971 20.5102 44.5275 20.9561C44.3183 20.6785 44.113 20.4014 43.9174 20.1149C43.7219 19.8284 43.522 19.5485 43.3323 19.2606C43.1426 18.9727 42.9485 18.6801 42.7778 18.3979C42.6115 18.1143 42.474 17.8159 42.3672 17.507C42.1525 16.8565 41.9725 16.196 41.8279 15.5279C41.6871 14.7527 41.342 14.0253 40.8254 13.4151C40.5305 13.0978 40.1555 12.859 39.7365 12.7221C39.4222 12.6181 39.0891 12.5772 38.7578 12.6021C37.8157 11.7267 36.7814 10.7734 35.7584 9.83146C34.9089 9.04984 28.1849 4.0727 27.4125 3.35673C27.087 3.08265 26.8683 2.71002 26.7927 2.30035C26.7902 2.24165 26.8007 2.18311 26.8234 2.12857C26.8461 2.07402 26.8805 2.02471 26.9244 1.98385C27.1682 1.72831 27.6144 1.54733 28.9286 2.41194L29.485 2.77813C30.5709 3.49411 37.5387 8.41123 38.6271 9.12158L38.63 9.11595C38.8738 9.27537 39.1118 9.4362 39.3546 9.59468L41.3539 10.8799L42.3633 11.5166C42.7154 11.7332 43.0646 11.9292 43.4005 12.121C44.0518 12.4626 44.6503 12.8902 45.1784 13.3912C45.2985 13.5126 45.4095 13.642 45.5105 13.7785C45.611 13.9194 45.703 14.0658 45.786 14.2169C45.9617 14.5497 46.1118 14.8945 46.2352 15.2484L46.637 16.3981C46.7116 16.603 46.7779 16.7774 46.8423 16.9654C46.9066 17.1535 46.97 17.3405 47.0305 17.5328C47.2743 18.2994 47.5084 19.1012 47.8424 19.8772C48.0088 20.2671 48.2098 20.6425 48.4432 20.9992C48.6729 21.3549 48.9621 21.6717 49.2989 21.9369C49.941 22.4173 50.6767 22.769 51.4626 22.9713C51.1123 22.7909 50.7731 22.5911 50.4468 22.373Z" fill="url(#paint1_linear_4019_68556)"/>
<path d="M24.9554 18.2103L24.1986 17.7011C23.957 17.5437 23.7707 17.3196 23.6642 17.0584C23.5577 16.7972 23.5359 16.5111 23.6017 16.2378C23.6677 15.9719 23.8151 15.7311 24.025 15.5467C24.2313 15.3653 24.4898 15.2483 24.7667 15.2109C24.9024 15.1928 25.0402 15.1947 25.1753 15.2166C25.2414 15.2275 25.3066 15.2432 25.3703 15.2635C25.4318 15.2827 25.501 15.3103 25.5747 15.3389L25.6819 15.3788L25.7692 15.3014C25.8388 15.2373 25.9169 15.1821 26.0013 15.1373C26.0799 15.0955 26.1625 15.0612 26.2481 15.0351C26.3318 15.0101 26.4179 14.9935 26.5051 14.9854C26.5896 14.9707 26.6752 14.9627 26.7611 14.9615C26.9324 14.961 27.102 14.994 27.2596 15.0586C27.4172 15.1232 27.5595 15.218 27.6777 15.3372C27.7959 15.4564 27.8877 15.5976 27.9473 15.752C28.0069 15.9064 28.0332 16.0709 28.0245 16.2354C28.0152 16.3996 27.9714 16.5602 27.8958 16.7076C27.8285 16.8394 27.6866 17.0175 27.5764 17.1826L26.8762 18.1808L26.7006 18.4307C26.646 18.5118 26.5846 18.5883 26.5241 18.6717C26.4266 18.8035 26.3256 18.9348 26.2286 19.0693L24.9554 18.2103Z" fill="#239EA0"/>
</g>
<defs>
<linearGradient id="paint0_linear_4019_68556" x1="26.0695" y1="-3.04502" x2="26.8418" y2="43.3552" gradientUnits="userSpaceOnUse">
<stop stop-color="#008B62"/>
<stop offset="0.0001" stop-color="#139684"/>
<stop offset="0.0002" stop-color="#1F9C99"/>
<stop offset="1" stop-color="#239EA0"/>
</linearGradient>
<linearGradient id="paint1_linear_4019_68556" x1="25.8985" y1="-3.04194" x2="25.9523" y2="43.3701" gradientUnits="userSpaceOnUse">
<stop stop-color="#008B62"/>
<stop offset="1" stop-color="#239EA0"/>
</linearGradient>
<clipPath id="clip0_4019_68556">
<rect width="52" height="50" fill="white"/>
</clipPath>
</defs>
</svg>
