<svg width="62" height="62" viewBox="0 0 62 62" fill="none" xmlns="http://www.w3.org/2000/svg">
<g clip-path="url(#clip0_1795_44754)">
<mask id="mask0_1795_44754" style="mask-type:luminance" maskUnits="userSpaceOnUse" x="-1" y="0" width="65" height="63">
<path d="M63.2308 0H-0.886719V62.0668H63.2308V0Z" fill="white"/>
</mask>
<g mask="url(#mask0_1795_44754)">
<path d="M52.6328 54.8426C53.3683 54.6725 54.0946 54.4647 54.8088 54.2202C55.1044 55.1999 55.3506 56.1938 55.5467 57.1982C55.5837 57.7496 55.6044 58.1022 55.6044 58.1022L52.8528 58.0849C52.9137 57.734 52.9465 57.3787 52.9509 57.0225C52.9475 56.5219 52.6328 54.8426 52.6328 54.8426Z" fill="#CF8367"/>
<path d="M56.0247 59.2357C55.9133 59.5572 54.9994 59.5064 52.8978 59.6145C50.7962 59.7225 49.5341 59.7006 49.5711 59.3605C49.5791 59.2152 49.6147 59.0728 49.6761 58.9408C50.0522 58.5241 50.4706 58.1475 50.9245 57.8173C51.4325 57.334 51.9138 56.8235 52.3662 56.2878C52.7247 55.98 53.5607 56.3011 54.3033 56.4535C55.0459 56.6059 54.9834 56.4604 55.305 56.3184C55.4341 56.2641 55.7923 56.6059 55.9008 57.4621C55.992 58.1862 56.1375 58.9072 56.0226 59.2352" fill="#302D3D"/>
<path d="M45.095 54.8426C45.095 54.8426 46.7261 54.4737 47.3929 54.2202C47.4945 55.2095 47.5442 56.2036 47.5418 57.1982C47.4708 57.7496 47.42 58.1022 47.42 58.1022L44.6719 58.0849C44.8012 57.7391 44.9041 57.3839 44.9797 57.0225C45.0744 56.5219 45.0946 54.843 45.0946 54.843" fill="#CF8367"/>
<path d="M47.8869 59.2253C47.7651 59.5301 46.5366 59.506 44.4148 59.6128C42.293 59.7195 41.0343 59.6988 41.1389 59.3588C41.1766 59.2087 41.2407 59.0666 41.3283 58.9391C41.7838 58.522 42.2753 58.146 42.797 57.8155C43.2878 57.5142 44.2792 56.4789 44.543 56.2861C44.9593 55.9783 45.7342 56.2994 46.4483 56.4552C46.6289 56.5134 46.8203 56.5301 47.0083 56.5044C47.1963 56.4786 47.3761 56.4109 47.5344 56.3063C47.673 56.2589 47.8086 56.831 47.9033 57.8293C47.9743 58.5637 48.0591 58.7936 47.8865 59.2236" fill="#302D3D"/>
<path d="M55.0655 25.8348L49.871 26.3325L45.2159 25.8348C45.0398 25.967 44.9214 32.2037 44.5594 38.1425C44.478 39.371 44.3937 43.9259 44.3872 44.2121C44.3532 45.532 44.2891 54.7669 44.2891 54.7669C45.4901 55.0446 46.7335 55.0871 47.9507 54.8921L48.7526 45.2883C48.7526 45.2883 49.6136 40.7572 50.3531 36.9432C50.5494 38.8179 50.7117 40.5673 50.7694 41.8075C50.8202 43.0257 50.8809 43.9125 50.9282 44.2001C51.1482 45.5165 51.9614 54.8939 51.9614 54.8939C53.0478 55.237 54.2091 55.2669 55.3117 54.98L55.7586 44.2797C55.7586 44.2797 56.4555 33.5795 56.4727 31.9682C56.4742 29.8439 55.9928 27.7471 55.0651 25.8361" fill="#008FB2"/>
<path d="M55.0655 25.8348L49.871 26.3325L45.2159 25.8348C45.0398 25.967 44.9214 32.2037 44.5594 38.1425C44.478 39.371 44.3937 43.9259 44.3872 44.2121C44.3532 45.532 44.2891 54.7669 44.2891 54.7669C45.4901 55.0446 46.7335 55.0871 47.9507 54.8921L48.7526 45.2883C48.7526 45.2883 49.6136 40.7572 50.3531 36.9432C50.5494 38.8179 50.7117 40.5673 50.7694 41.8075C50.8202 43.0257 50.8809 43.9125 50.9282 44.2001C51.1482 45.5165 51.9614 54.8939 51.9614 54.8939C53.0478 55.237 54.2091 55.2669 55.3117 54.98L55.7586 44.2797C55.7586 44.2797 56.4555 33.5795 56.4727 31.9682C56.4745 29.8435 55.9933 27.7462 55.0655 25.8348Z" stroke="#302D3D" stroke-width="0.1" stroke-miterlimit="10"/>
<path d="M46.3051 6.9419C46.3749 7.68092 46.7176 8.3674 47.2663 8.8674C47.8844 9.12211 48.5309 9.30161 49.1918 9.40205C49.1918 9.40205 44.9818 16.055 42.9719 16.3598C40.962 16.6645 42.8535 11.0275 42.8535 11.0275C42.8535 11.0275 43.6081 10.3745 43.696 9.79249C43.7404 9.18054 43.7359 8.56603 43.6826 7.9548L45.5203 4.54718L46.3051 6.9419Z" fill="#FD9178"/>
<path d="M46.3051 6.9419C46.3749 7.68092 46.7176 8.3674 47.2663 8.8674C47.8844 9.12211 48.5309 9.30161 49.1918 9.40205C49.1918 9.40205 44.9818 16.055 42.9719 16.3598C40.962 16.6645 42.8535 11.0275 42.8535 11.0275C42.8535 11.0275 43.6081 10.3745 43.696 9.79249C43.7404 9.18054 43.7359 8.56603 43.6826 7.9548L45.5203 4.54718L46.3051 6.9419Z" stroke="#302D3D" stroke-width="0.1" stroke-miterlimit="10"/>
<path d="M44.0327 8.96549C44.2122 8.8794 44.3813 8.7933 44.5436 8.70506C44.9701 8.4892 45.3434 8.18167 45.637 7.80451C45.8333 7.51955 45.9778 7.20215 46.0636 6.86694L45.4915 5.12439L43.9922 7.9061C43.9922 7.9061 44.0395 8.4782 44.0327 8.96549Z" fill="#EC8069"/>
<path d="M41.4874 1.87258C41.1826 2.15024 40.6786 2.712 40.7126 3.05681C40.7457 3.70696 40.8226 4.35414 40.9429 4.99394C41.0918 5.57249 41.2743 6.48983 41.4879 7.15275C41.7918 7.8438 42.2421 8.46065 42.8077 8.96074C43.2516 9.06317 43.7173 9.00698 44.1241 8.80189C44.4353 8.57504 46.0698 6.85616 45.7482 5.40418C45.7482 5.40418 46.4452 5.60047 46.7332 4.19885C46.8076 3.82994 45.4417 1.72192 45.2308 1.34611C44.7198 0.429207 42.7909 2.02282 42.2429 2.04305C41.9788 2.07862 41.7108 2.01746 41.4883 1.87086" fill="#FD9178"/>
<path d="M41.4874 1.87258C41.1826 2.15024 40.6786 2.712 40.7126 3.05681C40.7457 3.70696 40.8226 4.35414 40.9429 4.99394C41.0918 5.57249 41.2743 6.48983 41.4879 7.15275C41.7918 7.8438 42.2421 8.46065 42.8077 8.96074C43.2516 9.06317 43.7173 9.00698 44.1241 8.80189C44.4353 8.57503 46.0698 6.85616 45.7482 5.40418C45.7482 5.40418 46.4452 5.60047 46.7332 4.19885C46.8076 3.82994 45.4417 1.72192 45.2308 1.34611C44.7198 0.429207 42.7909 2.02282 42.2429 2.04305C41.9788 2.07934 41.7104 2.01879 41.4874 1.87258Z" stroke="#302D3D" stroke-width="0.1" stroke-miterlimit="10"/>
<path d="M46.3433 1.26995C46.0202 0.893245 45.6237 0.58641 45.1779 0.368209C44.7322 0.150009 44.2467 0.0250292 43.751 0.000915527C43.0974 0.0512543 42.4483 0.148505 41.8087 0.291915C40.8616 0.322478 40.2827 0.305259 40.1402 1.92771C40.1149 2.15089 40.1552 2.37661 40.2562 2.57723C40.3572 2.77786 40.5145 2.94468 40.7088 3.05727C40.7088 3.05727 40.8238 2.55964 41.2469 2.68835C41.7319 2.80398 42.2324 2.84061 42.729 2.79683C43.6563 2.78004 44.5938 2.00175 44.8508 2.15715C45.5783 2.59021 44.7424 3.43307 45.4229 3.95739C45.4795 4.00187 45.5199 4.06374 45.5379 4.13345C45.575 4.02688 45.6432 3.93386 45.7336 3.86635C45.8241 3.79885 45.9327 3.75994 46.0454 3.75463C46.3803 3.77831 46.5835 4.58717 46.3058 4.88505C46.1324 5.07235 45.9453 5.24659 45.7462 5.40636C45.7896 5.65239 45.8565 5.89369 45.946 6.12697C46.0712 6.4283 46.308 6.93927 46.308 6.93927C46.4791 5.9763 46.7466 5.03299 47.1065 4.12355C47.5396 3.27423 47.5396 1.66986 46.345 1.27081" fill="#302D3D"/>
<path d="M33.4228 24.5723C33.7008 24.5318 33.9746 24.4661 34.2407 24.376C35.6364 23.6808 37.0685 23.0611 38.5308 22.5198C38.6081 22.0592 38.7179 21.6046 38.8592 21.1595C39.167 20.3136 39.7017 18.5336 40.1416 17.0244C41.2367 17.4402 42.3129 17.9025 43.3951 18.3442C42.7623 19.8078 42.0787 22.4767 41.182 24.0936C40.6166 24.7707 39.826 25.2212 38.9552 25.3626C37.1989 25.6876 34.6169 25.8736 33.4021 26.0328L33.3853 26.0531L33.375 26.0565C33.3918 25.5623 33.4056 25.0664 33.4224 24.571" fill="#FD9178"/>
<path d="M33.4228 24.5723C33.7008 24.5318 33.9746 24.4661 34.2407 24.376C35.6364 23.6808 37.0685 23.0611 38.5308 22.5198C38.6081 22.0592 38.7179 21.6046 38.8592 21.1595C39.167 20.3136 39.7017 18.5336 40.1416 17.0244C41.2367 17.4402 42.3129 17.9025 43.3951 18.3442C42.7623 19.8078 42.0787 22.4767 41.182 24.0936C40.6166 24.7707 39.826 25.2212 38.9552 25.3626C37.1989 25.6876 34.6169 25.8736 33.4021 26.0328L33.3853 26.0531L33.375 26.0565C33.3922 25.5641 33.406 25.0664 33.4228 24.5723Z" stroke="#302D3D" stroke-width="0.1" stroke-miterlimit="10"/>
<path d="M54.6603 22.9098C54.3999 22.023 53.8041 18.4463 53.6418 17.4377C53.4206 16.2942 53.2714 15.138 53.195 13.9758C52.9346 12.6629 51.8076 10.6526 50.9785 9.9793C50.0547 9.22812 47.2967 8.88977 47.2967 8.88977C47.3047 9.54025 47.2263 10.1889 47.0633 10.8187C46.7758 11.8949 46.004 12.6392 45.6759 12.6663C43.9704 12.8049 43.5744 10.1351 43.5744 10.1351L42.4947 11.1618C41.8626 11.816 41.2731 12.51 40.7298 13.2397C39.8839 14.4175 39.2882 17.4764 39.339 19.4428C40.2748 19.774 41.2518 19.9745 42.2425 20.0386C42.5808 20.0489 42.6893 19.5784 43.0582 19.5616C43.0953 19.4363 43.1293 19.3464 43.1667 19.2267C43.5154 20.5939 43.9416 22.3097 44.0027 22.7566C44.0772 23.2947 44.6592 28.9188 44.6592 28.9188C46.2655 29.2751 47.9173 29.3801 49.5558 29.23C53.5252 28.8813 55.789 27.6157 55.789 27.6157C55.789 27.6157 55.3624 25.2912 54.6586 22.9085" fill="#00AAD2"/>
<path d="M54.6603 22.9098C54.3999 22.023 53.8041 18.4463 53.6418 17.4377C53.4206 16.2942 53.2714 15.138 53.195 13.9758C52.9346 12.6629 51.8076 10.6526 50.9785 9.9793C50.0547 9.22812 47.2967 8.88977 47.2967 8.88977C47.3047 9.54025 47.2263 10.1889 47.0633 10.8187C46.7758 11.8949 46.004 12.6392 45.6759 12.6663C43.9704 12.8049 43.5744 10.1351 43.5744 10.1351L42.4947 11.1618C41.8626 11.816 41.2731 12.51 40.7298 13.2397C39.8839 14.4175 39.2882 17.4764 39.339 19.4428C40.2748 19.774 41.2518 19.9745 42.2425 20.0386C42.5808 20.0489 42.6893 19.5784 43.0582 19.5616C43.0953 19.4363 43.1293 19.3464 43.1667 19.2267C43.5154 20.5939 43.9416 22.3097 44.0027 22.7566C44.0772 23.2947 44.6592 28.9188 44.6592 28.9188C46.2655 29.2751 47.9173 29.3801 49.5558 29.23C53.5252 28.8813 55.789 27.6157 55.789 27.6157C55.789 27.6157 55.3641 25.2903 54.6603 22.9098Z" stroke="#302D3D" stroke-width="0.1" stroke-miterlimit="10"/>
<path d="M50.2127 15.3631L47.9251 16.0089L47.7422 15.3593L50.0297 14.7136L50.2127 15.3631Z" fill="white"/>
<path d="M49.5615 26.9175C49.4232 26.8562 49.2906 26.7826 49.1655 26.6975C45.9404 24.5387 39.609 20.8835 38.4467 20.3265C37.5092 19.8732 36.7378 20.6244 35.8815 21.2369C35.0253 21.8495 30.3672 25.3002 30.3672 25.3002C30.3637 26.6402 31.9018 33.3612 31.9018 33.3612C34.2944 30.7215 39.0477 25.1344 39.0477 25.1344C40.7002 25.9383 42.4025 26.6356 44.144 27.2222C45.8064 27.7123 47.4319 28.3197 49.0084 29.0397C49.1573 28.3255 49.3398 27.6148 49.5598 26.9179" fill="#FDAE95"/>
<path d="M24.1888 30.0242C24.1888 30.0242 34.1039 21.6554 35.8636 20.7553C35.8636 20.7553 38.5709 24.7247 39.322 25.5168C39.322 25.5168 33.0802 32.9381 31.961 34.3694C30.5331 36.18 27.8426 37.7499 25.5142 36.1021C25.5118 34.9116 25.5762 33.7219 25.7071 32.5386C25.9339 30.3591 24.1875 30.0242 24.1875 30.0242" fill="#1D2741"/>
<path d="M58.6876 32.6841C58.5022 32.6289 58.3049 32.6277 58.1189 32.6806C57.865 32.7719 57.5232 32.7667 57.134 32.9109C56.7449 33.0551 55.2356 33.7943 54.3996 33.8959C53.7798 33.9537 53.1568 33.9695 52.5348 33.9432C52.3149 33.9363 50.899 33.7336 50.6735 33.7129C47.7867 33.2824 44.095 32.7112 42.8225 32.4947C40.7111 32.1292 38.6129 31.6725 37.4317 31.6148C36.2505 31.5571 32.0508 31.3565 32.0508 31.3565C30.6046 31.3517 29.1625 31.202 27.7461 30.9097L28.2377 37.0904C28.2377 37.0904 34.9531 35.6827 38.1291 36.1291C41.0386 36.3927 43.968 36.3462 46.8677 35.9905C47.497 35.9126 48.1234 35.8584 48.7256 35.8183C48.9085 35.8149 49.0777 35.805 49.2232 35.7912C49.6903 35.7675 51.6971 35.8773 51.7781 35.8928C52.3426 35.9438 52.8794 36.1604 53.3213 36.5153C53.741 36.9113 54.1267 36.8876 54.6377 36.5557C55.1487 36.2238 55.7849 35.3173 56.8137 34.6066C57.8426 33.8959 58.7969 33.3375 58.9829 33.0229C59.1689 32.7082 58.9084 32.5222 58.6884 32.6845" fill="#FDAE95"/>
<path d="M58.6876 32.6841C58.5022 32.6289 58.3049 32.6277 58.1189 32.6806C57.8649 32.7719 57.5232 32.7667 57.134 32.9109C56.7449 33.0551 55.2356 33.7943 54.3996 33.8959C53.7798 33.9537 53.1568 33.9695 52.5348 33.9432C52.3149 33.9363 50.899 33.7336 50.6735 33.7129C47.7867 33.2824 44.095 32.7112 42.8225 32.4947C40.7111 32.1292 38.6129 31.6725 37.4317 31.6148C36.2505 31.5571 32.0508 31.3565 32.0508 31.3565C30.6046 31.3517 29.1625 31.202 27.7461 30.9097L28.2377 37.0904C28.2377 37.0904 34.9531 35.6827 38.1291 36.1291C41.0386 36.3927 43.9679 36.3462 46.8677 35.9905C47.497 35.9126 48.1234 35.8584 48.7256 35.8183C48.9085 35.8149 49.0777 35.805 49.2232 35.7912C49.6903 35.7675 51.6971 35.8773 51.7781 35.8928C52.3425 35.9438 52.8794 36.1604 53.3213 36.5153C53.741 36.9113 54.1267 36.8876 54.6377 36.5557C55.1487 36.2238 55.7849 35.3173 56.8137 34.6066C57.8426 33.8959 58.7969 33.3375 58.9829 33.0229C59.1688 32.7082 58.9076 32.5218 58.6876 32.6841Z" stroke="#302D3D" stroke-width="0.1" stroke-miterlimit="10"/>
<path d="M24.23 29.4831C24.23 29.4831 47.7627 32.7082 50.6528 33.0905C50.6528 33.0905 51.7721 36.3797 49.844 39.0193C49.844 39.0193 26.6295 36.6707 24.1878 36.6948C20.6717 36.7353 20.1677 36.7219 19.0273 34.7727L24.23 29.4831Z" fill="#2A3559"/>
<path d="M7.17415 19.4695C7.19782 19.5272 7.26541 19.6847 7.35021 19.8858C7.72446 19.9883 8.10553 20.0641 8.49053 20.1126C9.17346 20.2068 9.8647 20.225 10.5516 20.1669C10.7311 20.1466 10.9102 20.1238 11.0863 20.089C10.4698 19.4458 10.0166 18.3391 10.1147 18.0076L5.82031 17.5203C5.82031 17.5203 6.50907 17.9129 7.17415 19.4695Z" fill="#E89E88"/>
<path d="M17.0876 23.2869L13.6008 21.1518C13.6008 21.1518 12.2504 20.6068 11.8075 20.4174C11.4598 20.226 11.1676 19.9477 10.9594 19.6098C11.386 19.5013 12.2508 19.2986 12.1372 18.801C11.987 18.1619 11.9148 17.507 11.922 16.8505C11.922 16.8505 12.6107 16.2048 12.2061 15.9895C11.8014 15.7743 10.9289 15.2621 10.77 14.6848C10.5014 13.9699 10.1837 13.2745 9.8191 12.6035L6.56344 12.8742L4.41797 15.8049L6.21132 18.6029C6.61264 19.0272 7.04723 19.4188 7.51091 19.7738C7.78857 20.4269 8.32321 21.686 8.37186 21.9159C8.46312 22.3184 9.31244 24.4742 9.31244 24.4742C12.8216 27.2292 15.59 31.9902 16.9671 31.4758C18.3442 30.9614 17.0876 23.2869 17.0876 23.2869Z" fill="#FDAE95"/>
<path d="M17.0876 23.2869L13.6008 21.1518C13.6008 21.1518 12.2504 20.6068 11.8075 20.4174C11.4598 20.226 11.1676 19.9477 10.9594 19.6098C11.386 19.5013 12.2508 19.2986 12.1372 18.801C11.987 18.1619 11.9148 17.507 11.922 16.8505C11.922 16.8505 12.6107 16.2048 12.2061 15.9895C11.8014 15.7743 10.9289 15.2621 10.77 14.6848C10.5014 13.9699 10.1837 13.2745 9.8191 12.6035L6.56344 12.8742L4.41797 15.8049L6.21132 18.6029C6.61264 19.0272 7.04723 19.4188 7.51091 19.7738C7.78857 20.4269 8.32321 21.686 8.37186 21.9159C8.46312 22.3184 9.31244 24.4742 9.31244 24.4742C12.8216 27.2292 15.59 31.9902 16.9671 31.4758C18.3442 30.9614 17.0876 23.2869 17.0876 23.2869Z" stroke="#302D3D" stroke-width="0.1" stroke-miterlimit="10"/>
<path d="M10.2912 12.6336C9.66282 12.1913 8.96425 11.8584 8.22497 11.6487C6.71574 11.3305 5.6938 11.8178 4.64129 12.5591C3.84836 13.1209 3.06662 14.1635 3.46912 14.9043C3.25463 15.4036 3.18275 15.9525 3.26148 16.4902C3.34021 17.0278 3.56646 17.5331 3.91509 17.9499C4.86212 19.2224 7.09283 19.3274 7.59347 19.9731L7.82679 18.2513C7.82679 18.2513 7.43936 18.0855 7.12297 17.9297C6.84518 17.7718 6.62046 17.5351 6.47726 17.2495C6.37992 17.093 6.34573 16.9053 6.3816 16.7245C6.41747 16.5436 6.52074 16.3832 6.67047 16.2757C6.8202 16.1681 7.00521 16.1215 7.18802 16.1453C7.37082 16.1691 7.53777 16.2614 7.65503 16.4037C7.75143 16.5887 7.83835 16.7785 7.91546 16.9723C8.24047 17.3684 8.36875 17.2904 8.36875 17.2904C8.36875 17.2904 8.17934 16.6202 8.10832 16.3227C8.01891 15.8877 8.05291 15.4364 8.20646 15.0197C8.34508 14.5492 7.97616 14.0925 8.10832 13.9672C8.32355 13.7606 9.69202 13.3852 10.2912 12.6327" fill="#302D3D"/>
<path d="M55.309 26.2679C55.485 25.9128 55.2108 25.7195 54.9977 25.9059C54.8088 25.853 54.6082 25.8589 54.4226 25.9227C54.1686 26.0341 53.8238 26.0376 53.4377 26.2102C52.8358 26.5285 52.1921 26.7604 51.5255 26.899C50.6831 27.0376 49.5884 26.7298 49.1803 26.6657H49.1769C49.0008 26.5796 48.7606 26.456 48.4696 26.3071C48.4154 26.27 48.1752 26.1379 47.8265 25.9519C47.424 26.6187 47.0043 27.2718 46.5781 27.9213C46.8183 28.0328 47.0486 28.1366 47.2669 28.2395L47.26 28.2562C47.5183 28.3712 47.7404 28.4659 47.9401 28.5507C48.2716 28.7065 48.4998 28.8111 48.5764 28.8486C48.6901 28.91 48.7978 28.9821 48.8979 29.0638C49.2466 29.3514 49.3039 29.9979 49.7473 30.4176C50.1906 30.8374 50.6082 30.6682 51.1076 30.2855C51.6069 29.9028 52.1803 28.905 53.1854 28.0901C54.1906 27.2752 55.1346 26.6265 55.3107 26.2696" fill="#FDAE95"/>
<path d="M55.309 26.2679C55.485 25.9128 55.2108 25.7195 54.9977 25.9059C54.8088 25.853 54.6082 25.8589 54.4226 25.9227C54.1686 26.0341 53.8238 26.0376 53.4377 26.2102C52.8358 26.5285 52.1921 26.7604 51.5255 26.899C50.6831 27.0376 49.5884 26.7298 49.1803 26.6657H49.1769C49.0008 26.5796 48.7606 26.456 48.4696 26.3071C48.4154 26.27 48.1752 26.1379 47.8265 25.9519C47.424 26.6187 47.0043 27.2718 46.5781 27.9213C46.8183 28.0328 47.0486 28.1366 47.2669 28.2395L47.26 28.2562C47.5183 28.3712 47.7404 28.4659 47.9401 28.5507C48.2716 28.7065 48.4998 28.8111 48.5764 28.8486C48.6901 28.91 48.7978 28.9821 48.8979 29.0638C49.2466 29.3514 49.3039 29.9979 49.7473 30.4176C50.1906 30.8374 50.6082 30.6682 51.1076 30.2855C51.6069 29.9028 52.1803 28.905 53.1854 28.0901C54.1906 27.2752 55.1333 26.6235 55.309 26.2679Z" stroke="#302D3D" stroke-width="0.1" stroke-miterlimit="10"/>
<path d="M12.452 59.6549V42.2372C12.452 41.1644 11.7921 40.3 10.9798 40.3H4.85503C4.04273 40.3 3.38281 41.1662 3.38281 42.2372V59.6549" stroke="#302D3D" stroke-width="0.264" stroke-miterlimit="10"/>
<path d="M58.9208 59.6722V42.2544C58.9208 41.1816 58.2574 40.3173 57.4451 40.3173H51.3238C50.5115 40.3173 49.8516 41.1834 49.8516 42.2544V59.6722" stroke="#302D3D" stroke-width="0.264" stroke-miterlimit="10"/>
<path d="M58.0265 36.2192H0.23047V38.7064C0.230187 38.8847 0.265089 39.0613 0.333177 39.226C0.401265 39.3908 0.501199 39.5405 0.62725 39.6665C0.753302 39.7926 0.902992 39.8925 1.06774 39.9606C1.23249 40.0287 1.40906 40.0636 1.58732 40.0633H58.0265V36.2192Z" fill="#BDC1CC"/>
<path d="M58.0265 36.2192H0.23047V38.7064C0.230187 38.8847 0.265089 39.0613 0.333177 39.226C0.401265 39.3908 0.501199 39.5405 0.62725 39.6665C0.753302 39.7926 0.902992 39.8925 1.06774 39.9606C1.23249 40.0287 1.40906 40.0636 1.58732 40.0633H58.0265V36.2192Z" stroke="black" stroke-width="0.1" stroke-miterlimit="10"/>
<path d="M63.0626 36.2192H57.875V40.0633H62.3678C62.5518 40.0631 62.7282 39.9899 62.8583 39.8598C62.9884 39.7297 63.0615 39.5533 63.0618 39.3694L63.0626 36.2192Z" fill="#A1A6AE"/>
<path d="M63.0626 36.2192H57.875V40.0633H62.3678C62.5518 40.0631 62.7282 39.9899 62.8583 39.8598C62.9884 39.7297 63.0615 39.5533 63.0618 39.3694L63.0626 36.2192Z" stroke="black" stroke-width="0.1" stroke-miterlimit="10"/>
<path d="M6.40301 20.7286H2.2171C1.69025 20.7287 1.18501 20.938 0.812465 21.3106C0.439925 21.6831 0.230583 22.1884 0.230469 22.7152V36.4042H20.4571L14.6771 30.1835L7.97337 21.5C7.7882 21.2597 7.55029 21.0652 7.27801 20.9314C7.00573 20.7977 6.70637 20.7283 6.40301 20.7286Z" fill="#BDC1CC"/>
<path d="M6.40301 20.7286H2.2171C1.69025 20.7287 1.18501 20.938 0.812465 21.3106C0.439925 21.6831 0.230583 22.1884 0.230469 22.7152V36.4042H20.4571L14.6771 30.1835L7.97337 21.5C7.7882 21.2597 7.55029 21.0652 7.27801 20.9314C7.00573 20.7977 6.70637 20.7283 6.40301 20.7286Z" stroke="black" stroke-width="0.1" stroke-miterlimit="10"/>
<path d="M7.88619 22.8805C14.1534 33.3643 17.2274 36.4064 17.2274 36.4064H20.4581L14.6747 30.1831L7.974 21.503C7.78856 21.2629 7.55054 21.0686 7.27823 20.9348C7.00592 20.8011 6.70658 20.7316 6.40321 20.7316H6.03516C6.75216 21.3553 7.37557 22.0791 7.88619 22.8805Z" fill="#A1A6AE"/>
<path d="M7.88619 22.8805C14.1534 33.3643 17.2274 36.4064 17.2274 36.4064H20.4581L14.6747 30.1831L7.974 21.503C7.78856 21.2629 7.55054 21.0686 7.27823 20.9348C7.00592 20.8011 6.70658 20.7316 6.40321 20.7316H6.03516C6.75216 21.3553 7.37557 22.0791 7.88619 22.8805Z" stroke="black" stroke-width="0.1" stroke-miterlimit="10"/>
<path d="M54.4908 14.9147C54.3616 14.1104 54.1775 13.3159 53.9398 12.5367C53.0624 13.2529 52.0825 13.8334 51.0328 14.2586C51.5709 15.7984 52.437 19.9607 52.437 19.9607C52.4064 19.9947 52.0612 20.3158 52.0612 20.3158C50.6126 21.5642 49.75 23.8689 48.8464 25.0028C48.7208 25.1499 48.5532 25.2551 48.366 25.3041C48.0752 25.2707 47.7807 25.2961 47.4999 25.3786C47.2494 25.4802 47.3036 25.4901 47.3036 25.4901C47.3036 25.4901 47.6252 25.7268 47.6557 25.9029C47.7134 26.2077 47.3578 26.4987 46.967 26.8642C46.8925 26.9249 45.8572 27.5611 45.7147 27.6325C45.6785 27.6465 45.6475 27.6713 45.6259 27.7035C45.6042 27.7357 45.593 27.7737 45.5938 27.8125C45.5945 27.8513 45.6072 27.8889 45.6301 27.9203C45.6529 27.9516 45.6849 27.9751 45.7216 27.9877C45.81 28.0453 45.9141 28.0737 46.0195 28.069C46.028 28.1325 46.055 28.192 46.0971 28.2401C46.1392 28.2883 46.1946 28.3229 46.2563 28.3398C46.3863 28.3862 46.5242 28.407 46.6622 28.4009C46.6536 28.432 46.6522 28.4646 46.6581 28.4963C46.6641 28.5279 46.6772 28.5578 46.6965 28.5836C46.7157 28.6094 46.7407 28.6305 46.7694 28.6451C46.7981 28.6598 46.8297 28.6677 46.8619 28.6683C46.9807 28.6849 47.1008 28.6894 47.2205 28.6816C47.2324 28.7389 47.2604 28.7916 47.3012 28.8336C47.342 28.8755 47.3939 28.9049 47.4508 28.9184C47.8572 28.7696 48.2356 28.5534 48.57 28.2787C48.7635 28.1034 48.9367 27.907 49.0866 27.6932C49.2084 27.5137 49.4521 26.986 49.7091 26.6339C49.8275 26.4681 49.9631 26.3054 50.0913 26.1569C50.8154 25.4733 51.7732 24.5594 52.8933 23.4802C53.1404 23.2435 54.257 22.0597 54.44 21.856L54.4365 21.8526C54.7301 21.5393 55.0047 21.2087 55.2587 20.8625C55.6784 20.2465 54.9712 17.5767 54.4873 14.9168" fill="#FD9178"/>
<path d="M54.4908 14.9147C54.3616 14.1104 54.1775 13.3159 53.9398 12.5367C53.0624 13.2529 52.0825 13.8334 51.0328 14.2586C51.5709 15.7984 52.437 19.9607 52.437 19.9607C52.4064 19.9947 52.0612 20.3158 52.0612 20.3158C50.6126 21.5642 49.75 23.8689 48.8464 25.0028C48.7208 25.1499 48.5532 25.2551 48.366 25.3041C48.0752 25.2707 47.7807 25.2961 47.4999 25.3786C47.2494 25.4802 47.3036 25.4901 47.3036 25.4901C47.3036 25.4901 47.6252 25.7268 47.6557 25.9029C47.7134 26.2077 47.3578 26.4987 46.967 26.8642C46.8925 26.9249 45.8572 27.5611 45.7147 27.6325C45.6785 27.6465 45.6475 27.6713 45.6259 27.7035C45.6042 27.7357 45.593 27.7737 45.5938 27.8125C45.5945 27.8513 45.6072 27.8889 45.6301 27.9203C45.6529 27.9516 45.6849 27.9751 45.7216 27.9877C45.81 28.0453 45.9141 28.0737 46.0195 28.069C46.028 28.1325 46.055 28.192 46.0971 28.2401C46.1392 28.2883 46.1946 28.3229 46.2563 28.3398C46.3863 28.3862 46.5242 28.407 46.6622 28.4009C46.6536 28.432 46.6522 28.4646 46.6581 28.4963C46.6641 28.5279 46.6772 28.5578 46.6965 28.5836C46.7157 28.6094 46.7407 28.6305 46.7694 28.6451C46.7981 28.6598 46.8297 28.6677 46.8619 28.6683C46.9807 28.6849 47.1008 28.6894 47.2205 28.6816C47.2324 28.7389 47.2604 28.7916 47.3012 28.8336C47.342 28.8755 47.3939 28.9049 47.4508 28.9184C47.8572 28.7696 48.2356 28.5534 48.57 28.2787C48.7635 28.1034 48.9367 27.907 49.0866 27.6932C49.2084 27.5137 49.4521 26.986 49.7091 26.6339C49.8275 26.4681 49.9631 26.3054 50.0913 26.1569C50.8154 25.4733 51.7732 24.5594 52.8933 23.4802C53.1404 23.2435 54.257 22.0597 54.44 21.856L54.4365 21.8526C54.7301 21.5393 55.0047 21.2087 55.2587 20.8625C55.6823 20.2443 54.975 17.5733 54.4908 14.9147Z" stroke="#302D3D" stroke-width="0.1" stroke-miterlimit="10"/>
<path d="M54.8671 15.5983C54.7646 14.97 54.6245 14.3484 54.4474 13.7369C53.8181 11.6422 53.0363 10.8368 52.2886 10.2983C51.6457 9.891 50.907 9.65986 50.1466 9.62805L50.1328 12.9242C50.4273 13.6754 51.0669 15.3947 51.3614 16.3658C52.4952 16.5044 53.8082 15.9698 54.8671 15.5974" fill="#00AAD2"/>
<path d="M54.8671 15.5983C54.7646 14.97 54.6245 14.3484 54.4474 13.7369C53.8181 11.6422 53.0363 10.8368 52.2886 10.2983C51.6457 9.891 50.907 9.65986 50.1466 9.62805L50.1328 12.9242C50.4273 13.6754 51.0669 15.3947 51.3614 16.3658C52.4948 16.5053 53.8078 15.9706 54.8671 15.5983Z" stroke="#302D3D" stroke-width="0.1" stroke-miterlimit="10"/>
<path d="M51.2891 16.3528C51.2891 16.3528 53.7492 16.0313 54.8491 15.3627L55.1401 16.8754C55.1401 16.8754 53.2611 17.8995 51.6072 17.6761L51.2891 16.3528Z" fill="#123954"/>
<path d="M51.2891 16.3528C51.2891 16.3528 53.7492 16.0313 54.8491 15.3627L55.1401 16.8754C55.1401 16.8754 53.2611 17.8995 51.6072 17.6761L51.2891 16.3528Z" stroke="#302D3D" stroke-width="0.1" stroke-miterlimit="10"/>
<path d="M8.48297 24.5947C8.48297 24.5947 7.972 21.1509 10.377 20.9636C12.56 20.7979 14.7356 24.0704 13.993 26.2326C13.4924 27.6777 12.6495 27.62 12.6495 27.62C12.6495 27.62 15.3701 31.4512 16.5987 32.7233C17.5204 33.6632 18.3796 34.6625 19.1707 35.7146C20.3619 35.0582 22.0403 34.9127 23.9998 32.8145C24.4326 32.389 24.7409 31.8532 24.8912 31.2651C25.0415 30.677 25.0281 30.059 24.8525 29.478C23.8234 29.2085 22.8933 28.6494 22.1724 27.8671C20.8629 26.5167 18.6464 23.4578 17.0627 22.3274C15.8546 21.6027 14.5379 21.0765 13.1631 20.7691C11.6995 20.683 10.8316 20.2344 9.52514 20.8638C8.21866 21.4931 7.78561 23.8116 8.48297 24.5947Z" fill="#EC222B"/>
<path d="M8.48297 24.5947C8.48297 24.5947 7.972 21.1509 10.377 20.9636C12.56 20.7979 14.7356 24.0704 13.993 26.2326C13.4924 27.6777 12.6495 27.62 12.6495 27.62C12.6495 27.62 15.3701 31.4512 16.5987 32.7233C17.5204 33.6632 18.3796 34.6625 19.1707 35.7146C20.3619 35.0582 22.0403 34.9127 23.9998 32.8145C24.4326 32.389 24.7409 31.8532 24.8912 31.2651C25.0415 30.677 25.0281 30.059 24.8525 29.478C23.8234 29.2085 22.8933 28.6494 22.1724 27.8671C20.8629 26.5167 18.6464 23.4578 17.0627 22.3274C15.8546 21.6027 14.5379 21.0765 13.1631 20.7691C11.6995 20.683 10.8316 20.2344 9.52514 20.8638C8.21866 21.4931 7.78561 23.8116 8.48297 24.5947Z" stroke="#302D3D" stroke-width="0.1" stroke-miterlimit="10"/>
<path d="M33.5541 23.9468C33.4598 23.9474 33.3671 23.9217 33.2865 23.8727C33.2058 23.8236 33.1404 23.7532 33.0974 23.6692C32.6506 23.6588 32.6067 23.5103 32.6915 23.0364C32.7776 22.5525 32.8947 22.407 33.1219 22.2818L33.5145 22.2447C33.2812 22.2107 33.3523 21.8573 33.6437 21.7574L34.0496 21.7506C33.8701 21.7402 34.0092 21.4966 34.3135 21.4122C34.352 21.4332 34.3949 21.4449 34.4388 21.4462C34.5877 21.4462 34.6927 21.2938 34.9984 21.231H35.0177C35.1415 21.2282 35.2643 21.2536 35.3768 21.3052C35.4893 21.3568 35.5887 21.4333 35.6673 21.5289C35.5812 21.8031 35.2713 22.1582 35.2003 22.3683C35.1142 22.9133 35.0853 23.1668 34.8989 23.2955L34.3824 23.2525C34.7345 23.3304 34.7267 23.7566 34.3553 23.8616L34.2571 23.865C33.8951 23.865 33.7698 23.7264 33.7259 23.6416L33.6243 23.9494L33.5541 23.9468Z" fill="#FD9178"/>
<path d="M35.1027 21.3915C35.1858 21.3991 35.2665 21.4241 35.3394 21.4649C35.4123 21.5057 35.4758 21.5614 35.5258 21.6283C35.3234 21.8248 35.1582 22.0564 35.0385 22.3119C34.9473 22.5723 34.9912 23.0226 34.8018 23.1578C34.756 23.1933 34.7007 23.2146 34.6429 23.2189C34.6187 23.2192 34.5948 23.2138 34.573 23.2032C34.5513 23.1926 34.5323 23.177 34.5176 23.1578C34.5176 23.1578 34.6192 23.608 34.3024 23.6993C34.2561 23.7119 34.2084 23.7187 34.1604 23.7195C34.1029 23.7212 34.0461 23.7077 33.9956 23.6803C33.9451 23.653 33.9027 23.6127 33.8728 23.5637C33.8642 23.6244 33.8335 23.6799 33.7867 23.7196C33.7399 23.7593 33.6802 23.7804 33.6188 23.7789L33.568 23.7755C33.2973 23.7415 33.2533 23.6097 33.2533 23.6097C33.2363 23.6324 33.2144 23.6509 33.1892 23.6638C33.164 23.6767 33.1362 23.6837 33.1078 23.6842C33.0686 23.684 33.0302 23.6735 32.9964 23.6537C32.8272 23.5624 32.7695 23.5116 32.8509 23.0648C32.9322 22.6179 33.0269 22.5232 33.1952 22.4285C33.2423 22.4004 33.2962 22.3855 33.3511 22.3855C33.3834 22.3849 33.4156 22.3906 33.4458 22.4023C33.4458 22.4023 33.4389 21.9998 33.6929 21.915C33.7429 21.8977 33.7957 21.8897 33.8487 21.8913C33.8966 21.8907 33.9443 21.8964 33.9907 21.9081C34.0191 21.8279 34.0665 21.7557 34.129 21.698C34.1915 21.6402 34.2671 21.5986 34.3493 21.5766C34.3987 21.5615 34.4501 21.5535 34.5017 21.5529C34.5708 21.5498 34.6392 21.5675 34.698 21.6037C34.698 21.6037 34.732 21.4548 35.023 21.3971L35.1009 21.3902M35.1009 21.0519H35.0669L34.9585 21.0652C34.8243 21.0869 34.6969 21.139 34.5861 21.2176L34.5 21.2142C34.4188 21.2148 34.3381 21.2267 34.2602 21.2495C34.0799 21.2989 33.9207 21.4059 33.8069 21.5542C33.7309 21.5572 33.6557 21.5709 33.5835 21.5947C33.4779 21.6353 33.3835 21.7008 33.3086 21.7856C33.2337 21.8705 33.1803 21.9721 33.153 22.082C33.1102 22.0945 33.0692 22.1127 33.0312 22.1362C32.8785 22.2253 32.751 22.3519 32.661 22.5041C32.5709 22.6563 32.5213 22.829 32.5168 23.0058C32.4307 23.4862 32.4591 23.7535 32.8384 23.9528C32.9213 23.9987 33.0144 24.0232 33.1091 24.0239L33.2073 24.017C33.3076 24.0683 33.4167 24.1004 33.5289 24.1117L33.5491 24.1151L33.6201 24.1186C33.7356 24.1213 33.8492 24.0882 33.9451 24.0239C34.0144 24.0473 34.0872 24.0588 34.1604 24.0579C34.2394 24.0582 34.318 24.0467 34.3937 24.0239C34.5107 23.9907 34.616 23.9251 34.6974 23.8347C34.7788 23.7443 34.8331 23.6328 34.8538 23.5129C34.9025 23.4916 34.9489 23.4655 34.9925 23.435C35.0943 23.34 35.175 23.2246 35.2292 23.0964C35.2834 22.9681 35.31 22.8299 35.3071 22.6907C35.316 22.6005 35.3319 22.5111 35.3545 22.4234C35.4554 22.2263 35.5861 22.046 35.7419 21.8887L36.0803 21.7028L35.7996 21.4285C35.7184 21.3183 35.6138 21.2274 35.4933 21.1625C35.3728 21.0975 35.2394 21.06 35.1027 21.0527" fill="#302D3D"/>
<path d="M8.37501 23.7131C8.37845 25.1444 10.4628 27.8456 11.2889 29.2231C12.115 30.6006 13.9384 32.8778 15.4106 33.7103C16.4464 34.2923 19.3564 35.0371 21.2009 35.6393C21.9896 35.8997 22.683 36.2553 22.9267 36.2824C23.7855 36.3067 24.6451 36.2863 25.5018 36.2213H27.485C27.9383 36.2213 27.528 35.8188 27.1565 35.7206C26.785 35.6225 26.4527 35 25.8332 34.8339C25.1639 34.6829 24.4788 34.6135 23.7928 34.6272C23.2361 34.5657 22.6939 34.4105 22.1889 34.1684C21.6103 33.9617 19.2074 32.236 18.3379 31.7792C17.4683 31.3225 15.9995 30.4999 15.7184 29.9622C14.8186 28.2229 14.012 26.437 13.3022 24.6119C12.6931 22.8827 11.9247 21.5525 10.595 21.5392C9.26523 21.5258 8.37157 22.3123 8.37501 23.7131Z" fill="#FDAE95"/>
<path d="M8.37501 23.7131C8.37845 25.1444 10.4628 27.8456 11.2889 29.2231C12.115 30.6006 13.9384 32.8778 15.4106 33.7103C16.4464 34.2923 19.3564 35.0371 21.2009 35.6393C21.9896 35.8997 22.683 36.2553 22.9267 36.2824C23.7855 36.3067 24.6451 36.2863 25.5018 36.2213H27.485C27.9383 36.2213 27.528 35.8188 27.1565 35.7206C26.785 35.6225 26.4527 35 25.8332 34.8339C25.1639 34.6829 24.4788 34.6135 23.7928 34.6272C23.2361 34.5657 22.6939 34.4105 22.1889 34.1684C21.6103 33.9617 19.2074 32.236 18.3379 31.7792C17.4683 31.3225 15.9995 30.4999 15.7184 29.9622C14.8186 28.2229 14.012 26.437 13.3022 24.6119C12.6931 22.8827 11.9247 21.5525 10.595 21.5392C9.26523 21.5258 8.37157 22.3123 8.37501 23.7131Z" stroke="#302D3D" stroke-width="0.1" stroke-miterlimit="10"/>
<path d="M14.5015 26.2782C14.5397 25.449 14.4944 24.618 14.3663 23.7978C13.8687 21.7299 11.016 20.0174 9.09734 21.3764C8.6762 21.6912 8.36004 22.1259 8.19034 22.6236C8.02064 23.1212 8.00534 23.6585 8.14643 24.165C8.65395 26.1977 12.7327 32.8498 15.3444 34.0754C16.8309 34.7889 18.406 35.3011 20.0279 35.5984C20.1428 35.6087 20.8807 33.4155 20.8738 33.2024C20.8703 32.9419 20.8669 33.013 20.6267 32.8808C20.3998 32.759 20.1532 32.6656 19.9194 32.5558C19.5539 32.3797 19.1717 32.2114 18.8161 32.0044C17.4181 31.2325 16.2253 30.1371 15.3375 28.8098C14.8681 28.1157 14.5839 27.3132 14.5118 26.4784L14.5015 26.2782Z" fill="#EC222B"/>
<path d="M14.5015 26.2782C14.5397 25.449 14.4944 24.618 14.3663 23.7978C13.8687 21.7299 11.016 20.0174 9.09734 21.3764C8.6762 21.6912 8.36004 22.1259 8.19034 22.6236C8.02064 23.1212 8.00534 23.6585 8.14643 24.165C8.65395 26.1977 12.7327 32.8498 15.3444 34.0754C16.8309 34.7889 18.406 35.3011 20.0279 35.5984C20.1428 35.6087 20.8807 33.4155 20.8738 33.2024C20.8703 32.9419 20.8669 33.013 20.6267 32.8808C20.3998 32.759 20.1532 32.6656 19.9194 32.5558C19.5539 32.3797 19.1717 32.2114 18.8161 32.0044C17.4181 31.2325 16.2253 30.1371 15.3375 28.8098C14.8681 28.1157 14.5839 27.3132 14.5118 26.4784L14.5015 26.2782Z" stroke="#302D3D" stroke-width="0.1" stroke-miterlimit="10"/>
<path d="M39.3863 18.0214C39.3187 18.627 39.2714 19.1143 39.2305 19.649C39.8529 19.8857 41.512 20.4273 42.9597 20.1905C43.1219 19.5612 43.3725 18.661 43.3725 18.661C42.0117 18.7676 40.645 18.5483 39.3859 18.0214" fill="#123954"/>
<path d="M39.3863 18.0214C39.3187 18.627 39.2714 19.1143 39.2305 19.649C39.8529 19.8857 41.512 20.4273 42.9597 20.1905C43.1219 19.5612 43.3725 18.661 43.3725 18.661C42.0118 18.7676 40.6453 18.5483 39.3863 18.0214Z" stroke="#302D3D" stroke-width="0.1" stroke-miterlimit="10"/>
<path d="M46.0212 28.0686C45.9158 28.0733 45.8116 28.0448 45.7233 27.9872C45.6866 27.9747 45.6546 27.9511 45.6318 27.9198C45.6089 27.8885 45.5962 27.8509 45.5955 27.8121C45.5947 27.7733 45.6059 27.7352 45.6275 27.703C45.6492 27.6708 45.6802 27.6461 45.7164 27.6321C45.8585 27.5611 46.8942 26.9283 46.9686 26.8637C47.3561 26.5017 47.7129 26.2072 47.6574 25.9059C47.6268 25.7298 47.3053 25.4896 47.3053 25.4896C47.3053 25.4896 47.2984 25.4728 47.4508 25.4035C44.9179 23.9537 38.8908 20.4983 38.3187 20.1027C37.5912 19.6016 35.5 20.9688 35.5 20.9688L38.2684 25.4935L39.3209 25.5172L46.2347 28.3191C46.1811 28.2981 46.1335 28.2642 46.096 28.2205C46.0585 28.1769 46.0322 28.1247 46.0195 28.0686" fill="#1D2741"/>
<path d="M46.6667 28.4948L46.6633 28.4001C46.5419 28.4006 46.4211 28.3835 46.3047 28.3493L46.6667 28.4948Z" fill="#1D2741"/>
</g>
</g>
<defs>
<clipPath id="clip0_1795_44754">
<rect width="62" height="62" fill="white"/>
</clipPath>
</defs>
</svg>
