<svg width="62" height="62" viewBox="0 0 62 62" fill="none" xmlns="http://www.w3.org/2000/svg">
<path d="M25.9688 36.0323H36.0333V44.8387H25.9688V36.0323Z" fill="url(#paint0_linear_1795_44692)"/>
<path d="M25.9688 41.0641C27.1165 42.2861 28.9432 43.1609 31.001 43.1609C33.1057 43.1609 34.8914 42.3339 36.0333 41.0641V57H31.001H25.9688V41.0641Z" fill="#8ACAB7"/>
<path d="M25.9692 41.0641C27.1169 42.2861 28.9436 43.1609 31.0014 43.1609C33.1062 43.1609 34.8918 42.3339 36.0337 41.0641C36.4983 41.1668 37.0733 41.3056 37.7216 41.473C36.7462 43.4318 34.1097 44.8383 31.0014 44.8383C27.8932 44.8383 25.2567 43.4318 24.2812 41.473C24.9296 41.3056 25.5045 41.1672 25.9692 41.0641Z" fill="#8ACAB7"/>
<path d="M18.8387 45.677L11.2903 44.8387C11.2903 44.8387 7.09677 49.0322 5 57H18.8387V45.677Z" fill="url(#paint1_linear_1795_44692)"/>
<path d="M24.2891 40.6451C21.2995 41.3073 13.7679 43.0208 11.2891 44.8387L15.4826 57H29.3213L24.2891 40.6451Z" fill="url(#paint2_linear_1795_44692)"/>
<path d="M43.1602 45.677L50.7085 44.8387C50.7085 44.8387 54.9021 49.0322 56.9989 57H43.1602V45.677Z" fill="url(#paint3_linear_1795_44692)"/>
<path d="M37.708 40.6451C40.6976 41.3073 48.2292 43.0208 50.708 44.8387L46.5145 57H32.6758L37.708 40.6451Z" fill="url(#paint4_linear_1795_44692)"/>
<path d="M46.0975 26.3271C46.0975 28.1798 44.7833 30.1612 43.162 30.1612C41.5408 30.1612 40.2266 28.1798 40.2266 26.3271C40.2266 24.4743 41.5408 23.4515 43.162 23.4515C44.7833 23.4515 46.0975 24.4743 46.0975 26.3271Z" fill="#F6CFBE"/>
<path d="M21.3553 26.3271C21.3553 28.1798 20.0411 30.1613 18.4199 30.1613C16.7986 30.1613 15.4844 28.1798 15.4844 26.3271C15.4844 24.4744 16.7986 23.4516 18.4199 23.4516C20.0411 23.4516 21.3553 24.4744 21.3553 26.3271Z" fill="#F6CFBE"/>
<path d="M41.485 15.9032H20.5173C19.5787 16.1309 18.8398 17.0342 18.8398 18V26.39C18.8398 33.5161 24.2915 38.9677 31.0011 38.9677C37.7108 38.9677 43.1624 33.5161 43.1624 26.39V18C43.1624 17.0313 42.4273 16.1284 41.485 15.9032Z" fill="url(#paint5_linear_1795_44692)"/>
<path d="M31.0016 5C37.5792 5 44.8403 10.1111 44.8403 18C44.8185 22.9954 43.1629 26.3871 43.1629 26.3871C43.1629 23.871 41.9049 18 41.9049 18C34.7758 19.6774 20.5178 16.3226 20.5178 16.3226C20.5178 16.3226 18.8403 18.8387 18.8403 26.3871C18.8403 26.3871 16.3242 23.4516 16.3242 18.4194C16.3242 12.1441 19.2597 10.871 19.2597 10.871C19.2597 10.871 20.0984 5 31.0016 5Z" fill="url(#paint6_linear_1795_44692)"/>
<path d="M30.9947 36.0323C30.047 36.0323 29.1017 35.727 28.2429 35.1173C28.0542 34.9831 28.0097 34.7214 28.1439 34.5323C28.2781 34.3431 28.5398 34.2995 28.7289 34.4333C30.1644 35.4536 31.8221 35.4532 33.2777 34.432C33.4668 34.2987 33.7289 34.3448 33.8618 34.5344C33.9948 34.7239 33.9491 34.9856 33.7595 35.1185C32.891 35.7274 31.9416 36.0323 30.9947 36.0323Z" fill="url(#paint7_linear_1795_44692)"/>
<path d="M25.5471 28.0645C26.2419 28.0645 26.8052 27.5013 26.8052 26.8065C26.8052 26.1117 26.2419 25.5484 25.5471 25.5484C24.8523 25.5484 24.2891 26.1117 24.2891 26.8065C24.2891 27.5013 24.8523 28.0645 25.5471 28.0645Z" fill="url(#paint8_linear_1795_44692)"/>
<path d="M36.4534 28.0645C37.1482 28.0645 37.7114 27.5013 37.7114 26.8065C37.7114 26.1117 37.1482 25.5484 36.4534 25.5484C35.7586 25.5484 35.1953 26.1117 35.1953 26.8065C35.1953 27.5013 35.7586 28.0645 36.4534 28.0645Z" fill="url(#paint9_linear_1795_44692)"/>
<path d="M28.0644 23.4492C27.9885 23.4492 27.9122 23.4286 27.843 23.3859C25.5118 21.9345 23.9933 22.9107 23.345 23.328L23.2569 23.3846C23.0607 23.5083 22.8019 23.4496 22.6782 23.2542C22.5545 23.0583 22.6128 22.7996 22.8086 22.6755L22.8917 22.6226C23.6062 22.1626 25.5059 20.9423 28.2867 22.6742C28.4833 22.7967 28.5433 23.0554 28.4209 23.2517C28.3412 23.3791 28.2045 23.4492 28.0644 23.4492Z" fill="url(#paint10_linear_1795_44692)"/>
<path d="M33.9356 23.4491C33.7955 23.4491 33.6588 23.3791 33.5791 23.2516C33.4567 23.0549 33.5166 22.7962 33.7133 22.6742C36.4945 20.9414 38.3937 22.163 39.1087 22.6226L39.1913 22.6754C39.3872 22.7991 39.4451 23.0583 39.3218 23.2541C39.1981 23.45 38.9389 23.5083 38.7431 23.3845L38.655 23.3284C38.0071 22.9115 36.4878 21.9348 34.1566 23.3862C34.0878 23.4286 34.0115 23.4491 33.9356 23.4491Z" fill="url(#paint11_linear_1795_44692)"/>
<path d="M30.9986 32.2581C30.9977 32.2581 30.9973 32.2581 30.9965 32.2581C30.5876 32.2573 30.193 32.0664 29.8554 31.7062C29.6973 31.5372 29.7057 31.2718 29.8747 31.1133C30.0437 30.9556 30.3092 30.9635 30.4677 31.1325C30.5901 31.263 30.7814 31.419 30.9977 31.4194H30.9986C31.2166 31.4194 31.41 31.263 31.5341 31.1313C31.693 30.9627 31.9585 30.9552 32.1271 31.1141C32.2952 31.273 32.3032 31.5385 32.1443 31.7071C31.8037 32.0677 31.4079 32.2581 30.9986 32.2581Z" fill="url(#paint12_linear_1795_44692)"/>
<path d="M25.9672 39.3871L29.3221 57L22.6124 50.7097L23.4511 47.3548L20.5156 46.9351L23.8705 40.6447C24.211 40.0287 25.1809 39.3875 25.9672 39.3871Z" fill="url(#paint13_linear_1795_44692)"/>
<path d="M36.0306 39.3871L32.6758 57L39.3855 50.7097L38.5467 47.3548L41.4822 46.9351L38.1274 40.6447C37.7869 40.0287 36.8169 39.3875 36.0306 39.3871Z" fill="url(#paint14_linear_1795_44692)"/>
<path d="M23.8726 54.0646H21.7758C21.5443 54.0646 21.3565 53.8771 21.3565 53.6452C21.3565 53.4133 21.5443 53.2258 21.7758 53.2258H23.8726C24.3352 53.2258 24.7113 52.8497 24.7113 52.3871V48.1936C24.7113 46.1123 23.018 44.4194 20.9371 44.4194C18.8563 44.4194 17.1629 46.1123 17.1629 48.1936V52.3871C17.1629 52.8497 17.5391 53.2258 18.0016 53.2258H19.6791C19.9105 53.2258 20.0984 53.4133 20.0984 53.6452C20.0984 53.8771 19.9105 54.0646 19.6791 54.0646H18.0016C17.0765 54.0646 16.3242 53.3122 16.3242 52.3871V48.1936C16.3242 45.6502 18.3937 43.5807 20.9371 43.5807C23.4805 43.5807 25.55 45.6502 25.55 48.1936V52.3871C25.55 53.3122 24.7977 54.0646 23.8726 54.0646Z" fill="url(#paint15_linear_1795_44692)"/>
<path d="M20.9371 43.5807C18.3937 43.5807 16.3242 45.6502 16.3242 48.1936H17.1629C17.1629 46.1123 18.8563 44.4194 20.9371 44.4194C23.018 44.4194 24.7113 46.1123 24.7113 48.1936H25.55C25.55 45.6502 23.4805 43.5807 20.9371 43.5807Z" fill="url(#paint16_linear_1795_44692)"/>
<path d="M19.6786 53.2258H18.8398V54.0645H19.6786C19.91 54.0645 20.0979 53.8771 20.0979 53.6452C20.0979 53.4133 19.91 53.2258 19.6786 53.2258Z" fill="url(#paint17_linear_1795_44692)"/>
<path d="M21.7748 53.2258H22.6135V54.0645H21.7748C21.5433 54.0645 21.3555 53.8771 21.3555 53.6452C21.3555 53.4133 21.5433 53.2258 21.7748 53.2258Z" fill="url(#paint18_linear_1795_44692)"/>
<path d="M37.7035 36.9281C37.275 37.2166 36.8275 37.4779 36.3633 37.7098H36.872C40.1094 37.7098 42.7429 40.3433 42.7429 43.5807V48.613C42.7429 48.8449 42.9308 49.0324 43.1623 49.0324C43.3938 49.0324 43.5816 48.8449 43.5816 48.613V43.5807C43.5816 40.1634 41.0114 37.3399 37.7035 36.9281Z" fill="url(#paint19_linear_1795_44692)"/>
<path d="M24.3277 36.9462C22.1672 37.3282 20.5195 39.2153 20.5195 41.484V44.0001C20.5195 44.232 20.7074 44.4195 20.9389 44.4195C21.1704 44.4195 21.3582 44.232 21.3582 44.0001V41.484C21.3582 39.4027 23.0516 37.7098 25.1324 37.7098C25.2436 37.7098 25.3434 37.6649 25.4184 37.5941C25.0431 37.397 24.6791 37.181 24.3277 36.9462Z" fill="url(#paint20_linear_1795_44692)"/>
<path d="M43.1632 52.3872C44.3212 52.3872 45.26 51.4484 45.26 50.2904C45.26 49.1324 44.3212 48.1936 43.1632 48.1936C42.0052 48.1936 41.0664 49.1324 41.0664 50.2904C41.0664 51.4484 42.0052 52.3872 43.1632 52.3872Z" fill="url(#paint21_linear_1795_44692)"/>
<path d="M43.1632 52.3872C44.3212 52.3872 45.26 51.4484 45.26 50.2904C45.26 49.1324 44.3212 48.1936 43.1632 48.1936C42.0052 48.1936 41.0664 49.1324 41.0664 50.2904C41.0664 51.4484 42.0052 52.3872 43.1632 52.3872Z" fill="url(#paint22_linear_1795_44692)"/>
<mask id="mask0_1795_44692" style="mask-type:luminance" maskUnits="userSpaceOnUse" x="41" y="48" width="5" height="5">
<path d="M43.1632 52.3872C44.3212 52.3872 45.26 51.4484 45.26 50.2904C45.26 49.1324 44.3212 48.1936 43.1632 48.1936C42.0052 48.1936 41.0664 49.1324 41.0664 50.2904C41.0664 51.4484 42.0052 52.3872 43.1632 52.3872Z" fill="white"/>
</mask>
<g mask="url(#mask0_1795_44692)">
<path d="M41.0664 48.1936H45.26V52.3872H41.0664V48.1936Z" fill="url(#paint23_linear_1795_44692)"/>
</g>
<path d="M43.1646 52.8065C41.7769 52.8065 40.6484 51.678 40.6484 50.2904C40.6484 48.9027 41.7769 47.7742 43.1646 47.7742C44.5522 47.7742 45.6807 48.9027 45.6807 50.2904C45.6807 51.678 44.5522 52.8065 43.1646 52.8065ZM43.1646 48.6129C42.2395 48.6129 41.4871 49.3653 41.4871 50.2904C41.4871 51.2155 42.2395 51.9678 43.1646 51.9678C44.0897 51.9678 44.842 51.2155 44.842 50.2904C44.842 49.3653 44.0897 48.6129 43.1646 48.6129Z" fill="url(#paint24_linear_1795_44692)"/>
<defs>
<linearGradient id="paint0_linear_1795_44692" x1="31.001" y1="43.5106" x2="31.001" y2="39.1074" gradientUnits="userSpaceOnUse">
<stop stop-color="#F6CFBE"/>
<stop offset="1" stop-color="#EDAD99"/>
</linearGradient>
<linearGradient id="paint1_linear_1795_44692" x1="10.7624" y1="68.1225" x2="12.1961" y2="54.3434" gradientUnits="userSpaceOnUse">
<stop stop-color="#EFF0F0"/>
<stop offset="1" stop-color="#E4E5E6"/>
</linearGradient>
<linearGradient id="paint2_linear_1795_44692" x1="18.668" y1="64.9992" x2="17.35" y2="76.3352" gradientUnits="userSpaceOnUse">
<stop stop-color="#EFF0F0"/>
<stop offset="1" stop-color="#E4E5E6"/>
</linearGradient>
<linearGradient id="paint3_linear_1795_44692" x1="51.2369" y1="68.1225" x2="49.8032" y2="54.3434" gradientUnits="userSpaceOnUse">
<stop stop-color="#EFF0F0"/>
<stop offset="1" stop-color="#E4E5E6"/>
</linearGradient>
<linearGradient id="paint4_linear_1795_44692" x1="43.3291" y1="64.9992" x2="44.6471" y2="76.3352" gradientUnits="userSpaceOnUse">
<stop stop-color="#EFF0F0"/>
<stop offset="1" stop-color="#E4E5E6"/>
</linearGradient>
<linearGradient id="paint5_linear_1795_44692" x1="33.0379" y1="12.2003" x2="34.1912" y2="6.22449" gradientUnits="userSpaceOnUse">
<stop stop-color="#F6CFBE"/>
<stop offset="1" stop-color="#EDAD99"/>
</linearGradient>
<linearGradient id="paint6_linear_1795_44692" x1="30.5823" y1="-3.07258" x2="30.5823" y2="31.8173" gradientUnits="userSpaceOnUse">
<stop stop-color="#957E7F"/>
<stop offset="1" stop-color="#373638"/>
</linearGradient>
<linearGradient id="paint7_linear_1795_44692" x1="31.5101" y1="27.1583" x2="31.3004" y2="30.3035" gradientUnits="userSpaceOnUse">
<stop stop-color="#F6CFBE"/>
<stop offset="1" stop-color="#EDAD99"/>
</linearGradient>
<linearGradient id="paint8_linear_1795_44692" x1="25.4448" y1="40.4359" x2="25.4972" y2="33.4646" gradientUnits="userSpaceOnUse">
<stop stop-color="#58595B"/>
<stop offset="1" stop-color="#414042"/>
</linearGradient>
<linearGradient id="paint9_linear_1795_44692" x1="36.3506" y1="40.4976" x2="36.4031" y2="33.5258" gradientUnits="userSpaceOnUse">
<stop stop-color="#58595B"/>
<stop offset="1" stop-color="#414042"/>
</linearGradient>
<linearGradient id="paint10_linear_1795_44692" x1="25.3805" y1="45.3986" x2="25.4506" y2="36.1032" gradientUnits="userSpaceOnUse">
<stop stop-color="#58595B"/>
<stop offset="1" stop-color="#414042"/>
</linearGradient>
<linearGradient id="paint11_linear_1795_44692" x1="36.2823" y1="45.4808" x2="36.3523" y2="36.1849" gradientUnits="userSpaceOnUse">
<stop stop-color="#58595B"/>
<stop offset="1" stop-color="#414042"/>
</linearGradient>
<linearGradient id="paint12_linear_1795_44692" x1="21.3413" y1="33.53" x2="24.6701" y2="32.8485" gradientUnits="userSpaceOnUse">
<stop stop-color="#F6CFBE"/>
<stop offset="1" stop-color="#EDAD99"/>
</linearGradient>
<linearGradient id="paint13_linear_1795_44692" x1="29.2772" y1="70.6563" x2="28.4473" y2="66.8754" gradientUnits="userSpaceOnUse">
<stop stop-color="#EFF0F0"/>
<stop offset="1" stop-color="#E4E5E6"/>
</linearGradient>
<linearGradient id="paint14_linear_1795_44692" x1="32.7211" y1="70.6563" x2="33.551" y2="66.8754" gradientUnits="userSpaceOnUse">
<stop stop-color="#EFF0F0"/>
<stop offset="1" stop-color="#E4E5E6"/>
</linearGradient>
<linearGradient id="paint15_linear_1795_44692" x1="21.5548" y1="57.3909" x2="21.4601" y2="56.2918" gradientUnits="userSpaceOnUse">
<stop stop-color="#D0D3D3"/>
<stop offset="1" stop-color="#AAAEB1"/>
</linearGradient>
<linearGradient id="paint16_linear_1795_44692" x1="19.5239" y1="36.7419" x2="19.6287" y2="37.5806" gradientUnits="userSpaceOnUse">
<stop stop-color="#58595B"/>
<stop offset="1" stop-color="#414042"/>
</linearGradient>
<linearGradient id="paint17_linear_1795_44692" x1="19.5121" y1="54.3451" x2="19.5041" y2="54.252" gradientUnits="userSpaceOnUse">
<stop stop-color="#58595B"/>
<stop offset="1" stop-color="#414042"/>
</linearGradient>
<linearGradient id="paint18_linear_1795_44692" x1="21.9413" y1="54.3451" x2="21.9493" y2="54.252" gradientUnits="userSpaceOnUse">
<stop stop-color="#58595B"/>
<stop offset="1" stop-color="#414042"/>
</linearGradient>
<linearGradient id="paint19_linear_1795_44692" x1="39.2036" y1="34.282" x2="39.3084" y2="35.1207" gradientUnits="userSpaceOnUse">
<stop stop-color="#58595B"/>
<stop offset="1" stop-color="#414042"/>
</linearGradient>
<linearGradient id="paint20_linear_1795_44692" x1="22.415" y1="36.3809" x2="22.5199" y2="37.2196" gradientUnits="userSpaceOnUse">
<stop stop-color="#58595B"/>
<stop offset="1" stop-color="#414042"/>
</linearGradient>
<linearGradient id="paint21_linear_1795_44692" x1="47.4284" y1="51.8038" x2="48.4441" y2="52.1641" gradientUnits="userSpaceOnUse">
<stop stop-color="#6C6F73"/>
<stop offset="1" stop-color="#56585B"/>
</linearGradient>
<linearGradient id="paint22_linear_1795_44692" x1="34.9644" y1="49.2001" x2="38.2496" y2="49.637" gradientUnits="userSpaceOnUse">
<stop stop-color="#58595B"/>
<stop offset="1" stop-color="#414042"/>
</linearGradient>
<linearGradient id="paint23_linear_1795_44692" x1="34.9644" y1="49.2001" x2="38.2496" y2="49.637" gradientUnits="userSpaceOnUse">
<stop stop-color="#6C6F73"/>
<stop offset="1" stop-color="#56585B"/>
</linearGradient>
<linearGradient id="paint24_linear_1795_44692" x1="34.9658" y1="49.2" x2="38.251" y2="49.637" gradientUnits="userSpaceOnUse">
<stop stop-color="#D0D3D3"/>
<stop offset="1" stop-color="#AAAEB1"/>
</linearGradient>
</defs>
</svg>
