<svg width="62" height="62" viewBox="0 0 62 62" fill="none" xmlns="http://www.w3.org/2000/svg">
<path d="M25.4308 28.5149C25.4308 28.5149 26.3196 34.7667 25.1929 38.7649C24.9236 39.7204 24.5392 40.5473 24 41.1291C24 41.1291 24.6379 52.5149 30.9994 52.5149C37.3609 52.5149 38 40.9309 38 40.9309C38 40.9309 34.8386 38.4194 35.6868 28.5149H25.4308Z" fill="#E2B181"/>
<path d="M53.1228 47.4283C52.7322 44.1496 49.7804 41.5471 46.0219 41.1679L38.3243 40.5149L38.0586 41.4559C37.5208 43.3672 36.5987 45.1416 35.352 46.6647C33.3559 49.0989 30.8846 51.4913 30.8846 51.4913C30.8846 51.4913 28.1891 48.8521 26.1666 46.2905C25.1214 44.9643 24.3168 43.4561 23.7913 41.8377L23.4272 40.7191L15.9798 41.1692C12.2205 41.5473 9.26693 44.1505 8.87675 47.4299L7 58.7513L7.03826 58.7707C19.7201 61.0995 35.352 61.0995 55 58.7513L53.1228 47.4283Z" fill="#00A69C"/>
<path d="M43 19.7985C43 27.5386 37.7151 37.5149 31.0985 37.5149C24.4411 37.5149 19 29.0755 19 19.7985C19 10.5325 23.9813 5.51489 31.0985 5.51489C38.2156 5.51489 43 11.3823 43 19.7985Z" fill="#EFC095"/>
<path d="M21.5136 14.7177C21.5136 14.7177 31.0474 17.4739 40.984 14.7177C40.984 14.7177 41.3547 18.6116 42.6484 21.5149C42.6484 21.5149 44.9431 16.4974 43.5526 10.9942C42.1885 5.59295 35.4002 4.51489 31.3067 4.51489C27.2133 4.51489 21.4113 5.14972 19.3376 10.0264C16.3138 17.1372 19.3621 21.5149 19.3621 21.5149C19.3621 21.5149 21.6635 16.965 21.5136 14.7177Z" fill="#231F20"/>
</svg>
