<svg width="49" height="48" viewBox="0 0 49 48" fill="none" xmlns="http://www.w3.org/2000/svg">
<g clip-path="url(#clip0_500_8865)">
<path d="M37.5001 24.0001C30.324 23.9913 24.5089 18.1761 24.5001 11C24.5001 10.6621 24.526 10.3321 24.55 10H9.50007C8.94779 10.0005 8.50051 10.4486 8.50098 11.001C8.50107 11.0624 8.50679 11.1237 8.51804 11.1841L11.518 27.1841C11.6065 27.6569 12.019 27.9996 12.5001 28.0001H39.9681C42.4899 28.0004 44.6173 26.1226 44.9301 23.6201L45.202 21.4481C42.9756 23.1041 40.2749 23.9989 37.5001 24.0001Z" fill="#455A64"/>
<path d="M37.5 47.9999C40.2614 47.9999 42.4999 45.7614 42.4999 43C42.4999 40.2386 40.2614 38 37.5 38C34.7386 38 32.5 40.2386 32.5 43C32.5 45.7614 34.7386 47.9999 37.5 47.9999Z" fill="#455A64"/>
<path d="M17.5 47.9999C20.2614 47.9999 22.4999 45.7614 22.4999 43C22.4999 40.2386 20.2614 38 17.5 38C14.7386 38 12.5 40.2386 12.5 43C12.5 45.7614 14.7386 47.9999 17.5 47.9999Z" fill="#455A64"/>
<path d="M41.5 36.0001H18.418C15.0841 35.9931 12.2152 33.6417 11.554 30.374L6.68 6.00006H1.50003C0.94775 6.00006 0.5 5.55231 0.5 5.00003C0.5 4.44775 0.94775 4 1.50003 4H7.50003C7.97534 3.99991 8.38494 4.33431 8.48 4.79997L13.516 29.98C13.988 32.314 16.0367 33.9941 18.418 34H41.5C42.0522 34 42.5 34.4478 42.5 35C42.5 35.5523 42.0522 36.0001 41.5 36.0001Z" fill="#455A64"/>
<path d="M37.5 21.9999C43.5751 21.9999 48.4999 17.0751 48.4999 11C48.4999 4.92485 43.5751 0 37.5 0C31.4249 0 26.5 4.92485 26.5 11C26.5 17.0751 31.4249 21.9999 37.5 21.9999Z" fill="#4CAF50"/>
<path d="M35.4999 16.0001C35.2345 16.0005 34.9798 15.8955 34.7919 15.708L30.7919 11.708C30.4083 11.3108 30.4193 10.6777 30.8165 10.294C31.204 9.91971 31.8184 9.91971 32.2059 10.294L35.4999 13.586L42.7918 6.29402C43.1755 5.8968 43.8085 5.88583 44.2059 6.26946C44.6032 6.65308 44.614 7.28618 44.2304 7.68349C44.2224 7.69183 44.2142 7.69999 44.2059 7.70805L36.2059 15.708C36.0186 15.895 35.7647 16 35.4999 16.0001Z" fill="#FAFAFA"/>
</g>
<defs>
<clipPath id="clip0_500_8865">
<rect width="48" height="48" fill="white" transform="translate(0.5)"/>
</clipPath>
</defs>
</svg>
