<svg width="216" height="173" viewBox="0 0 216 173" fill="none" xmlns="http://www.w3.org/2000/svg">
<path fill-rule="evenodd" clip-rule="evenodd" d="M155.037 30.592C155.037 30.389 155 30.1893 155 29.983C155 24.4591 160.114 20 166.423 20C171.297 20 175.442 22.6621 177.088 26.4324C178.941 24.7199 181.382 23.7802 183.909 23.8069C188.522 23.8069 192.339 26.7519 193.064 30.6086L155.037 30.592Z" fill="white"/>
<path fill-rule="evenodd" clip-rule="evenodd" d="M10.4352 54.5552C10.4352 54.3523 10.3984 54.1526 10.3984 53.9463C10.3984 48.4223 15.5122 43.9633 21.8217 43.9633C26.695 43.9633 30.8401 46.6254 32.4867 50.3957C34.3392 48.6831 36.7803 47.7434 39.3073 47.7701C43.92 47.7701 47.7378 50.7151 48.4626 54.5719L10.4352 54.5552Z" fill="white"/>
<path d="M137.755 140.682L137.717 153.72C137.698 158.167 135.094 162.596 127.985 166.378C104.455 181.279 66.4237 162.273 64.4281 161.266C63.4968 160.866 45.9919 153.093 34.9303 146.707C32.0222 145.034 29.6274 143.475 28.202 142.221C24.4007 138.876 23.5644 136.557 23.5644 135.17V134.619C22.9373 134.048 22.5571 133.592 22.291 133.193C22.101 132.889 22.0059 132.566 22.0059 132.262L22.0439 119.223C22.0439 118.881 22.1389 118.558 22.3291 118.254C28.9813 107.345 38.6554 102.669 39.1687 102.422C39.5867 102.118 47.6455 96.5107 66.4618 92.6146C67.5261 92.3865 68.7045 92.3675 69.7498 92.5956C70.263 92.7095 70.8903 92.8807 71.6125 93.1276C73.2661 92.8426 77.9036 92.5765 86.0004 95.6365C88.1481 96.4537 90.8279 97.8223 93.7169 99.4949C104.779 105.881 118.254 116.011 118.976 116.544C120.307 117.437 140.358 130.817 137.451 143.133C137.66 142.316 137.755 141.499 137.755 140.682Z" fill="#006CB5"/>
<path d="M73.2931 106.807C72.6679 106.55 72.095 106.338 71.5742 106.165L71.6112 93.1269C72.132 93.3 72.7048 93.5112 73.3301 93.7688C73.3178 98.1151 73.3054 102.461 73.2931 106.807Z" fill="#3F9AE0"/>
<path d="M75.798 107.965C74.8211 107.468 74.0207 107.106 73.292 106.807C73.3043 102.461 73.3167 98.1152 73.3289 93.769C74.0576 94.0673 74.858 94.4299 75.835 94.9269C75.8239 98.8384 75.8091 104.054 75.798 107.965Z" fill="#3F9AE0"/>
<path d="M104.552 113.445L104.515 126.484L75.7988 107.965L75.8358 94.9268L104.552 113.445Z" fill="#3F9AE0"/>
<path d="M22 132.253L22.037 119.214C22.0361 119.535 22.1291 119.855 22.3244 120.157C22.5852 120.548 22.9952 121.037 23.6388 121.623C24.2826 122.208 25.1601 122.891 26.3615 123.673L26.3245 136.711C25.1232 135.93 24.2456 135.247 23.6018 134.661C22.9583 134.075 22.5482 133.586 22.2874 133.196C22.0922 132.893 21.9991 132.573 22 132.253Z" fill="#D6D4D2"/>
<path d="M112.474 125.065L112.437 138.103C112.438 137.669 112.411 137.244 112.359 136.831C111.879 132.979 108.983 129.358 104.514 126.484L104.551 113.445C109.02 116.319 111.916 119.941 112.396 123.793C112.448 124.206 112.475 124.63 112.474 125.065Z" fill="#3F9AE0"/>
<path d="M112.476 125.065L112.439 138.103C112.428 142.046 110.053 146.838 102.182 151.856L102.219 138.818C110.09 133.799 112.465 129.008 112.476 125.065Z" fill="#E9E8E6"/>
<path d="M58.421 140.253L58.384 153.291L26.3252 136.711L26.3622 123.673L58.421 140.253Z" fill="#E9E8E6"/>
<path d="M102.217 138.818L102.18 151.856C97.7291 154.214 93.3791 155.725 89.2768 156.639C84.5401 157.693 80.1338 157.952 76.2828 157.797C69.6308 157.531 63.3699 155.866 58.3848 153.291L58.4217 140.253C63.4069 142.827 69.6678 144.493 76.3197 144.758C80.1708 144.914 84.577 144.655 89.3138 143.6C93.4161 142.687 97.766 141.176 102.217 138.818Z" fill="#E9E8E6"/>
<path d="M28.2077 142.226C24.3997 138.884 23.5576 136.564 23.5615 135.162L23.5985 122.124C23.5946 123.526 24.4366 125.846 28.2447 129.188C29.6632 130.439 32.0616 131.995 34.9702 133.674C46.0284 140.059 63.5401 147.819 64.4618 148.227L64.4248 161.266C63.5032 160.857 45.9914 153.097 34.9332 146.713C32.0246 145.034 29.6262 143.478 28.2077 142.226Z" fill="#0074D1"/>
<path d="M137.745 140.677L137.708 153.715C137.695 158.162 135.093 162.592 127.987 166.385L128.024 153.347C135.13 149.553 137.732 145.123 137.745 140.677Z" fill="#00649B"/>
<path d="M93.7221 99.494C104.781 105.879 118.261 116.017 118.97 116.55C120.704 117.706 153.65 139.668 128.025 153.347C104.485 168.239 66.4631 149.228 64.462 148.227C63.5403 147.819 46.0285 140.059 34.9703 133.675C32.0617 131.995 29.6633 130.439 28.2448 129.188C23.941 125.411 23.4257 122.939 23.6385 121.622C24.2823 122.208 25.1599 122.891 26.3561 123.67L58.4116 140.258C63.4052 142.827 69.6576 144.498 76.318 144.758C80.1654 144.916 84.5742 144.657 89.3121 143.6C93.4144 142.687 97.7643 141.176 102.216 138.818C110.955 133.246 112.919 127.954 112.395 123.793C111.915 119.941 109.019 116.319 104.55 113.445L75.8339 94.9268C74.857 94.4298 74.0566 94.0672 73.3279 93.7689C72.7026 93.5112 72.1298 93.3001 71.609 93.1269C73.2611 92.8425 77.8972 92.5693 85.9914 95.6294C88.1465 96.4448 90.8273 97.8227 93.7221 99.494Z" fill="#3F9AE0"/>
<path d="M75.7251 94.8716L104.549 113.445C109.019 116.319 111.914 119.941 112.394 123.793C112.918 127.954 110.955 133.246 102.215 138.818C97.7638 141.176 93.4138 142.687 89.3115 143.6C84.5748 144.655 80.1685 144.914 76.3175 144.758C69.6656 144.493 63.4046 142.827 58.4195 140.253L26.3607 123.673C25.1593 122.891 24.2817 122.208 23.638 121.623C22.9944 121.037 22.5844 120.548 22.3235 120.157C21.93 119.548 21.9516 118.865 22.3213 118.256C28.9866 107.343 38.6544 102.661 39.1632 102.415C39.587 102.119 47.638 96.5041 66.4556 92.6077C67.5148 92.3866 68.6936 92.3719 69.7383 92.6028C70.26 92.7185 70.8839 92.8861 71.6084 93.1269C72.1292 93.3001 72.7021 93.5112 73.3273 93.7689C74.0558 94.069 74.8553 94.4324 75.7251 94.8716Z" fill="#E9E8E6"/>
<path d="M128.024 153.347L127.988 166.385C104.448 181.278 66.4259 162.266 64.4248 161.266L64.4618 148.227C66.4629 149.228 104.485 168.239 128.024 153.347Z" fill="#006CB5"/>
<path d="M115.141 136.294L115.148 138.756C115.151 139.886 115.892 141.014 117.372 141.874C120.351 143.605 125.204 143.599 128.202 141.868C129.711 140.997 130.465 139.854 130.462 138.712L130.455 136.25C130.458 137.392 129.704 138.535 128.195 139.406C125.197 141.137 120.344 141.143 117.365 139.412C115.885 138.552 115.144 137.424 115.141 136.294Z" fill="#C44141"/>
<path d="M117.4 133.133C114.401 134.864 114.385 137.681 117.365 139.412C120.344 141.143 125.197 141.137 128.195 139.406C131.194 137.675 131.21 134.869 128.231 133.138C125.252 131.407 120.398 131.401 117.4 133.133Z" fill="#F25A5A"/>
<path d="M95.7188 147.502L95.7257 149.964C95.7289 151.094 96.4721 152.223 97.9545 153.085C100.933 154.816 105.777 154.816 108.776 153.085C110.285 152.214 111.038 151.07 111.035 149.929L111.028 147.467C111.031 148.608 110.278 149.752 108.769 150.623C105.77 152.354 100.927 152.354 97.9475 150.623C96.4652 149.761 95.722 148.632 95.7188 147.502Z" fill="#DDB040"/>
<path d="M97.9732 144.349C94.9747 146.08 94.9684 148.892 97.9475 150.623C100.927 152.354 105.77 152.354 108.769 150.623C111.767 148.892 111.783 146.086 108.804 144.355C105.825 142.624 100.972 142.618 97.9732 144.349Z" fill="#FFD651"/>
<path d="M89.5722 115.431L61.2797 131.767C58.3268 133.483 53.5555 133.483 50.6172 131.767L35.9398 123.243C33.016 121.541 33.0306 118.777 35.9835 117.075L64.2905 100.74C67.2289 99.0376 72.0001 99.0376 74.9385 100.74L89.6013 109.264C92.5397 110.966 92.5251 113.729 89.5722 115.431Z" fill="#81D672"/>
<path d="M64.2856 100.736C67.2297 99.0366 72.0064 99.0366 74.9313 100.736L89.6022 109.262C92.5363 110.967 92.5207 113.734 89.5766 115.434L61.2782 131.772C58.3248 133.477 53.5482 133.477 50.614 131.772L35.9431 123.246C33.0183 121.546 33.0338 118.78 35.9872 117.074L64.2856 100.736ZM52.4715 130.7C54.3815 131.81 57.5104 131.81 59.4329 130.7L87.7313 114.362C89.6445 113.257 89.6547 111.445 87.7447 110.335L73.0738 101.809C71.173 100.704 68.0441 100.704 66.1309 101.809L37.8325 118.147C35.91 119.257 35.8998 121.069 37.8006 122.174L52.4715 130.7Z" fill="#494846"/>
<path d="M95.927 125.657L76.52 136.853C75.7602 137.293 74.7204 137.546 73.6274 137.546C72.5345 137.533 71.5083 137.293 70.7484 136.853C69.1757 135.934 69.189 134.441 70.7751 133.521L90.1823 122.325C90.9551 121.871 91.9682 121.631 93.0612 121.631C94.141 121.618 95.154 121.871 95.9402 122.325C97.5133 123.231 97.5133 124.737 95.927 125.657Z" fill="#D6D4D2"/>
<path d="M64.2572 122.157C63.9265 122.659 63.4125 123.133 62.6814 123.557C61.2359 124.398 59.6542 124.793 57.9538 124.755C56.2532 124.716 54.55 124.214 52.9108 123.268C51.7235 122.582 50.9358 121.877 50.5316 121.124C50.1442 120.381 50.1234 119.656 50.4694 118.932C50.8154 118.227 51.512 117.571 52.5588 116.962C53.1071 116.644 53.7057 116.373 54.3547 116.151C54.97 115.929 55.5693 115.775 56.169 115.697L57.0445 117.242C56.1782 117.339 55.3797 117.609 54.5989 118.063C53.7181 118.575 53.271 119.125 53.2911 119.714C53.2944 120.313 53.748 120.902 54.7014 121.491C54.6806 120.786 55.2437 120.11 56.3239 119.483C56.9885 119.096 57.7205 118.826 58.5363 118.662C59.3356 118.507 60.1523 118.478 60.9531 118.575C61.7538 118.671 62.4886 118.903 63.1408 119.28C63.8265 119.676 64.2626 120.139 64.4485 120.632C64.6182 121.134 64.5711 121.645 64.2572 122.157ZM58.9948 123.123C59.6115 123.094 60.1773 122.92 60.7421 122.592C61.2573 122.292 61.5388 121.974 61.5871 121.636C61.6351 121.279 61.3998 120.97 60.9316 120.699C60.4466 120.419 59.9292 120.294 59.3126 120.323C58.7123 120.342 58.1465 120.516 57.6148 120.825C57.0996 121.124 56.8014 121.452 56.7703 121.819C56.7223 122.177 56.9407 122.495 57.3924 122.756C57.844 123.017 58.378 123.133 58.9948 123.123Z" fill="#494846"/>
<path d="M68.8863 118.189C69.3046 118.43 69.5228 118.71 69.5081 119.029C69.5097 119.357 69.3114 119.627 68.9125 119.859C68.4971 120.101 68.0309 120.216 67.4642 120.216C66.9306 120.216 66.4467 120.091 66.0284 119.849C65.6103 119.608 65.3919 119.328 65.407 119.029C65.4217 118.71 65.6205 118.44 66.0359 118.198C66.4348 117.967 66.9006 117.851 67.4509 117.841C67.9841 117.822 68.4683 117.947 68.8863 118.189Z" fill="#494846"/>
<path d="M70.3166 108.658L75.3257 115.997L72.717 117.513L67.9762 110.483L64.5533 112.472L66.2592 113.457L64.1324 114.693L60.4697 112.578L68.7611 107.76L70.3166 108.658Z" fill="#494846"/>
<path d="M108.535 148.946L99.668 149.838L101.18 144.699L108.535 148.946Z" fill="white"/>
<path d="M126.6 134.018L125.088 139.157L117.732 134.911L126.6 134.018Z" fill="white"/>
<path d="M68.7656 97.6459C56.784 92.3945 46.0708 98.4242 41.8387 100.868C41.7509 100.918 41.6661 100.968 41.5834 101.017C40.9193 101.407 40.2543 101.795 39.5863 102.18C38.9183 102.566 38.2473 102.95 37.5713 103.333C37.4868 103.381 37.4004 103.43 37.3128 103.481C33.081 105.924 25.1336 110.555 34.1571 117.515" fill="#B2B0AF"/>
<path d="M27.1914 98.3087L27.1934 99.0061L45.127 109.386L45.125 108.688L27.1914 98.3087Z" fill="#B2B0AF"/>
<path d="M27.1914 98.3087L44.5627 108.404L50.5064 104.972L33.1351 94.8771L27.1914 98.3087Z" fill="#D6D4D2"/>
<path d="M45.1278 107.426L45.1075 100.276C45.1066 99.9416 44.948 99.6602 44.6143 99.4587L44.6345 106.609C44.9683 106.81 45.1268 107.092 45.1278 107.426Z" fill="#D6D4D2"/>
<path d="M68.7612 97.6523L34.1516 117.51C26.7355 111.789 30.4412 107.885 34.8046 105.003C36.0935 105.709 39.3439 105.136 42.0102 103.582C44.6765 102.046 45.7678 100.145 44.5318 99.3853C49.8351 96.6159 58.9084 93.3262 68.7612 97.6523Z" fill="#E9E8E6"/>
<path d="M28.084 97.7914L31.3744 99.7035C31.6208 99.8467 32.0195 99.8467 32.2635 99.7059C32.5115 99.5627 32.5128 99.3317 32.2664 99.1885L28.976 97.2764L28.084 97.7914Z" fill="#383736"/>
<path d="M29.7861 96.8096L33.0765 98.7218C33.3229 98.865 33.7216 98.865 33.9656 98.7241C34.2137 98.5809 34.2149 98.35 33.9686 98.2068L30.6782 96.2946L29.7861 96.8096Z" fill="#383736"/>
<path d="M31.4883 95.8278L34.7787 97.74C35.0251 97.8832 35.4238 97.8832 35.6678 97.7423C35.9158 97.5991 35.9171 97.3682 35.6707 97.225L32.3803 95.3128L31.4883 95.8278Z" fill="#383736"/>
<g clip-path="url(#clip0_1420_37764)">
<path d="M172.971 68.447C166.203 68.454 160.31 72.1705 157.201 77.6675L157.199 77.6669C155.864 79.3194 153.817 79.313 152.489 77.6716L152.486 77.6722C149.365 72.1816 143.465 68.4773 136.697 68.4843C126.681 68.4942 118.57 76.6227 118.58 86.6394C118.609 116.008 154.898 131.623 154.898 131.623C154.898 131.623 191.156 115.934 191.127 86.5655C191.116 76.5494 182.988 68.4371 172.971 68.447Z" fill="#FF6B6B"/>
<path d="M123.051 86.6394C123.041 77.3759 129.977 69.7281 138.944 68.6222C138.207 68.532 137.458 68.4837 136.697 68.4843C126.681 68.4942 118.57 76.6227 118.58 86.6394C118.609 116.008 154.898 131.622 154.898 131.622C154.898 131.622 155.725 131.264 157.128 130.556C149.219 126.583 123.075 111.566 123.051 86.6394Z" fill="#EE5253"/>
<path d="M137.698 113.471L131.995 96.0048L130.033 101.569C129.875 102.016 129.453 102.316 128.979 102.316H117.826C117.209 102.316 116.708 101.815 116.708 101.198C116.708 100.58 117.209 100.08 117.826 100.08H128.188L130.982 92.1574C131.339 91.1429 132.771 91.1784 133.098 92.1818L138.526 108.804L143.78 83.7716C144.025 82.6011 145.693 82.5836 145.963 83.7501L149.736 100.08H161.85L164.936 92.1248C165.314 91.1498 166.724 91.1836 167.043 92.1917L171.601 106.587L175.115 85.5306C175.314 84.3345 177.014 84.2797 177.302 85.4468L180.913 100.08H191.883C192.5 100.08 193 100.581 193 101.198C193 101.816 192.5 102.316 191.883 102.316H180.038C179.524 102.316 179.076 101.965 178.953 101.466L176.428 91.2366L173.04 111.539C172.849 112.687 171.226 112.811 170.872 111.692L165.871 95.8948L163.657 101.603C163.49 102.033 163.076 102.316 162.615 102.316H148.847C148.327 102.316 147.876 101.956 147.758 101.45L144.926 89.1924L139.854 113.354C139.62 114.468 138.054 114.562 137.698 113.471Z" fill="#E4EAF8"/>
</g>
<defs>
<clipPath id="clip0_1420_37764">
<rect width="76.2923" height="76.2923" fill="white" transform="translate(116.708 61.7416)"/>
</clipPath>
</defs>
</svg>
