<svg width="96" height="96" viewBox="0 0 96 96" fill="none" xmlns="http://www.w3.org/2000/svg">
  <rect x="18" y="18" width="60" height="60" rx="24" fill="#EAF8F7"/>
  <path d="M31 43C31 35.268 37.268 29 45 29H51C58.732 29 65 35.268 65 43V60C65 66.6274 59.6274 72 53 72H43C36.3726 72 31 66.6274 31 60V43Z" fill="white" stroke="#16A0A2" stroke-width="3"/>
  <path d="M40 41C40 36.5817 43.5817 33 48 33C52.4183 33 56 36.5817 56 41" stroke="#16A0A2" stroke-width="3" stroke-linecap="round"/>
  <path d="M48 41L54 38" stroke="#FF8E92" stroke-width="3.5" stroke-linecap="round"/>
  <path d="M38 55H58" stroke="#9BB2B6" stroke-width="3" stroke-linecap="round"/>
  <path d="M41 61H55" stroke="#16A0A2" stroke-width="3" stroke-linecap="round"/>
</svg>
