<svg width="32" height="32" viewBox="0 0 32 32" fill="none" xmlns="http://www.w3.org/2000/svg">
<g clip-path="url(#clip0_68_4821)">
<path fill-rule="evenodd" clip-rule="evenodd" d="M9.066 2.72988C6.30362 2.72632 5.76043 5.64476 6.7575 7.11563C4.147 7.20469 2.72825 10.0875 3.98262 12.3891C1.826 13.0755 1.826 17.0209 3.19462 18.4293C1.50968 20.1515 2.72825 24.0113 4.74375 24.1593C4.14518 26.632 5.8605 29.1315 7.85631 29.2919C8.45131 30.4365 9.42687 31.1104 10.4989 31.3868H12.8861C14.5674 30.9696 15.9718 29.6931 15.9772 27.8461C15.9772 27.8407 15.9772 27.8336 15.9772 27.8264V10.5029V2.27169C14.3012 -0.0353063 10.9779 -0.381119 9.066 2.72988Z" fill="#F47C7C"/>
<path fill-rule="evenodd" clip-rule="evenodd" d="M15.9774 10.5029V27.8265V27.8461C15.9827 29.6931 17.3889 30.9696 19.0685 31.3868H21.4556C22.5277 31.1105 23.5032 30.4366 24.0982 29.292C26.094 29.1316 27.8094 26.6321 27.2126 24.1593C29.2263 24.0113 30.4449 20.1516 28.76 18.4294C30.1287 17.0209 30.1287 13.0756 27.972 12.3892C29.2263 10.0876 27.8076 7.20476 25.1971 7.11563C26.1941 5.64482 25.6527 2.72632 22.8904 2.72988C20.9767 -0.38112 17.6551 -0.0352447 15.9773 2.27169V10.5029H15.9774Z" fill="#EE6161"/>
<path fill-rule="evenodd" clip-rule="evenodd" d="M26.3891 19.8306C27.0627 21.7257 25.9335 24.4605 24.245 24.5836C24.8418 27.0563 23.1265 29.5558 21.1306 29.7145C20.7393 30.4704 20.1818 31.0195 19.5403 31.3867H21.4558C22.5278 31.1104 23.5034 30.4365 24.0984 29.2919C26.0942 29.1315 27.8095 26.632 27.2128 24.1593C29.2265 24.0112 30.4451 20.1515 28.7601 18.4293C30.1288 17.0209 30.1288 13.0755 27.9721 12.3891C29.2265 10.0875 27.8078 7.20469 25.1973 7.11556C26.1943 5.64475 25.6529 2.72625 22.8905 2.72981C21.4075 0.317687 19.0776 -0.0156881 17.3247 1.02906C18.2806 1.30006 19.2008 1.98106 19.9227 3.15419C20.3962 3.15244 20.8036 3.238 21.1502 3.38775C22.8244 4.10981 23.0549 6.32225 22.2294 7.53994C24.8399 7.62906 26.2586 10.5119 25.0043 12.8135C27.1609 13.4999 27.1609 17.4452 25.7923 18.8537C26.0639 19.1318 26.2605 19.4651 26.3891 19.8306Z" fill="#E94444"/>
<path d="M7.39311 23.0602C7.35324 23.316 7.5283 23.5557 7.78411 23.5956C11.0432 24.1035 11.4784 25.7898 11.4935 27.2022C11.4963 27.4594 11.7056 27.666 11.9622 27.666H11.9674C12.2262 27.6633 12.4339 27.4511 12.4311 27.1922C12.4036 24.6166 10.9307 23.1372 7.92855 22.6693C7.67317 22.6292 7.43305 22.8043 7.39311 23.0602Z" fill="black"/>
<path d="M13.8106 17.5825C13.8106 17.3236 13.6007 17.1137 13.3418 17.1137C13.0828 17.1137 12.873 17.3236 12.873 17.5825C12.873 18.3956 12.4938 18.9414 12.1756 19.2561C11.7361 19.6909 11.1138 19.9676 10.5915 19.9626C10.3331 19.9583 10.1205 20.1674 10.1177 20.4264C10.115 20.6853 10.3225 20.8974 10.5815 20.9002C10.5899 20.9003 10.5982 20.9003 10.6066 20.9003C11.3723 20.9003 12.2238 20.5272 12.835 19.9226C13.2801 19.4823 13.8106 18.719 13.8106 17.5825Z" fill="black"/>
<path d="M24.7698 16.6357C25.0287 16.6329 25.2363 16.4207 25.2335 16.1618C25.2307 15.9046 25.0213 15.6981 24.7648 15.6981C24.7587 15.6981 24.7529 15.6982 24.7468 15.6982C24.3255 15.6982 23.8262 15.4728 23.4708 15.1213C23.2502 14.903 22.9943 14.5479 22.9222 14.0387C24.1949 13.3555 25.0088 12.0516 25.0012 10.6234C24.9998 10.3653 24.7902 10.1571 24.5325 10.1571C24.5316 10.1571 24.5308 10.1571 24.5299 10.1571C24.271 10.1585 24.0622 10.3696 24.0636 10.6284C24.0713 12.0619 23.0388 13.0619 22.0122 13.4173C20.9148 13.797 19.8625 13.5131 19.1973 12.6576C19.0384 12.4533 18.7438 12.4164 18.5394 12.5753C18.335 12.7343 18.2982 13.0288 18.4572 13.2331C19.1084 14.0705 20.0518 14.5186 21.0755 14.5186C21.3891 14.5186 21.7103 14.476 22.0328 14.3903C22.175 15.0345 22.5147 15.4943 22.8115 15.7878C23.3417 16.3123 24.0814 16.6358 24.7475 16.6358C24.7549 16.6358 24.7624 16.6358 24.7698 16.6357Z" fill="black"/>
<path d="M19.9872 27.6659H19.9923C20.2489 27.6659 20.4582 27.4594 20.461 27.2022C20.4762 25.7898 20.9115 24.1035 24.1705 23.5956C24.4263 23.5557 24.6014 23.316 24.5615 23.0602C24.5217 22.8044 24.2824 22.6293 24.0261 22.6692C21.024 23.1371 19.5511 24.6166 19.5235 27.1922C19.5207 27.451 19.7283 27.6631 19.9872 27.6659Z" fill="black"/>
<path d="M21.3732 20.9001C21.632 20.8974 21.8397 20.6852 21.8369 20.4263C21.8341 20.1691 21.6248 19.9626 21.3682 19.9626C21.3614 19.9626 21.3544 19.9626 21.3474 19.9627C20.828 19.9627 20.2141 19.6865 19.7789 19.256C19.4609 18.9413 19.0817 18.3955 19.0817 17.5824C19.0817 17.3236 18.8718 17.1136 18.6129 17.1136C18.3539 17.1136 18.144 17.3235 18.144 17.5824C18.144 18.7189 18.6745 19.4823 19.1195 19.9226C19.7307 20.5272 20.5822 20.9002 21.3479 20.9002C21.3564 20.9003 21.3648 20.9003 21.3732 20.9001Z" fill="black"/>
<path d="M7.19509 15.6981C6.93672 15.695 6.72409 15.9029 6.72122 16.1618C6.71841 16.4207 6.92597 16.6329 7.18491 16.6357C7.19234 16.6358 7.19972 16.6358 7.20716 16.6358C7.87328 16.6358 8.61303 16.3123 9.14322 15.7878C9.43997 15.4943 9.77972 15.0344 9.92191 14.3901C10.2445 14.4759 10.5657 14.5185 10.8795 14.5185C11.903 14.5185 12.8465 14.0704 13.4976 13.2331C13.6565 13.0288 13.6197 12.7342 13.4153 12.5753C13.211 12.4164 12.9164 12.4533 12.7575 12.6576C12.0925 13.5127 11.0407 13.7968 9.94416 13.4176C8.91728 13.0626 7.88422 12.0624 7.89109 10.6282C7.89234 10.3693 7.68341 10.1584 7.42453 10.1572C7.42378 10.1572 7.42303 10.1572 7.42222 10.1572C7.16441 10.1572 6.95472 10.3656 6.95347 10.6238C6.94666 12.0518 7.76059 13.3552 9.03259 14.0384C8.96053 14.5478 8.70459 14.903 8.48384 15.1213C8.12491 15.4763 7.62159 15.7014 7.19509 15.6981Z" fill="black"/>
<path d="M30.015 14.2308C29.7733 13.2675 29.2791 12.5489 28.5995 12.1566C29.0765 10.9743 28.9985 9.65975 28.367 8.55394C27.8208 7.59725 26.9489 6.95769 25.9143 6.7335C26.2501 5.82575 26.1957 4.72763 25.7336 3.85738C25.2237 2.89731 24.3131 2.33969 23.1516 2.26881C22.212 0.861002 20.9106 0.0590649 19.4638 0.00312736C18.1773 -0.0468726 16.9098 0.517065 15.9775 1.53225C15.046 0.51694 13.7799 -0.0469976 12.492 0.00306486C11.0448 0.0590024 9.74365 0.86094 8.80477 2.26875C7.6429 2.33975 6.73177 2.89769 6.22165 3.85825C5.75959 4.72831 5.70509 5.82613 6.04046 6.73344C5.00577 6.95756 4.13396 7.59713 3.58771 8.55388C2.95615 9.65988 2.87827 10.9746 3.3554 12.1571C2.74677 12.5103 2.28102 13.1306 2.01915 13.9509C1.9404 14.1976 2.07652 14.4614 2.32315 14.5401C2.56984 14.6188 2.83359 14.4828 2.91234 14.2361C3.07696 13.7206 3.42084 13.0591 4.1244 12.8361C4.25784 12.7938 4.3654 12.694 4.41765 12.5641C4.4699 12.4343 4.46134 12.2878 4.39434 12.1649C3.84734 11.1611 3.85015 9.98506 4.4019 9.01888C4.9029 8.1415 5.7674 7.61857 6.77359 7.58419C6.94415 7.57838 7.09809 7.48031 7.17546 7.32819C7.25284 7.17606 7.2414 6.99388 7.14565 6.85263C6.67377 6.15644 6.6334 5.08213 7.04977 4.29813C7.31615 3.7965 7.8809 3.19913 9.0599 3.19875C9.75696 3.21575 10.438 3.338 11.1067 4.60344C11.1908 4.76256 11.3534 4.85331 11.5216 4.85331C11.5955 4.85331 11.6704 4.83581 11.7402 4.79894C11.9691 4.67794 12.0566 4.39432 11.9357 4.16544C11.318 2.99644 10.599 2.53775 9.90084 2.36269C10.6273 1.47769 11.5405 0.978252 12.5282 0.940127C13.6428 0.897127 14.7465 1.45138 15.5086 2.42894V9.07381C14.5511 8.13513 13.2464 7.73644 11.863 8.01469C11.6091 8.06569 11.4448 8.31288 11.4958 8.56669C11.5469 8.8205 11.794 8.98519 12.0478 8.93381C13.7318 8.59531 14.9274 9.5655 15.5086 10.6201V27.8254V27.8267V27.8469C15.5031 29.6281 14.029 30.6228 12.7645 30.9336C11.2079 31.3162 9.21533 30.8903 8.27246 29.076C8.19796 28.9327 8.05502 28.8378 7.89409 28.8249C7.14709 28.7648 6.40627 28.2988 5.86165 27.5463C5.17877 26.6029 4.93127 25.378 5.19959 24.2698C5.23202 24.1359 5.2039 23.9946 5.12271 23.8833C5.04159 23.7719 4.91559 23.702 4.77827 23.6919C4.12602 23.644 3.49727 23.023 3.13734 22.0713C2.80209 21.1848 2.72834 20.0219 3.21327 19.1777C3.98515 19.9521 5.11359 20.3704 6.46659 20.3704C6.51234 20.3704 6.55846 20.3699 6.60471 20.3689C6.86352 20.3636 7.06902 20.1494 7.06371 19.8905C7.0584 19.6317 6.84434 19.4268 6.58534 19.4315C5.48746 19.4546 4.60227 19.1773 3.9874 18.6248C3.83459 18.4874 3.20546 17.866 3.0584 17.3545C2.90452 16.9919 2.81102 16.6043 2.76096 16.2143C2.72802 15.9574 2.49321 15.7761 2.23627 15.809C1.97946 15.8419 1.79802 16.0769 1.83102 16.3337C1.93746 17.1624 2.20102 17.8891 2.58502 18.4266C1.75634 19.5652 1.80496 21.1987 2.26034 22.4029C2.67452 23.4982 3.37784 24.2577 4.19896 24.5258C4.03309 25.7629 4.35702 27.0666 5.10209 28.0959C5.74834 28.9888 6.63309 29.5724 7.56152 29.7274C8.50777 31.3436 10.141 32.0001 11.6898 32.0001C12.1357 32.0001 12.5748 31.9456 12.9883 31.844C13.9392 31.6103 14.7978 31.1219 15.4061 30.4689C15.6325 30.2258 15.8235 29.9628 15.9774 29.6836C16.1313 29.9628 16.3222 30.2258 16.5486 30.4689C17.1568 31.1219 18.0156 31.6103 18.9665 31.844C19.38 31.9457 19.819 32.0001 20.2649 32.0001C21.8136 32.0001 23.4469 31.3435 24.3931 29.7277C25.0746 29.615 25.7278 29.2751 26.2957 28.7349C26.4833 28.5565 26.4907 28.2598 26.3123 28.0722C26.1338 27.8846 25.8372 27.8772 25.6496 28.0556C25.1678 28.5138 24.6184 28.7798 24.0607 28.8248C23.8998 28.8377 23.7568 28.9326 23.6824 29.0758C22.7396 30.89 20.7471 31.3161 19.1903 30.9334C17.9258 30.6226 16.4517 29.6279 16.4462 27.8467C16.4462 27.8399 16.4462 27.8333 16.4462 27.8265V27.8252V10.6199C17.0275 9.56538 18.2228 8.59519 19.907 8.93369C20.1609 8.98481 20.408 8.82038 20.459 8.56656C20.5101 8.31275 20.3457 8.06556 20.0918 8.01456C18.7085 7.73619 17.4037 8.13488 16.4462 9.07369V2.42888C17.2092 1.45131 18.3131 0.896877 19.4276 0.93994C20.4151 0.978127 21.3285 1.4775 22.0554 2.36244C21.3566 2.53744 20.637 2.99613 20.0192 4.16525C19.8982 4.39413 19.9858 4.67775 20.2146 4.79875C20.2845 4.83563 20.3594 4.85313 20.4332 4.85313C20.6015 4.85313 20.764 4.76231 20.8481 4.60325C21.5168 3.33788 22.1987 3.21556 22.8967 3.19856C24.075 3.19894 24.6394 3.79581 24.9056 4.297C25.322 5.08106 25.2814 6.15575 24.8091 6.85244C24.7134 6.99369 24.702 7.17588 24.7793 7.328C24.8566 7.48013 25.0106 7.57819 25.1811 7.584C26.1874 7.61838 27.0518 8.14131 27.5529 9.01875C28.1046 9.98494 28.1075 11.161 27.5604 12.1648C27.4935 12.2876 27.4849 12.4339 27.537 12.5638C27.5891 12.6936 27.6966 12.7933 27.8299 12.8358C28.6512 13.0971 28.9817 13.9648 29.1056 14.4588C29.3504 15.4344 29.2348 16.6077 28.8611 17.4327C28.7409 17.698 28.4055 18.3138 27.9055 18.6784C27.2938 19.195 26.4311 19.4534 25.3695 19.4313C25.1093 19.4259 24.8964 19.6314 24.8911 19.8903C24.8857 20.1491 25.0912 20.3633 25.35 20.3687C25.3963 20.3696 25.4423 20.3701 25.4881 20.3701C26.841 20.3701 27.9695 19.9518 28.7415 19.1774C29.2265 20.0217 29.1528 21.1849 28.8175 22.0718C28.4578 23.0231 27.8296 23.6437 27.1783 23.6916C27.041 23.7017 26.9151 23.7716 26.834 23.8828C26.7528 23.9939 26.7246 24.1352 26.7569 24.269C26.923 24.9574 26.8944 25.6899 26.6745 26.3874C26.5966 26.6343 26.7336 26.8976 26.9805 26.9755C27.0274 26.9903 27.075 26.9973 27.1216 26.9973C27.3208 26.9973 27.5055 26.8694 27.5686 26.6694C27.79 25.9676 27.8537 25.2352 27.7578 24.5254C28.578 24.2572 29.2805 23.4981 29.6945 22.4033C30.15 21.1988 30.1985 19.5646 29.3694 18.4258C30.1006 17.3964 30.3796 15.6838 30.015 14.2308Z" fill="black"/>
</g>
<defs>
<clipPath id="clip0_68_4821">
<rect width="32" height="32" fill="white" transform="translate(0.000732422)"/>
</clipPath>
</defs>
</svg>
