<svg width="33" height="32" viewBox="0 0 33 32" fill="none" xmlns="http://www.w3.org/2000/svg">
<g clip-path="url(#clip0_80_2515)">
<path fill-rule="evenodd" clip-rule="evenodd" d="M16.6666 31.8116C25.377 31.8116 32.48 24.7086 32.48 16C32.48 7.29138 25.377 0.188377 16.6666 0.188377C7.95798 0.188377 0.85498 7.29138 0.85498 16C0.85498 24.7086 7.95798 31.8116 16.6666 31.8116Z" fill="#FFC4DA"/>
<path fill-rule="evenodd" clip-rule="evenodd" d="M17.5718 31.7861C17.2734 31.8026 16.971 31.8115 16.6669 31.8115C7.93479 31.8116 0.85498 24.7337 0.85498 16.0003C0.85498 11.9603 2.37011 8.27344 4.86386 5.47875C5.17948 5.125 5.51092 4.78525 5.85698 4.46075C8.68411 1.81088 12.4865 0.188377 16.6669 0.188377C16.9711 0.188377 17.2734 0.197252 17.5718 0.21569C13.7725 0.429065 10.332 1.9855 7.71636 4.41694C7.41348 4.69763 7.12198 4.99038 6.84254 5.29456C4.24979 8.11088 2.66604 11.8708 2.66604 16.0003C2.66604 24.4295 9.26129 31.3169 17.5718 31.7861Z" fill="#E6B0C4"/>
<path fill-rule="evenodd" clip-rule="evenodd" d="M24.4212 16.072C25.0134 17.5391 26.0574 19.6991 24.3654 22.9014C22.6733 26.1036 19.4657 29.4446 14.6416 28.9819C10.1684 28.5553 9.77607 23.6376 11.2485 21.0726L7.23439 19.9979C6.40276 19.7748 5.90414 18.9107 6.12557 18.0773C6.34876 17.2457 7.21282 16.7471 8.0462 16.9703L14.0098 18.5669L13.9359 18.4139L12.2835 14.9794C11.9739 14.3368 12.2457 13.5574 12.8883 13.2478C13.5309 12.9399 14.3104 13.2118 14.6199 13.8544L16.0978 16.9271L17.959 16.7524C17.959 16.7524 16.3659 15.5338 16.0006 13.7932C15.6369 12.0526 15.6909 11.5575 16.3228 11.4315C16.5099 11.3937 16.6594 11.2137 16.7782 10.9797C16.7584 10.4253 16.8178 9.85825 16.969 9.29307C17.779 6.27082 20.8877 4.47613 23.91 5.28619C26.9341 6.09619 28.7269 9.20488 27.9169 12.2272C27.4237 14.0686 26.0791 15.4528 24.4212 16.072Z" fill="#FFB09E"/>
<path fill-rule="evenodd" clip-rule="evenodd" d="M17.2318 11.9805C17.2102 11.4261 17.2714 10.8591 17.4226 10.2939C18.2326 7.27163 21.3395 5.47694 24.3636 6.28694C25.8793 6.69376 27.0853 7.67657 27.8107 8.93844C27.2221 7.20857 25.8073 5.79557 23.91 5.28613C20.8878 4.47613 17.7791 6.27076 16.969 9.29301C16.8178 9.85826 16.7584 10.4253 16.7782 10.9796C16.6594 11.2136 16.51 11.3936 16.3228 11.4314C15.6909 11.5574 15.6369 12.0524 16.0006 13.7931C16.105 14.2846 16.3048 14.7328 16.5388 15.1251C16.5064 15.0171 16.4776 14.9055 16.4542 14.7939C16.0888 13.0533 16.1428 12.5583 16.7746 12.4305C16.9618 12.3927 17.1112 12.2145 17.2318 11.9805Z" fill="#F7A28F"/>
<path fill-rule="evenodd" clip-rule="evenodd" d="M15.5236 28.6255C11.0504 28.1971 10.6562 23.2812 12.1305 20.7161L8.11636 19.6397C7.28293 19.4165 6.78436 18.5524 7.00755 17.7208C7.09399 17.395 7.27936 17.1214 7.52236 16.9216C6.87793 16.972 6.30193 17.4203 6.12555 18.0773C5.90418 18.9107 6.40274 19.7747 7.23436 19.9979L11.2485 21.0725C9.77605 23.6376 10.1685 28.5553 14.6416 28.9819C16.3516 29.1457 17.8582 28.8325 19.1669 28.2151C18.0742 28.5895 16.861 28.7533 15.5236 28.6255Z" fill="#F7A28F"/>
<path d="M27.9596 4.70788C24.9438 1.69206 20.9335 0.031189 16.6675 0.031189C12.4021 0.031189 8.39204 1.69206 5.37604 4.70788C2.35986 7.72388 0.69873 11.7341 0.69873 16C0.69873 20.2651 2.35986 24.2752 5.37604 27.2914C8.39223 30.3077 12.4023 31.9688 16.6675 31.9688C20.9334 31.9688 24.9436 30.3077 27.9596 27.2914C30.9754 24.2754 32.6362 20.2654 32.6362 16C32.6362 11.7339 30.9754 7.72369 27.9596 4.70788ZM16.6675 31.0953C8.34392 31.0953 1.57223 24.3236 1.57223 16C1.57223 12.0048 3.13292 8.36781 5.67586 5.66488C6.90348 5.43938 8.91329 5.31744 9.52842 5.90431C9.6291 6.00038 9.73817 6.15275 9.68811 6.48075C9.56517 7.28125 8.92829 8.00275 8.25404 8.76656C7.19348 9.96806 5.99142 11.3299 6.74154 13.2764C7.73411 15.856 11.0323 16.1023 12.2549 16.1022C12.311 16.1022 12.3619 16.1016 12.4088 16.1008L13.0416 17.4164C13.1168 17.5728 13.2729 17.6639 13.4355 17.6639C13.499 17.6639 13.5634 17.6501 13.6245 17.6207C13.8419 17.5161 13.9334 17.2552 13.8288 17.0378L12.7554 14.806C12.6589 14.6058 12.6465 14.379 12.7205 14.1674C12.7944 13.9559 12.9454 13.7863 13.1457 13.6899C13.3457 13.5935 13.5726 13.5814 13.7847 13.6557C13.997 13.7301 14.167 13.8814 14.2635 14.0817L15.1862 15.999C15.1897 16.0078 15.1931 16.0168 15.1973 16.0254L15.7124 17.0925L15.7152 17.0983C15.7152 17.0983 15.7152 17.0983 15.7152 17.0983L15.7154 17.0987C15.7203 17.1088 15.7265 17.1178 15.7321 17.1273C15.7379 17.1372 15.7429 17.1476 15.7493 17.1569C15.7565 17.1673 15.7649 17.1764 15.7729 17.1861C15.779 17.1935 15.7845 17.2016 15.791 17.2085C15.7984 17.2163 15.8068 17.2229 15.8147 17.2301C15.823 17.2377 15.8308 17.2459 15.8397 17.2529C15.843 17.2555 15.8469 17.2574 15.8502 17.2599C15.9347 17.3222 16.0404 17.354 16.1495 17.3436L20.9202 16.8963C21.1044 16.879 21.2852 16.9351 21.4289 17.0546C21.572 17.1735 21.6601 17.3399 21.6768 17.5231C21.6974 17.7499 21.8879 17.9203 22.1112 17.9203C22.1245 17.9203 22.1379 17.9196 22.1514 17.9184C22.3916 17.8966 22.5686 17.6841 22.5467 17.4438C22.5087 17.0278 22.31 16.6509 21.9869 16.3826C21.6634 16.1139 21.2558 15.9871 20.8385 16.0266L17.8974 16.3024C17.897 16.3024 17.8966 16.3024 17.8962 16.3024L16.3704 16.4455L15.0504 13.7026C14.8527 13.2923 14.5057 12.9828 14.0735 12.8313C13.641 12.6796 13.1767 12.7051 12.7664 12.9028C12.3559 13.1005 12.0467 13.4473 11.8958 13.8791C11.7449 14.3109 11.7706 14.7747 11.9682 15.1848L11.986 15.2219C10.782 15.1816 8.28779 14.8628 7.55661 12.9624C6.99704 11.5105 7.88298 10.5068 8.90886 9.34463C9.63679 8.51988 10.3895 7.66706 10.5514 6.61288C10.6549 5.93488 10.38 5.50963 10.1313 5.27225C9.40029 4.57488 7.87067 4.5485 6.73148 4.64569C9.38842 2.31794 12.8659 0.904751 16.6675 0.904751C24.991 0.904751 31.7627 7.67644 31.7627 16.0001C31.7627 24.3236 24.991 31.0953 16.6675 31.0953ZM28.1407 12.4068C27.6778 14.1336 26.4637 15.5629 24.8515 16.3068C25.4493 17.774 26.2235 19.9398 24.6162 22.9816C23.9294 24.2814 22.7211 26.1148 20.8651 27.4673C19.2559 28.6399 17.4734 29.2314 15.5557 29.2315C15.2527 29.2315 14.9464 29.2168 14.6367 29.1871C12.392 28.9721 11.2969 27.7199 10.7735 26.7074C9.95786 25.1296 9.94867 22.9685 10.712 21.2652L7.28886 20.3473C6.23573 20.0646 5.60867 18.979 5.89092 17.9273C6.17292 16.8744 7.25942 16.2476 8.31242 16.5293L13.6954 17.9722C13.6982 17.9729 13.7011 17.9733 13.7039 17.974L14.7649 18.2587C15.2732 18.3948 15.699 18.7222 15.9637 19.1804C16.1569 19.5149 16.2462 19.8889 16.2275 20.264L18.4555 20.0946C18.6964 20.0766 18.9059 20.2565 18.9242 20.4969C18.9424 20.7375 18.7623 20.9473 18.5218 20.9656L16.0355 21.1546L15.7649 22.1671C15.7127 22.3623 15.5362 22.4911 15.3432 22.4911C15.3059 22.4911 15.268 22.4863 15.2302 22.4763C14.9971 22.4139 14.8587 22.1745 14.921 21.9415L15.3189 20.4527C15.3947 20.1698 15.355 19.8733 15.2072 19.6173C15.0592 19.3611 14.8218 19.1782 14.5386 19.1024L13.9495 18.9443C13.9478 18.9439 13.9461 18.9437 13.9444 18.9432L8.08636 17.373C7.49836 17.2155 6.89204 17.5657 6.73461 18.1534C6.57711 18.7402 6.92729 19.3458 7.51517 19.5035L11.4582 20.5609C11.5892 20.5959 11.6964 20.6899 11.7484 20.8151C11.8004 20.9403 11.7914 21.0826 11.7239 21.2001C10.9882 22.4819 10.692 24.6473 11.5495 26.3062C12.1571 27.4816 13.2534 28.1771 14.7199 28.3176C19.9515 28.8168 22.8435 24.467 23.844 22.5734C25.3277 19.7656 24.5427 17.8535 23.9694 16.4573C23.9382 16.3814 23.9077 16.3071 23.8784 16.2346C23.8341 16.1253 23.8359 16.0028 23.8834 15.8948C23.9309 15.7869 24.02 15.7028 24.1305 15.6615C25.6844 15.0817 26.8681 13.7804 27.297 12.1806C28.029 9.44788 26.4019 6.62925 23.6698 5.89738C22.3464 5.54275 20.9639 5.7245 19.777 6.4095C18.59 7.0945 17.741 8.20081 17.3864 9.52463C17.2533 10.0223 17.1951 10.5364 17.2135 11.0528C17.2162 11.1268 17.2 11.2002 17.1665 11.2661C16.9714 11.6506 16.7192 11.8768 16.4171 11.9384C16.3722 11.9474 16.2955 11.9668 16.2758 11.9966C16.1274 12.2216 16.3522 13.3181 16.4354 13.717C16.4669 13.786 16.6343 14.1007 17.4972 15.3504C17.6343 15.5489 17.5845 15.8209 17.386 15.9579C17.1875 16.0949 16.9154 16.0452 16.7784 15.8467C15.6485 14.2103 15.6112 14.0386 15.5865 13.9249C15.3264 12.6798 15.2491 11.9669 15.5466 11.5158C15.6951 11.2906 15.9202 11.1493 16.2344 11.0841C16.2504 11.0741 16.2886 11.0385 16.3375 10.9602C16.3289 10.3987 16.3977 9.84044 16.5427 9.29869C16.9577 7.74931 17.9514 6.45463 19.3405 5.65288C20.7294 4.85138 22.3472 4.63856 23.896 5.05363C27.0931 5.91006 28.9974 9.20869 28.1407 12.4068ZM22.6448 13.2529C22.4667 13.0902 22.4542 12.8139 22.6169 12.6359C22.7795 12.4577 23.0558 12.4452 23.2339 12.6079C23.5974 12.9401 24.1297 12.9971 24.5585 12.75C24.8206 12.5989 25.0081 12.355 25.0863 12.0633C25.1645 11.7714 25.1242 11.4661 24.9729 11.2036C24.7255 10.7764 24.2357 10.5594 23.7539 10.6642C23.5181 10.7155 23.2855 10.5661 23.2341 10.3305C23.1827 10.0948 23.3322 9.86213 23.5678 9.81075C24.422 9.62438 25.2904 10.0088 25.7292 10.7666C25.9974 11.2318 26.0685 11.7724 25.93 12.2894C25.7914 12.8068 25.4592 13.2391 24.9947 13.5069C24.6802 13.6881 24.3342 13.7768 23.9909 13.7768C23.5043 13.7767 23.0233 13.5986 22.6448 13.2529ZM20.505 11.2956C20.2105 11.6515 19.8221 11.8496 19.4262 11.8496C19.3924 11.8496 19.3586 11.8482 19.3247 11.8453C18.8952 11.8083 18.5065 11.5386 18.2583 11.1051C18.1384 10.8958 18.211 10.6289 18.4203 10.5091C18.6295 10.3893 18.8964 10.4618 19.0164 10.6712C19.1215 10.8549 19.2577 10.9629 19.3995 10.9751C19.5422 10.9876 19.6959 10.9034 19.8322 10.7388C19.986 10.553 20.2614 10.5271 20.4471 10.6808C20.6329 10.8345 20.6588 11.1098 20.505 11.2956Z" fill="black"/>
</g>
<defs>
<clipPath id="clip0_80_2515">
<rect width="32" height="32" fill="white" transform="translate(0.66748)"/>
</clipPath>
</defs>
</svg>
