<svg width="216" height="174" viewBox="0 0 216 174" fill="none" xmlns="http://www.w3.org/2000/svg">
<mask id="mask0_105_5135" style="mask-type:alpha" maskUnits="userSpaceOnUse" x="0" y="0" width="216" height="174">
<rect width="216" height="174" fill="#D9D9D9"/>
</mask>
<g mask="url(#mask0_105_5135)">
<path d="M188.425 160.237H24.873V65.5567C24.873 61.6473 28.0362 58.4777 31.9378 58.4777H181.36C185.261 58.4777 188.424 61.6473 188.424 65.5567V160.237H188.425Z" fill="white"/>
<path d="M27.2275 160.237V65.5567C27.2275 62.9543 29.3404 60.8375 31.9372 60.8375H181.359C183.956 60.8375 186.069 62.9547 186.069 65.5567V160.236H27.2275V160.237Z" fill="#402C49"/>
<path d="M179.005 153.158L179.005 67.9164L34.2926 67.9164L34.2926 153.158L179.005 153.158Z" fill="#A9A5AB"/>
<path d="M186.092 169.464H27.2048C23.1101 169.464 19.1129 168.21 15.749 165.87H197.547C194.183 168.21 190.187 169.464 186.092 169.464Z" fill="#C7D2D7"/>
<path d="M197.547 160.237H15.749V165.843H197.547V160.237Z" fill="white"/>
<path d="M120.492 163.04H92.8044C91.2594 163.04 90.0068 161.785 90.0068 160.237H123.289C123.29 161.785 122.037 163.04 120.492 163.04Z" fill="#C7D2D7"/>
<path d="M60.3484 93.8925C62.4685 91.6608 65.7157 90.0186 66.1526 86.9688C66.5405 84.2598 64.1994 81.6957 61.5269 81.1314C58.8545 80.5671 56.0697 81.5971 53.8098 83.134C48.0427 87.0562 43.7899 96.0025 46.6189 102.889C51.3086 114.306 57.7273 96.6518 60.3484 93.8925Z" fill="#E1E8D3"/>
<path d="M37.646 71.8866C38.3334 71.8866 38.8906 71.3282 38.8906 70.6394C38.8906 69.9506 38.3334 69.3923 37.646 69.3923C36.9586 69.3923 36.4014 69.9506 36.4014 70.6394C36.4014 71.3282 36.9586 71.8866 37.646 71.8866Z" fill="#CC6164"/>
<path d="M40.9819 71.8866C41.6693 71.8866 42.2266 71.3282 42.2266 70.6394C42.2266 69.9506 41.6693 69.3923 40.9819 69.3923C40.2945 69.3923 39.7373 69.9506 39.7373 70.6394C39.7373 71.3282 40.2945 71.8866 40.9819 71.8866Z" fill="#F0BF6C"/>
<path d="M44.3169 71.8866C45.0043 71.8866 45.5615 71.3282 45.5615 70.6394C45.5615 69.9506 45.0043 69.3923 44.3169 69.3923C43.6295 69.3923 43.0723 69.9506 43.0723 70.6394C43.0723 71.3282 43.6295 71.8866 44.3169 71.8866Z" fill="#62B29A"/>
<path d="M112.262 118.514L102.486 120.983L103.789 150.046H112.262H120.735L122.037 120.983L112.262 118.514Z" fill="#8ACAB7"/>
<path d="M124.041 140.035C121.411 140.136 118.007 140.799 114.765 141.957C111.519 143.103 108.458 144.735 106.353 146.316C108.849 145.475 112 144.264 115.184 143.139C118.363 142.005 121.573 140.957 124.041 140.035Z" fill="#54B196"/>
<path d="M114.542 141.064C111.273 139.696 105.76 138.366 102.228 138.093C105.497 139.461 111.01 140.791 114.542 141.064Z" fill="#54B196"/>
<path d="M127.536 133.252L124.841 136.156L127.87 138.584C128.913 139.42 129.247 140.864 128.677 142.075L124.922 150.046H147.678L143.757 136.776C141.718 129.872 136.194 124.559 129.226 122.799L122.037 120.983L127.825 129.68C128.565 130.794 128.446 132.272 127.536 133.252Z" fill="white"/>
<path d="M96.6531 138.584L99.6817 136.156L96.9865 133.252C96.0771 132.272 95.9581 130.794 96.6991 129.68L102.487 120.983L95.2974 122.799C88.3296 124.559 82.806 129.872 80.7664 136.776L76.8457 150.046H99.6021L95.8472 142.075C95.2764 140.864 95.6099 139.42 96.6531 138.584Z" fill="white"/>
<path d="M102.487 120.983L96.6991 129.68C95.9581 130.794 96.0771 132.272 96.9866 133.252L99.6817 136.156L96.6531 138.584C95.6099 139.42 95.2764 140.864 95.8465 142.075L99.6014 150.046H103.789L102.487 120.983Z" fill="#E4E4E0"/>
<path d="M128.677 142.075C129.247 140.864 128.913 139.42 127.87 138.584L124.842 136.156L127.537 133.252C128.446 132.272 128.565 130.794 127.824 129.68L122.037 120.983L120.734 150.046H124.922L128.677 142.075Z" fill="#E4E4E0"/>
<path d="M89.1948 149.298C89.9583 146.583 90.3662 142.876 90.1554 139.186C89.9609 135.494 89.1495 131.854 88.0938 129.24C88.2787 132.057 88.6273 135.652 88.8182 139.259C89.0234 142.866 89.0702 146.478 89.1948 149.298Z" fill="#E4E4E0"/>
<path d="M135.327 149.298C135.452 146.478 135.499 142.866 135.704 139.259C135.895 135.652 136.244 132.057 136.429 129.24C135.373 131.854 134.561 135.494 134.367 139.186C134.156 142.876 134.564 146.583 135.327 149.298Z" fill="#E4E4E0"/>
<path d="M106.961 117.957C103.165 118.891 100.365 122.001 99.8295 125.882L99.6943 126.862C99.1504 130.807 99.101 134.813 99.5488 138.769L100.244 144.916L101.23 144.804L100.534 138.657C100.096 134.783 100.144 130.86 100.677 126.998L100.812 126.018C101.291 122.543 103.798 119.758 107.197 118.922L107.806 118.772L107.57 117.807L106.961 117.957Z" fill="#495375"/>
<path d="M104.212 146.765C104.212 148.567 102.754 150.027 100.956 150.027C99.1573 150.027 97.6992 148.567 97.6992 146.765C97.6992 144.963 99.157 143.502 100.956 143.502C102.754 143.502 104.212 144.963 104.212 146.765Z" fill="#C7D2D7"/>
<path d="M103.387 146.765C103.387 148.111 102.298 149.201 100.955 149.201C99.6123 149.201 98.5234 148.11 98.5234 146.765C98.5234 145.419 99.6123 144.328 100.955 144.328C102.299 144.328 103.387 145.419 103.387 146.765Z" fill="#99A3B0"/>
<path d="M102.368 146.765C102.368 147.546 101.736 148.18 100.956 148.18C100.176 148.18 99.5439 147.546 99.5439 146.765C99.5439 145.983 100.176 145.35 100.956 145.35C101.736 145.35 102.368 145.983 102.368 146.765Z" fill="#495375"/>
<path d="M123.224 126.662L122.959 123.602C122.709 120.694 120.626 118.332 117.776 117.726L117.48 117.663L117.273 118.635L117.57 118.698C119.989 119.213 121.758 121.218 121.971 123.687L122.234 126.732C119.557 127.155 117.5 129.477 117.5 132.277V133.932H118.492V132.277C118.492 129.726 120.563 127.65 123.109 127.65C125.655 127.65 127.726 129.726 127.726 132.277V133.932H128.718V132.277C128.718 129.216 126.263 126.724 123.224 126.662Z" fill="#495375"/>
<path d="M120.062 145.266C118.763 145.266 117.707 144.207 117.707 142.906V133.931H118.203V142.906C118.203 143.933 119.037 144.769 120.062 144.769V145.266H120.062Z" fill="#C7D2D7"/>
<path d="M120.683 144.569L120.146 144.636C120.098 144.642 120.062 144.682 120.062 144.731V145.283C120.062 145.331 120.099 145.372 120.146 145.378L120.683 145.445C120.946 145.478 121.178 145.272 121.178 145.007C121.178 144.741 120.946 144.536 120.683 144.569Z" fill="#99A3B0"/>
<path d="M126.156 145.266C127.455 145.266 128.511 144.207 128.511 142.906V133.931H128.015V142.906C128.015 143.933 127.181 144.769 126.156 144.769V145.266Z" fill="#C7D2D7"/>
<path d="M125.536 144.569L126.073 144.636C126.121 144.642 126.156 144.682 126.156 144.731V145.283C126.156 145.331 126.121 145.372 126.073 145.378L125.536 145.445C125.273 145.478 125.041 145.272 125.041 145.007C125.041 144.741 125.273 144.536 125.536 144.569Z" fill="#99A3B0"/>
<path d="M104.48 118.514H120.042L112.261 123.557L104.48 118.514Z" fill="#5FA5CC"/>
<path d="M104.48 118.514L112.261 123.557L107.102 130.326L103.788 120.654L104.48 118.514Z" fill="#54B196"/>
<path d="M120.042 118.514L112.262 123.557L117.421 130.326L120.735 120.654L120.042 118.514Z" fill="#54B196"/>
<path d="M118.024 113.552C116.487 116.009 114.418 117.386 112.262 117.386C110.106 117.386 108.036 116.009 106.499 113.552C106.304 113.241 106.115 112.923 105.932 112.597V119.454L112.262 123.557L118.592 119.454V112.597C118.408 112.923 118.219 113.241 118.024 113.552Z" fill="#F0BF9C"/>
<path d="M105.932 104.121V112.597C106.116 112.922 106.305 113.241 106.499 113.552C108.036 116.009 110.106 117.386 112.262 117.386C114.418 117.386 116.487 116.009 118.024 113.552C118.219 113.241 118.408 112.923 118.592 112.597V104.121H105.932Z" fill="#422C4F"/>
<path d="M100.934 99.6009C100.934 101.762 99.1849 103.515 97.0274 103.515C94.8703 103.515 93.1211 101.763 93.1211 99.6009C93.1211 97.439 94.8699 95.6866 97.0274 95.6866C99.1849 95.6866 100.934 97.439 100.934 99.6009Z" fill="#EBA588"/>
<path d="M99.1893 99.6009C99.1893 100.797 98.2217 101.767 97.0278 101.767C95.8339 101.767 94.8662 100.797 94.8662 99.6009C94.8662 98.4045 95.8339 97.4349 97.0278 97.4349C98.2217 97.4349 99.1893 98.4045 99.1893 99.6009Z" fill="#E78882"/>
<path d="M127.494 103.515C129.652 103.515 131.401 101.763 131.401 99.6009C131.401 97.4391 129.652 95.6866 127.494 95.6866C125.337 95.6866 123.588 97.4391 123.588 99.6009C123.588 101.763 125.337 103.515 127.494 103.515Z" fill="#EBA588"/>
<path d="M127.495 101.767C128.688 101.767 129.656 100.797 129.656 99.6009C129.656 98.4046 128.688 97.4349 127.495 97.4349C126.301 97.4349 125.333 98.4046 125.333 99.6009C125.333 100.797 126.301 101.767 127.495 101.767Z" fill="#E78882"/>
<path d="M112.261 76.2203C104.539 76.2203 98.2783 82.4928 98.2783 90.2308V95.9809C98.2783 101.702 100.571 107.183 104.642 111.194C106.675 113.196 109.411 114.318 112.261 114.318C115.111 114.318 117.847 113.196 119.879 111.194C123.95 107.183 126.243 101.702 126.243 95.9809V90.2308C126.243 82.4932 119.983 76.2203 112.261 76.2203Z" fill="#F0BF9C"/>
<path d="M120.554 84.8113C121.396 91.4349 125.826 100.183 125.826 100.183C126.904 96.2586 128.352 87.5912 127.45 83.6223C127.068 81.9438 126.268 80.2701 124.842 79.3108C123.48 78.3948 121.363 78.3936 120.424 79.7421C119.581 80.9535 120.368 83.3469 120.554 84.8113Z" fill="#8C404C"/>
<path d="M103.967 84.8113C103.126 91.4349 98.696 100.183 98.696 100.183C97.6185 96.2586 96.1696 87.5912 97.0724 83.6223C97.4542 81.9438 98.2534 80.2701 99.6802 79.3108C101.042 78.3948 103.16 78.3936 104.098 79.7421C104.94 80.9535 104.153 83.3469 103.967 84.8113Z" fill="#8C404C"/>
<path d="M122.306 83.2572C121.961 86.0146 120.317 88.5047 118.156 90.246C115.994 91.9873 113.349 93.0377 110.653 93.6898C104.616 95.1505 98.13 94.683 92.3643 92.3716C94.0737 91.8573 95.122 89.8664 95.7046 88.1761C96.2876 86.4857 96.4353 84.6769 96.9074 82.9522C98.0335 78.8386 101.101 75.3039 105.01 73.6158C108.92 71.9276 113.591 72.1211 117.348 74.1261C120.446 75.7795 122.743 79.7675 122.306 83.2572Z" fill="#8C404C"/>
<path d="M107.113 96.7142C107.113 97.3681 106.583 97.8983 105.931 97.8983C105.278 97.8983 104.749 97.3681 104.749 96.7142C104.749 96.0603 105.278 95.5301 105.931 95.5301C106.583 95.5301 107.113 96.0603 107.113 96.7142Z" fill="#422C4F"/>
<path d="M118.591 97.8983C119.244 97.8983 119.773 97.3682 119.773 96.7142C119.773 96.0602 119.244 95.5301 118.591 95.5301C117.938 95.5301 117.409 96.0602 117.409 96.7142C117.409 97.3682 117.938 97.8983 118.591 97.8983Z" fill="#422C4F"/>
<path d="M118.86 91.8883C117.42 91.844 116.123 92.4957 115.28 93.5362L122.332 93.7529C121.555 92.6629 120.3 91.9326 118.86 91.8883Z" fill="#8C404C"/>
<path d="M114.31 101.889C112.986 101.575 111.581 101.612 110.275 101.995C110.621 102.728 111.423 103.203 112.232 103.221C113.041 103.239 113.932 102.606 114.31 101.889Z" fill="#EBA588"/>
<path d="M117.826 104.751C114.251 105.623 110.571 106.058 106.892 106.044C107.744 108.306 110.276 109.905 112.68 109.703C115.085 109.502 117.361 107.124 117.826 104.751Z" fill="white"/>
<path d="M118.908 82.9201C117.817 84.0093 116.517 85.1624 115.016 86.2029C113.519 87.2464 111.826 88.1772 110.045 88.8998C108.262 89.6158 106.398 90.1205 104.597 90.4089C102.795 90.7017 101.061 90.7733 99.5205 90.7463C100.971 91.2544 102.768 91.5638 104.699 91.5036C106.627 91.4501 108.677 91.0299 110.592 90.2597C112.505 89.485 114.273 88.3637 115.7 87.0625C117.133 85.765 118.215 84.2936 118.908 82.9201Z" fill="#A64F5A"/>
<path d="M114.957 83.6475C112.74 84.7156 109.82 85.8267 106.759 86.331C103.702 86.8624 100.58 86.7737 98.1357 86.4946C99.2559 87.0012 100.642 87.4092 102.164 87.5968C103.686 87.788 105.339 87.7589 106.954 87.4871C108.568 87.2124 110.139 86.6958 111.513 86.0146C112.89 85.3363 114.065 84.4945 114.957 83.6475Z" fill="#A64F5A"/>
<path d="M115.232 75.9409C114.013 77.3539 112.389 79.0845 110.538 80.5548C108.697 82.0384 106.653 83.2413 105.008 84.1201C106.843 83.8059 109.165 82.8045 111.091 81.2489C113.031 79.7118 114.52 77.6644 115.232 75.9409Z" fill="#A64F5A"/>
<path d="M68.3186 109.455H23.885C22.2156 109.455 20.8623 108.099 20.8623 106.426V58.9354C20.8623 57.2626 22.2156 55.9066 23.885 55.9066H68.3186C69.9881 55.9066 71.3413 57.2626 71.3413 58.9354V106.426C71.3413 108.099 69.9881 109.455 68.3186 109.455Z" fill="#454F6B"/>
<path d="M69.8294 58.9354C69.8294 58.1004 69.1514 57.421 68.318 57.421H23.8844C23.051 57.421 22.373 58.1004 22.373 58.9354V61.9027H69.8294V58.9354Z" fill="#402C49"/>
<path d="M22.373 61.9031V106.426C22.373 107.261 23.051 107.941 23.8844 107.941H68.318C69.1514 107.941 69.8294 107.261 69.8294 106.426V61.9031H22.373Z" fill="#E8E8E8"/>
<path d="M25.2415 60.6085C25.7632 60.6085 26.1861 60.1847 26.1861 59.662C26.1861 59.1393 25.7632 58.7155 25.2415 58.7155C24.7198 58.7155 24.2969 59.1393 24.2969 59.662C24.2969 60.1847 24.7198 60.6085 25.2415 60.6085Z" fill="#CC6164"/>
<path d="M27.7737 60.6085C28.2954 60.6085 28.7183 60.1847 28.7183 59.662C28.7183 59.1393 28.2954 58.7155 27.7737 58.7155C27.252 58.7155 26.8291 59.1393 26.8291 59.662C26.8291 60.1847 27.252 60.6085 27.7737 60.6085Z" fill="#F0BF6C"/>
<path d="M30.3049 60.6085C30.8266 60.6085 31.2495 60.1847 31.2495 59.662C31.2495 59.1393 30.8266 58.7155 30.3049 58.7155C29.7833 58.7155 29.3604 59.1393 29.3604 59.662C29.3604 60.1847 29.7833 60.6085 30.3049 60.6085Z" fill="#62B29A"/>
<path d="M28.1607 100.011C25.7812 96.9604 25.0832 92.3157 27.4413 89.2485C28.3021 88.1287 29.5248 87.2443 30.0299 85.9244C30.7641 84.0059 29.7367 81.8785 28.5418 80.2087C27.3472 78.539 25.9 76.8828 25.6793 74.8402C25.4263 72.4993 27.1218 70.1047 29.4105 69.571C31.3233 69.1249 33.3304 69.8781 34.9653 70.9685C36.6003 72.0589 37.9902 73.4818 39.5979 74.6115C41.2057 75.7416 43.1559 76.5884 45.0962 76.2831C48.9417 75.6783 50.8418 71.0957 54.3783 69.4656C56.4159 68.5264 58.9299 68.7139 60.8064 69.9451C62.6829 71.1763 63.8593 73.4103 63.8149 75.6574C63.7704 77.8923 62.6121 80.0861 63.048 82.2786C63.4539 84.3203 65.1406 85.8393 66.0365 87.7177C67.4055 90.5887 66.7623 94.1354 65.0028 96.7838C63.243 99.4325 60.5183 101.296 57.6685 102.699C50.4542 106.252 40.8587 108.043 33.4597 104.209C31.4457 103.166 29.5659 101.812 28.1607 100.011Z" fill="#E8E8E8"/>
<path d="M36.367 70.8377C35.238 70.1344 34.3907 68.7963 34.6773 67.4954C34.9937 66.0588 36.4833 65.2329 37.8647 64.734C39.581 64.1143 41.3753 63.7106 43.1913 63.5355C44.4986 63.4095 45.8476 63.4065 47.0894 63.8354C48.3311 64.2646 49.4585 65.1859 49.8651 66.4371C50.3176 67.8289 49.7907 69.4196 48.7727 70.4691C47.7547 71.5185 46.318 72.0801 44.8734 72.2957C42.2727 72.6843 38.6506 72.2603 36.367 70.8377Z" fill="#E8E8E8"/>
<path d="M46.1016 90.864L40.8076 92.2012L41.5128 107.941H46.1016H50.6903L51.3955 92.2012L46.1016 90.864Z" fill="#56438C"/>
<path d="M52.4816 102.519C51.0576 102.574 49.2143 102.933 47.4585 103.56C45.7005 104.18 44.0428 105.065 42.9023 105.921C44.2541 105.465 45.9607 104.809 47.6848 104.2C49.4072 103.585 51.1452 103.018 52.4816 102.519Z" fill="#433672"/>
<path d="M47.3372 103.076C45.5668 102.336 42.581 101.615 40.668 101.467C42.4387 102.208 45.4245 102.928 47.3372 103.076Z" fill="#433672"/>
<path d="M54.3744 98.8455L52.9147 100.418L54.5548 101.733C55.1198 102.186 55.3005 102.968 54.9916 103.624L52.9579 107.941H65.2818L63.1583 100.754C62.0535 97.0152 59.0623 94.1378 55.2891 93.1847L51.3955 92.2012L54.5297 96.9113C54.9312 97.5143 54.8668 98.3145 54.3744 98.8455Z" fill="white"/>
<path d="M37.6491 101.733L39.2892 100.418L37.8296 98.8455C37.3369 98.3145 37.2725 97.5143 37.6739 96.9113L40.8081 92.2012L36.9146 93.1847C33.1414 94.1378 30.1498 97.0152 29.0453 100.754L26.9219 107.941H39.2457L37.212 103.624C36.9034 102.968 37.0842 102.186 37.6491 101.733Z" fill="white"/>
<path d="M40.808 92.2012L37.6737 96.9113C37.2723 97.5143 37.3367 98.3149 37.8294 98.8455L39.2891 100.418L37.6489 101.733C37.084 102.186 36.9032 102.968 37.2122 103.624L39.2458 107.941H41.5135L40.808 92.2012Z" fill="#E4E4E0"/>
<path d="M54.9914 103.623C55.3 102.968 55.1196 102.186 54.5546 101.733L52.9145 100.418L54.3742 98.8452C54.8669 98.3142 54.9313 97.514 54.5299 96.911L51.3956 92.2009L50.6904 107.94H52.9581L54.9914 103.623Z" fill="#E4E4E0"/>
<path d="M33.6101 107.535C34.0236 106.065 34.2445 104.057 34.1303 102.059C34.0251 100.06 33.5856 98.0886 33.0137 96.6727C33.1137 98.198 33.3026 100.145 33.406 102.099C33.517 104.052 33.5427 106.008 33.6101 107.535Z" fill="#E4E4E0"/>
<path d="M58.5931 107.535C58.6605 106.008 58.6859 104.052 58.7972 102.099C58.9005 100.145 59.0894 98.198 59.1895 96.6727C58.6176 98.0886 58.1781 100.06 58.0729 102.059C57.9587 104.057 58.1796 106.065 58.5931 107.535Z" fill="#E4E4E0"/>
<path d="M41.8877 90.864H50.315L46.1013 96.288L41.8877 90.864Z" fill="#56438C"/>
<path d="M41.8878 90.864L46.1015 96.288L43.3076 98.8246L41.5127 92.0231L41.8878 90.864Z" fill="#6C6FC3"/>
<path d="M50.3152 90.864L46.1016 96.288L48.8954 98.8246L50.6903 92.0231L50.3152 90.864Z" fill="#6C6FC3"/>
<path d="M49.2218 88.1766C48.3894 89.5071 47.2686 90.2528 46.1009 90.2528C44.9332 90.2528 43.8124 89.5071 42.98 88.1766C42.8745 88.0082 42.7723 87.8358 42.6729 87.6599V91.8678L46.1009 96.288L49.5289 91.8678V87.6599C49.4295 87.8358 49.327 88.0082 49.2218 88.1766Z" fill="#BD6C67"/>
<path d="M42.6729 83.0695V87.6599C42.7723 87.8359 42.8748 88.0082 42.98 88.1766C43.8124 89.5072 44.9332 90.2528 46.1009 90.2528C47.2686 90.2528 48.3891 89.5072 49.2218 88.1766C49.3273 88.0082 49.4295 87.8359 49.5292 87.6599V83.0695H42.6729Z" fill="#422C4F"/>
<path d="M46.102 85.3225C52.0096 85.3225 56.7987 80.5238 56.7987 74.6042C56.7987 68.6847 52.0096 63.8859 46.102 63.8859C40.1944 63.8859 35.4053 68.6847 35.4053 74.6042C35.4053 80.5238 40.1944 85.3225 46.102 85.3225Z" fill="#422C4F"/>
<path d="M39.8035 80.4071C39.8035 81.6092 38.8311 82.5839 37.6311 82.5839C36.4314 82.5839 35.459 81.6092 35.459 80.4071C35.459 79.205 36.4314 78.2303 37.6311 78.2303C38.8308 78.2306 39.8035 79.205 39.8035 80.4071Z" fill="#A64F5A"/>
<path d="M38.833 80.4071C38.833 81.0722 38.2949 81.6116 37.6308 81.6116C36.967 81.6116 36.4287 81.0722 36.4287 80.4071C36.4287 79.7419 36.9667 79.2025 37.6308 79.2025C38.2949 79.2028 38.833 79.7419 38.833 80.4071Z" fill="#8C404C"/>
<path d="M52.4014 80.4071C52.4014 81.6092 53.3741 82.5839 54.5738 82.5839C55.7735 82.5839 56.7462 81.6092 56.7462 80.4071C56.7462 79.205 55.7735 78.2303 54.5738 78.2303C53.3741 78.2303 52.4014 79.205 52.4014 80.4071Z" fill="#A64F5A"/>
<path d="M54.5732 81.6116C55.2371 81.6116 55.7753 81.0723 55.7753 80.4071C55.7753 79.7418 55.2371 79.2025 54.5732 79.2025C53.9093 79.2025 53.3711 79.7418 53.3711 80.4071C53.3711 81.0723 53.9093 81.6116 54.5732 81.6116Z" fill="#8C404C"/>
<path d="M46.1018 70.3101C41.8074 70.3101 38.3262 70.8934 38.3262 75.1967V78.3945C38.3262 81.576 39.6011 84.6238 41.8651 86.8545C42.9953 87.9679 44.5167 88.5919 46.1018 88.5919C47.6866 88.5919 49.2082 87.9679 50.3384 86.8545C52.6024 84.6241 53.8776 81.576 53.8776 78.3945V75.1967C53.8773 70.8934 50.3961 70.3101 46.1018 70.3101Z" fill="#BD6C67"/>
<path d="M43.2391 78.8018C43.2391 79.1656 42.9447 79.4603 42.5819 79.4603C42.2189 79.4603 41.9248 79.1653 41.9248 78.8018C41.9248 78.4384 42.2192 78.1434 42.5819 78.1434C42.945 78.1434 43.2391 78.4384 43.2391 78.8018Z" fill="#422C4F"/>
<path d="M48.9648 78.8018C48.9648 79.1656 49.2593 79.4603 49.622 79.4603C49.985 79.4603 50.2791 79.1653 50.2791 78.8018C50.2791 78.4384 49.985 78.1434 49.622 78.1434C49.2593 78.1434 48.9648 78.4384 48.9648 78.8018Z" fill="#422C4F"/>
<path d="M42.2441 75.4541C41.3587 75.5671 40.6445 76.1177 40.2881 76.8452C41.6752 76.5847 43.0777 76.4054 44.486 76.3085C43.9588 75.694 43.1294 75.3405 42.2441 75.4541Z" fill="#422C4F"/>
<path d="M49.9607 75.4541C50.846 75.5671 51.5603 76.1177 51.9167 76.8452C50.5296 76.5847 49.127 76.4054 47.7188 76.3085C48.2459 75.694 49.0753 75.3405 49.9607 75.4541Z" fill="#422C4F"/>
<path d="M48.2862 81.6329C46.8516 81.4941 45.4001 81.5326 43.9746 81.747C44.5634 82.3077 45.3209 82.7153 46.1331 82.6941C46.945 82.6729 47.727 82.2238 48.2862 81.6329Z" fill="#A64F5A"/>
<path d="M41.9248 81.4672C42.4332 81.4239 43.0492 81.168 43.5601 80.7663C44.0733 80.3678 44.4705 79.831 44.6362 79.3474C44.193 79.6033 43.7085 79.9695 43.2297 80.3423C42.7524 80.7167 42.28 81.0986 41.9248 81.4672Z" fill="#B56361"/>
<path d="M50.2797 81.4672C49.7713 81.4239 49.1553 81.168 48.6444 80.7663C48.1312 80.3678 47.734 79.831 47.5684 79.3474C48.0115 79.6033 48.496 79.9695 48.9748 80.3423C49.4518 80.7167 49.9242 81.0986 50.2797 81.4672Z" fill="#B56361"/>
<path d="M48.6825 83.7327C47.0119 84.2182 45.2593 84.4181 43.5225 84.3215C44.1013 85.1595 45.2406 85.6666 46.2535 85.5754C47.2667 85.4839 48.2621 84.6607 48.6825 83.7327Z" fill="white"/>
<path d="M47.5439 86.0983C46.6519 86.1416 45.7602 86.1846 44.8682 86.2279C45.2614 86.5087 45.7405 86.6704 46.2232 86.6601C46.706 86.6495 47.163 86.3957 47.5439 86.0983Z" fill="#A64F5A"/>
</g>
</svg>
