<svg width="36" height="36" viewBox="0 0 36 36" fill="none" xmlns="http://www.w3.org/2000/svg">
<g clip-path="url(#clip0_4419_48811)">
<mask id="mask0_4419_48811" style="mask-type:alpha" maskUnits="userSpaceOnUse" x="0" y="4" width="36" height="28">
<path d="M36.0016 4.2002H0.601562V31.837H36.0016V4.2002Z" fill="#D9D9D9"/>
</mask>
<g mask="url(#mask0_4419_48811)">
<path d="M34.1349 29.5389H2.53125V11.3992C2.53125 10.6502 3.14248 10.043 3.89639 10.043H32.7697C33.5237 10.043 34.1349 10.6502 34.1349 11.3992L34.1349 29.5389Z" fill="white"/>
<path d="M2.98828 29.5389V11.3993C2.98828 10.9007 3.39656 10.4951 3.89835 10.4951H32.7717C33.2735 10.4951 33.6818 10.9008 33.6818 11.3993V29.5389L2.98828 29.5389Z" fill="#402C49"/>
<path d="M32.3148 28.1824V11.8511H4.35156V28.1824H32.3148Z" fill="#CDDDDD"/>
<path d="M33.6855 31.3066H2.98317C2.19193 31.3066 1.41955 31.0664 0.769531 30.6182H35.899C35.249 31.0664 34.4767 31.3066 33.6855 31.3066Z" fill="#C7D2D7"/>
<path d="M35.899 29.5386H0.769531V30.6127H35.899V29.5386Z" fill="white"/>
<path d="M21.0079 30.0756H15.6577C15.3592 30.0756 15.1172 29.8352 15.1172 29.5386H21.5484C21.5485 29.8352 21.3065 30.0756 21.0079 30.0756Z" fill="#C7D2D7"/>
<path d="M5.00222 12.6117C5.13505 12.6117 5.24273 12.5047 5.24273 12.3728C5.24273 12.2408 5.13505 12.1338 5.00222 12.1338C4.86939 12.1338 4.76172 12.2408 4.76172 12.3728C4.76172 12.5047 4.86939 12.6117 5.00222 12.6117Z" fill="#CC6164"/>
<path d="M5.64675 12.6117C5.77958 12.6117 5.88726 12.5047 5.88726 12.3728C5.88726 12.2408 5.77958 12.1338 5.64675 12.1338C5.51393 12.1338 5.40625 12.2408 5.40625 12.3728C5.40625 12.5047 5.51393 12.6117 5.64675 12.6117Z" fill="#F0BF6C"/>
<path d="M6.29132 12.6117C6.4241 12.6117 6.5318 12.5047 6.5318 12.3728C6.5318 12.2408 6.4241 12.1338 6.29132 12.1338C6.15848 12.1338 6.05078 12.2408 6.05078 12.3728C6.05078 12.5047 6.15848 12.6117 6.29132 12.6117Z" fill="#62B29A"/>
<path d="M19.4202 21.5449L17.5312 22.018L17.7829 27.5862H19.4202H21.0575L21.3091 22.018L19.4202 21.5449Z" fill="#8ACAB7"/>
<path d="M21.6953 25.6685C21.1872 25.6877 20.5295 25.8149 19.903 26.0367C19.2758 26.2563 18.6843 26.569 18.2773 26.8719C18.7597 26.7108 19.3686 26.4786 19.9839 26.2632C20.5983 26.0458 21.2184 25.8451 21.6953 25.6685Z" fill="#54B196"/>
<path d="M19.8601 25.8656C19.2284 25.6036 18.163 25.3488 17.4805 25.2964C18.1122 25.5584 19.1776 25.8132 19.8601 25.8656Z" fill="#54B196"/>
<path d="M22.3713 24.3686L21.8505 24.9251L22.4357 25.3902C22.6372 25.5504 22.7017 25.8271 22.5916 26.059L21.866 27.5862H26.2633L25.5057 25.0438C25.1115 23.7211 24.0441 22.7032 22.6978 22.3659L21.3086 22.0181L22.4269 23.6844C22.57 23.8977 22.547 24.1808 22.3713 24.3686Z" fill="white"/>
<path d="M16.4017 25.3902L16.9869 24.9251L16.4661 24.3686C16.2904 24.1808 16.2673 23.8977 16.4106 23.6844L17.5289 22.0181L16.1397 22.3659C14.7933 22.7031 13.7259 23.7211 13.3318 25.0438L12.5742 27.5862H16.9715L16.2459 26.059C16.1356 25.8271 16.2001 25.5504 16.4017 25.3902Z" fill="white"/>
<path d="M17.5318 22.0181L16.4134 23.6844C16.2703 23.8977 16.2933 24.1809 16.469 24.3686L16.9898 24.9251L16.4046 25.3902C16.203 25.5504 16.1385 25.8271 16.2487 26.059L16.9743 27.5862H17.7834L17.5318 22.0181Z" fill="#EFF5F5"/>
<path d="M22.5894 26.059C22.6995 25.8271 22.6351 25.5504 22.4335 25.3902L21.8483 24.9251L22.3691 24.3686C22.5448 24.1808 22.5678 23.8977 22.4246 23.6844L21.3063 22.0181L21.0547 27.5862H21.8637L22.5894 26.059Z" fill="#EFF5F5"/>
<path d="M14.9628 27.443C15.1103 26.9229 15.1891 26.2127 15.1484 25.5056C15.1108 24.7984 14.954 24.101 14.75 23.6001C14.7858 24.1398 14.8531 24.8287 14.89 25.5197C14.9297 26.2107 14.9387 26.9027 14.9628 27.443Z" fill="#EFF5F5"/>
<path d="M23.876 27.443C23.9001 26.9027 23.9092 26.2107 23.9488 25.5197C23.9856 24.8287 24.0531 24.1398 24.0888 23.6001C23.8848 24.101 23.728 24.7984 23.6904 25.5056C23.6496 26.2127 23.7285 26.923 23.876 27.443Z" fill="#EFF5F5"/>
<path d="M18.3932 21.4383C17.6596 21.6172 17.1186 22.2131 17.0151 22.9566L16.989 23.1445C16.8839 23.9001 16.8743 24.6677 16.9608 25.4256L17.0953 26.6033L17.2857 26.5818L17.1513 25.4042C17.0666 24.662 17.0759 23.9105 17.1788 23.1705L17.2049 22.9827C17.2976 22.317 17.782 21.7833 18.4388 21.6231L18.5565 21.5945L18.5108 21.4097L18.3932 21.4383Z" fill="#495375"/>
<path d="M17.8638 26.9577C17.8638 27.3029 17.5821 27.5827 17.2347 27.5827C16.8872 27.5827 16.6055 27.3029 16.6055 26.9577C16.6055 26.6124 16.8872 26.3325 17.2347 26.3325C17.5821 26.3326 17.8638 26.6124 17.8638 26.9577Z" fill="#C7D2D7"/>
<path d="M17.7055 26.9576C17.7055 27.2154 17.495 27.4244 17.2356 27.4244C16.976 27.4244 16.7656 27.2153 16.7656 26.9576C16.7656 26.6997 16.976 26.4907 17.2356 26.4907C17.4951 26.4907 17.7055 26.6997 17.7055 26.9576Z" fill="#99A3B0"/>
<path d="M17.5067 26.9576C17.5067 27.1072 17.3845 27.2287 17.2338 27.2287C17.0831 27.2287 16.9609 27.1072 16.9609 26.9576C16.9609 26.8078 17.0832 26.6865 17.2338 26.6865C17.3845 26.6865 17.5067 26.8079 17.5067 26.9576Z" fill="#495375"/>
<path d="M21.5365 23.1065L21.4854 22.5201C21.437 21.9629 21.0345 21.5105 20.4839 21.3944L20.4266 21.3823L20.3867 21.5685L20.444 21.5806C20.9115 21.6793 21.2534 22.0634 21.2945 22.5365L21.3453 23.1199C20.828 23.2009 20.4306 23.6458 20.4306 24.1822V24.4992H20.6222V24.1822C20.6222 23.6934 21.0224 23.2958 21.5144 23.2958C22.0064 23.2958 22.4066 23.6934 22.4066 24.1822V24.4992H22.5982V24.1822C22.5983 23.5958 22.1238 23.1183 21.5365 23.1065Z" fill="#495375"/>
<path d="M20.9278 26.6705C20.6768 26.6705 20.4727 26.4677 20.4727 26.2184V24.499H20.5685V26.2184C20.5685 26.4152 20.7296 26.5753 20.9277 26.5753L20.9278 26.6705Z" fill="#C7D2D7"/>
<path d="M21.0457 26.5368L20.942 26.5496C20.9327 26.5507 20.9258 26.5585 20.9258 26.5678V26.6735C20.9258 26.6828 20.9328 26.6906 20.942 26.6917L21.0457 26.7046C21.0965 26.7109 21.1414 26.6716 21.1414 26.6207C21.1412 26.5698 21.0965 26.5305 21.0457 26.5368Z" fill="#99A3B0"/>
<path d="M22.1055 26.6705C22.3564 26.6705 22.5606 26.4677 22.5606 26.2184V24.499H22.4647V26.2184C22.4647 26.4152 22.3035 26.5753 22.1055 26.5753V26.6705Z" fill="#C7D2D7"/>
<path d="M21.9823 26.5368L22.086 26.5496C22.0953 26.5507 22.1022 26.5585 22.1022 26.5678V26.6735C22.1022 26.6828 22.0953 26.6906 22.086 26.6917L21.9823 26.7046C21.9315 26.7109 21.8867 26.6716 21.8867 26.6207C21.8867 26.5698 21.9315 26.5305 21.9823 26.5368Z" fill="#99A3B0"/>
<path d="M17.9141 21.5449H20.921L19.4175 22.511L17.9141 21.5449Z" fill="#5FA5CC"/>
<path d="M17.915 21.5449L19.4185 22.511L18.4217 23.808L17.7812 21.955L17.915 21.5449Z" fill="#54B196"/>
<path d="M20.9214 21.5449L19.418 22.511L20.4149 23.808L21.0552 21.955L20.9214 21.5449Z" fill="#54B196"/>
<path d="M20.532 20.5945C20.235 21.0653 19.8351 21.3291 19.4184 21.3291C19.0019 21.3291 18.6019 21.0653 18.3049 20.5945C18.2673 20.5349 18.2308 20.474 18.1953 20.4116V21.7253L19.4184 22.5113L20.6416 21.7253V20.4116C20.6061 20.474 20.5696 20.5349 20.532 20.5945Z" fill="#F0BF9C"/>
<path d="M18.1953 18.7876V20.4116C18.2308 20.4738 18.2674 20.5349 18.3049 20.5945C18.6019 21.0653 19.0019 21.329 19.4184 21.329C19.8351 21.329 20.235 21.0653 20.532 20.5945C20.5696 20.5349 20.6061 20.474 20.6416 20.4116V18.7876H18.1953Z" fill="#422C4F"/>
<path d="M17.2284 17.9218C17.2284 18.3359 16.8905 18.6717 16.4736 18.6717C16.0567 18.6717 15.7188 18.336 15.7188 17.9218C15.7188 17.5076 16.0567 17.1719 16.4736 17.1719C16.8905 17.1719 17.2284 17.5076 17.2284 17.9218Z" fill="#EBA588"/>
<path d="M16.894 17.9218C16.894 18.1509 16.707 18.3368 16.4763 18.3368C16.2456 18.3368 16.0586 18.151 16.0586 17.9218C16.0586 17.6926 16.2456 17.5068 16.4763 17.5068C16.707 17.5068 16.894 17.6926 16.894 17.9218Z" fill="#E78882"/>
<path d="M22.3642 18.6717C22.7811 18.6717 23.119 18.3359 23.119 17.9218C23.119 17.5076 22.7811 17.1719 22.3642 17.1719C21.9474 17.1719 21.6094 17.5076 21.6094 17.9218C21.6094 18.3359 21.9474 18.6717 22.3642 18.6717Z" fill="#EBA588"/>
<path d="M22.363 18.3368C22.5937 18.3368 22.7807 18.1509 22.7807 17.9218C22.7807 17.6926 22.5937 17.5068 22.363 17.5068C22.1323 17.5068 21.9453 17.6926 21.9453 17.9218C21.9453 18.1509 22.1323 18.3368 22.363 18.3368Z" fill="#E78882"/>
<path d="M19.4206 13.4419C17.9285 13.4419 16.7188 14.6436 16.7188 16.1262V17.2278C16.7188 18.3239 17.1618 19.3739 17.9485 20.1424C18.3412 20.526 18.8699 20.741 19.4206 20.741C19.9713 20.741 20.5 20.526 20.8927 20.1424C21.6794 19.3739 22.1225 18.3239 22.1225 17.2278V16.1262C22.1225 14.6437 20.9127 13.4419 19.4206 13.4419Z" fill="#F0BF9C"/>
<path d="M21.0209 15.0878C21.1835 16.3568 22.0396 18.0329 22.0396 18.0329C22.2478 17.281 22.5277 15.6205 22.3533 14.86C22.2795 14.5385 22.125 14.2178 21.8493 14.034C21.5862 13.8585 21.177 13.8583 20.9958 14.1166C20.8328 14.3488 20.9849 14.8073 21.0209 15.0878Z" fill="#8C404C"/>
<path d="M17.8168 15.0878C17.6542 16.3568 16.7982 18.0329 16.7982 18.0329C16.59 17.281 16.31 15.6205 16.4845 14.86C16.5582 14.5385 16.7126 14.2178 16.9883 14.034C17.2516 13.8585 17.6607 13.8583 17.842 14.1166C18.0048 14.3488 17.8527 14.8073 17.8168 15.0878Z" fill="#8C404C"/>
<path d="M21.36 14.7902C21.2934 15.3185 20.9757 15.7956 20.558 16.1292C20.1403 16.4628 19.6291 16.664 19.1082 16.7889C17.9417 17.0688 16.6884 16.9793 15.5742 16.5364C15.9046 16.4379 16.1071 16.0565 16.2197 15.7326C16.3324 15.4088 16.3609 15.0622 16.4521 14.7317C16.6697 13.9436 17.2624 13.2664 18.0179 12.943C18.7734 12.6195 19.6759 12.6566 20.4019 13.0407C21.0006 13.3575 21.4444 14.1216 21.36 14.7902Z" fill="#8C404C"/>
<path d="M18.4255 17.3685C18.4255 17.4937 18.3232 17.5953 18.1971 17.5953C18.0709 17.5953 17.9688 17.4937 17.9688 17.3685C17.9688 17.2432 18.071 17.1416 18.1971 17.1416C18.3232 17.1416 18.4255 17.2432 18.4255 17.3685Z" fill="#422C4F"/>
<path d="M20.6424 17.5953C20.7685 17.5953 20.8707 17.4937 20.8707 17.3685C20.8707 17.2432 20.7685 17.1416 20.6424 17.1416C20.5162 17.1416 20.4141 17.2432 20.4141 17.3685C20.4141 17.4937 20.5162 17.5953 20.6424 17.5953Z" fill="#422C4F"/>
<path d="M20.6956 16.4438C20.4174 16.4353 20.1667 16.5601 20.0039 16.7595L21.3666 16.801C21.2164 16.5922 20.9739 16.4522 20.6956 16.4438Z" fill="#8C404C"/>
<path d="M19.8148 18.3598C19.559 18.2996 19.2875 18.3067 19.0352 18.3802C19.102 18.5206 19.2569 18.6117 19.4132 18.6151C19.5695 18.6184 19.7417 18.4971 19.8148 18.3598Z" fill="#EBA588"/>
<path d="M20.4958 18.9082C19.805 19.0752 19.0938 19.1586 18.3828 19.1559C18.5475 19.5893 19.0368 19.8957 19.5014 19.857C19.966 19.8185 20.4059 19.3628 20.4958 18.9082Z" fill="white"/>
<path d="M20.7034 14.7256C20.4925 14.9343 20.2414 15.1552 19.9513 15.3545C19.662 15.5544 19.3348 15.7328 18.9908 15.8712C18.6462 16.0084 18.286 16.1051 17.938 16.1604C17.5898 16.2165 17.2547 16.2301 16.957 16.225C17.2372 16.3224 17.5846 16.3816 17.9576 16.3701C18.3303 16.3598 18.7265 16.2793 19.0964 16.1317C19.466 15.9834 19.8077 15.7685 20.0834 15.5192C20.3604 15.2706 20.5694 14.9887 20.7034 14.7256Z" fill="#A64F5A"/>
<path d="M19.9379 14.8652C19.5095 15.0699 18.9452 15.2827 18.3538 15.3794C17.7631 15.4812 17.1598 15.4642 16.6875 15.4107C16.904 15.5078 17.1718 15.586 17.466 15.6219C17.7599 15.6585 18.0793 15.6529 18.3914 15.6008C18.7034 15.5482 19.0069 15.4493 19.2724 15.3188C19.5385 15.1888 19.7656 15.0275 19.9379 14.8652Z" fill="#A64F5A"/>
<path d="M19.9912 13.3887C19.7556 13.6594 19.4419 13.991 19.0842 14.2727C18.7285 14.5569 18.3336 14.7874 18.0156 14.9558C18.3703 14.8955 18.819 14.7037 19.1911 14.4057C19.566 14.1111 19.8536 13.7189 19.9912 13.3887Z" fill="#A64F5A"/>
<path d="M13.7003 19.7999H2.53311C2.11354 19.7999 1.77344 19.4621 1.77344 19.0453V7.21122C1.77344 6.7944 2.11354 6.45654 2.53311 6.45654H13.7003C14.1199 6.45654 14.46 6.7944 14.46 7.21122V19.0451C14.46 19.4621 14.1199 19.7999 13.7003 19.7999Z" fill="#454F6B"/>
<path d="M14.0831 7.21132C14.0831 7.00324 13.9127 6.83398 13.7032 6.83398H2.53609C2.32664 6.83398 2.15625 7.00324 2.15625 7.21132V7.95076H14.0831V7.21132Z" fill="#402C49"/>
<path d="M2.15625 7.95068V19.0452C2.15625 19.2533 2.32664 19.4226 2.53609 19.4226H13.7032C13.9127 19.4226 14.0831 19.2533 14.0831 19.0452V7.95068H2.15625Z" fill="#E8E8E8"/>
<path d="M2.87411 7.62791C3.00523 7.62791 3.11151 7.52237 3.11151 7.39211C3.11151 7.26185 3.00523 7.15625 2.87411 7.15625C2.743 7.15625 2.63672 7.26185 2.63672 7.39211C2.63672 7.52237 2.743 7.62791 2.87411 7.62791Z" fill="#CC6164"/>
<path d="M3.51084 7.62791C3.64195 7.62791 3.74824 7.52237 3.74824 7.39211C3.74824 7.26185 3.64195 7.15625 3.51084 7.15625C3.37973 7.15625 3.27344 7.26185 3.27344 7.39211C3.27344 7.52237 3.37973 7.62791 3.51084 7.62791Z" fill="#F0BF6C"/>
<path d="M4.14755 7.62791C4.27866 7.62791 4.38495 7.52237 4.38495 7.39211C4.38495 7.26185 4.27866 7.15625 4.14755 7.15625C4.01645 7.15625 3.91016 7.26185 3.91016 7.39211C3.91016 7.52237 4.01645 7.62791 4.14755 7.62791Z" fill="#62B29A"/>
<path d="M3.61037 17.4468C3.01236 16.6866 2.83695 15.5293 3.42957 14.7649C3.64592 14.4859 3.95321 14.2656 4.08016 13.9366C4.26468 13.4586 4.00646 12.9285 3.70616 12.5124C3.40594 12.0963 3.04221 11.6836 2.98676 11.1746C2.92317 10.5913 3.34927 9.99457 3.9245 9.86161C4.40522 9.75043 4.90964 9.93817 5.32055 10.2099C5.73145 10.4815 6.08077 10.8361 6.48481 11.1177C6.88891 11.3992 7.37905 11.6103 7.86667 11.5342C8.83309 11.3835 9.31063 10.2415 10.1995 9.83533C10.7116 9.60133 11.3434 9.64801 11.815 9.95485C12.2866 10.2616 12.5823 10.8183 12.5711 11.3782C12.5599 11.9352 12.2688 12.4818 12.3784 13.0282C12.4804 13.5369 12.9043 13.9154 13.1295 14.3835C13.4735 15.0989 13.3119 15.9827 12.8697 16.6426C12.4273 17.3026 11.7426 17.7669 11.0264 18.1166C9.21325 19.0019 6.80167 19.4482 4.94215 18.4929C4.43599 18.233 3.96355 17.8956 3.61037 17.4468Z" fill="#E8E8E8"/>
<path d="M5.67315 10.1773C5.38941 10.0021 5.17648 9.66864 5.24849 9.34446C5.32803 8.9865 5.7024 8.7807 6.04954 8.65638C6.48088 8.502 6.93184 8.40138 7.38826 8.35776C7.71682 8.32638 8.05588 8.3256 8.36794 8.43246C8.68 8.53944 8.96338 8.769 9.06556 9.08076C9.17926 9.42756 9.04684 9.82398 8.791 10.0855C8.53516 10.347 8.17408 10.4869 7.81102 10.5406C7.15738 10.6375 6.24706 10.5318 5.67315 10.1773Z" fill="#E8E8E8"/>
<path d="M8.11956 15.1675L6.78906 15.5007L6.9663 19.4227H8.11956H9.27282L9.45006 15.5007L8.11956 15.1675Z" fill="#56438C"/>
<path d="M9.72 18.0718C9.3621 18.0854 8.8989 18.1749 8.4576 18.3312C8.01576 18.4858 7.59912 18.7061 7.3125 18.9195C7.65222 18.8059 8.08116 18.6424 8.51448 18.4907C8.94732 18.3375 9.38412 18.1962 9.72 18.0718Z" fill="#433672"/>
<path d="M8.43007 18.2104C7.98511 18.0259 7.23469 17.8465 6.75391 17.8096C7.19893 17.9941 7.94935 18.1735 8.43007 18.2104Z" fill="#433672"/>
<path d="M10.1978 17.1561L9.831 17.548L10.2432 17.8756C10.3852 17.9885 10.4306 18.1834 10.353 18.3468L9.84186 19.4225H12.9391L12.4055 17.6317C12.1278 16.7 11.376 15.983 10.4277 15.7455L9.44922 15.5005L10.2369 16.6741C10.3378 16.8244 10.3216 17.0238 10.1978 17.1561Z" fill="white"/>
<path d="M5.99287 17.8756L6.40506 17.548L6.03822 17.1561C5.9144 17.0238 5.89822 16.8244 5.99911 16.6741L6.78678 15.5005L5.80828 15.7455C4.85998 15.983 4.10813 16.7 3.83055 17.6317L3.29688 19.4225H6.39414L5.88302 18.3468C5.80546 18.1834 5.8509 17.9885 5.99287 17.8756Z" fill="white"/>
<path d="M6.78897 15.5005L6.00127 16.6741C5.90039 16.8244 5.91657 17.0239 6.04041 17.1561L6.40725 17.548L5.99504 17.8756C5.85306 17.9885 5.80763 18.1834 5.88527 18.3468L6.39639 19.4225H6.96627L6.78897 15.5005Z" fill="#EFF5F5"/>
<path d="M10.3505 18.3468C10.4281 18.1835 10.3827 17.9886 10.2408 17.8757L9.82855 17.5481L10.1954 17.1561C10.3192 17.0238 10.3354 16.8244 10.2345 16.6742L9.44677 15.5005L9.26953 19.4225H9.83947L10.3505 18.3468Z" fill="#EFF5F5"/>
<path d="M4.978 19.3216C5.08193 18.9553 5.13746 18.4549 5.10875 17.957C5.08231 17.4588 4.97186 16.9676 4.82812 16.6147C4.85327 16.9948 4.90075 17.4801 4.92673 17.9668C4.95461 18.4535 4.96107 18.941 4.978 19.3216Z" fill="#EFF5F5"/>
<path d="M11.2594 19.3216C11.2763 18.941 11.2827 18.4536 11.3106 17.9668C11.3366 17.4801 11.3841 16.9948 11.4093 16.6147C11.2655 16.9676 11.155 17.4588 11.1286 17.957C11.0999 18.4549 11.1555 18.9552 11.2594 19.3216Z" fill="#EFF5F5"/>
<path d="M7.05859 15.1675H9.17659L8.11759 16.519L7.05859 15.1675Z" fill="#56438C"/>
<path d="M7.0591 15.1675L8.1181 16.519L7.41592 17.1511L6.96484 15.4563L7.0591 15.1675Z" fill="#6C6FC3"/>
<path d="M9.17613 15.1675L8.11719 16.519L8.81937 17.1511L9.27045 15.4563L9.17613 15.1675Z" fill="#6C6FC3"/>
<path d="M8.90373 14.4979C8.69451 14.8295 8.41281 15.0153 8.11935 15.0153C7.82589 15.0153 7.54425 14.8295 7.33503 14.4979C7.30851 14.456 7.28283 14.413 7.25781 14.3691V15.4177L8.11935 16.5192L8.98089 15.4177V14.3691C8.95593 14.413 8.93019 14.456 8.90373 14.4979Z" fill="#BD6C67"/>
<path d="M7.25781 13.2251V14.369C7.28283 14.4128 7.30857 14.4558 7.33503 14.4977C7.54425 14.8293 7.82589 15.0151 8.11935 15.0151C8.41281 15.0151 8.69445 14.8293 8.90373 14.4977C8.93025 14.4558 8.95593 14.4128 8.98101 14.369V13.2251H7.25781Z" fill="#422C4F"/>
<path d="M8.11799 13.7864C9.60275 13.7864 10.8063 12.5907 10.8063 11.1157C10.8063 9.64056 9.60275 8.44482 8.11799 8.44482C6.63329 8.44482 5.42969 9.64056 5.42969 11.1157C5.42969 12.5907 6.63329 13.7864 8.11799 13.7864Z" fill="#422C4F"/>
<path d="M6.53722 12.5614C6.53722 12.861 6.29278 13.1039 5.99121 13.1039C5.6897 13.1039 5.44531 12.861 5.44531 12.5614C5.44531 12.2619 5.6897 12.019 5.99121 12.019C6.29272 12.0191 6.53722 12.2619 6.53722 12.5614Z" fill="#A64F5A"/>
<path d="M6.29175 12.5619C6.29175 12.7276 6.15651 12.862 5.98962 12.862C5.82279 12.862 5.6875 12.7276 5.6875 12.5619C5.6875 12.3961 5.82272 12.2617 5.98962 12.2617C6.15651 12.2618 6.29175 12.3961 6.29175 12.5619Z" fill="#8C404C"/>
<path d="M9.70312 12.5614C9.70312 12.861 9.94762 13.1039 10.2491 13.1039C10.5506 13.1039 10.7951 12.861 10.7951 12.5614C10.7951 12.2619 10.5506 12.019 10.2491 12.019C9.94762 12.019 9.70312 12.2619 9.70312 12.5614Z" fill="#A64F5A"/>
<path d="M10.2474 12.862C10.4143 12.862 10.5496 12.7277 10.5496 12.5619C10.5496 12.3961 10.4143 12.2617 10.2474 12.2617C10.0806 12.2617 9.94531 12.3961 9.94531 12.5619C9.94531 12.7277 10.0806 12.862 10.2474 12.862Z" fill="#8C404C"/>
<path d="M8.11826 10.0459C7.03898 10.0459 6.16406 10.1913 6.16406 11.2636V12.0604C6.16406 12.8532 6.48452 13.6127 7.0535 14.1685C7.33754 14.4459 7.71986 14.6015 8.11826 14.6015C8.51654 14.6015 8.89898 14.4459 9.18302 14.1685C9.752 13.6127 10.0725 12.8532 10.0725 12.0604V11.2636C10.0725 10.1913 9.19754 10.0459 8.11826 10.0459Z" fill="#BD6C67"/>
<path d="M7.40061 12.1617C7.40061 12.2523 7.32657 12.3258 7.23543 12.3258C7.14423 12.3258 7.07031 12.2522 7.07031 12.1617C7.07031 12.0711 7.14429 11.9976 7.23543 11.9976C7.32669 11.9976 7.40061 12.0711 7.40061 12.1617Z" fill="#422C4F"/>
<path d="M8.83984 12.1617C8.83984 12.2523 8.91382 12.3258 9.00496 12.3258C9.09622 12.3258 9.17014 12.2522 9.17014 12.1617C9.17014 12.0711 9.09622 11.9976 9.00496 11.9976C8.91382 11.9976 8.83984 12.0711 8.83984 12.1617Z" fill="#422C4F"/>
<path d="M7.14783 11.3275C6.92535 11.3557 6.74583 11.4929 6.65625 11.6742C7.00485 11.6093 7.35735 11.5646 7.71129 11.5405C7.57881 11.3873 7.37037 11.2993 7.14783 11.3275Z" fill="#422C4F"/>
<path d="M9.0869 11.3275C9.30938 11.3557 9.4889 11.4929 9.57848 11.6742C9.22988 11.6093 8.87738 11.5646 8.52344 11.5405C8.65592 11.3873 8.86436 11.2993 9.0869 11.3275Z" fill="#422C4F"/>
<path d="M8.66557 12.867C8.30503 12.8324 7.94029 12.842 7.58203 12.8954C7.72999 13.0351 7.92037 13.1367 8.12449 13.1314C8.32855 13.1261 8.52505 13.0142 8.66557 12.867Z" fill="#A64F5A"/>
<path d="M7.07031 12.8256C7.19805 12.8148 7.35291 12.751 7.48125 12.651C7.61025 12.5516 7.71009 12.4179 7.75173 12.2974C7.64037 12.3611 7.51857 12.4524 7.39821 12.5453C7.27827 12.6386 7.15953 12.7337 7.07031 12.8256Z" fill="#B56361"/>
<path d="M9.1697 12.8256C9.04196 12.8148 8.8871 12.751 8.75876 12.651C8.62976 12.5516 8.52992 12.4179 8.48828 12.2974C8.59964 12.3611 8.72144 12.4524 8.8418 12.5453C8.96162 12.6386 9.08036 12.7337 9.1697 12.8256Z" fill="#B56361"/>
<path d="M8.76559 13.3906C8.34571 13.5116 7.90525 13.5614 7.46875 13.5374C7.61425 13.7462 7.90057 13.8725 8.15509 13.8498C8.40973 13.827 8.65993 13.6219 8.76559 13.3906Z" fill="white"/>
<path d="M8.48101 13.98C8.25685 13.9908 8.03275 14.0015 7.80859 14.0123C7.90741 14.0823 8.02783 14.1226 8.14915 14.12C8.27047 14.1174 8.38531 14.0541 8.48101 13.98Z" fill="#A64F5A"/>
</g>
</g>
<defs>
<clipPath id="clip0_4419_48811">
<rect width="36" height="36" fill="white"/>
</clipPath>
</defs>
</svg>
