<svg width="33" height="32" viewBox="0 0 33 32" fill="none" xmlns="http://www.w3.org/2000/svg">
<g clip-path="url(#clip0_68_4216)">
<path fill-rule="evenodd" clip-rule="evenodd" d="M32.1968 16.4655C28.4661 11.4236 21.7106 9.07123 16.6671 9.02329C10.9478 8.62061 5.03139 11.8707 1.13745 16.4655C1.14276 16.556 1.18358 16.6553 1.27051 16.8575C6.42045 28.8768 26.5785 30.1044 32.0797 16.8309C32.1543 16.6482 32.1915 16.5506 32.1968 16.4655Z" fill="#F8F7F7"/>
<path fill-rule="evenodd" clip-rule="evenodd" d="M16.6673 23.4499C20.5542 23.4499 23.7048 20.301 23.7048 16.414C23.7048 14.5707 22.9952 12.8925 21.835 11.6364C18.1787 9.12966 14.9022 9.18998 11.4996 11.6364C10.3394 12.8925 9.63159 14.5707 9.63159 16.414C9.63159 20.301 12.7822 23.4499 16.6673 23.4499Z" fill="#75CEF8"/>
<path fill-rule="evenodd" clip-rule="evenodd" d="M23.7048 16.414C23.7048 14.5708 22.9952 12.8925 21.835 11.6365C21.5139 11.5602 21.1911 11.0954 20.8717 11.0315C21.6345 12.1563 22.0816 13.909 22.0816 15.3727C22.0816 19.2579 18.931 22.4086 15.0441 22.4086C13.9921 22.4086 12.9933 22.178 12.0957 21.7629C13.3251 22.8149 14.9217 23.45 16.6673 23.45C20.5542 23.4499 23.7048 20.301 23.7048 16.414Z" fill="#60B7FF"/>
<path fill-rule="evenodd" clip-rule="evenodd" d="M20.0663 16.414C20.0663 14.5371 18.5441 13.015 16.6673 13.015C14.7904 13.015 13.27 14.5371 13.27 16.414C13.27 18.291 14.7903 19.8131 16.6673 19.8131C17.0096 19.8131 17.3378 19.7617 17.6483 19.6694L19.8338 17.6523C19.9829 17.2691 20.0663 16.8504 20.0663 16.414Z" fill="#685E68"/>
<path fill-rule="evenodd" clip-rule="evenodd" d="M18.6416 20.0473C19.4666 20.0473 20.1353 19.3785 20.1353 18.5535C20.1353 18.2147 20.0236 17.9025 19.8338 17.6523C19.5606 17.2922 19.1277 17.0597 18.6416 17.0597C17.8167 17.0597 17.1479 17.7285 17.1479 18.5535C17.1479 18.997 17.3413 19.3944 17.6482 19.6694C17.9125 19.9036 18.2602 20.0473 18.6416 20.0473Z" fill="#F8F7F7"/>
<path fill-rule="evenodd" clip-rule="evenodd" d="M32.071 15.9918C27.6715 2.45754 5.39704 4.16416 1.27423 15.9918C1.18198 16.2544 1.13054 16.3519 1.13761 16.4655C6.45073 12.8162 11.6238 11.0351 16.6673 10.989C21.7108 11.0351 26.8838 12.8162 32.197 16.4655C32.2059 16.3484 32.1562 16.2561 32.071 15.9918Z" fill="#FED2A4"/>
<path fill-rule="evenodd" clip-rule="evenodd" d="M20.0662 16.414C20.0662 14.5371 18.5441 13.015 16.6672 13.015C15.876 13.015 15.1469 13.2864 14.5703 13.7405C14.8063 13.6873 15.0511 13.6607 15.303 13.6607C17.1799 13.6607 18.702 15.1829 18.702 17.0598C19.1632 17.0793 19.5712 17.3064 19.8338 17.6524C19.9828 17.2691 20.0662 16.8504 20.0662 16.414Z" fill="#554E56"/>
<path fill-rule="evenodd" clip-rule="evenodd" d="M32.0708 15.9918C30.1868 10.1977 25.028 7.19779 19.4204 6.58754C21.7887 7.58454 23.7578 9.10135 25.0883 10.9446C25.5886 11.6365 25.9984 12.3763 26.3053 13.1533C28.2497 14.0013 30.2135 15.103 32.1968 16.4655C32.2057 16.3484 32.156 16.2561 32.0708 15.9918Z" fill="#FFBD86"/>
<path fill-rule="evenodd" clip-rule="evenodd" d="M32.1968 16.4655C30.2135 15.103 28.2497 14.0013 26.3053 13.1533C26.7258 14.2177 26.9528 15.3514 26.9528 16.5275C26.9528 20.5263 24.3255 24.0389 20.366 26.0312C25.3474 25.1211 29.8818 22.1318 32.0797 16.8309C32.1543 16.6482 32.1915 16.5506 32.1968 16.4655Z" fill="#E1E1E1"/>
<path d="M20.5355 16.414C20.5355 14.281 18.8002 12.5456 16.6672 12.5456C14.5351 12.5456 12.8005 14.281 12.8005 16.414C12.8005 18.5471 14.5351 20.2825 16.6672 20.2825C16.9618 20.2825 17.2561 20.2482 17.5454 20.1812C17.8586 20.3929 18.236 20.5166 18.6417 20.5166C19.7241 20.5166 20.6047 19.636 20.6047 18.5535C20.6047 18.204 20.5125 17.876 20.3518 17.5914C20.4732 17.2106 20.5355 16.8157 20.5355 16.414ZM13.7393 16.414C13.7393 14.7986 15.0527 13.4843 16.6672 13.4843C18.2825 13.4843 19.5968 14.7985 19.5968 16.414C19.5968 16.5517 19.5873 16.6884 19.5683 16.8235C19.2922 16.6749 18.9766 16.5904 18.6417 16.5904C17.5592 16.5904 16.6786 17.471 16.6786 18.5535C16.6786 18.8324 16.7374 19.0976 16.8427 19.338C16.7842 19.3415 16.7257 19.3438 16.6672 19.3438C15.0527 19.3437 13.7393 18.0295 13.7393 16.414ZM18.6417 19.5779C18.0768 19.5779 17.6174 19.1184 17.6174 18.5535C17.6174 17.9887 18.0768 17.5292 18.6417 17.5292C19.2065 17.5292 19.666 17.9887 19.666 18.5535C19.666 19.1184 19.2065 19.5779 18.6417 19.5779Z" fill="black"/>
<path d="M32.5739 16.0144C32.5577 15.9677 32.5388 15.9132 32.5173 15.8467C31.3282 12.1893 28.7867 9.36298 25.1675 7.67329C21.9492 6.17085 18.0326 5.65698 14.1388 6.22598C13.8823 6.26348 13.7047 6.50185 13.7423 6.75835C13.7797 7.01479 14.018 7.19248 14.2746 7.15485C20.8826 6.18898 28.5738 8.37329 31.3332 15.3311C26.4062 12.182 21.4797 10.5635 16.6716 10.5196C16.6687 10.5195 16.6658 10.5195 16.663 10.5196C11.8715 10.5634 6.96337 12.1705 2.05543 15.2976C3.70393 11.6179 7.45824 8.75498 12.2875 7.54848C12.539 7.48567 12.6919 7.23085 12.6291 6.97935C12.5663 6.72785 12.3114 6.57498 12.06 6.63773C9.45768 7.28785 7.07612 8.42166 5.17274 9.9166C3.09124 11.5515 1.63043 13.5435 0.830994 15.8374C0.809682 15.8985 0.790682 15.9503 0.774182 15.9952C0.611119 16.4396 0.636619 16.5708 0.839244 17.0424C2.13906 20.0759 4.43987 22.5989 7.49287 24.3387C10.3248 25.9524 13.6071 26.8037 16.9932 26.8037C17.0332 26.8037 17.0736 26.8035 17.1136 26.8033C20.3991 26.7837 23.5246 25.9482 26.1522 24.387C29.0199 22.6831 31.2197 20.1324 32.5141 17.0091C32.7026 16.5499 32.711 16.4104 32.5739 16.0144ZM17.1079 25.8646C10.1596 25.9082 4.11237 22.2979 1.70187 16.6722C1.69968 16.6671 1.69731 16.6616 1.69499 16.6563C4.57024 14.7172 7.44218 13.3155 10.2859 12.4599C9.55481 13.6389 9.16212 15.0027 9.16212 16.414C9.16212 20.5525 12.5289 23.9193 16.6672 23.9193C18.5791 23.9193 20.4002 23.2005 21.795 21.8955C23.1829 20.5969 24.0211 18.8403 24.1551 16.9493C24.1734 16.6907 23.9787 16.4662 23.7201 16.4479C23.4621 16.4295 23.2371 16.6244 23.2187 16.8829C22.9762 20.3022 20.0985 22.9806 16.6672 22.9806C13.0465 22.9806 10.1008 20.0349 10.1008 16.4141C10.1008 14.8071 10.6822 13.2703 11.7412 12.0692C13.3959 11.6787 15.0396 11.4737 16.6671 11.4585C18.2942 11.4737 19.9375 11.6786 21.5919 12.069C22.2959 12.8675 22.7992 13.8287 23.0498 14.8592C23.1021 15.0739 23.2941 15.2178 23.5055 15.2178C23.5422 15.2178 23.5796 15.2134 23.6168 15.2044C23.8687 15.1431 24.0232 14.8892 23.9619 14.6374C23.7747 13.8678 23.4646 13.132 23.0479 12.4599C25.8927 13.3157 28.7661 14.718 31.6432 16.6579C29.2676 22.3829 23.8343 25.8246 17.1079 25.8646Z" fill="black"/>
</g>
<defs>
<clipPath id="clip0_68_4216">
<rect width="32" height="32" fill="white" transform="translate(0.66748)"/>
</clipPath>
</defs>
</svg>
