<svg width="33" height="32" viewBox="0 0 33 32" fill="none" xmlns="http://www.w3.org/2000/svg">
<g clip-path="url(#clip0_68_4803)">
<path fill-rule="evenodd" clip-rule="evenodd" d="M11.3096 13.4887C10.5816 14.2009 10.1555 15.0672 10.1555 15.9991C10.1555 16.9328 10.5816 17.7974 11.3096 18.5096L22.0255 18.5113C22.7535 17.7973 23.1796 16.9327 23.1796 15.9991C23.1796 15.0672 22.7535 14.2009 22.0255 13.4887H11.3096Z" fill="#FFD772"/>
<path fill-rule="evenodd" clip-rule="evenodd" d="M14.2092 0.46875V6.61637C11.9701 6.61637 10.1555 8.427 10.1555 10.6611C10.1555 11.7612 10.5959 12.7587 11.3096 13.4886C11.9808 14.1742 12.8935 14.6225 13.9127 14.6951C14.0104 14.7022 14.1098 14.7058 14.2092 14.7058C14.8431 14.7058 15.445 14.5605 15.9795 14.3018C16.9738 13.8181 16.3612 13.8181 17.3556 14.3018C17.89 14.5605 18.492 14.7058 19.1258 14.7058C20.2622 14.7058 21.2903 14.2398 22.0254 13.4886C22.741 12.7587 23.1795 11.7612 23.1795 10.6611C23.1795 8.427 21.3648 6.61637 19.1258 6.61637V0.46875H14.2092Z" fill="#F8F7F7"/>
<path fill-rule="evenodd" clip-rule="evenodd" d="M17.1709 0.46875V7.84237C19.41 7.84237 21.2246 9.653 21.2246 11.8871C21.2246 12.9111 20.8428 13.8465 20.2143 14.5588C20.9121 14.3656 21.5335 13.9918 22.0254 13.4887C22.741 12.7587 23.1795 11.7613 23.1795 10.6611C23.1795 8.42706 21.3648 6.61644 19.1258 6.61644V0.46875H17.1709Z" fill="#E1E1E1"/>
<path fill-rule="evenodd" clip-rule="evenodd" d="M15.9795 17.6981C15.445 17.4377 14.8431 17.2924 14.2092 17.2924C13.0728 17.2924 12.0448 17.7584 11.3096 18.5096C10.5958 19.2395 10.1555 20.2369 10.1555 21.3371C10.1555 23.5712 11.9702 25.3818 14.2092 25.3818V31.5312H19.1258V25.3818C21.3649 25.3818 23.1795 23.5712 23.1795 21.3371C23.1795 20.2369 22.741 19.2395 22.0254 18.5096C21.2903 17.7584 20.2622 17.2924 19.1258 17.2924C18.492 17.2924 17.89 17.4377 17.3556 17.6981C16.3612 18.1818 16.9738 18.1818 15.9795 17.6981Z" fill="#F8F7F7"/>
<path fill-rule="evenodd" clip-rule="evenodd" d="M21.3296 20.1377C21.3296 22.3717 19.5149 24.1824 17.2759 24.1824V31.5312H19.1261V25.3818C21.3651 25.3818 23.1798 23.5712 23.1798 21.3371C23.1798 20.2369 22.7412 19.2395 22.0256 18.5096C21.5604 18.0348 20.978 17.6733 20.3246 17.4714C20.9496 18.1836 21.3296 19.1173 21.3296 20.1377Z" fill="#E1E1E1"/>
<path fill-rule="evenodd" clip-rule="evenodd" d="M20.0154 15.9991C20.0154 16.4633 19.9088 16.9133 19.7117 17.3349C19.9212 17.3651 20.1254 17.4111 20.3243 17.4714C20.9777 17.6733 21.5601 18.0347 22.0253 18.5113C22.7533 17.7973 23.1794 16.9327 23.1794 15.9991C23.1794 15.0672 22.7533 14.2009 22.0253 13.4887C21.5334 13.9918 20.912 14.3657 20.2142 14.5587C20.0508 14.6048 19.8821 14.6402 19.7117 14.6651C19.9089 15.0849 20.0154 15.5332 20.0154 15.9991Z" fill="#FBBA58"/>
<path d="M26.5125 16.4678H29.4067C29.6656 16.4678 29.8755 16.258 29.8755 15.9991C29.8755 15.7401 29.6656 15.5303 29.4067 15.5303H26.5125C26.2535 15.5303 26.0437 15.7401 26.0437 15.9991C26.0437 16.258 26.2535 16.4678 26.5125 16.4678Z" fill="black"/>
<path d="M26.5128 12.9282C26.609 12.9282 26.7061 12.8986 26.7897 12.8374L29.6839 10.7149C29.8927 10.5619 29.9378 10.2685 29.7847 10.0597C29.6316 9.85094 29.3383 9.80581 29.1295 9.959L26.2353 12.0814C26.0265 12.2345 25.9814 12.5279 26.1345 12.7366C26.2263 12.8618 26.3686 12.9282 26.5128 12.9282Z" fill="black"/>
<path d="M29.684 21.2852L26.7898 19.161C26.5812 19.0079 26.2877 19.0528 26.1346 19.2615C25.9814 19.4702 26.0264 19.7636 26.2351 19.9167L29.1294 22.0409C29.2129 22.1022 29.31 22.1318 29.4064 22.1318C29.5505 22.1318 29.6928 22.0654 29.7846 21.9404C29.9377 21.7318 29.8928 21.4384 29.684 21.2852Z" fill="black"/>
<path d="M6.82265 15.5303H3.92847C3.66953 15.5303 3.45972 15.7401 3.45972 15.9991C3.45972 16.258 3.66953 16.4678 3.92847 16.4678H6.82272C7.08165 16.4678 7.29147 16.258 7.29147 15.9991C7.29147 15.7401 7.08159 15.5303 6.82265 15.5303Z" fill="black"/>
<path d="M3.65125 10.7149L6.5455 12.8373C6.62906 12.8986 6.72612 12.9281 6.82237 12.9281C6.96662 12.9281 7.10893 12.8618 7.20075 12.7366C7.35381 12.5278 7.30875 12.2344 7.1 12.0814L4.20568 9.95894C3.997 9.80588 3.70356 9.851 3.5505 10.0597C3.39743 10.2685 3.4425 10.5618 3.65125 10.7149Z" fill="black"/>
<path d="M6.54541 19.161L3.65116 21.2852C3.44241 21.4383 3.39741 21.7317 3.55066 21.9404C3.64248 22.0655 3.78473 22.1318 3.92891 22.1318C4.02523 22.1318 4.12235 22.1022 4.20591 22.0409L7.10016 19.9167C7.30891 19.7636 7.35391 19.4701 7.20066 19.2615C7.04754 19.0528 6.75404 19.0079 6.54541 19.161Z" fill="black"/>
<path d="M19.5946 6.17169V4.63037C19.5946 4.37144 19.3848 4.16162 19.1258 4.16162C18.8669 4.16162 18.6571 4.37144 18.6571 4.63037V6.61637C18.6571 6.87531 18.8669 7.08512 19.1258 7.08512C21.1026 7.08512 22.7108 8.68931 22.7108 10.6611C22.7108 12.6329 21.1026 14.2371 19.1258 14.2371C18.5763 14.2371 18.0494 14.1169 17.5606 13.8804C17.4321 13.8178 17.3352 13.7654 17.2575 13.7209C17.595 13.2131 17.8238 12.5783 17.9396 11.8197C17.9788 11.5638 17.803 11.3247 17.5471 11.2856C17.2921 11.2469 17.052 11.4222 17.0129 11.6781C16.8463 12.7682 16.436 13.4907 15.7593 13.8871C15.2741 14.1191 14.7528 14.2371 14.2092 14.2371C12.2325 14.2371 10.6243 12.633 10.6243 10.6612C10.6243 8.68937 12.2325 7.08519 14.2092 7.08519C14.4681 7.08519 14.678 6.87537 14.678 6.61644V0.9375H18.6571V2.45475C18.6571 2.71369 18.8669 2.9235 19.1258 2.9235C19.3848 2.9235 19.5946 2.71369 19.5946 2.45475V0.46875C19.5946 0.209812 19.3848 0 19.1258 0H14.2092C13.9503 0 13.7405 0.209812 13.7405 0.46875V6.17169C11.4662 6.40656 9.68677 8.33038 9.68677 10.6611C9.68677 11.7255 10.0587 12.7043 10.6785 13.4768C10.0282 14.2333 9.68677 15.0976 9.68677 15.9991C9.68677 16.8997 10.028 17.7643 10.6781 18.5219C10.0585 19.2944 9.68677 20.2729 9.68677 21.3371C9.68677 23.6678 11.4663 25.5916 13.7405 25.8265V27.3696C13.7405 27.6285 13.9503 27.8383 14.2092 27.8383C14.4681 27.8383 14.678 27.6285 14.678 27.3696V25.3818C14.678 25.1228 14.4681 24.913 14.2092 24.913C12.2325 24.913 10.6243 23.3088 10.6243 21.337C10.6243 19.3652 12.2325 17.7611 14.2092 17.7611C14.754 17.7611 15.2753 17.8796 15.7593 18.1127C16.436 18.5072 16.8463 19.2293 17.013 20.32C17.0484 20.5519 17.2481 20.718 17.4757 20.718C17.4993 20.718 17.5231 20.7162 17.5471 20.7126C17.8031 20.6734 17.9788 20.4343 17.9397 20.1784C17.8238 19.4201 17.5953 18.7858 17.2582 18.2786C17.3358 18.2341 17.4326 18.1818 17.561 18.1194C18.049 17.8816 18.5755 17.7611 19.1259 17.7611C21.1026 17.7611 22.7108 19.3652 22.7108 21.337C22.7108 23.3088 21.1026 24.913 19.1259 24.913C18.867 24.913 18.6571 25.1228 18.6571 25.3818V31.0625H14.678V29.5434C14.678 29.2845 14.4682 29.0747 14.2093 29.0747C13.9503 29.0747 13.7405 29.2845 13.7405 29.5434V31.5312C13.7405 31.7902 13.9503 32 14.2093 32H19.1259C19.3848 32 19.5946 31.7902 19.5946 31.5312V25.8266C21.8689 25.5917 23.6483 23.6679 23.6483 21.3371C23.6483 20.273 23.2766 19.2945 22.657 18.522C23.307 17.7642 23.6483 16.8997 23.6483 15.9991C23.6483 15.0976 23.3069 14.2334 22.6566 13.4769C23.2764 12.7043 23.6483 11.7256 23.6483 10.6612C23.6483 8.33037 21.8688 6.40656 19.5946 6.17169ZM22.7108 15.9991C22.7108 16.6472 22.4641 17.2803 21.9951 17.851C21.2138 17.2094 20.2142 16.8236 19.1258 16.8236C18.4319 16.8236 17.7672 16.976 17.1505 17.2766C16.9238 17.3869 16.7705 17.4762 16.6675 17.5388C16.5646 17.4762 16.4113 17.3868 16.1848 17.2767C15.5678 16.976 14.9031 16.8236 14.2092 16.8236C13.1208 16.8236 12.1212 17.2094 11.34 17.851C10.8708 17.2803 10.6243 16.6472 10.6243 15.9991C10.6243 15.3501 10.871 14.7172 11.3405 14.1476C12.1216 14.7889 13.1211 15.1746 14.2092 15.1746C14.9013 15.1746 15.5656 15.0229 16.1845 14.7234C16.4112 14.6131 16.5646 14.5237 16.6675 14.4611C16.7705 14.5238 16.924 14.6132 17.1513 14.7238C17.7694 15.0229 18.4337 15.1746 19.1258 15.1746C20.214 15.1746 21.2135 14.7889 21.9946 14.1476C22.464 14.7172 22.7108 15.3501 22.7108 15.9991Z" fill="black"/>
</g>
<defs>
<clipPath id="clip0_68_4803">
<rect width="32" height="32" fill="white" transform="translate(0.66748)"/>
</clipPath>
</defs>
</svg>
