<svg width="33" height="32" viewBox="0 0 33 32" fill="none" xmlns="http://www.w3.org/2000/svg">
<g clip-path="url(#clip0_80_2475)">
<path d="M11.8837 30.7191C10.0128 29.8871 9.25129 28.5088 9.07642 27.0274L19.0775 20.4516H22.4753C22.4753 20.4516 23.0857 21.4475 23.6 22.8431L20.9124 28.7664L11.8837 30.7191Z" fill="#FFB2C1"/>
<path d="M13.0096 24.4413L9.07642 27.0273C9.25129 28.5088 10.0128 29.8871 11.8837 30.7191L16.9933 29.6139C15.4279 28.1601 14.0752 26.3821 13.0096 24.4413Z" fill="#FF9DB0"/>
<path d="M19.0776 20.4516C16.9941 22.7054 13.7225 25.4147 9.07643 27.0274C8.71137 23.9594 10.8596 20.4516 10.8596 20.4516H19.0776Z" fill="#FFC9D3"/>
<path d="M16.6675 31.5312C14.5802 31.5312 13.0251 31.227 11.8838 30.7191C17.7263 28.9162 21.5205 25.3602 23.6002 22.8431C24.8023 26.0999 25.485 31.5312 16.6675 31.5312Z" fill="#FFC9D3"/>
<path d="M19.7091 0.619192C18.4126 1.11544 17.8357 1.87688 17.8357 1.87688L18.7131 5.52188H21.764C22.4978 4.55663 22.7481 3.59694 22.7679 2.76382C22.8059 1.17019 21.1979 0.0494421 19.7091 0.619192Z" fill="#FD5F7E"/>
<path d="M13.6259 0.619192C14.9224 1.11544 15.4993 1.87688 15.4993 1.87688L14.6219 5.52188H11.571C10.8373 4.55663 10.5869 3.59694 10.5671 2.76382C10.5291 1.17019 12.1371 0.0494421 13.6259 0.619192Z" fill="#FD5F7E"/>
<path d="M16.6675 1.51013C15.5377 1.51013 14.6218 2.42594 14.6218 3.55569V5.45013H18.713V3.55576C18.7131 2.42601 17.7972 1.51013 16.6675 1.51013Z" fill="#FF748F"/>
<path d="M25.922 15.8854C27.3791 15.8854 28.5603 14.7042 28.5603 13.2471C28.5603 11.79 27.3791 10.6088 25.922 10.6088C24.4649 10.6088 23.2837 11.79 23.2837 13.2471C23.2837 14.7042 24.4649 15.8854 25.922 15.8854Z" fill="#FFCABD"/>
<path d="M11.3022 20.4515H10.8596C10.8596 20.4515 8.71137 23.9594 9.07643 27.0273C10.6617 26.4771 12.0866 25.799 13.3592 25.0551C12.4998 23.6014 11.8033 22.0428 11.3022 20.4515Z" fill="#FFB2C1"/>
<path d="M16.6676 22.5016C21.7787 22.5016 25.9221 18.3582 25.9221 13.2471C25.9221 8.13595 21.7787 3.99257 16.6676 3.99257C11.5565 3.99257 7.41309 8.13595 7.41309 13.2471C7.41309 18.3582 11.5565 22.5016 16.6676 22.5016Z" fill="#FFDCCE"/>
<path d="M14.6648 4.2105C11.3671 4.93807 8.72978 7.42432 7.78685 10.6356C7.66466 10.6182 7.53997 10.6087 7.41297 10.6087C5.95585 10.6087 4.77466 11.7899 4.77466 13.247C4.77466 14.7041 5.95591 15.8853 7.41297 15.8853C7.54003 15.8853 7.66491 15.8758 7.78722 15.8584C8.39497 17.9279 9.7061 19.6966 11.4446 20.8873C10.77 18.8952 10.3997 16.841 10.3997 14.8675C10.3997 10.7354 12.0222 6.98232 14.6648 4.2105Z" fill="#FFCABD"/>
<path d="M11.6477 15.2279C12.6706 15.2279 13.4999 14.5675 13.4999 13.7529C13.4999 12.9382 12.6706 12.2778 11.6477 12.2778C10.6247 12.2778 9.79541 12.9382 9.79541 13.7529C9.79541 14.5675 10.6247 15.2279 11.6477 15.2279Z" fill="#FF9DB0"/>
<path d="M21.6875 15.2279C22.7104 15.2279 23.5397 14.5675 23.5397 13.7529C23.5397 12.9382 22.7104 12.2778 21.6875 12.2778C20.6645 12.2778 19.8352 12.9382 19.8352 13.7529C19.8352 14.5675 20.6645 15.2279 21.6875 15.2279Z" fill="#FF9DB0"/>
<path d="M16.2539 28.8869C14.9478 29.5917 13.494 30.2222 11.8838 30.7191C13.0251 31.227 14.5802 31.5313 16.6675 31.5313C17.6213 31.5313 18.4634 31.4674 19.2062 31.35C18.1504 30.6628 17.1608 29.8298 16.2539 28.8869Z" fill="#FFB2C1"/>
<path d="M11.8455 12.6168C12.1043 12.6168 12.3142 12.4069 12.3142 12.148C12.3142 11.9203 12.4994 11.7351 12.7271 11.7351C12.9548 11.7351 13.14 11.9203 13.14 12.148C13.14 12.4069 13.3498 12.6168 13.6087 12.6168C13.8676 12.6168 14.0775 12.4069 14.0775 12.148C14.0775 11.4034 13.4717 10.7976 12.7271 10.7976C11.9825 10.7976 11.3767 11.4034 11.3767 12.148C11.3767 12.4069 11.5866 12.6168 11.8455 12.6168Z" fill="black"/>
<path d="M19.7261 12.6168C19.985 12.6168 20.1948 12.4069 20.1948 12.148C20.1948 11.9203 20.3801 11.7351 20.6077 11.7351C20.8353 11.7351 21.0206 11.9203 21.0206 12.148C21.0206 12.4069 21.2304 12.6168 21.4893 12.6168C21.7482 12.6168 21.9581 12.4069 21.9581 12.148C21.9581 11.4034 21.3523 10.7976 20.6077 10.7976C19.8631 10.7976 19.2573 11.4034 19.2573 12.148C19.2573 12.4069 19.4672 12.6168 19.7261 12.6168Z" fill="black"/>
<path d="M16.6675 14.0732C17.1613 14.0732 17.631 13.8593 17.956 13.4863C18.1262 13.2911 18.1058 12.9951 17.9106 12.825C17.7154 12.6549 17.4193 12.6753 17.2492 12.8704C17.1023 13.039 16.8903 13.1357 16.6674 13.1357C16.4446 13.1357 16.2325 13.039 16.0856 12.8704C15.9155 12.6752 15.6194 12.6549 15.4242 12.8249C15.229 12.9951 15.2087 13.2911 15.3788 13.4863C15.704 13.8593 16.1736 14.0732 16.6675 14.0732Z" fill="black"/>
<path d="M25.8817 16.3536C27.6092 16.3773 29.0288 14.9766 29.0288 13.2473C29.0288 11.5194 27.6108 10.1173 25.8817 10.1409C25.2354 8.22882 24.0092 6.58175 22.4137 5.40894C22.9372 4.59144 23.2141 3.70769 23.2363 2.77525C23.2822 0.851441 21.3423 -0.507434 19.5414 0.181691C18.6503 0.522754 18.0645 0.984504 17.7478 1.28613C17.0752 0.964629 16.2783 0.955566 15.5868 1.28613C15.2702 0.984566 14.6843 0.522754 13.7933 0.181691C11.9943 -0.506934 10.0525 0.849128 10.0984 2.77525C10.1207 3.70769 10.3975 4.59144 10.9211 5.40894C9.3256 6.58175 8.09935 8.22875 7.45303 10.1409C5.72566 10.1173 4.30591 11.5179 4.30591 13.2473C4.30591 14.9753 5.72422 16.3773 7.4531 16.3536C8.00722 17.9928 8.98753 19.4373 10.2612 20.5551C10.053 20.9359 9.7126 21.6019 9.39303 22.4224C8.71372 24.166 8.45066 25.7338 8.61097 27.0823V27.0828C8.61097 27.0829 8.61103 27.083 8.61103 27.0831C8.83391 28.9696 9.87091 30.3369 11.6932 31.1474C11.6933 31.1474 11.6934 31.1474 11.6935 31.1475C12.9649 31.7132 14.6383 32 16.6674 32C20.241 32 22.67 31.1147 23.8867 29.3686C25.3031 27.336 24.7518 24.6101 24.0398 22.6812C23.6905 21.7334 23.3028 20.9718 23.0742 20.5546C24.3476 19.4368 25.3277 17.9926 25.8817 16.3536ZM26.1496 11.0896C27.2393 11.2038 28.0913 12.1278 28.0913 13.2473C28.0913 14.3667 27.2393 15.2908 26.1496 15.4049C26.4718 13.9805 26.4674 12.4927 26.1496 11.0896ZM19.8766 1.05725C21.0358 0.613566 22.3297 1.47213 22.2992 2.75294C22.2813 3.50369 22.0582 4.22 21.6348 4.88769C20.8517 4.42094 20.0116 4.07407 19.1817 3.85282C19.1722 3.1155 19.1465 2.66932 18.6794 2.04988C18.6286 1.982 18.5747 1.91632 18.5169 1.85363C18.7848 1.62238 19.232 1.30394 19.8766 1.05725ZM18.1068 2.9135C18.2262 3.18025 18.2424 3.38094 18.2442 3.65182C17.2367 3.48757 16.1558 3.4775 15.0905 3.65182C15.0944 3.06919 15.266 2.62625 15.7434 2.27938C16.5562 1.68957 17.7088 2.00588 18.1068 2.9135ZM11.7 4.88769C11.2768 4.22 11.0536 3.50369 11.0357 2.75294C11.005 1.46982 12.3019 0.614754 13.4582 1.05725C14.1021 1.30369 14.5495 1.62238 14.8177 1.85382C14.732 1.94688 14.6469 2.05475 14.5659 2.17794C14.1814 2.7635 14.155 3.1975 14.1531 3.85275C13.3015 4.08019 12.4662 4.431 11.7 4.88769ZM7.18528 15.4049C6.0956 15.2908 5.24347 14.3666 5.24347 13.2473C5.24347 12.1279 6.0956 11.2038 7.18528 11.0896C6.86535 12.497 6.8656 13.9968 7.18528 15.4049ZM8.2196 10.8314C9.46972 6.46632 13.9026 3.69419 18.4759 4.64913C23.4048 5.68457 26.5277 10.7117 25.1153 15.6627C24.0238 19.4748 20.4124 22.2378 16.2004 22.0204C10.5733 21.7243 6.6706 16.2509 8.2196 10.8314ZM22.3302 21.1517C22.524 21.5171 22.8015 22.0794 23.0642 22.7523C22.4758 23.4489 21.8071 24.1564 21.1007 24.8184C20.9118 24.9954 20.9022 25.2921 21.0792 25.4809C21.2373 25.6496 21.4993 25.6801 21.692 25.5424C21.8503 25.4304 22.7805 24.4988 23.4188 23.7764C23.9052 25.3949 24.1343 27.3735 23.1177 28.8326C22.0865 30.3123 19.9163 31.0625 16.6674 31.0625C15.3995 31.0625 14.2886 30.9465 13.3477 30.7168C15.8589 29.7839 18.208 28.4447 20.3197 26.7393C20.521 26.5766 20.5524 26.2814 20.3897 26.0801C20.227 25.8788 19.932 25.8473 19.7305 26.0099C17.4718 27.8341 14.8407 29.2903 11.9142 30.2169C10.6141 29.5935 9.85316 28.6484 9.59885 27.3389C10.3568 27.0622 11.1262 26.7354 11.8029 26.4111C12.0364 26.2992 12.135 26.0193 12.0231 25.7858C11.9112 25.5524 11.6313 25.4537 11.3978 25.5656C10.7598 25.8713 10.1468 26.1294 9.50385 26.3739C9.47916 24.2896 10.5135 22.0816 11.0055 21.1516C12.318 22.0914 13.9322 22.7443 15.6845 22.921C14.8585 23.5582 13.9699 24.1623 13.0005 24.7214C12.7763 24.8508 12.6993 25.1374 12.8287 25.3616C12.958 25.5859 13.2446 25.6629 13.4689 25.5335C14.7785 24.7781 16.0433 23.8773 17.1313 22.9591C17.4467 22.9442 17.7628 22.9135 18.0703 22.8688C19.5773 22.6525 21.0335 22.0843 22.3302 21.1517Z" fill="black"/>
</g>
<defs>
<clipPath id="clip0_80_2475">
<rect width="32" height="32" fill="white" transform="translate(0.66748)"/>
</clipPath>
</defs>
</svg>
