<svg width="62" height="61" viewBox="0 0 62 61" fill="none" xmlns="http://www.w3.org/2000/svg">
<path d="M36.4092 4.91937C29.5473 4.91937 25.3982 5.71877 23.7256 7.36232C22.6672 8.33549 22.3232 9.84744 22.8589 11.1717C23.5297 12.6268 25.0376 13.5293 26.6593 13.4463C28.2929 13.4463 29.4912 12.082 30.7608 10.6409C32.3099 8.87378 33.9154 7.05116 36.4093 7.05116C37.0076 7.05116 37.4927 6.57392 37.4927 5.98527C37.4927 5.39661 37.0075 4.91937 36.4092 4.91937Z" fill="#239EA0"/>
<path d="M33.1615 39.0268C32.5632 39.0268 32.0781 38.5496 32.0781 37.9609C32.0781 37.3723 32.5632 36.8951 33.1615 36.8951C38.8446 36.8951 49.4115 27.5816 49.4115 18.7755C49.4115 10.1207 42.4089 7.05106 36.4115 7.05106C35.8132 7.05106 35.3281 6.57382 35.3281 5.98517C35.3281 5.39651 35.8132 4.91937 36.4115 4.91937C43.9601 4.91937 51.5781 9.20413 51.5781 18.7756C51.5781 28.347 40.6019 39.0268 33.1615 39.0268Z" fill="#239EA0"/>
<path d="M39.6633 56.0806C39.065 56.0806 38.58 55.6034 38.58 55.0147C38.58 50.7705 35.1718 48.1932 28.7216 47.5537C21.095 46.7991 17.2382 43.8061 17.3705 41.2438C17.4887 39.8972 18.6939 38.9 20.0626 39.0162C20.0962 39.0191 20.1298 39.0226 20.1633 39.0268C20.7616 39.0268 21.2467 39.504 21.2467 40.0926C21.2467 40.6813 20.7616 41.1585 20.1633 41.1585C19.821 41.1585 19.5372 41.2417 19.5328 41.344C19.4873 42.267 22.1328 44.7547 28.9383 45.4284C39.2127 46.4474 40.7467 51.8705 40.7467 55.0211C40.7431 55.6073 40.2591 56.0806 39.6633 56.0806Z" fill="#239EA0"/>
<path d="M41.9001 19.6775H11.1C10.4925 19.6775 10 20.1563 10 20.7469C10.0364 28.3541 15.5393 34.9007 23.2 36.4503V42.1354C23.2001 42.6262 23.5439 43.0539 24.0338 43.1727L28.4338 44.2422C28.5209 44.2632 28.6102 44.274 28.7 44.2743C29.3075 44.2743 29.8 43.7954 29.8 43.2048V36.4503C37.4607 34.9006 42.9636 28.3541 43 20.7469C43 20.1563 42.5076 19.6775 41.9001 19.6775Z" fill="#C1CFE8"/>
<path d="M35.5301 54.0528L29.667 49.9522V49.4384C29.6669 48.9303 29.337 48.4875 28.8669 48.3645L24.6443 47.2574C24.3289 47.1774 23.9958 47.2515 23.7385 47.4589C23.4826 47.6687 23.3331 47.9906 23.3332 48.3312V49.952L17.4701 54.0526C16.9851 54.3918 16.854 55.0792 17.1774 55.5878C17.3731 55.8956 17.7023 56.0804 18.0549 56.0807H34.9452C35.5282 56.0802 36.0005 55.5842 36 54.9728C35.9998 54.6032 35.8235 54.2579 35.5301 54.0528Z" fill="#C1CFE8"/>
<path d="M22.5066 15.7419H20.1689C19.5234 15.7419 19 15.3001 19 14.7552C19 14.2103 19.5234 13.7686 20.1689 13.7686H22.0227L24.0191 12.0834C24.4834 11.7048 25.2234 11.7157 25.6719 12.1076C26.1094 12.49 26.1094 13.0961 25.6719 13.4784L23.3342 15.4516C23.1149 15.6375 22.8171 15.7418 22.5066 15.7419Z" fill="#239EA0"/>
<path d="M22 17.7096C21.4478 17.7096 21 17.2691 21 16.7257V14.758C21 14.2146 21.4478 13.7741 22 13.7741C22.5523 13.7741 23 14.2146 23 14.758V16.7257C23 17.2691 22.5523 17.7096 22 17.7096Z" fill="#239EA0"/>
</svg>
