<svg width="62" height="61" viewBox="0 0 62 61" fill="none" xmlns="http://www.w3.org/2000/svg">
<g clip-path="url(#clip0_4684_69067)">
<path d="M26.4507 60.605H53.3759C53.8889 60.605 54.3047 60.1958 54.3047 59.6912C54.3047 59.1865 53.8889 58.7773 53.3759 58.7773H26.4507C25.9377 58.7773 25.5219 59.1865 25.5219 59.6912C25.5219 60.1958 25.9377 60.605 26.4507 60.605Z" fill="#C4E2FF"/>
<path d="M30.8284 23.2618L30.832 23.2688C31.2747 24.14 31.2747 25.1654 30.832 26.0367C30.132 27.4141 27.2708 29.2939 25.7859 28.8068L24.4482 28.3682C23.318 27.9975 22.072 28.2869 21.2295 29.1158L18.7576 30.3295L16.9467 26.5534L0.253187 10.227C-0.127411 9.85466 -0.0763112 9.23501 0.360474 8.92811L12.2759 0.554427C12.6681 0.278855 13.2134 0.370831 13.4898 0.759349L24.7067 16.5251C25.8392 18.1168 27.462 19.3079 29.3354 19.9223L30.7703 20.4608C30.317 21.4563 30.3118 22.2453 30.8284 23.2618Z" fill="#FED2A4"/>
<path d="M25.8787 26.0367C26.3214 25.1655 26.3214 24.1401 25.8787 23.2688L25.8751 23.2618C25.4597 22.4445 25.3765 21.5308 25.5954 20.6866C25.6907 20.3188 25.5303 19.9332 25.1975 19.7412C24.101 19.1083 21.8363 17.7122 20.9917 16.525L10.5113 1.79432L12.2757 0.554427C12.668 0.278855 13.2132 0.370831 13.4897 0.759349L24.7066 16.5251C25.8391 18.1168 27.4619 19.3079 29.3353 19.9223L30.7701 20.4608C30.3169 21.4565 30.3118 22.2454 30.8284 23.2619L30.832 23.2689C31.2747 24.1401 31.2747 25.1655 30.832 26.0368C30.132 27.4142 27.2708 29.294 25.7859 28.807L24.7684 27.2549C25.2297 26.9628 25.6181 26.5494 25.8787 26.0367Z" fill="#FFBD86"/>
<path d="M20.7362 27.1501L22.9922 27.4838C22.8062 27.6016 18.7606 30.3297 18.7606 30.3297L17.5701 27.8473C18.4111 27.0573 19.6292 26.7871 20.7362 27.1501Z" fill="#FFBD86"/>
<path d="M14.847 58.1685H26.4524L33.5912 51.1436L41.6947 30.416C42.5529 28.2206 41.8381 24.6525 41.8381 24.6525L36.4591 22.0058L34.7936 21.1871L30.9177 19.2804C30.5246 19.087 30.0446 19.2123 29.8047 19.5745C29.0836 20.6632 28.9846 22.0666 29.5915 23.2619L29.5952 23.2692C29.8168 23.7042 29.9272 24.1793 29.9272 24.6532C29.9272 25.1272 29.817 25.6011 29.5952 26.0373C28.8956 27.414 27.2722 28.0756 25.7875 27.5883L24.4501 27.1497C23.3196 26.7793 22.0737 27.0681 21.2318 27.8978L18.7589 30.3296L22.6063 45.4674L21.586 49.4793C21.321 50.5246 20.7105 51.414 19.8932 52.0414C19.8572 52.0694 19.8214 52.0962 19.7842 52.1218C18.9855 52.7005 18.0035 53.0356 16.9572 53.0356C15.9864 53.0356 15.0973 53.3792 14.4075 53.9494C13.5695 54.6409 13.0265 55.6684 12.9915 56.8205C12.9901 56.8599 13.8217 58.1685 14.847 58.1685Z" fill="#528FD8"/>
<path d="M41.2369 26.185L29.4204 20.3322C29.5185 20.0669 29.6458 19.8107 29.8054 19.5705C30.0448 19.2102 30.5243 19.0881 30.9156 19.2805L34.7914 21.1873L36.457 22.006L41.8359 24.6527L41.2369 26.185Z" fill="#0573CE"/>
<path d="M19.7255 35.0273H22.6103C23.1232 35.0273 23.5391 34.6182 23.5391 34.1135C23.5391 33.6088 23.1232 33.1997 22.6103 33.1997H19.7255C19.2125 33.1997 18.7967 33.6088 18.7967 34.1135C18.7967 34.6183 19.2125 35.0273 19.7255 35.0273Z" fill="#0573CE"/>
<path d="M20.6864 38.812H23.5712C24.0842 38.812 24.5 38.4029 24.5 37.8982C24.5 37.3935 24.0842 36.9844 23.5712 36.9844H20.6864C20.1734 36.9844 19.7576 37.3935 19.7576 37.8982C19.7576 38.4029 20.1734 38.812 20.6864 38.812Z" fill="#0573CE"/>
<path d="M21.6475 42.5962H24.5323C25.0452 42.5962 25.4609 42.187 25.4609 41.6824C25.4609 41.1777 25.0451 40.7686 24.5323 40.7686H21.6475C21.1345 40.7686 20.7187 41.1777 20.7187 41.6824C20.7187 42.187 21.1345 42.5962 21.6475 42.5962Z" fill="#0573CE"/>
<path d="M22.6083 46.3808H25.4931C26.006 46.3808 26.4219 45.9717 26.4219 45.467C26.4219 44.9623 26.006 44.5532 25.4931 44.5532H22.6083C22.0953 44.5532 21.6796 44.9623 21.6796 45.467C21.6796 45.9717 22.0953 46.3808 22.6083 46.3808Z" fill="#0573CE"/>
<path d="M14.4114 53.9492H22.6103C23.123 53.9492 23.5391 53.541 23.5391 53.0354C23.5391 52.5309 23.123 52.1216 22.6103 52.1216H19.7882C18.9894 52.7002 18.0075 53.0354 16.9611 53.0354C15.9902 53.0354 15.1011 53.379 14.4114 53.9492Z" fill="#0573CE"/>
<path d="M57.2248 60.605H61.0712C61.5842 60.605 62 60.1958 62 59.6912C62 59.1865 61.5842 58.7773 61.0712 58.7773H57.2247C56.7117 58.7773 56.2959 59.1865 56.2959 59.6912C56.2959 60.1958 56.7118 60.605 57.2248 60.605Z" fill="#C4E2FF"/>
<path d="M39.9188 52.0576H45.6884C46.2014 52.0576 46.6172 51.6485 46.6172 51.1438C46.6172 50.6391 46.2014 50.23 45.6884 50.23H39.9188C39.4058 50.23 38.99 50.6391 38.99 51.1438C38.99 51.6485 39.4058 52.0576 39.9188 52.0576Z" fill="#C4E2FF"/>
<path d="M49.5294 52.0576H53.3759C53.8889 52.0576 54.3047 51.6485 54.3047 51.1438C54.3047 50.6391 53.8889 50.23 53.3759 50.23H49.5294C49.0164 50.23 48.6006 50.6391 48.6006 51.1438C48.6006 51.6485 49.0164 52.0576 49.5294 52.0576Z" fill="#C4E2FF"/>
<path d="M45.6829 42.5962H53.3759C53.8889 42.5962 54.3047 42.187 54.3047 41.6824C54.3047 41.1777 53.8889 40.7686 53.3759 40.7686H45.6829C45.17 40.7686 44.7541 41.1777 44.7541 41.6824C44.7541 42.187 45.17 42.5962 45.6829 42.5962Z" fill="#C4E2FF"/>
<path d="M57.2248 42.5962H61.0712C61.5842 42.5962 62 42.187 62 41.6824C62 41.1777 61.5842 40.7686 61.0712 40.7686H57.2247C56.7117 40.7686 56.2959 41.1777 56.2959 41.6824C56.2959 42.187 56.7118 42.5962 57.2248 42.5962Z" fill="#C4E2FF"/>
<path d="M36.2468 38.9662C37.0362 40.1828 37.7253 37.8783 37.469 37.4421C34.7893 32.8709 34.3522 27.4237 36.2715 22.4967L36.4634 22.0057L34.7979 21.187C34.7843 21.2138 34.7719 21.2406 34.7607 21.2686L34.5378 21.8425C32.4167 27.2873 32.5543 33.2762 36.2468 38.9662Z" fill="#FFE177"/>
<path d="M34.7582 21.2686C34.7694 21.2406 34.7817 21.2138 34.7954 21.187L36.4609 22.0057L36.269 22.4967C36.1369 22.8357 36.0171 23.1774 35.9073 23.5209L34.2255 22.6933C34.3231 22.4084 34.4255 22.1245 34.5353 21.8424L34.7582 21.2686Z" fill="#FFD15B"/>
<path d="M44.174 30.4165L36.0713 51.1437L26.4551 60.6048H14.85C13.8242 60.6048 12.9925 59.7866 12.9925 58.7773C12.9925 58.7773 12.9943 56.8599 12.9955 56.8204H23.7625C24.2551 56.8204 24.7276 56.6279 25.0758 56.2851L31.946 49.5258C32.1298 49.345 32.2729 49.1282 32.3662 48.8896L41.8408 24.6528L41.9166 24.6901C44.0556 25.7424 45.0325 28.2206 44.174 30.4165Z" fill="#EAF6FF"/>
<path d="M41.7521 30.4165C42.3197 28.9647 42.0844 27.3897 41.2421 26.1849L41.841 24.6528L41.9168 24.6901C44.0556 25.7424 45.0324 28.2206 44.174 30.4165L36.0713 51.1439L26.4551 60.6049H24.0332L33.6494 51.1439L41.7521 30.4165Z" fill="#D8ECFE"/>
</g>
<defs>
<clipPath id="clip0_4684_69067">
<rect width="62" height="61" fill="white"/>
</clipPath>
</defs>
</svg>
