<svg width="33" height="32" viewBox="0 0 33 32" fill="none" xmlns="http://www.w3.org/2000/svg">
<path fill-rule="evenodd" clip-rule="evenodd" d="M13.0796 28.0479C14.1314 29.1922 14.4767 30.5146 14.7436 31.8564H27.0072C25.3237 28.217 24.4641 24.631 25.8327 21.1874C27.6355 16.6546 31.9334 10.7603 24.5905 6.26669C21.5135 4.38556 16.7048 3.72531 13.0262 4.9355C7.57512 6.73119 4.50524 11.2426 7.22274 15.8786C5.33811 18.7617 2.83411 20.4043 6.43618 22.1644C5.38261 23.2499 5.43243 23.7768 6.48243 24.4922C5.94855 25.4283 5.9343 26.0369 7.2993 26.2719C5.3933 31.4507 11.8107 28.8969 13.0796 28.0479Z" fill="#FFDDCE"/>
<path fill-rule="evenodd" clip-rule="evenodd" d="M13.9677 4.67207C13.6474 4.74682 13.3324 4.83582 13.0262 4.93544C7.57512 6.73113 4.50524 11.2426 7.22274 15.8786C5.33811 18.7617 2.83411 20.4043 6.43618 22.1644C5.38261 23.2499 5.43243 23.7768 6.48243 24.4922C5.94855 25.4283 5.9343 26.0369 7.2993 26.2719C5.85424 30.1978 9.19286 29.6799 11.4441 28.8293C9.48649 29.2688 7.58936 28.9681 8.74436 25.8341C7.37755 25.5974 7.3918 24.9888 7.92574 24.0526C6.87749 23.3372 6.82593 22.8104 7.87949 21.7248C4.27924 19.9648 6.78143 18.3221 8.66611 15.4391C6.03399 10.9472 8.83336 6.57275 13.9677 4.67207Z" fill="#FFCEBF"/>
<path d="M20.7262 2.94138C20.5052 2.87219 20.2714 2.82488 20.0247 2.80675C19.8767 2.79581 19.7379 2.71213 19.663 2.572C19.3525 2.00063 18.8209 1.513 18.145 1.16725C17.4764 0.825188 16.667 0.625 15.7938 0.625C15.1672 0.625 14.5753 0.726875 14.0474 0.908875C13.5139 1.0945 13.0408 1.36012 12.6553 1.6895C12.5603 1.78231 12.4251 1.83325 12.2826 1.81687C12.2114 1.80781 12.1474 1.80231 12.0926 1.79869C12.0396 1.79506 11.9757 1.79325 11.9008 1.79325C11.0404 1.79325 10.2621 2.14081 9.69761 2.70125C9.13492 3.2635 8.78604 4.03869 8.78604 4.89569C8.78604 5.09037 8.80248 5.27419 8.83354 5.44525C8.86461 5.62356 8.91211 5.79644 8.97423 5.96381C9.05829 6.17125 8.97604 6.41144 8.7751 6.52425C8.28735 6.79175 7.87998 7.18844 7.59679 7.667C7.32461 8.12737 7.16748 8.66594 7.16748 9.24094C7.16748 10.0979 7.51642 10.8731 8.07904 11.4336C8.64354 11.9958 9.42173 12.3416 10.2822 12.3416C10.3516 12.3416 10.4045 12.3416 10.4429 12.3398H10.4447C10.4922 12.3361 10.5397 12.3325 10.589 12.3288C10.779 12.3033 10.9709 12.3997 11.0567 12.5817C11.3107 13.1131 11.7125 13.5625 12.2076 13.8755C12.688 14.1757 13.258 14.3523 13.87 14.3523C14.2956 14.3523 14.7012 14.2668 15.0684 14.1139C15.452 13.9556 15.7954 13.7227 16.0822 13.4333C16.2485 13.2677 16.517 13.255 16.696 13.4115C17.0322 13.7008 17.4177 13.9301 17.8397 14.0866C18.2434 14.2376 18.6855 14.3195 19.1477 14.3195C19.2884 14.3195 19.418 14.3122 19.5404 14.2995C19.6683 14.2868 19.7962 14.2668 19.9204 14.2413C20.0702 14.2085 20.231 14.2504 20.3442 14.3686C20.5872 14.6234 20.863 14.8436 21.1663 15.0219C21.4622 15.1948 21.7874 15.3294 22.1345 15.4186H22.1327C22.2368 15.4459 22.3318 15.5077 22.3957 15.6041C22.6899 16.0408 22.9182 16.5249 23.0753 17.0326C23.2342 17.5402 23.3237 18.077 23.3402 18.6192C23.342 18.7066 23.3694 18.7866 23.415 18.8522C23.4607 18.9177 23.5265 18.9686 23.6105 19.0014C23.6927 19.0341 23.7768 19.0414 23.8554 19.0233V19.0251L23.8572 19.0233C23.9339 19.0069 24.0088 18.9668 24.069 18.9031C24.4564 18.5083 24.7724 18.0224 24.9879 17.4748C25.1962 16.9471 25.3113 16.3611 25.3113 15.7425C25.3113 15.6243 25.3077 15.5169 25.3022 15.4204C25.2949 15.3113 25.2839 15.2094 25.273 15.1129C25.2492 14.9601 25.304 14.7999 25.4337 14.6962C25.8119 14.3888 26.1279 14.0103 26.3617 13.579C26.5883 13.1641 26.738 12.6983 26.791 12.2016C26.8002 12.1324 26.8239 12.0632 26.8659 11.9996C27.0632 11.7048 27.2204 11.3809 27.3263 11.0352C27.4268 10.704 27.4797 10.3492 27.4797 9.97619C27.4797 9.50856 27.3939 9.06456 27.2349 8.65694C27.0705 8.23663 26.8294 7.8545 26.5316 7.52694C26.4092 7.39956 26.3672 7.2085 26.4421 7.03744C26.5243 6.84819 26.5882 6.64625 26.6321 6.437C26.6723 6.23869 26.6942 6.02756 26.6942 5.80562C26.6942 4.95044 26.3453 4.17525 25.7826 3.613C25.2199 3.05256 24.4399 2.705 23.5813 2.705C23.2671 2.705 22.9638 2.7505 22.6789 2.836C22.3829 2.92519 22.1052 3.05619 21.855 3.22356C21.7143 3.31456 21.5298 3.32544 21.3764 3.2345C21.172 3.11244 20.9528 3.01413 20.7262 2.94138Z" fill="#FE93BB"/>
<path fill-rule="evenodd" clip-rule="evenodd" d="M17.947 5.28963H20.0434V7.46438H22.2182V9.55906H20.0434V11.7338H17.947V9.55906H15.7722V7.46438H17.947V5.28963Z" fill="#FE5694"/>
<path fill-rule="evenodd" clip-rule="evenodd" d="M17.947 5.28963H18.9952V11.7338H17.947V9.55906H15.7722V7.46438H17.947V5.28963Z" fill="#E54D85"/>
<path d="M26.2384 21.0946C25.091 23.9817 25.448 27.1441 27.3958 31.3483C27.4972 31.5672 27.4019 31.8268 27.1831 31.9282C27.1237 31.9558 27.0612 31.9688 26.9998 31.9688C26.8349 31.9688 26.6771 31.8749 26.6032 31.7155C25.6564 29.6717 25.0815 27.8748 24.8458 26.2219C24.5642 24.2468 24.7542 22.4641 25.4266 20.7719C25.6909 20.1072 26.0012 19.429 26.3298 18.7109C27.0912 17.0469 27.8785 15.3264 28.1635 13.6069C28.2029 13.3689 28.4277 13.2079 28.6657 13.2474C28.9037 13.2869 29.0647 13.5117 29.0252 13.7497C28.7212 15.584 27.9092 17.3584 27.124 19.0744C26.8003 19.7821 26.4945 20.4505 26.2384 21.0946ZM17.781 23.983C17.5854 23.8417 17.3124 23.8858 17.1713 24.0815C16.0787 25.5951 14.4878 26.5329 12.9519 27.3638C12.9407 27.3699 12.93 27.3766 12.9195 27.3836C12.9187 27.3841 12.9177 27.3844 12.9169 27.3849C11.9162 28.0544 8.80073 29.1974 7.82523 28.4289C7.28604 28.0043 7.52923 26.9477 7.82823 26.1361C7.87304 26.0145 7.86154 25.8792 7.79679 25.767C7.73204 25.6547 7.62079 25.5769 7.49304 25.5548C6.86761 25.4463 6.74636 25.2836 6.72411 25.2363C6.69061 25.1652 6.67986 24.9662 6.98429 24.4336C7.09717 24.2361 7.03948 23.985 6.85173 23.8565C6.45492 23.585 6.25373 23.3703 6.23673 23.2002C6.21636 22.997 6.43023 22.6633 6.87229 22.2085C6.96986 22.1082 7.01342 21.9671 6.98942 21.8293C6.96542 21.6914 6.87679 21.5733 6.75111 21.5118C5.81704 21.0547 5.31004 20.6085 5.20123 20.1477C5.04179 19.4724 5.73379 18.5655 6.53517 17.5154C6.90304 17.0333 7.32004 16.4869 7.70629 15.896C7.79698 15.7572 7.80129 15.5791 7.71748 15.4361C7.10636 14.3939 6.79042 13.3309 6.77842 12.2766C6.77573 12.0371 6.58073 11.8448 6.34179 11.8448C6.34011 11.8448 6.33842 11.8448 6.33673 11.8448C6.09554 11.8476 5.90223 12.0453 5.90498 12.2864C5.91773 13.4127 6.22823 14.5391 6.82836 15.6384C6.50392 16.1164 6.16754 16.5573 5.84073 16.9856C4.90492 18.2119 4.09667 19.2711 4.35117 20.3484C4.49992 20.9781 4.98423 21.5195 5.86186 22.0281C5.55379 22.4113 5.32254 22.8368 5.36767 23.2871C5.41229 23.7329 5.70423 24.0714 6.04492 24.3463C5.85873 24.7465 5.74123 25.1989 5.93392 25.6082C6.11111 25.9846 6.48167 26.1851 6.85236 26.3008C6.45423 27.6293 6.59904 28.5749 7.28498 29.1151C8.69148 30.2228 11.8465 28.9715 13.0664 28.3099C13.8777 29.3279 14.1637 30.4981 14.3847 31.6166C14.4259 31.8246 14.6084 31.9688 14.8127 31.9688C14.8408 31.9688 14.8692 31.9661 14.8979 31.9604C15.1345 31.9136 15.2884 31.6839 15.2417 31.4473C15.0066 30.2577 14.7007 29.0111 13.8354 27.8757C15.2646 27.0799 16.7984 26.0907 17.8797 24.5928C18.0208 24.3971 17.9767 24.1241 17.781 23.983ZM25.8767 15.5933C25.8767 16.9866 25.3475 18.3287 24.4248 19.2753C24.1752 19.5305 23.8502 19.6649 23.5146 19.6649C23.3558 19.6649 23.1947 19.6349 23.038 19.5732C22.549 19.3845 22.2354 18.9393 22.222 18.4123C22.1992 17.581 21.9584 16.7582 21.5411 16.0776C20.8649 15.877 20.246 15.5189 19.7318 15.0309C19.6605 15.0419 19.5889 15.0506 19.517 15.0581C19.4992 15.06 19.4813 15.0616 19.4634 15.0632C19.4113 15.0681 19.3591 15.0721 19.3068 15.0752C19.2865 15.0764 19.2662 15.0778 19.2459 15.0787C19.1764 15.0819 19.1069 15.0841 19.0373 15.0841C18.0866 15.0841 17.1637 14.783 16.3997 14.2297C15.705 14.8037 14.8414 15.1158 13.9289 15.1158C13.8711 15.1158 13.8135 15.114 13.756 15.1114C13.738 15.1106 13.72 15.1097 13.702 15.1087C13.6585 15.1061 13.6151 15.1027 13.5718 15.0988C13.5343 15.0953 13.4971 15.091 13.4599 15.0866C13.4387 15.0839 13.4174 15.0814 13.3962 15.0784C12.6264 14.9725 11.928 14.6406 11.37 14.1518C11.3662 14.1485 11.3623 14.1453 11.3585 14.1419C11.3328 14.1191 11.3072 14.0961 11.2821 14.0727C11.2589 14.0512 11.236 14.0293 11.2134 14.0072C11.1999 13.994 11.1861 13.9812 11.1729 13.9678C11.1339 13.9288 11.0959 13.8887 11.0585 13.8479C11.0543 13.8433 11.05 13.8386 11.0458 13.8339C10.8602 13.6298 10.6949 13.4053 10.5549 13.1623C10.5208 13.1632 10.4874 13.1637 10.4545 13.1637C8.31142 13.1637 6.56798 11.4194 6.56798 9.27538C6.56798 7.98419 7.21073 6.7835 8.26661 6.06262C8.21536 5.87056 8.17936 5.67506 8.15792 5.47738C8.15754 5.47412 8.15717 5.47094 8.15679 5.46769C8.15004 5.40375 8.14486 5.33956 8.14123 5.27525C8.14067 5.26512 8.14023 5.255 8.13973 5.24487C8.13661 5.18106 8.13454 5.11706 8.13454 5.05288C8.13454 2.90981 9.87804 1.16631 12.021 1.16631C12.0832 1.16631 12.146 1.16838 12.2092 1.17138C12.2226 1.172 12.2359 1.17269 12.2493 1.1735C12.2675 1.17456 12.2857 1.17513 12.304 1.17638C13.223 0.446625 14.4812 0.03125 15.7891 0.03125C17.6634 0.03125 19.3583 0.867 20.1831 2.17838C20.1933 2.17975 20.2035 2.18069 20.2136 2.18213C20.2292 2.18431 20.2444 2.18738 20.2592 2.19106C20.6556 2.25375 21.0435 2.37844 21.4032 2.56031C21.9896 2.22606 22.6494 2.0505 23.327 2.0505C25.471 2.0505 27.2153 3.79475 27.2153 5.93881C27.2153 6.38106 27.1423 6.8115 26.998 7.22213C27.6303 8.00569 27.9756 8.97881 27.9756 9.9915C27.9756 10.8322 27.739 11.6464 27.2904 12.353C27.1517 13.4147 26.6467 14.3769 25.8539 15.0949C25.869 15.2616 25.8767 15.4284 25.8767 15.5933ZM26.4344 12.1538C26.4419 12.0834 26.4664 12.0159 26.5057 11.9572C26.8959 11.3744 27.102 10.6947 27.102 9.99162C27.102 9.12456 26.7857 8.29419 26.2112 7.64575C25.8175 7.20131 25.3159 6.86088 24.7587 6.66131C24.5316 6.58 24.4135 6.33 24.4948 6.10288C24.5761 5.87581 24.826 5.75756 25.0532 5.83894C25.498 5.99825 25.9144 6.22944 26.2853 6.52025C26.3225 6.33037 26.3418 6.13625 26.3418 5.93888C26.3418 4.2765 24.9894 2.92412 23.327 2.92412C22.9514 2.92412 22.5829 2.99388 22.237 3.12838C22.8577 3.68019 23.2894 4.41937 23.458 5.25087C23.5059 5.48731 23.3532 5.71781 23.1167 5.76575C23.0875 5.77169 23.0582 5.7745 23.0295 5.7745C22.826 5.7745 22.6439 5.63156 22.6019 5.4245C22.4324 4.58806 21.9195 3.87156 21.187 3.43788C20.791 3.20213 20.341 3.0595 19.8854 3.02544C19.8838 3.02531 19.8822 3.02494 19.8806 3.02475C19.8031 3.01906 19.7258 3.01606 19.6492 3.01606C18.3004 3.01606 17.1064 3.92144 16.7457 5.21781C16.6919 5.41106 16.5164 5.53756 16.3252 5.53756C16.2864 5.53756 16.247 5.53238 16.2079 5.5215C15.9755 5.45688 15.8395 5.21606 15.9042 4.98369C16.3188 3.4935 17.5863 2.4045 19.0878 2.18425C18.3424 1.39063 17.1259 0.904813 15.7892 0.904813C14.9568 0.904813 14.1537 1.09944 13.4809 1.45162C14.0345 1.67575 14.5352 2.02587 14.9378 2.48369C15.0971 2.66481 15.0794 2.94081 14.8982 3.10006C14.8153 3.17306 14.7124 3.20887 14.61 3.20887C14.4887 3.20887 14.3682 3.15869 14.2818 3.0605C13.7841 2.4945 13.0932 2.13937 12.3494 2.05813C12.3342 2.05656 12.3191 2.0555 12.304 2.05419C12.2669 2.05069 12.2299 2.04731 12.1927 2.04525C12.135 2.04206 12.0776 2.04012 12.0212 2.04012C10.3599 2.04012 9.00817 3.39175 9.00817 5.05319C9.00817 5.10419 9.00973 5.155 9.01229 5.20563C9.01292 5.21825 9.01398 5.23081 9.01479 5.24337C9.01729 5.28312 9.02036 5.32287 9.02442 5.36237C9.02554 5.37356 9.02686 5.38475 9.02811 5.39594C9.03317 5.4405 9.03904 5.48487 9.04611 5.529C9.04686 5.53362 9.04748 5.53819 9.04823 5.54275C9.16111 6.22981 9.50911 6.86156 10.0412 7.32487C10.2231 7.48325 10.2422 7.75912 10.0838 7.94106C9.99742 8.04025 9.87617 8.09106 9.75423 8.09106C9.65248 8.09106 9.55035 8.05575 9.46761 7.98369C9.11236 7.67431 8.82161 7.30631 8.60261 6.90088C7.87767 7.46781 7.44161 8.34069 7.44161 9.27581C7.44161 10.8474 8.64992 12.1413 10.1857 12.2779C10.092 11.9442 10.0409 11.5929 10.0409 11.2297C10.0409 10.9884 10.2364 10.7929 10.4776 10.7929C10.7188 10.7929 10.9144 10.9885 10.9144 11.2297C10.9144 12.0075 11.2109 12.7174 11.6967 13.2525C11.6988 13.2547 11.7009 13.2569 11.7029 13.2592C11.7286 13.2873 11.755 13.3146 11.7817 13.3417C11.7918 13.3519 11.8019 13.3622 11.8122 13.3724C11.8291 13.3891 11.8465 13.4052 11.8638 13.4216C12.2868 13.8176 12.8189 14.0893 13.3945 14.1943C13.3949 14.1944 13.3953 14.1944 13.3957 14.1945C13.484 14.2106 13.5734 14.2222 13.6634 14.2303C13.6912 14.2327 13.7191 14.235 13.7472 14.2367C13.7629 14.2377 13.7786 14.2386 13.7944 14.2393C13.8391 14.2413 13.884 14.2427 13.9292 14.2427C14.59 14.2427 15.2179 14.0312 15.7368 13.6404C15.0101 12.8541 14.5795 11.8284 14.5395 10.749C14.5306 10.508 14.7187 10.3054 14.9598 10.2964C15.2003 10.2902 15.4035 10.4756 15.4124 10.7167C15.4498 11.7257 15.9104 12.6772 16.6767 13.3363C17.3331 13.9002 18.1709 14.2109 19.0375 14.2109C19.1 14.2109 19.1625 14.2092 19.2248 14.2061C21.1379 14.1083 22.6642 12.5212 22.6642 10.5843C22.6642 10.343 22.8597 10.1475 23.1009 10.1475C23.3421 10.1475 23.5377 10.3431 23.5377 10.5843C23.5377 12.4571 22.3874 14.0657 20.7566 14.7424C21.1105 14.9892 21.506 15.1712 21.9265 15.2781C22.0312 15.3047 22.1224 15.3693 22.1824 15.4592C22.7424 16.2992 23.0666 17.3399 23.0955 18.3895C23.0999 18.563 23.1946 18.6976 23.3554 18.7596C23.5182 18.8237 23.6793 18.7889 23.8002 18.6654C24.5647 17.8809 25.0035 16.7611 25.0035 15.5936C25.0035 15.3887 24.9894 15.1799 24.9615 14.9729C24.9412 14.8223 25.0007 14.6718 25.1186 14.5759C25.8651 13.9676 26.3325 13.1076 26.4344 12.1538ZM22.678 7.29688V9.37981C22.678 9.62106 22.4825 9.81656 22.2413 9.81656H20.5155V11.5406C20.5155 11.7818 20.32 11.9773 20.0788 11.9773H17.9976C17.7564 11.9773 17.5609 11.7817 17.5609 11.5406V9.81656H15.8369C15.5957 9.81656 15.4001 9.621 15.4001 9.37981V7.29688C15.4001 7.05562 15.5957 6.86013 15.8369 6.86013H17.5609V5.13613C17.5609 4.89488 17.7564 4.69938 17.9976 4.69938H20.0788C20.32 4.69938 20.5155 4.89494 20.5155 5.13613V6.86013H22.2413C22.4825 6.86013 22.678 7.05562 22.678 7.29688ZM21.8045 7.73362H20.0788C19.8376 7.73362 19.642 7.53806 19.642 7.29688V5.57288H18.4344V7.29688C18.4344 7.53813 18.2388 7.73362 17.9976 7.73362H16.2736V8.943H17.9976C18.2388 8.943 18.4344 9.13856 18.4344 9.37975V11.1038H19.642V9.37975C19.642 9.1385 19.8376 8.943 20.0788 8.943H21.8045V7.73362Z" fill="black"/>
</svg>
