<svg width="33" height="32" viewBox="0 0 33 32" fill="none" xmlns="http://www.w3.org/2000/svg">
<g clip-path="url(#clip0_80_2401)">
<path fill-rule="evenodd" clip-rule="evenodd" d="M16.6669 2.60838H15.5791C15.3382 2.60838 15.1397 2.80463 15.1397 3.04681V13.8691L9.46142 17.8943C7.9838 19.0664 9.49861 21.0339 10.8841 20.1217L14.5994 17.4983C15.2159 17.0634 15.8874 16.6639 16.6669 16.6639C17.4057 16.6639 18.0471 17.0139 18.7345 17.4983L22.4497 20.1217C23.837 21.0339 25.35 19.0663 23.8724 17.8943L18.1941 13.8691C18.1941 10.2611 18.1941 6.65306 18.1941 3.04681C18.1941 2.80463 17.9974 2.60838 17.7547 2.60838H16.6669Z" fill="#FED2A4"/>
<path fill-rule="evenodd" clip-rule="evenodd" d="M16.5624 3.04675V14.4931L20.8765 17.5513L20.8801 17.5124L21.0484 15.9586L21.0555 15.8967L18.1942 13.8691V3.04675C18.1942 2.80456 17.9975 2.60831 17.7548 2.60831H16.667H16.123C16.364 2.60838 16.5624 2.80456 16.5624 3.04675Z" fill="#FFBD86"/>
<path fill-rule="evenodd" clip-rule="evenodd" d="M32.1428 24.5252C31.6414 19.556 28.6419 12.4071 25.5006 10.4431C23.5057 9.19687 21.695 9.97818 21.4647 12.1084L21.0483 15.9586L20.7117 19.0663L20.6001 20.1111C20.5753 20.3568 20.5504 20.5989 20.5256 20.8359C20.7754 22.5064 21.8438 25.1828 24.9336 25.9429L31.8858 27.6524C32.1923 26.8233 32.265 25.7432 32.1428 24.5252Z" fill="#F47C7C"/>
<path fill-rule="evenodd" clip-rule="evenodd" d="M28.5604 29.3035C30.348 29.6464 31.4057 28.9553 31.8859 27.6524L24.9337 25.9429C21.8438 25.1828 20.7755 22.5064 20.5257 20.8359C20.1324 24.7479 19.9817 27.6559 23.6385 28.3578L28.5604 29.3035Z" fill="#E94444"/>
<path fill-rule="evenodd" clip-rule="evenodd" d="M9.69531 28.3577C13.3539 27.6559 13.2033 24.7479 12.8082 20.8358C12.5584 22.5064 11.4901 25.1828 8.40019 25.9429L1.448 27.6524C1.92812 28.9553 2.98581 29.6464 4.7735 29.3035L9.69531 28.3577Z" fill="#E94444"/>
<path fill-rule="evenodd" clip-rule="evenodd" d="M8.4001 25.9429C11.49 25.1828 12.5583 22.5064 12.8081 20.8359C12.785 20.599 12.7603 20.3568 12.7337 20.1111L12.622 19.0663L12.2943 16.0452L11.8691 12.1084C11.6388 9.97818 9.8281 9.19687 7.83316 10.4431C4.69366 12.4071 1.69241 19.5542 1.19279 24.5252C1.06879 25.7432 1.14141 26.8215 1.44791 27.6524L8.4001 25.9429Z" fill="#F47C7C"/>
<path fill-rule="evenodd" clip-rule="evenodd" d="M23.5216 10.4431C26.6629 12.4071 29.6641 19.556 30.1638 24.5252C30.2665 25.5328 30.2346 26.445 30.0468 27.1998L31.8859 27.6524C32.1924 26.8233 32.265 25.7432 32.1428 24.5252C31.6414 19.556 28.6419 12.4071 25.5006 10.4431C24.4624 9.79437 23.4738 9.69537 22.7314 10.0489C22.9901 10.1444 23.2541 10.2752 23.5216 10.4431Z" fill="#EE6161"/>
<path fill-rule="evenodd" clip-rule="evenodd" d="M27.9119 29.1779L28.5603 29.3034C30.3479 29.6464 31.4057 28.9552 31.8858 27.6523L30.0467 27.1997L29.9617 27.1786C29.6517 28.2711 28.9926 29.0065 27.9119 29.1779Z" fill="#D83131"/>
<path fill-rule="evenodd" clip-rule="evenodd" d="M10.356 12.3417C10.7245 15.7517 11.481 20.5972 11.4898 23.9719C12.2977 22.9412 12.6733 21.7409 12.808 20.8359C12.5121 17.9261 12.1843 15.0164 11.869 12.1084C11.6652 10.2133 10.2107 9.386 8.48853 10.1019C9.48609 10.2451 10.2143 11.0424 10.356 12.3417Z" fill="#EE6161"/>
<path fill-rule="evenodd" clip-rule="evenodd" d="M11.4934 23.9683C11.5129 25.9641 11.1426 27.571 9.67212 28.363L9.69518 28.3577C13.3537 27.6559 13.2032 24.7479 12.8081 20.8358C12.6734 21.7392 12.2978 22.9378 11.4934 23.9683Z" fill="#D83131"/>
<path d="M32.3229 27.818C32.6446 26.9474 32.7435 25.8205 32.6092 24.4782C32.3773 22.1793 31.6179 19.3867 30.5241 16.8166C30.4229 16.5778 30.1479 16.4672 29.9097 16.5684C29.671 16.6697 29.5604 16.9447 29.6616 17.1834C30.7198 19.6704 31.4535 22.3631 31.6767 24.5719C31.7753 25.5589 31.7354 26.4116 31.5657 27.0908L25.0457 25.4877C21.8854 24.7102 21.155 21.7983 20.9986 20.8261C21.0342 20.4671 21.3285 17.7309 21.3285 17.7309C22.1915 16.9419 23.2216 17.0723 23.7728 17.2272C24.3034 17.3764 24.7979 17.6487 25.2224 18.0069C24.6975 18.2388 24.163 18.6539 23.777 19.1631C23.6206 19.3694 23.661 19.6635 23.8674 19.8199C23.952 19.8841 24.0515 19.9151 24.1502 19.9151C24.2919 19.9151 24.432 19.8511 24.5242 19.7294C24.9245 19.2014 25.5251 18.8331 25.9184 18.7578C26.2246 19.1826 26.45 19.664 26.5654 20.1722C26.6148 20.3898 26.8081 20.5374 27.0221 20.5374C27.0565 20.5374 27.0914 20.5336 27.1263 20.5256C27.3787 20.4683 27.537 20.2172 27.4797 19.9647C27.1285 18.4175 25.9537 17.07 24.4854 16.4809C24.5619 16.1138 24.7537 15.8527 24.9211 15.6871C25.2154 15.3959 25.627 15.2091 25.973 15.2091C25.978 15.2091 25.983 15.2091 25.9879 15.2091C26.2445 15.2091 26.4539 15.0024 26.4565 14.7452C26.4592 14.4864 26.2516 14.2743 25.9927 14.2716C25.3883 14.2649 24.7419 14.5453 24.2616 15.0206C23.9221 15.3566 23.6905 15.772 23.5827 16.2255C22.8242 16.0987 22.0954 16.2004 21.46 16.5149L21.551 15.6739L21.9304 12.1587C22.0185 11.3424 22.3717 10.7455 22.9249 10.4767C23.5486 10.1736 24.3968 10.3061 25.2519 10.8405C26.3925 11.5542 27.6351 13.1212 28.7508 15.2532C28.8708 15.4826 29.1545 15.5713 29.3833 15.4507C29.6127 15.3307 29.7014 15.0476 29.5814 14.8182C28.7389 13.2075 27.3894 11.0717 25.7487 10.0455C24.6143 9.33675 23.4355 9.18606 22.5155 9.633C21.661 10.048 21.1229 10.9093 20.9985 12.0581L20.6748 15.0532L18.6629 13.6269V3.04662C18.6629 2.54662 18.2554 2.13969 17.7547 2.13969H15.5789C15.0783 2.13969 14.6707 2.54656 14.6707 3.04662V13.6271L12.6588 15.0534L12.335 12.0583C12.2107 10.9095 11.6725 10.0482 10.8181 9.63381C9.89804 9.18631 8.71985 9.33631 7.58423 10.0457C5.94791 11.0701 4.59723 13.2064 3.75216 14.8184C3.63216 15.0477 3.72029 15.3309 3.94966 15.4509C4.17904 15.5709 4.46216 15.4827 4.58279 15.2534C5.70098 13.1201 6.94354 11.5526 8.08166 10.8407C8.93673 10.3063 9.78485 10.1737 10.4087 10.4769C10.9618 10.7457 11.315 11.3426 11.4031 12.1589L11.7831 15.6741L11.8737 16.5152C11.2384 16.2007 10.5095 16.0991 9.75085 16.2258C9.64304 15.7722 9.41148 15.3568 9.07198 15.0209C8.59698 14.5508 7.95885 14.2717 7.36091 14.2717C7.35429 14.2717 7.34754 14.2718 7.34091 14.2719C7.08204 14.2746 6.87435 14.4866 6.8771 14.7455C6.87979 15.0027 7.0891 15.2094 7.34573 15.2094H7.35073C7.69973 15.2072 8.11548 15.3933 8.41254 15.6872C8.57991 15.8529 8.77185 16.1141 8.84829 16.4812C7.3801 17.0704 6.20591 18.4181 5.85573 19.9652C5.79854 20.2177 5.95691 20.4688 6.20941 20.5259C6.24429 20.5338 6.27904 20.5376 6.31335 20.5376C6.52748 20.5376 6.72085 20.3899 6.7701 20.1722C6.88516 19.6639 7.11029 19.1824 7.41635 18.7577C7.81041 18.8326 8.4101 19.2021 8.81173 19.7302C8.90398 19.8514 9.04379 19.9152 9.18516 19.9152C9.2841 19.9152 9.38379 19.8841 9.4686 19.8196C9.67466 19.6629 9.71466 19.3687 9.55798 19.1627C9.1711 18.654 8.63648 18.2389 8.11185 18.007C8.53591 17.649 9.02991 17.3769 9.56016 17.2276C10.1115 17.0724 11.1419 16.9417 12.0051 17.7309C12.0051 17.7309 12.3211 20.6857 12.335 20.8262C12.1787 21.7986 11.4483 24.7103 8.28804 25.4877L1.76848 27.0908C1.59916 26.4116 1.55966 25.5591 1.65904 24.5719C1.88216 22.3599 2.61598 19.6667 3.67223 17.1835C3.77348 16.9447 3.66285 16.6697 3.4241 16.5685C3.18598 16.4672 2.91098 16.5779 2.80973 16.8166C1.71779 19.3829 0.958352 22.1756 0.726477 24.4782C0.591164 25.8213 0.689602 26.9489 1.0116 27.8201C1.0146 27.8279 1.01685 27.8363 1.02023 27.8439C1.21679 28.3663 1.49454 28.7952 1.85154 29.1215C2.38966 29.6134 3.0791 29.8603 3.9091 29.8603C4.20848 29.8603 4.5266 29.8284 4.86166 29.7641L9.78379 28.8184C11.7114 28.4484 12.8514 27.4452 13.2689 25.7507C13.6022 24.3986 13.4694 22.7309 13.2763 20.8122C13.2755 20.796 13.0989 19.1317 13.0989 19.1317L14.8696 17.8816C15.5065 17.4322 16.0559 17.1329 16.6672 17.1329C17.2778 17.1329 17.8272 17.4323 18.4641 17.881L20.2342 19.1311L20.1335 20.0636C20.1082 20.3123 20.0698 20.5627 20.0574 20.8122C19.8644 22.7309 19.7315 24.3986 20.0648 25.7507C20.4823 27.4452 21.6224 28.4484 23.55 28.8177L28.4721 29.7641C28.8071 29.8284 29.1253 29.8603 29.4247 29.8603C30.2541 29.8603 30.9441 29.6134 31.4816 29.1215C31.8386 28.7954 32.1166 28.3665 32.3134 27.8441C32.3172 27.8358 32.3197 27.8266 32.3229 27.818ZM15.6084 13.4003V11.5217H17.7254V13.4003H15.6084ZM15.6084 8.7075H17.7254V10.5842H15.6084V8.7075ZM17.7254 7.76994H15.6084V5.89144H17.7254V7.76994ZM17.7254 3.07725V4.95387H15.6084V3.07725H17.7254ZM9.60685 27.8971L4.68473 28.8434C3.72591 29.0271 2.98591 28.8884 2.48398 28.4296C2.34548 28.3028 2.22298 28.1491 2.11648 27.9707L8.51198 26.3981C10.6692 25.8674 11.861 24.5046 12.5169 23.234C12.6093 25.9231 12.0787 27.4234 9.60685 27.8971ZM19.0048 17.1154C18.3272 16.6372 17.5747 16.1953 16.6672 16.1953C15.759 16.1953 15.0065 16.6372 14.3289 17.1154L12.9839 18.0654L12.9214 17.4869C12.9204 17.4682 12.9185 17.4495 12.9153 17.4311L12.7738 16.121L15.289 14.3379H18.0446L20.5597 16.1204L20.3497 18.0648L19.0048 17.1154ZM30.8491 28.4296C30.3479 28.8884 29.6072 29.0271 28.649 28.8434L23.7269 27.8971C21.255 27.4233 20.7244 25.923 20.8168 23.2339C21.4727 24.5045 22.6644 25.8674 24.8217 26.3981L31.217 27.9706C31.1104 28.1491 30.9878 28.3029 30.8491 28.4296Z" fill="black"/>
</g>
<defs>
<clipPath id="clip0_80_2401">
<rect width="32" height="32" fill="white" transform="translate(0.66748)"/>
</clipPath>
</defs>
</svg>
