<svg width="24" height="24" viewBox="0 0 24 24" fill="none" xmlns="http://www.w3.org/2000/svg">
<circle cx="12" cy="12" r="12" fill="#E6F3EF"/>
<path d="M15.5759 11.2858H12.7187V8.42864C12.7187 8.2392 12.6435 8.05752 12.5095 7.92357C12.3756 7.78961 12.1939 7.71436 12.0045 7.71436C11.815 7.71436 11.6333 7.78961 11.4994 7.92357C11.3654 8.05752 11.2902 8.2392 11.2902 8.42864V11.2858H8.43304C8.2436 11.2858 8.06191 11.361 7.92796 11.495C7.79401 11.6289 7.71875 11.8106 7.71875 12.0001C7.71875 12.1895 7.79401 12.3712 7.92796 12.5051C8.06191 12.6391 8.2436 12.7144 8.43304 12.7144H11.2902V15.5715C11.2902 15.7609 11.3654 15.9426 11.4994 16.0766C11.6333 16.2105 11.815 16.2858 12.0045 16.2858C12.1939 16.2858 12.3756 16.2105 12.5095 16.0766C12.6435 15.9426 12.7187 15.7609 12.7187 15.5715V12.7144H15.5759C15.7653 12.7144 15.947 12.6391 16.081 12.5051C16.2149 12.3712 16.2902 12.1895 16.2902 12.0001C16.2902 11.8106 16.2149 11.6289 16.081 11.495C15.947 11.361 15.7653 11.2858 15.5759 11.2858Z" fill="black"/>
</svg>
