<svg width="18" height="18" viewBox="0 0 18 18" fill="none" xmlns="http://www.w3.org/2000/svg">
<g clip-path="url(#clip0_866_13199)">
<path d="M17.7803 16.7198L13.3036 12.243C14.5235 10.751 15.1234 8.84709 14.979 6.92519C14.8346 5.00329 13.957 3.21042 12.5278 1.91741C11.0985 0.624402 9.22703 -0.0698112 7.30031 -0.0216374C5.3736 0.0265365 3.53911 0.813412 2.17629 2.17623C0.813473 3.53905 0.0265975 5.37354 -0.0215763 7.30025C-0.0697502 9.22696 0.624463 11.0985 1.91747 12.5277C3.21048 13.9569 5.00335 14.8345 6.92525 14.9789C8.84715 15.1233 10.751 14.5235 12.2431 13.3035L16.7198 17.7803C16.8613 17.9169 17.0507 17.9925 17.2474 17.9908C17.444 17.9891 17.6321 17.9102 17.7712 17.7711C17.9103 17.6321 17.9891 17.444 17.9908 17.2473C17.9925 17.0507 17.917 16.8612 17.7803 16.7198ZM7.50008 13.5C6.31339 13.5 5.15335 13.1481 4.16666 12.4888C3.17996 11.8295 2.41093 10.8925 1.9568 9.79612C1.50268 8.69976 1.38386 7.49336 1.61537 6.32948C1.84688 5.16559 2.41832 4.09649 3.25744 3.25738C4.09656 2.41826 5.16565 1.84682 6.32954 1.61531C7.49343 1.3838 8.69982 1.50262 9.79618 1.95674C10.8925 2.41087 11.8296 3.1799 12.4889 4.1666C13.1482 5.15329 13.5001 6.31333 13.5001 7.50002C13.4983 9.09077 12.8656 10.6159 11.7407 11.7407C10.6159 12.8655 9.09083 13.4982 7.50008 13.5Z" fill="#239EA0"/>
</g>
<defs>
<clipPath id="clip0_866_13199">
<rect width="18" height="18" fill="white"/>
</clipPath>
</defs>
</svg>
