<svg width="30" height="30" viewBox="0 0 30 30" fill="none" xmlns="http://www.w3.org/2000/svg">
<path d="M6.25 13.75H18.75L14.6375 9.63751C14.5203 9.52131 14.4273 9.38306 14.3639 9.23074C14.3004 9.07841 14.2678 8.91503 14.2678 8.75001C14.2678 8.585 14.3004 8.42162 14.3639 8.26929C14.4273 8.11697 14.5203 7.97872 14.6375 7.86251C14.8717 7.6297 15.1885 7.49902 15.5187 7.49902C15.849 7.49902 16.1658 7.6297 16.4 7.86251L21.7625 13.2375C22.232 13.7042 22.4972 14.338 22.5 15C22.4939 15.6576 22.2289 16.2864 21.7625 16.75L16.4 22.125C16.2835 22.2407 16.1453 22.3324 15.9933 22.3947C15.8413 22.457 15.6786 22.4888 15.5143 22.4882C15.3501 22.4876 15.1876 22.4547 15.036 22.3913C14.8845 22.3279 14.747 22.2353 14.6312 22.1188C14.5155 22.0022 14.4239 21.864 14.3616 21.7121C14.2992 21.5601 14.2675 21.3973 14.2681 21.2331C14.2686 21.0688 14.3016 20.9063 14.3649 20.7548C14.4283 20.6033 14.521 20.4657 14.6375 20.35L18.75 16.25H6.25C5.91848 16.25 5.60053 16.1183 5.36611 15.8839C5.13169 15.6495 5 15.3315 5 15C5 14.6685 5.13169 14.3506 5.36611 14.1161C5.60053 13.8817 5.91848 13.75 6.25 13.75Z" fill="#342A5E"/>
</svg>
