<svg width="30" height="30" viewBox="0 0 30 30" fill="none" xmlns="http://www.w3.org/2000/svg">
<path d="M21.25 16.2373H8.75L12.8625 20.3498C12.9797 20.466 13.0727 20.6042 13.1361 20.7566C13.1996 20.9089 13.2322 21.0723 13.2322 21.2373C13.2322 21.4023 13.1996 21.5657 13.1361 21.718C13.0727 21.8703 12.9797 22.0086 12.8625 22.1248C12.6283 22.3576 12.3115 22.4883 11.9813 22.4883C11.651 22.4883 11.3342 22.3576 11.1 22.1248L5.7375 16.7498C5.26802 16.2831 5.00279 15.6493 5 14.9873C5.00608 14.3297 5.27106 13.7009 5.7375 13.2373L11.1 7.86229C11.2165 7.74656 11.3547 7.65492 11.5067 7.59261C11.6587 7.53029 11.8214 7.49851 11.9857 7.49909C12.1499 7.49968 12.3124 7.5326 12.464 7.59599C12.6155 7.65938 12.753 7.75199 12.8688 7.86854C12.9845 7.98509 13.0761 8.12329 13.1384 8.27525C13.2008 8.42722 13.2325 8.58997 13.2319 8.75421C13.2314 8.91845 13.1984 9.08097 13.1351 9.23249C13.0717 9.38401 12.979 9.52156 12.8625 9.63729L8.75 13.7373L21.25 13.7373C21.5815 13.7373 21.8995 13.869 22.1339 14.1034C22.3683 14.3378 22.5 14.6558 22.5 14.9873C22.5 15.3188 22.3683 15.6368 22.1339 15.8712C21.8995 16.1056 21.5815 16.2373 21.25 16.2373Z" fill="#342A5E"/>
</svg>
