<svg width="20" height="21" viewBox="0 0 20 21" fill="none" xmlns="http://www.w3.org/2000/svg">
<path d="M19.4036 3.8975C19.1633 3.6162 18.8625 3.38996 18.5225 3.23485C18.1824 3.07973 17.8116 2.99955 17.4362 3H3.62393L3.58805 2.7075C3.51462 2.09951 3.21505 1.53894 2.74613 1.13206C2.27721 0.725186 1.67154 0.500285 1.04395 0.5L0.854297 0.5C0.627723 0.5 0.410429 0.587797 0.250218 0.744078C0.090006 0.900358 0 1.11232 0 1.33333C0 1.55435 0.090006 1.76631 0.250218 1.92259C0.410429 2.07887 0.627723 2.16667 0.854297 2.16667H1.04395C1.2532 2.16669 1.45516 2.24163 1.61152 2.37726C1.76789 2.5129 1.86779 2.69979 1.89227 2.9025L3.06778 12.6525C3.18982 13.6665 3.68926 14.6015 4.47131 15.28C5.25336 15.9585 6.26358 16.3334 7.31022 16.3333H16.2316C16.4582 16.3333 16.6755 16.2455 16.8357 16.0893C16.9959 15.933 17.0859 15.721 17.0859 15.5C17.0859 15.279 16.9959 15.067 16.8357 14.9107C16.6755 14.7545 16.4582 14.6667 16.2316 14.6667H7.31022C6.78145 14.6652 6.26609 14.5043 5.83479 14.2059C5.40349 13.9075 5.07735 13.4863 4.9011 13H15.0843C16.0858 13.0001 17.0555 12.6569 17.8239 12.0304C18.5923 11.4039 19.1106 10.5339 19.2883 9.5725L19.9589 5.94417C20.0259 5.58417 20.0108 5.21422 19.9149 4.86053C19.8189 4.50684 19.6444 4.17806 19.4036 3.8975Z" fill="white"/>
<path d="M5.98008 20.4998C6.92371 20.4998 7.68867 19.7536 7.68867 18.8332C7.68867 17.9127 6.92371 17.1665 5.98008 17.1665C5.03645 17.1665 4.27148 17.9127 4.27148 18.8332C4.27148 19.7536 5.03645 20.4998 5.98008 20.4998Z" fill="white"/>
<path d="M14.523 20.4998C15.4667 20.4998 16.2316 19.7536 16.2316 18.8332C16.2316 17.9127 15.4667 17.1665 14.523 17.1665C13.5794 17.1665 12.8145 17.9127 12.8145 18.8332C12.8145 19.7536 13.5794 20.4998 14.523 20.4998Z" fill="white"/>
</svg>
