<svg width="15" height="15" viewBox="0 0 15 15" fill="none" xmlns="http://www.w3.org/2000/svg">
<path d="M14.9146 5.41398C14.8668 5.26577 14.7765 5.1349 14.6549 5.03764C14.5333 4.94038 14.3857 4.88103 14.2306 4.86698L9.91163 4.47498L8.20463 0.474978C8.14177 0.333596 8.03925 0.213477 7.90951 0.129173C7.77977 0.0448697 7.62836 0 7.47363 0C7.3189 0 7.16749 0.0448697 7.03775 0.129173C6.90801 0.213477 6.80549 0.333596 6.74263 0.474978L5.03563 4.47498L0.71663 4.86698C0.562685 4.88311 0.416725 4.94355 0.296448 5.04098C0.17617 5.13841 0.0867399 5.26864 0.0390001 5.41589C-0.00873975 5.56313 -0.012739 5.72106 0.0274873 5.87053C0.0677136 6.02 0.150438 6.15459 0.26563 6.25798L3.52863 9.12098L2.56663 13.36C2.53173 13.5117 2.54222 13.6704 2.59681 13.8163C2.6514 13.9621 2.74767 14.0887 2.87365 14.1802C2.99962 14.2718 3.14974 14.3243 3.30531 14.3312C3.46089 14.3381 3.61506 14.299 3.74863 14.219L7.47363 11.993L11.1936 14.219C11.3273 14.2989 11.4814 14.3377 11.637 14.3308C11.7925 14.3238 11.9426 14.2714 12.0686 14.1799C12.1946 14.0884 12.2909 13.9619 12.3457 13.8162C12.4005 13.6704 12.4112 13.5118 12.3766 13.36L11.4146 9.12098L14.6786 6.25898C14.7955 6.15608 14.8798 6.02133 14.9212 5.87123C14.9625 5.72113 14.9592 5.56222 14.9116 5.41398H14.9146Z" fill="#FFC107"/>
</svg>
