<svg xmlns="http://www.w3.org/2000/svg" width="19.965" height="20.833" viewBox="0 0 19.965 20.833">
  <g id="Group_47690" data-name="Group 47690" transform="translate(-10.667)">
    <path id="Path_84999" data-name="Path 84999" d="M254.883,134.083v10.851a2.1,2.1,0,0,1-.365,1.2,2.008,2.008,0,0,1-.269.339l-8.611-8.611-.3-.3,5.929-5.929.373.234,3.038,1.849A.44.44,0,0,1,254.883,134.083Z" transform="translate(-225.119 -126.27)" fill="#cfd8dc"/>
    <path id="Path_85000" data-name="Path 85000" d="M26.144,66.752l-6.233,6.233L11.3,81.6a2.006,2.006,0,0,1-.269-.339,2.1,2.1,0,0,1-.365-1.2V66.17A2.17,2.17,0,0,1,12.837,64h8.681a.515.515,0,0,1,.226.061l4.028,2.457Z" transform="translate(0 -61.396)" fill="#4caf50"/>
    <path id="Path_85001" data-name="Path 85001" d="M44.071,286.248a2,2,0,0,1-.339.269,2.1,2.1,0,0,1-1.2.365H27.777a2.1,2.1,0,0,1-1.2-.365,2,2,0,0,1-.339-.269l8.611-8.611.3-.3.3.3Z" transform="translate(-14.941 -266.048)" fill="#2196f3"/>
    <path id="Path_85002" data-name="Path 85002" d="M244.461,275.852a1.905,1.905,0,0,1-.608.608l-8.88-8.88a.43.43,0,0,1,.608-.608Z" transform="translate(-215.062 -255.991)" fill="#fafafa"/>
    <path id="Path_85003" data-name="Path 85003" d="M35.114,126.336l-6,6-8.88,8.88a1.9,1.9,0,0,1-.608-.608l14.74-14.74Z" transform="translate(-8.597 -120.745)" fill="#ffc107"/>
    <g id="Group_47689" data-name="Group 47689" transform="translate(12.403 4.34)">
      <path id="Path_85004" data-name="Path 85004" d="M65.737,110.138a1.736,1.736,0,1,1,1.736-1.736A1.736,1.736,0,0,1,65.737,110.138Zm0-2.6a.868.868,0,1,0,.868.868A.868.868,0,0,0,65.737,107.534Z" transform="translate(-63.567 -106.666)" fill="#fafafa"/>
      <path id="Path_85005" data-name="Path 85005" d="M98.171,107.534H96.435a.434.434,0,0,1,0-.868h1.736a.434.434,0,0,1,0,.868Z" transform="translate(-94.265 -106.666)" fill="#fafafa"/>
      <path id="Path_85006" data-name="Path 85006" d="M55.5,175.007a1.954,1.954,0,0,1-2.168-1.714l0-.022c0-.812.771-1.359,2.293-1.634a1.222,1.222,0,0,1-.123-.536.434.434,0,1,1,.868,0c0,.2.18.384.475.669a2.083,2.083,0,0,1,.827,1.5C57.674,174.8,56.633,175.007,55.5,175.007Zm.764-2.589c-1.521.192-2.066.576-2.066.852,0,.174.232.868,1.3.868,1.244,0,1.3-.3,1.3-.868C56.806,172.967,56.6,172.744,56.268,172.419Z" transform="translate(-53.334 -168.063)" fill="#fafafa"/>
    </g>
    <g id="Group_47892" data-name="Group 47892" transform="translate(21.083)">
      <path id="Path_85007" data-name="Path 85007" d="M271.442,0a4.78,4.78,0,0,0-4.774,4.774,4.223,4.223,0,0,0,.077.781,4.656,4.656,0,0,0,.735,1.88c.2.347.434.708.68,1.094a17.747,17.747,0,0,1,2.857,6.748.434.434,0,0,0,.851,0,17.746,17.746,0,0,1,2.856-6.749c.247-.385.478-.743.662-1.065a4.706,4.706,0,0,0,.752-1.9,4.284,4.284,0,0,0,.079-.789A4.78,4.78,0,0,0,271.442,0Z" transform="translate(-266.668)" fill="#f44336"/>
      <circle id="Ellipse_494" data-name="Ellipse 494" cx="2.17" cy="2.17" r="2.17" transform="translate(2.604 2.604)" fill="#c62828"/>
    </g>
  </g>
</svg>
