<svg width="33" height="32" viewBox="0 0 33 32" fill="none" xmlns="http://www.w3.org/2000/svg">
<g clip-path="url(#clip0_76_6867)">
<path fill-rule="evenodd" clip-rule="evenodd" d="M21.8047 14.0627C18.914 15.0473 17.5234 18.5166 17.5234 21.3498C17.5234 24.1849 18.914 27.6541 21.8047 28.6387C22.2502 28.7896 22.7137 28.8686 23.1844 28.8686C23.6551 28.8686 25.387 28.7896 25.8326 28.6387C28.7232 27.6541 30.1138 24.1849 30.1138 21.3498C30.1138 19.7059 29.6467 17.85 28.6891 16.3876C27.9974 15.3276 27.0471 14.4759 25.8326 14.0627C25.387 13.9101 23.6551 13.831 23.1844 13.831C22.7137 13.831 22.2484 13.9101 21.8047 14.0627Z" fill="#FED2A4"/>
<path fill-rule="evenodd" clip-rule="evenodd" d="M22.6151 14.0089C23.8296 14.4239 24.7782 15.2755 25.4717 16.3355C25.5238 16.4164 25.5758 16.4972 25.6243 16.5798C26.4777 18.0009 26.8963 19.7436 26.8963 21.2977C26.8963 22.7081 26.5514 24.2729 25.8507 25.6132C25.1428 26.9679 24.0685 28.0908 22.6151 28.5866C22.4444 28.6441 22.272 28.6908 22.0977 28.7267C22.4534 28.8202 22.8163 28.8687 23.1846 28.8687C23.6553 28.8687 25.3872 28.7896 25.8327 28.6387C28.7234 27.6542 30.114 24.1849 30.114 21.3499C30.114 19.706 29.6468 17.8501 28.6893 16.3876C27.9976 15.3276 27.0472 14.476 25.8327 14.0628C25.3818 13.9083 23.6517 13.8311 23.1756 13.8311C22.8863 13.8329 22.6007 13.8616 22.3204 13.9209C22.4192 13.9477 22.518 13.9765 22.6151 14.0089Z" fill="#FFBD86"/>
<path fill-rule="evenodd" clip-rule="evenodd" d="M23.1846 11.1702C22.4516 11.1702 21.8533 11.7684 21.8533 12.5015C21.8533 13.2309 22.448 13.8274 23.1756 13.831H23.1846C23.6553 13.831 24.1188 13.9101 24.5643 14.0627C25.7788 14.476 26.7292 15.3276 27.4226 16.3876C28.3784 17.85 28.8455 19.7059 28.8455 21.3498C28.8455 24.1849 27.455 27.6541 24.5643 28.6387C24.1187 28.7896 23.6552 28.8686 23.1845 28.8686C22.4515 28.8686 21.8533 29.4669 21.8533 30.1999C21.8533 30.9312 22.4533 31.5312 23.1845 31.5312C26.7723 31.5312 29.8318 28.7537 30.9996 24.8604C32.5033 19.8551 31.102 14.264 28.8527 9.76706C27.7011 7.46737 26.1021 4.52275 26.2621 1.87994C26.307 1.14869 25.7465 0.516311 25.0153 0.471373C24.2823 0.426436 23.6499 0.986998 23.605 1.71825C23.4055 4.99525 25.0494 8.11419 26.4723 10.9582C26.7076 11.4289 26.9555 11.9212 27.1981 12.4297C26.0088 11.6266 24.6398 11.1702 23.1846 11.1702Z" fill="#F47C7C"/>
<path fill-rule="evenodd" clip-rule="evenodd" d="M24.8698 1.87987C24.7099 4.52269 26.3088 7.46738 27.4604 9.767C29.7097 14.2639 31.111 19.855 29.6073 24.8604C28.5455 28.3961 25.9243 31.012 22.7642 31.4629C22.8953 31.5061 23.0372 31.5312 23.1845 31.5312C26.7723 31.5312 29.8318 28.7536 30.9996 24.8604C32.5033 19.855 31.102 14.2639 28.8527 9.767C27.7011 7.46731 26.1022 4.52269 26.2621 1.87987C26.307 1.14862 25.7465 0.51625 25.0153 0.471312C24.7314 0.453375 24.4637 0.527 24.2373 0.665375C24.6434 0.915125 24.9003 1.37506 24.8698 1.87987Z" fill="#EE6161"/>
<path fill-rule="evenodd" clip-rule="evenodd" d="M8.03948 13.9962C5.14879 14.9826 3.25342 18.5166 3.25342 21.3498C3.25342 25.2844 5.37154 28.8686 9.48573 28.8686C9.95642 28.8686 10.4199 28.7896 10.8655 28.6387C13.7562 27.6541 15.1467 24.1849 15.1467 21.3498C15.1467 18.5166 13.7562 15.0473 10.8655 14.0627C10.4199 13.9101 9.95642 13.831 9.48573 13.831C9.01323 13.831 8.48504 13.8454 8.03948 13.9962Z" fill="#FED2A4"/>
<path fill-rule="evenodd" clip-rule="evenodd" d="M3.81755 9.76706C1.56642 14.264 0.166921 19.8551 1.66886 24.8604C2.83842 28.7537 5.89617 31.5312 9.48573 31.5312C10.2169 31.5312 10.8152 30.9312 10.8152 30.1999C10.8152 29.4669 10.2169 28.8686 9.48573 28.8686C9.01323 28.8686 8.55155 28.7896 8.10417 28.6387C6.88967 28.2254 5.94111 27.3721 5.24761 26.3121C4.29186 24.8496 3.82292 22.9937 3.82292 21.3498C3.82292 18.5166 5.21348 15.0473 8.10417 14.0627C8.55155 13.9101 9.01323 13.831 9.48573 13.831C10.2169 13.831 10.8152 13.2327 10.8152 12.5015C10.8152 11.7685 10.2169 11.1702 9.48573 11.1702C8.03048 11.1702 6.66155 11.6265 5.47223 12.4296C5.7148 11.9212 5.96267 11.4289 6.19805 10.9582C7.62092 8.11412 9.26298 4.99524 9.06355 1.71818C9.02042 0.986931 8.38623 0.426431 7.65505 0.471306C6.9238 0.516243 6.3633 1.14868 6.40642 1.87987C6.56811 4.52274 4.96736 7.46737 3.81755 9.76706Z" fill="#F47C7C"/>
<path fill-rule="evenodd" clip-rule="evenodd" d="M15.1466 21.3498C15.1466 18.5166 13.7561 15.0473 10.8654 14.0627C10.4198 13.9101 9.95633 13.831 9.48564 13.831C9.13708 13.831 8.79395 13.8741 8.45983 13.9567C8.5137 13.9747 8.56939 13.9909 8.62333 14.0089C11.5122 14.9952 12.9046 18.4627 12.9046 21.2977C12.9046 24.1328 11.5123 27.6002 8.62333 28.5866C8.50477 28.6261 8.38795 28.6603 8.26758 28.6908C8.66283 28.8076 9.07064 28.8687 9.48564 28.8687C9.95633 28.8687 10.4198 28.7896 10.8654 28.6387C13.7561 27.6541 15.1466 24.1849 15.1466 21.3498Z" fill="#FFBD86"/>
<path fill-rule="evenodd" clip-rule="evenodd" d="M5.47215 12.4296C5.71471 11.9212 5.96258 11.4289 6.19796 10.9582C7.62083 8.11412 9.2629 4.99524 9.06346 1.71818C9.02033 0.986931 8.38615 0.426431 7.65496 0.471306C7.18608 0.500056 6.78721 0.771368 6.5734 1.15399C7.23271 1.19349 7.7789 1.72531 7.82021 2.40262C7.83277 6.10724 5.60327 8.90637 4.44446 12.2409C4.39952 12.3684 4.32771 12.5266 4.28633 12.6559C4.1534 13.0763 4.20546 13.1158 4.5289 12.9182C4.83258 12.7332 5.14696 12.5697 5.47215 12.4296Z" fill="#EE6161"/>
<path fill-rule="evenodd" clip-rule="evenodd" d="M3.82299 21.3498C3.82299 18.5166 5.21355 15.0473 8.10424 14.0627C8.22099 14.0214 8.33961 13.9873 8.45999 13.9567C8.79418 13.8741 9.1373 13.831 9.4858 13.831C10.217 13.831 10.8152 13.2327 10.8152 12.5015C10.8152 12.3201 10.7793 12.1457 10.7129 11.9877C10.4218 12.338 9.98343 12.5608 9.4948 12.5608C8.93249 12.5608 8.38093 12.6542 7.85093 12.8357C4.40693 14.0089 2.48999 18.1411 2.48999 21.5169C2.48999 23.4734 3.30743 25.6851 4.44643 27.4278C5.27287 28.6891 6.40287 29.7041 7.85093 30.1982C8.38093 30.3779 8.93249 30.4712 9.4948 30.4712C9.92418 30.4712 10.3141 30.6437 10.5997 30.924C10.7362 30.7156 10.8152 30.4659 10.8152 30.1999C10.8152 29.4669 10.217 28.8686 9.4858 28.8686C9.0708 28.8686 8.66299 28.8076 8.26774 28.6908C8.21387 28.6746 8.15818 28.6566 8.10424 28.6386C6.88974 28.2254 5.94118 27.372 5.24768 26.312C4.29193 24.8496 3.82299 22.9937 3.82299 21.3498Z" fill="#EE6161"/>
<path d="M15.6155 21.3498C15.6155 19.7706 15.221 18.1527 14.5047 16.7944C13.6691 15.2096 12.4629 14.1116 11.0174 13.6193C10.9843 13.608 10.951 13.598 10.9178 13.5874C11.1473 13.2854 11.2839 12.9092 11.2839 12.5015C11.2839 11.509 10.4772 10.7015 9.48566 10.7015C8.48016 10.7015 7.48409 10.9098 6.54547 11.3114L6.79147 10.8203C8.16897 8.07318 9.73041 4.9595 9.53147 1.69068C9.50328 1.21237 9.28941 0.773121 8.92922 0.453871C8.56847 0.134059 8.10591 -0.0258162 7.62622 0.00349625C6.63728 0.0642463 5.88009 0.918371 5.93847 1.90856C6.08072 4.23337 4.73578 6.90206 3.65516 9.04637C3.56772 9.21987 3.48178 9.39031 3.39847 9.55706C2.99853 10.3551 2.63191 11.1762 2.30878 11.9975C2.21397 12.2384 2.33247 12.5106 2.57334 12.6053C2.81459 12.7001 3.08641 12.5816 3.18122 12.3407C3.49409 11.5454 3.84922 10.7501 4.23678 9.97662C4.31991 9.81043 4.40534 9.64081 4.49234 9.46825C5.62384 7.22312 7.03197 4.429 6.87434 1.85225C6.84641 1.37793 7.20947 0.968246 7.68372 0.939121C7.91222 0.925246 8.13422 1.00181 8.30734 1.15525C8.47978 1.30812 8.58209 1.51781 8.59559 1.74656C8.77922 4.76456 7.34266 7.62943 5.95341 10.3999L5.69603 10.9139C5.48428 11.337 5.26528 11.7746 5.04909 12.2277C4.95809 12.4186 5.00609 12.6467 5.16628 12.7847C5.32653 12.9227 5.55934 12.9363 5.73453 12.818C6.87691 12.0466 8.17403 11.6389 9.48572 11.6389C9.96034 11.6389 10.3464 12.0258 10.3464 12.5014C10.3464 12.976 9.96028 13.3621 9.48572 13.3621C8.96784 13.3621 8.45209 13.4486 7.95303 13.6189C7.50103 13.7728 7.07253 13.9859 6.67141 14.2544C5.78897 14.8452 5.03934 15.7047 4.46491 16.7942C3.92772 17.813 3.57153 18.9777 3.42703 20.1627C3.37884 20.5577 3.35422 20.9549 3.35422 21.3497C3.35422 24.3196 4.79334 28.0061 7.95434 29.0827C8.45509 29.2516 8.97028 29.3372 9.48572 29.3372C9.96034 29.3372 10.3464 29.7242 10.3464 30.1997C10.3464 30.6754 9.96028 31.0623 9.48572 31.0623C6.21734 31.0623 3.25647 28.5157 2.11784 24.7255C1.21284 21.7096 1.33384 18.1346 2.46791 14.387C2.54284 14.1392 2.40278 13.8776 2.15497 13.8026C1.90734 13.7277 1.64553 13.8677 1.57053 14.1154C0.382969 18.0402 0.261656 21.8022 1.21991 24.9952C1.82734 27.0173 2.91397 28.7512 4.36228 30.0096C5.86097 31.3117 7.63259 32 9.48566 32C10.4772 32 11.2839 31.1925 11.2839 30.1999C11.2839 29.7921 11.1475 29.4157 10.9183 29.1136C10.951 29.1032 10.984 29.0935 11.0166 29.0824C14.1763 28.0062 15.6155 24.3197 15.6155 21.3498ZM10.715 28.1947C9.91159 28.4669 9.06116 28.4669 8.25522 28.195C7.45209 27.9215 6.76759 27.4244 6.20441 26.7882C6.94953 26.7057 7.71184 26.4299 8.42416 25.9762C9.39659 25.3569 10.1267 24.4796 10.3772 23.6292C10.4504 23.3809 10.3083 23.1203 10.0601 23.0471C9.81166 22.974 9.55109 23.116 9.47797 23.3643C9.33166 23.8608 8.92922 24.3992 8.38584 24.8469C7.90034 24.178 7.75153 23.5946 7.89197 22.9519C7.94722 22.6989 7.78697 22.4491 7.53403 22.3939C7.28128 22.3387 7.03128 22.4989 6.97603 22.7518C6.73597 23.8509 7.14647 24.729 7.60566 25.3697C6.92159 25.7359 6.18966 25.9121 5.52916 25.8692C4.71153 24.5328 4.29166 22.8651 4.29166 21.3499C4.29166 19.9723 4.63884 18.4684 5.31684 17.2022C6.44178 17.1141 6.68628 17.5362 7.04516 18.1551C7.46022 18.8711 7.97634 19.7616 9.78922 19.7616H9.80497C10.0638 19.7608 10.2731 19.5504 10.2724 19.2915C10.2717 19.0331 10.062 18.8241 9.80366 18.8241C9.79934 18.824 9.79366 18.8241 9.78859 18.8241C8.51666 18.8241 8.22503 18.3211 7.85622 17.6849C7.51291 17.0927 7.10084 16.3829 5.91216 16.2707C6.52497 15.4637 7.30753 14.8293 8.25553 14.5064C8.65716 14.3694 9.07103 14.2998 9.48566 14.2998C9.90078 14.2998 10.3138 14.3692 10.7143 14.5066C13.3165 15.3929 14.6779 18.6201 14.6779 21.3499C14.678 24.0806 13.3165 27.3087 10.715 28.1947Z" fill="black"/>
<path d="M31.0868 14.0772C31.0114 13.8296 30.7493 13.69 30.5019 13.7652C30.2543 13.8406 30.1146 14.1025 30.19 14.3501C31.3349 18.1134 31.4596 21.7011 30.5506 24.7257C29.4137 28.5159 26.4534 31.0625 23.1844 31.0625C22.7088 31.0625 22.3219 30.6756 22.3219 30.1999C22.3219 29.7244 22.7088 29.3374 23.1844 29.3374C23.7007 29.3374 24.2155 29.2517 24.7153 29.0824C27.875 28.0062 29.3141 24.3197 29.3141 21.3499C29.3141 19.7706 28.9196 18.1528 28.2034 16.7944C27.3678 15.2097 26.1616 14.1117 24.7161 13.6194C24.2184 13.4487 23.7031 13.3623 23.1843 13.3623C22.7088 13.3623 22.3218 12.9762 22.3218 12.5016C22.3218 12.026 22.7087 11.6391 23.1843 11.6391C24.4959 11.6391 25.7931 12.0468 26.9356 12.8182C27.1109 12.9365 27.3435 12.9229 27.5038 12.7849C27.664 12.6469 27.712 12.4187 27.621 12.2279C27.4048 11.7747 27.1858 11.3372 26.9741 10.9141L26.7131 10.3929C25.3247 7.62462 23.8891 4.76206 24.0726 1.74706C24.1018 1.27256 24.5115 0.910122 24.9863 0.939309C25.4608 0.968434 25.8231 1.37756 25.7939 1.85175C25.6377 4.4345 27.0498 7.23343 28.1844 9.48243C28.2691 9.65031 28.3524 9.81525 28.4333 9.97681C28.8243 10.7588 29.1812 11.559 29.4943 12.3551C29.5889 12.5961 29.8609 12.7145 30.102 12.6199C30.3429 12.5251 30.4614 12.2531 30.3668 12.0121C30.0436 11.1902 29.6753 10.3644 29.2716 9.55731C29.1902 9.39468 29.1065 9.22887 29.0214 9.06018C27.9376 6.91193 26.5888 4.23837 26.7297 1.90881C26.7905 0.919122 26.0342 0.0644967 25.0436 0.00362174C24.0526 -0.0576908 23.1977 0.699309 23.1368 1.68987C22.9379 4.95693 24.4983 8.06818 25.875 10.8132L26.1245 11.3115C25.1859 10.9099 24.1898 10.7016 23.1843 10.7016C22.1918 10.7016 21.3843 11.5091 21.3843 12.5016C21.3843 12.9094 21.5211 13.2858 21.751 13.5879C21.7184 13.5982 21.6858 13.608 21.6533 13.6191C20.2069 14.1117 19.0008 15.2097 18.1652 16.7945C17.4489 18.1529 17.0544 19.7707 17.0544 21.3499C17.0544 24.3198 18.4935 28.0064 21.654 29.0827C21.686 29.0936 21.7183 29.1031 21.7504 29.1133C21.5208 29.4156 21.3841 29.7921 21.3841 30.2001C21.3841 31.1926 22.1916 32.0001 23.1841 32.0001C25.0367 32.0001 26.808 31.3119 28.3066 30.0097C29.7555 28.7509 30.8418 27.0169 31.4481 24.9954C32.4109 21.7934 32.2858 18.0179 31.0868 14.0772ZM17.9922 21.3498C17.9922 18.6199 19.3536 15.3927 21.9566 14.5061C22.3563 14.3692 22.7694 14.2997 23.1844 14.2997C23.5996 14.2997 24.0126 14.3691 24.4131 14.5064C25.2158 14.7799 25.9001 15.2766 26.4631 15.9122C25.7187 15.9953 24.9573 16.2712 24.2458 16.7242C23.2733 17.3434 22.5426 18.221 22.2912 19.0718C22.2178 19.3201 22.3596 19.5808 22.6079 19.6542C22.6522 19.6673 22.6969 19.6736 22.7409 19.6736C22.9433 19.6736 23.13 19.5414 23.1902 19.3376C23.3396 18.832 23.7353 18.3011 24.2827 17.8532C24.7698 18.5208 24.9191 19.1046 24.7782 19.7497C24.7229 20.0026 24.8832 20.2524 25.1361 20.3077C25.1698 20.3151 25.2034 20.3186 25.2366 20.3186C25.4521 20.3186 25.6463 20.1689 25.6941 19.9497C25.9348 18.8481 25.5238 17.9707 25.0637 17.3314C25.747 16.9655 26.4784 16.7887 27.1383 16.8304C27.9566 18.1667 28.3767 19.8347 28.3767 21.3499C28.3767 22.7282 28.0294 24.2327 27.3514 25.4993C26.2269 25.5866 25.9826 25.1647 25.6242 24.5459C25.2093 23.8294 24.6935 22.9383 22.8779 22.9383C22.8738 22.9383 22.8694 22.9383 22.8653 22.9383C22.6064 22.9389 22.397 23.1492 22.3976 23.4081C22.3983 23.6667 22.6079 23.8758 22.8664 23.8758H22.8785C24.1527 23.8758 24.4443 24.3791 24.8129 25.0156C25.1559 25.6079 25.5675 26.3175 26.7566 26.4301C26.1439 27.2374 25.3615 27.8719 24.4137 28.1947C23.6098 28.4671 22.7583 28.4669 21.9557 28.195C19.3536 27.3087 17.9922 24.0806 17.9922 21.3498Z" fill="black"/>
</g>
<defs>
<clipPath id="clip0_76_6867">
<rect width="32" height="32" fill="white" transform="translate(0.334717)"/>
</clipPath>
</defs>
</svg>
