<svg width="40" height="40" viewBox="0 0 40 40" fill="none" xmlns="http://www.w3.org/2000/svg">
<g clip-path="url(#clip0_4621_68941)">
<path d="M20 40C31.0457 40 40 31.0457 40 20C40 8.9543 31.0457 0 20 0C8.9543 0 0 8.9543 0 20C0 31.0457 8.9543 40 20 40Z" fill="#239EA0"/>
<path d="M20.0928 28.4755C20.0619 28.4755 20.031 28.5064 19.9683 28.5064C19.9374 28.5064 19.9065 28.4755 19.8438 28.4755H20.0928Z" fill="#F2F3F3"/>
<path d="M35.8651 31.6419C34.0375 34.1429 31.6454 36.1774 28.8834 37.58C26.1214 38.9825 23.0674 39.7135 19.9697 39.7135C16.872 39.7135 13.818 38.9825 11.056 37.58C8.29396 36.1774 5.90189 34.1429 4.07422 31.6419C6.75549 28.9726 10.1335 27.1114 13.8224 26.2709C13.7343 28.0575 14.0529 29.8408 14.7542 31.4864C15.936 28.7546 19.936 28.5064 19.936 28.5064C19.936 28.5064 23.9406 28.7237 25.1515 31.4864C25.8488 29.8396 26.1673 28.0573 26.0833 26.2709C29.7851 27.1031 33.1762 28.9651 35.8651 31.6419Z" fill="#F2F3F3"/>
<path d="M24.8764 24.1946C24.8764 24.5982 24.6282 26.74 20.0955 28.4791H19.8473C15.3146 26.7409 15.0664 24.5982 15.0664 24.1946C15.0965 23.3777 15.2864 22.5747 15.6255 21.8309C16.1021 22.5471 16.7482 23.1343 17.5065 23.5405C18.2648 23.9467 19.1116 24.1593 19.9719 24.1593C20.8321 24.1593 21.679 23.9467 22.4372 23.5405C23.1955 23.1343 23.8416 22.5471 24.3182 21.8309C24.6714 22.5698 24.8617 23.3758 24.8764 24.1946Z" fill="#EED18B"/>
<path d="M22.6684 29.1891L21.6747 31.1763H18.2593L17.2656 29.1891C18.1264 28.8268 19.037 28.5966 19.9665 28.5063C20.897 28.5931 21.8084 28.8234 22.6684 29.1891Z" fill="#CF6449"/>
<path d="M17.207 39.5273C18.1333 39.6517 19.067 39.7125 20.0016 39.7091C20.9361 39.7104 21.8697 39.6496 22.7961 39.5273L21.7052 31.2073H18.2979L17.207 39.5273Z" fill="#EA7B5E"/>
<path d="M24.8778 24.1291C24.8778 24.1291 25.0951 26.6127 19.9688 28.5064C19.9688 28.5064 23.9733 28.7236 25.1842 31.4864C25.2151 31.6109 27.5442 25.5882 24.8778 24.1291Z" fill="white"/>
<path d="M15.0652 24.1291C12.4288 25.5882 14.7233 31.5836 14.7861 31.4873C15.9679 28.7554 20.0015 28.5073 20.0015 28.5073C14.8479 26.6127 15.0652 24.1291 15.0652 24.1291Z" fill="white"/>
<path d="M24.565 22.4518C24.03 23.1652 23.3363 23.7442 22.5387 24.143C21.7412 24.5418 20.8617 24.7494 19.97 24.7494C19.0783 24.7494 18.1989 24.5418 17.4013 24.143C16.6038 23.7442 15.91 23.1652 15.375 22.4518C15.4388 22.2378 15.5219 22.03 15.6232 21.8309C16.1418 22.5043 16.7974 23.06 17.5466 23.4613C18.2958 23.8627 19.1216 24.1005 19.9695 24.1591C20.819 24.1073 21.6472 23.8724 22.3974 23.4705C23.1476 23.0687 23.8021 22.5093 24.3159 21.8309C24.4175 22.03 24.5009 22.2378 24.565 22.4518Z" fill="#EED18B"/>
<path d="M28.4436 17.7018C27.7918 18.7927 26.7982 19.44 26.0527 19.3164C24.5627 22.0791 22.3891 24.1282 19.9682 24.1282C17.5473 24.1282 15.3737 22.0482 13.8837 19.3164C13.377 19.2861 12.8879 19.1203 12.4673 18.8363C12.0467 18.5522 11.7101 18.1604 11.4927 17.7018C10.7164 16.4291 10.6855 15.0318 11.4309 14.5663C11.6094 14.4633 11.816 14.4197 12.0209 14.4418C12.3038 15.1831 12.7027 15.8748 13.2027 16.4909C12.4891 12.5482 15.4073 12.1136 14.91 8.32544C14.91 8.32544 16.7418 12.3927 21.9882 9.53635L21.5846 10.3127C28.9118 8.66726 26.4591 17.2982 26.3964 17.5154C27.1354 16.6 27.7033 15.5588 28.0727 14.4418C28.2058 14.45 28.3343 14.4929 28.4455 14.5663C29.25 15.0009 29.2191 16.4291 28.4436 17.7018Z" fill="#EED18B"/>
<path d="M24.1915 4.22819C24.7375 4.26422 25.2684 4.42335 25.7442 4.69364C23.1078 1.68182 18.7897 3.60273 18.7897 3.60273C19.5349 2.89248 20.5229 2.49295 21.5524 2.48546C15.3706 1.55364 14.3187 5.24819 14.3187 5.24819C14.0979 4.82994 14.0112 4.3538 14.0706 3.88455C13.8439 4.61418 13.8548 5.39692 14.1015 6.12C13.6669 5.0291 12.146 5.22 12.146 5.22C13.4497 5.43728 13.6669 6.24455 13.6669 6.24455C12.7575 6.5837 11.9926 7.22558 11.5008 8.0623C11.0089 8.89901 10.8201 9.87956 10.966 10.8391L11.7424 9.90728C11.4846 11.0411 11.4846 12.2183 11.7425 13.3522C12.0004 14.486 12.5095 15.5474 13.2324 16.4582C12.5188 12.5155 15.4369 12.0809 14.9397 8.29273C14.9397 8.29273 16.7715 12.36 22.0178 9.50364L21.6142 10.28C29.0342 8.60364 26.426 17.5136 26.426 17.5136C27.9829 15.5998 28.7788 13.1788 28.6615 10.7146L28.9724 11.9564C29.8106 6.37092 24.1915 4.22819 24.1915 4.22819Z" fill="#324A5E"/>
</g>
<defs>
<clipPath id="clip0_4621_68941">
<rect width="40" height="40" fill="white"/>
</clipPath>
</defs>
</svg>
