<svg width="121" height="120" viewBox="0 0 121 120" fill="none" xmlns="http://www.w3.org/2000/svg">
<g clip-path="url(#clip0_603_4198)">
<path d="M120.144 0H0.144043V120H120.144V0Z" fill="#E9EEEF"/>
<path d="M60.144 60C68.1521 60 74.644 53.5081 74.644 45.5C74.644 37.4919 68.1521 31 60.144 31C52.1359 31 45.644 37.4919 45.644 45.5C45.644 53.5081 52.1359 60 60.144 60Z" fill="black" fill-opacity="0.3"/>
<path d="M60.144 64.833C48.1373 64.8464 38.4074 74.5763 38.394 86.583C38.394 87.9177 39.4759 88.9996 40.8106 88.9996H79.4773C80.8119 88.9996 81.8939 87.9177 81.8939 86.583C81.8806 74.5763 72.1507 64.8463 60.144 64.833Z" fill="black" fill-opacity="0.3"/>
</g>
<defs>
<clipPath id="clip0_603_4198">
<rect width="120" height="120" fill="white" transform="translate(0.144043)"/>
</clipPath>
</defs>
</svg>
