<svg width="24" height="25" viewBox="0 0 24 25" fill="none" xmlns="http://www.w3.org/2000/svg">
<g clip-path="url(#clip0_2610_54019)">
<path d="M20 2.5H19.5L0 22V22.5C0 23.603 0.896973 24.5 2 24.5H2.65942L22 4.90442V4.5C22 3.39697 21.103 2.5 20 2.5Z" fill="#FDDC49"/>
<path d="M2 2.5C0.896973 2.5 0 3.39697 0 4.5V22L19.5 2.5H2Z" fill="#56A959"/>
<path d="M2.65625 24.5H19.4968L11.0214 16.0246L2.65625 24.5Z" fill="#5796FF"/>
<path d="M13.5078 13.5082L21.9996 22V4.90442L13.5078 13.5082Z" fill="#CCCCCC"/>
<path d="M11.0234 16.0246L19.4988 24.5H19.9988C21.1019 24.5 21.9988 23.603 21.9988 22.5V22L13.507 13.5082L11.0234 16.0246Z" fill="#F2F2F2"/>
<path opacity="0.2" d="M20 2.5H2C0.896973 2.5 0 3.39697 0 4.5V4.75C0 3.64697 0.896973 2.75 2 2.75H20C21.103 2.75 22 3.64697 22 4.75V4.5C22 3.39697 21.103 2.5 20 2.5Z" fill="white"/>
<path opacity="0.1" d="M20 24.25H2C0.896973 24.25 0 23.353 0 22.25V22.5C0 23.603 0.896973 24.5 2 24.5H20C21.103 24.5 22 23.603 22 22.5V22.25C22 23.353 21.103 24.25 20 24.25Z" fill="black"/>
<path d="M18 0.5C14.6914 0.5 12 3.19141 12 6.5C12 6.73389 12.0161 6.96338 12.0415 7.18164C12.25 9.31396 13.3901 11.0703 14.5977 12.9292C15.7847 14.7568 17.0117 16.6465 17.5103 19.0996C17.5571 19.3325 17.7622 19.5 18 19.5C18.2378 19.5 18.4429 19.3325 18.4897 19.0996C18.9883 16.6465 20.2153 14.7568 21.4023 12.9292C22.6099 11.0703 23.75 9.31396 23.9575 7.18994C23.9839 6.96338 24 6.73389 24 6.5C24 3.19141 21.3086 0.5 18 0.5Z" fill="#E53935"/>
<path opacity="0.2" d="M18.0031 0.75C20.6725 0.75 22.9445 2.46377 23.7737 4.85434C23.0592 2.33944 20.744 0.5 18.0031 0.5C15.2622 0.5 12.9489 2.33297 12.2344 4.84786C13.0637 2.45729 15.3338 0.75 18.0031 0.75Z" fill="white"/>
<path opacity="0.1" d="M23.9575 6.93994C23.75 9.06396 22.6099 10.8203 21.4023 12.6792C20.2153 14.5068 18.9883 16.3965 18.4897 18.8496C18.4429 19.0825 18.2378 19.25 18 19.25C17.7622 19.25 17.5571 19.0825 17.5103 18.8496C17.0117 16.3965 15.7847 14.5068 14.5977 12.6792C13.3901 10.8203 12.25 9.06396 12.0415 6.93164C12.0203 6.74969 12.0112 6.55707 12.0069 6.36346C12.0059 6.4093 12 6.45392 12 6.5C12 6.73389 12.0161 6.96338 12.0415 7.18164C12.25 9.31396 13.3901 11.0703 14.5977 12.9292C15.7847 14.7568 17.0117 16.6465 17.5103 19.0996C17.5571 19.3325 17.7622 19.5 18 19.5C18.2378 19.5 18.4429 19.3325 18.4897 19.0996C18.9883 16.6465 20.2153 14.7568 21.4023 12.9292C22.6099 11.0703 23.75 9.31396 23.9575 7.18994C23.9839 6.96338 24 6.73389 24 6.5C24 6.45367 23.9941 6.40887 23.993 6.36279C23.9888 6.55725 23.9796 6.75043 23.9575 6.93994Z" fill="black"/>
<path d="M18 8.5C19.1046 8.5 20 7.60457 20 6.5C20 5.39543 19.1046 4.5 18 4.5C16.8954 4.5 16 5.39543 16 6.5C16 7.60457 16.8954 8.5 18 8.5Z" fill="#B71C1C"/>
<path opacity="0.1" d="M18 8.5C19.1046 8.5 20 7.60457 20 6.5C20 5.39543 19.1046 4.5 18 4.5C16.8954 4.5 16 5.39543 16 6.5C16 7.60457 16.8954 8.5 18 8.5Z" fill="black"/>
<path d="M5.5 11C3.8457 11 2.5 9.6543 2.5 8C2.5 6.3457 3.8457 5 5.5 5C6.15576 5 6.77881 5.20801 7.30225 5.60107L6.70166 6.40088C6.35254 6.13867 5.93701 6 5.5 6C4.39697 6 3.5 6.89697 3.5 8C3.5 9.10303 4.39697 10 5.5 10C6.43018 10 7.21436 9.36182 7.43652 8.5H6V7.5H8.5V8C8.5 9.6543 7.1543 11 5.5 11Z" fill="#F2F2F2"/>
<path d="M24 6.5C24 3.19141 21.3086 0.5 18 0.5C16.2289 0.5 14.6396 1.27576 13.5405 2.5H2C0.896973 2.5 0 3.39697 0 4.5V22.5C0 23.603 0.896973 24.5 2 24.5H20C21.103 24.5 22 23.603 22 22.5V11.997C22.965 10.4687 23.7849 8.95636 23.9575 7.18994C23.9839 6.96338 24 6.73389 24 6.5Z" fill="url(#paint0_linear_2610_54019)"/>
</g>
<defs>
<linearGradient id="paint0_linear_2610_54019" x1="-1.369" y1="6.992" x2="23.936" y2="18.792" gradientUnits="userSpaceOnUse">
<stop stop-color="white" stop-opacity="0.2"/>
<stop offset="1" stop-color="white" stop-opacity="0"/>
</linearGradient>
<clipPath id="clip0_2610_54019">
<rect width="24" height="24" fill="white" transform="translate(0 0.5)"/>
</clipPath>
</defs>
</svg>
