<svg width="172" height="51" viewBox="0 0 172 51" fill="none" xmlns="http://www.w3.org/2000/svg">
<g clip-path="url(#clip0_2500_67845)">
<path d="M8.46041 40.593L3.20941 31.556V37.908C3.20941 38.6201 2.92653 39.303 2.423 39.8066C1.91946 40.3101 1.23652 40.593 0.524414 40.593V27.522H3.28141L8.46542 36.412V30.207C8.46541 29.8545 8.53489 29.5055 8.66986 29.1799C8.80483 28.8543 9.00265 28.5585 9.25202 28.3095C9.50138 28.0604 9.79739 27.8629 10.1231 27.7283C10.4489 27.5937 10.798 27.5246 11.1504 27.525V40.596L8.46041 40.593Z" fill="#078B60"/>
<path d="M22.0818 37.9621H17.1918V37.9921C16.9401 38.7482 16.4571 39.4061 15.8111 39.8727C15.1651 40.3392 14.3887 40.5909 13.5918 40.5921L17.7218 28.9181C17.8663 28.5093 18.1339 28.1552 18.4877 27.9045C18.8415 27.6539 19.2642 27.5189 19.6978 27.5181C20.1343 27.5178 20.56 27.6536 20.9157 27.9064C21.2715 28.1593 21.5396 28.5168 21.6828 28.9291L25.7198 40.5891H25.6978C24.8985 40.5866 24.1204 40.3321 23.4741 39.862C22.8278 39.3918 22.3462 38.7297 22.0978 37.9701L22.0818 37.9621ZM21.3518 35.7151L19.6518 30.6031L17.9338 35.7121L21.3518 35.7151Z" fill="#078B60"/>
<path d="M30.2475 35.4089V38.3909C30.2475 38.9744 30.0157 39.5339 29.6031 39.9465C29.1905 40.3591 28.631 40.5909 28.0475 40.5909H27.5635V29.2489C27.5635 28.7909 27.7454 28.3516 28.0693 28.0277C28.3932 27.7038 28.8325 27.5219 29.2905 27.5219H34.5735C35.0356 27.4901 35.4993 27.5536 35.9359 27.7084C36.3725 27.8632 36.7726 28.1061 37.1115 28.4219C37.4455 28.7738 37.7049 29.1896 37.8742 29.6443C38.0435 30.099 38.1191 30.5832 38.0965 31.0679C38.1382 31.7775 37.9418 32.4808 37.5386 33.0662C37.1354 33.6517 36.5483 34.0858 35.8705 34.2999C36.1965 34.3873 36.5011 34.5409 36.7652 34.7511C37.0293 34.9613 37.2472 35.2237 37.4055 35.5219C37.6201 36.6836 37.7206 37.8636 37.7055 39.0449C37.6935 39.2567 37.7401 39.4678 37.8403 39.6548C37.9406 39.8418 38.0904 39.9976 38.2735 40.1049V40.5979H37.1895C36.6094 40.5979 36.0529 40.3689 35.6409 39.9606C35.2289 39.5523 34.9948 38.9979 34.9895 38.4179V38.3879C34.9895 38.1449 34.9895 37.8469 35.0075 37.4879V36.9619C35.0075 35.9286 34.4538 35.4119 33.3465 35.4119L30.2475 35.4089ZM30.2475 33.1619H33.4975C33.995 33.2098 34.4947 33.095 34.9215 32.8349C35.1002 32.6537 35.237 32.4355 35.3222 32.1957C35.4074 31.9558 35.4389 31.7002 35.4145 31.4469C35.4407 31.2016 35.4099 30.9535 35.3243 30.7221C35.2388 30.4907 35.1009 30.2822 34.9215 30.1129C34.4984 29.8428 33.9973 29.7214 33.4975 29.7679H30.2475V33.1619Z" fill="#078B60"/>
<path d="M50.0936 37.9621H45.2006V37.9921C44.9489 38.7482 44.4659 39.4061 43.8199 39.8727C43.1739 40.3392 42.3975 40.5909 41.6006 40.5921L45.7396 28.9181C45.8843 28.5088 46.1523 28.1544 46.5067 27.9037C46.8611 27.653 47.2845 27.5183 47.7186 27.5181C48.1547 27.5185 48.5798 27.6547 48.935 27.9077C49.2901 28.1607 49.5577 28.5181 49.7006 28.9301L53.7376 40.5891H53.7166C52.917 40.5864 52.1386 40.3315 51.4922 39.8607C50.8458 39.39 50.3645 38.7273 50.1166 37.9671L50.0936 37.9621ZM49.3636 35.7151L47.6636 30.6091L45.9456 35.7151H49.3636Z" fill="#078B60"/>
<path d="M64.4773 37.9621H59.5893V37.9921C59.3376 38.7482 58.8546 39.4061 58.2086 39.8727C57.5625 40.3392 56.7862 40.5909 55.9893 40.5921L60.1313 28.9181C60.2758 28.5093 60.5433 28.1552 60.8971 27.9045C61.2509 27.6539 61.6737 27.5189 62.1073 27.5181C62.5433 27.5185 62.9685 27.6547 63.3236 27.9077C63.6788 28.1607 63.9464 28.5181 64.0893 28.9301L68.1293 40.5891H68.1113C67.3116 40.5864 66.5332 40.3315 65.8869 39.8607C65.2405 39.39 64.7591 38.7273 64.5113 37.9671L64.4773 37.9621ZM63.7473 35.7151L62.0473 30.6091L60.3293 35.7151H63.7473Z" fill="#078B60"/>
<path d="M73.0453 36.229V37.908C73.0457 38.2604 72.9766 38.6095 72.842 38.9353C72.7074 39.261 72.5099 39.557 72.2608 39.8064C72.0117 40.0557 71.7159 40.2536 71.3903 40.3885C71.0647 40.5235 70.7157 40.593 70.3633 40.593V27.522C70.7157 27.522 71.0647 27.5914 71.3903 27.7264C71.7159 27.8614 72.0117 28.0592 72.2608 28.3086C72.5099 28.5579 72.7074 28.854 72.842 29.1797C72.9766 29.5054 73.0457 29.8545 73.0453 30.207V33.273L77.3553 28.423C77.6068 28.1394 77.9158 27.9126 78.2616 27.7574C78.6074 27.6023 78.9822 27.5224 79.3613 27.523H81.3313L76.1113 33.145L81.8783 40.593H80.0163C79.5972 40.5915 79.1842 40.4926 78.81 40.3039C78.4358 40.1152 78.1106 39.8421 77.8603 39.506L74.3973 34.824L73.0453 36.229Z" fill="#078B60"/>
<path d="M95.7395 27.522H95.7575V36.175C95.7963 36.7823 95.7026 37.3908 95.483 37.9584C95.2633 38.5259 94.923 39.039 94.4855 39.462C93.3667 40.3247 91.9937 40.7926 90.581 40.7926C89.1682 40.7926 87.7953 40.3247 86.6765 39.462C86.2371 39.0404 85.8952 38.5278 85.6748 37.9602C85.4544 37.3926 85.3608 36.7836 85.4005 36.176V27.522C85.7527 27.5224 86.1014 27.5921 86.4266 27.7273C86.7519 27.8624 87.0473 28.0603 87.2961 28.3096C87.5448 28.559 87.7421 28.8548 87.8765 29.1804C88.0109 29.5059 88.0799 29.8548 88.0795 30.207V36.175C88.0795 37.721 88.9128 38.494 90.5795 38.494C92.2462 38.494 93.0742 37.721 93.0635 36.175V30.207C93.0631 29.8545 93.1322 29.5054 93.2668 29.1797C93.4014 28.854 93.5989 28.5579 93.848 28.3086C94.0971 28.0592 94.3929 27.8614 94.7184 27.7264C95.044 27.5914 95.3931 27.522 95.7455 27.522H95.7395Z" fill="#078B60"/>
<path d="M101.942 30.426V37.907C101.942 38.2594 101.873 38.6085 101.738 38.9342C101.604 39.26 101.406 39.556 101.157 39.8054C100.908 40.0547 100.612 40.2526 100.287 40.3875C99.9612 40.5225 99.6122 40.592 99.2598 40.592V27.522H103.276L105.649 37.922L107.949 27.522H112.001V40.593C111.289 40.593 110.606 40.3101 110.102 39.8066C109.599 39.303 109.316 38.6201 109.316 37.908V30.426L107.298 39.28C107.213 39.6525 107.005 39.9853 106.706 40.2237C106.407 40.4621 106.037 40.5919 105.655 40.592C105.274 40.5922 104.904 40.4632 104.605 40.226C104.307 39.9888 104.097 39.6574 104.012 39.286L101.942 30.426Z" fill="#078B60"/>
<path d="M42.9271 32.362V29.09C42.9271 28.6752 42.7627 28.2772 42.47 27.9833C42.1772 27.6895 41.7799 27.5236 41.3651 27.522H40.2451L41.2271 31.069C41.3298 31.441 41.5517 31.7691 41.8588 32.0028C42.1659 32.2366 42.5412 32.3621 42.9271 32.362Z" fill="#078B60"/>
<path d="M25.9095 13.4809H24.4495L26.8495 9.84692C25.8766 9.84771 24.92 10.0959 24.0694 10.5683C23.2189 11.0406 22.5025 11.7215 21.9875 12.5469L19.8435 15.9469H24.6485C25.6316 15.9707 26.5712 16.3566 27.2872 17.0306C28.0033 17.7046 28.4453 18.6191 28.5285 19.5989H18.3235C16.2785 19.5599 15.4735 18.8719 14.9775 16.6709C14.7661 15.722 14.2219 14.8801 13.4434 14.2977C12.6649 13.7152 11.7036 13.4308 10.7335 13.4959H5.28253C2.45053 13.4959 0.519531 15.4869 0.519531 18.5839V25.3369C1.2197 25.3369 1.8912 25.0588 2.38629 24.5637C2.88139 24.0686 3.15953 23.3971 3.15953 22.6969V19.0099C3.15953 17.0759 3.90453 16.0999 5.39753 16.0999H6.62253C6.39762 16.7071 6.29565 17.353 6.32253 17.9999C6.34616 19.1434 6.82296 20.2306 7.64809 21.0225C8.47321 21.8145 9.5791 22.2462 10.7225 22.2229C11.3864 22.2555 12.0488 22.1345 12.6583 21.8693C13.2678 21.6041 13.8079 21.2019 14.2365 20.6939C15.1454 21.531 16.316 22.0278 17.5495 22.0999V22.1569H31.4725V21.1719C31.4605 16.6739 29.5595 13.8629 25.9095 13.4809ZM10.7665 20.0609H10.5775C9.60153 20.0609 8.93153 19.1609 8.93153 17.8809C8.93153 16.6009 9.60153 15.6809 10.7125 15.6809C11.8235 15.6809 12.4695 16.5249 12.4695 17.8039C12.4735 19.3139 11.8995 20.0619 10.7705 20.0619L10.7665 20.0609Z" fill="#078B60"/>
<path d="M38.5876 19.6021C36.6176 19.6021 36.2876 18.9141 36.2876 17.6111V12.5051C36.2876 11.7957 36.0059 11.1154 35.5045 10.6136C35.0031 10.1118 34.323 9.82963 33.6136 9.8291V19.0101C33.5778 19.4401 33.6375 19.8727 33.7884 20.277C33.9393 20.6813 34.1777 21.0472 34.4865 21.3485C34.7954 21.6499 35.167 21.8793 35.5748 22.0203C35.9826 22.1613 36.4166 22.2104 36.8456 22.1641H78.8136V19.6021H74.3656C74.0017 19.4291 73.702 19.1453 73.5094 18.7914C73.3168 18.4374 73.2413 18.0316 73.2936 17.6321C73.2757 17.1282 73.4209 16.6319 73.7076 16.2171C73.8382 16.0078 74.0221 15.837 74.2406 15.7224C74.4591 15.6078 74.7042 15.5535 74.9506 15.5651C75.2947 15.5497 75.6337 15.6532 75.9105 15.8583C76.1873 16.0633 76.3851 16.3574 76.4706 16.6911L78.6706 15.6761C78.3685 14.9526 77.8578 14.3355 77.2037 13.9033C76.5496 13.4711 75.7816 13.2433 74.9976 13.2491C74.4138 13.2326 73.8333 13.3417 73.2953 13.5691C72.7574 13.7965 72.2746 14.1369 71.8796 14.5671C71.0839 15.4376 70.6542 16.5811 70.6796 17.7601C70.697 18.3905 70.826 19.0128 71.0606 19.5981L38.5876 19.6021Z" fill="#078B60"/>
<path d="M111.994 13.499C111.283 13.499 110.602 13.7813 110.1 14.2837C109.597 14.7861 109.315 15.4675 109.315 16.178V17.729C109.315 18.972 108.855 19.603 107.957 19.603H86.174V13.503C85.4579 13.503 84.7711 13.7875 84.2648 14.2938C83.7584 14.8002 83.474 15.4869 83.474 16.203V20.636C83.474 22.318 82.594 23.159 80.834 23.159C80.8328 23.4566 80.9006 23.7504 81.0321 24.0173C81.1636 24.2843 81.3552 24.5171 81.5918 24.6975C81.8284 24.878 82.1036 25.0011 82.3959 25.0572C82.6881 25.1133 82.9894 25.1009 83.276 25.021C83.9649 24.867 84.5935 24.5143 85.0841 24.0067C85.5746 23.4991 85.9056 22.8588 86.036 22.165H108.521C109.018 22.1896 109.514 22.0969 109.969 21.8946C110.424 21.6922 110.825 21.3858 111.14 21C111.715 20.2863 112.014 19.3899 111.984 18.474V13.499H111.994Z" fill="#078B60"/>
<path d="M110.752 9.70898H110.536C109.852 9.70898 109.297 10.2637 109.297 10.948C109.297 11.6323 109.852 12.187 110.536 12.187H110.752C111.436 12.187 111.991 11.6323 111.991 10.948C111.991 10.2637 111.436 9.70898 110.752 9.70898Z" fill="#078B60"/>
</g>
<g clip-path="url(#clip1_2500_67845)">
<path d="M154.295 37.0485C154.018 36.0826 153.69 35.1261 153.358 34.1884C153.114 33.4907 152.863 33.5329 152.634 32.8165C152.79 32.6277 152.929 32.4272 153.052 32.2168C153.198 31.9687 153.33 31.7134 153.448 31.452C153.67 30.9605 153.861 30.4561 154.018 29.9418C154.328 28.9458 154.563 27.9296 154.721 26.9011C155.045 24.8649 155.104 22.7977 154.896 20.7476C154.7 18.6941 154.149 16.6866 153.266 14.8078C152.394 12.9453 151.059 11.3179 149.378 10.0693C150.697 11.5641 151.686 13.301 152.286 15.1745C152.868 17.0146 153.174 18.9248 153.197 20.8479C153.234 22.7655 153.062 24.6815 152.686 26.5649C152.502 27.4956 152.259 28.4147 151.959 29.3168C151.806 29.7594 151.637 30.1931 151.451 30.5973C151.373 30.7633 151.291 30.9203 151.207 31.0662C149.449 30.5698 147.765 29.8585 146.195 28.9496C145.417 28.4961 144.68 27.9807 143.991 27.4089C144.123 27.1646 144.255 26.9217 144.395 26.6812C145.255 25.2014 146.075 23.8572 146.872 22.6207L147.637 23.1763C147.714 23.2374 147.802 23.283 147.897 23.3103C147.993 23.3377 148.093 23.3461 148.191 23.3352C148.29 23.3244 148.385 23.2943 148.472 23.247C148.558 23.1997 148.633 23.136 148.693 23.0599C148.753 22.9838 148.797 22.8967 148.821 22.804C148.845 22.7113 148.849 22.6149 148.833 22.5206C148.817 22.4263 148.782 22.3361 148.728 22.2554C148.675 22.1747 148.606 22.1052 148.524 22.051L147.659 21.4227C148.496 20.1746 149.317 19.038 150.141 17.976C150.643 17.3323 150.888 16.5368 150.831 15.7342C150.775 14.9316 150.421 14.1751 149.833 13.6023C149.246 13.0295 148.464 12.6784 147.63 12.6129C146.796 12.5473 145.966 12.7716 145.289 13.245C144.586 13.0037 143.821 12.9858 143.107 13.1939C142.393 13.4019 141.767 13.825 141.321 14.4008C141.045 14.7536 140.845 15.1553 140.731 15.5829C140.617 16.0104 140.592 16.4554 140.657 16.8922C140.723 17.3291 140.877 17.7492 141.112 18.1285C141.347 18.5077 141.657 18.8387 142.025 19.1023L145.692 21.766C144.863 23.0521 144.007 24.4508 143.108 25.9934C143.029 26.1279 142.957 26.2662 142.882 26.4013C142.434 25.9546 142.015 25.4817 141.628 24.9853C140.383 23.3509 139.456 21.5129 138.893 19.5604C138.297 17.5525 138.013 15.471 138.05 13.3834C137.546 15.4838 137.466 17.6574 137.814 19.7868C138.151 21.9738 138.956 24.0696 140.18 25.9413C140.697 26.7259 141.289 27.462 141.949 28.1399C141.554 28.8901 141.152 29.6511 140.768 30.4149C138.242 35.4422 134.79 41.1756 138.909 46.1959C140.388 47.9987 142.753 49.0016 145.129 49.2239C147.478 49.4442 149.975 48.9111 151.756 47.421C153.442 46.0097 154.614 43.9359 154.823 41.7964C154.965 39.7414 154.925 39.017 154.295 37.0485ZM142.908 17.9704C142.694 17.8181 142.514 17.6264 142.378 17.4066C142.242 17.1868 142.153 16.9432 142.115 16.6899C142.074 16.4137 142.094 16.1322 142.175 15.8642C142.256 15.5963 142.396 15.3483 142.586 15.137C142.776 14.9257 143.01 14.756 143.274 14.6395C143.538 14.523 143.824 14.4624 144.115 14.4618C144.388 14.4628 144.659 14.5167 144.91 14.6203L145.532 14.8758L146.053 14.4608C146.435 14.1581 146.919 14.0004 147.414 14.0177C147.909 14.035 148.38 14.226 148.738 14.5547C149.096 14.8833 149.317 15.3268 149.358 15.8013C149.4 16.2758 149.259 16.7484 148.962 17.1297C148.136 18.1936 147.318 19.3283 146.481 20.5689L142.908 17.9704ZM152.66 43.5715C152.325 44.5728 151.735 45.4776 150.943 46.2038C149.553 47.352 147.76 47.9473 145.929 47.8683C143.566 47.8294 141.147 46.8368 139.809 44.9641C136.517 40.356 139.858 35.4656 142.091 31.0272C142.402 30.4093 142.724 29.7908 143.049 29.1766C143.681 29.7178 144.353 30.214 145.06 30.661C146.967 31.8379 149.054 32.7207 151.245 33.2774C151.475 33.9934 151.722 33.9455 151.966 34.6366C152.861 37.1793 153.245 38.4308 153.121 41.1503C153.088 41.9746 152.934 42.7904 152.663 43.5734L152.66 43.5715Z" fill="url(#paint0_linear_2500_67845)"/>
<path d="M138.006 15.4951C138.76 15.4951 139.371 14.9071 139.371 14.1817C139.371 13.4564 138.76 12.8684 138.006 12.8684C137.251 12.8684 136.64 13.4564 136.64 14.1817C136.64 14.9071 137.251 15.4951 138.006 15.4951Z" fill="#239EA0"/>
<path d="M149.313 12.1174C150.067 12.1174 150.679 11.5294 150.679 10.804C150.679 10.0787 150.067 9.49072 149.313 9.49072C148.559 9.49072 147.947 10.0787 147.947 10.804C147.947 11.5294 148.559 12.1174 149.313 12.1174Z" fill="#239EA0"/>
<path d="M170.447 22.6229C170.122 22.4081 169.824 22.1586 169.557 21.8793C169.044 21.2957 168.68 20.6055 168.491 19.8631C168.26 19.1129 168.112 18.3196 167.927 17.5131C167.878 17.311 167.835 17.1071 167.781 16.9036C167.727 16.7001 167.665 16.4877 167.614 16.3058C167.508 15.9236 167.413 15.5251 167.292 15.1186C167.173 14.6968 167.022 14.2838 166.841 13.8831C166.742 13.6746 166.629 13.4724 166.503 13.2777C166.375 13.0852 166.234 12.9015 166.08 12.7277C165.495 12.1053 164.817 11.5708 164.068 11.142C163.726 10.9273 163.39 10.7303 163.073 10.525L162.089 9.87275L160.106 8.57396L159.38 8.10508C158.294 7.39473 151.327 2.47855 150.242 1.76491L149.687 1.39778C149.094 1.00768 147.318 -0.155141 146.001 1.10426C144.685 -0.155141 142.908 1.00815 142.316 1.39778L141.759 1.76491C140.674 2.47901 133.709 7.3952 132.622 8.10508L131.895 8.57396L129.912 9.87275L128.928 10.525C128.611 10.7299 128.276 10.9273 127.934 11.142C127.184 11.5708 126.506 12.1053 125.922 12.7277C125.767 12.9015 125.626 13.0852 125.498 13.2777C125.372 13.4722 125.26 13.6744 125.161 13.8831C124.98 14.2837 124.829 14.6966 124.71 15.1186C124.588 15.5246 124.493 15.9231 124.387 16.3058C124.338 16.4877 124.273 16.7005 124.22 16.9036C124.168 17.1066 124.12 17.3115 124.074 17.5131C123.89 18.3196 123.741 19.111 123.511 19.8631C123.322 20.6054 122.957 21.2955 122.444 21.8793C122.178 22.1589 121.879 22.4083 121.554 22.6229C121.228 22.8422 120.889 23.043 120.538 23.2245C121.323 23.0221 122.059 22.6704 122.7 22.1902C123.037 21.9252 123.327 21.6083 123.556 21.2524C123.79 20.8947 123.991 20.5182 124.158 20.1271C124.491 19.3502 124.723 18.5484 124.969 17.7827C125.03 17.59 125.094 17.4015 125.157 17.2154C125.22 17.0292 125.288 16.8529 125.362 16.648L125.764 15.4983C125.887 15.1445 126.038 14.7997 126.213 14.4668C126.296 14.3157 126.388 14.1693 126.489 14.0284C126.59 13.8919 126.701 13.7625 126.821 13.6411C127.349 13.1403 127.948 12.7128 128.599 12.3709C128.936 12.1792 129.284 11.9827 129.636 11.7665L130.645 11.1298L132.645 9.84462C132.888 9.68613 133.127 9.52531 133.369 9.36589L133.372 9.37152C134.461 8.66117 141.429 3.74498 142.514 3.02807L143.071 2.66188C144.384 1.79727 144.831 1.97825 145.075 2.23379C145.119 2.2745 145.153 2.32379 145.176 2.37837C145.199 2.43295 145.209 2.49156 145.206 2.55028C145.131 2.95996 144.912 3.33259 144.587 3.60667C143.815 4.32264 137.091 9.29978 136.242 10.0823C135.218 11.0252 134.185 11.9775 133.243 12.8529C132.912 12.8282 132.578 12.869 132.264 12.973C131.845 13.1102 131.47 13.3488 131.175 13.666C130.659 14.2765 130.315 15.0038 130.174 15.7787C130.029 16.4471 129.849 17.1079 129.635 17.7588C129.528 18.0678 129.391 18.3661 129.224 18.6497C129.055 18.931 128.855 19.2245 128.67 19.5124C128.485 19.8003 128.285 20.0854 128.085 20.3667C127.884 20.648 127.683 20.9294 127.474 21.2079C128.004 20.7621 128.505 20.2844 128.972 19.7778C129.216 19.5241 129.437 19.2714 129.668 18.992C129.899 18.7034 130.1 18.3937 130.268 18.0673C130.579 17.4205 130.845 16.7549 131.066 16.0746C131.167 15.7701 131.292 15.4734 131.44 15.187C131.57 14.9393 131.74 14.7136 131.946 14.5189C132.124 14.3539 132.344 14.2377 132.585 14.1822C132.809 14.1206 133.046 14.1206 133.271 14.1822C133.46 14.2437 133.626 14.36 133.745 14.5151C133.789 14.5837 133.82 14.6601 133.834 14.7399C133.848 14.8197 133.845 14.9014 133.826 14.9802C133.817 15.0338 133.804 15.0868 133.788 15.1387C133.772 15.194 133.743 15.2827 133.718 15.3563L133.549 15.8453C133.409 16.222 133.308 16.611 133.247 17.0067L133.238 17.0878L133.231 17.1563L133.217 17.2937L133.193 17.5675C133.178 17.7497 133.166 17.9315 133.158 18.1128C133.137 18.4753 133.126 18.8335 133.118 19.1912L133.095 21.2927C133.102 21.938 133.04 22.5822 132.909 23.2151C132.878 23.3647 132.83 23.504 132.788 23.646C132.738 23.782 132.681 23.9153 132.617 24.0455C132.491 24.3053 132.331 24.5485 132.141 24.769C132.046 24.8812 131.945 24.9885 131.838 25.0902C131.723 25.1943 131.606 25.296 131.484 25.3945C131.238 25.593 130.98 25.7769 130.711 25.9454C130.153 26.2857 129.574 26.5945 128.978 26.87L128.064 27.3009C127.914 27.3727 127.752 27.4533 127.594 27.5354C127.435 27.6174 127.282 27.707 127.133 27.805C125.951 28.5871 124.949 29.596 124.191 30.7683C125.138 29.828 126.24 29.0457 127.454 28.4534C127.6 28.3869 127.749 28.3245 127.899 28.2659C128.049 28.2073 128.196 28.159 128.359 28.1065L129.319 27.7783C129.98 27.5548 130.623 27.2855 131.244 26.9727C131.566 26.8037 131.877 26.6158 132.175 26.4101C132.328 26.3069 132.472 26.1906 132.618 26.0744C132.768 25.9485 132.911 25.8148 133.045 25.6739C133.609 25.0815 134.008 24.3626 134.207 23.5832C134.391 22.8457 134.489 22.0909 134.5 21.3326C134.523 20.6129 134.525 19.9128 134.541 19.218C134.547 18.8719 134.555 18.5287 134.571 18.1892C134.579 18.0195 134.589 17.8507 134.601 17.6828L134.621 17.4311L134.643 17.1966C134.684 16.8996 134.754 16.6071 134.853 16.3231L135.015 15.8177C135.043 15.7239 135.068 15.647 135.097 15.5326C135.128 15.4153 135.15 15.2961 135.164 15.1758C135.197 14.9138 135.183 14.6482 135.123 14.3909C135.06 14.1251 134.939 13.8751 134.769 13.6575C134.734 13.6135 134.697 13.5727 134.66 13.5337C135.468 12.7835 136.329 11.9911 137.183 11.2053C138.037 10.4195 144.757 5.44514 145.532 4.72775C145.703 4.56601 145.861 4.39066 146.002 4.20355C146.143 4.39058 146.3 4.56593 146.471 4.72775C147.244 5.44514 153.968 10.4213 154.817 11.2067C155.667 11.9921 156.532 12.7854 157.34 13.5352C157.303 13.5741 157.267 13.6153 157.232 13.6589C157.062 13.8767 156.941 14.1266 156.877 14.3923C156.817 14.6497 156.803 14.9152 156.836 15.1772C156.85 15.2975 156.872 15.4167 156.903 15.534C156.932 15.6484 156.957 15.7248 156.986 15.8191L157.147 16.3245C157.246 16.6085 157.317 16.901 157.357 17.198L157.38 17.4325L157.399 17.6843C157.411 17.8521 157.421 18.0209 157.429 18.1906C157.446 18.5301 157.453 18.8733 157.459 19.2194C157.476 19.9142 157.478 20.6143 157.501 21.334C157.511 22.0922 157.608 22.847 157.791 23.5846C157.99 24.364 158.39 25.0829 158.953 25.6753C159.088 25.816 159.23 25.9496 159.38 26.0758C159.526 26.192 159.673 26.3102 159.823 26.4115C160.121 26.617 160.432 26.8049 160.754 26.9741C161.375 27.287 162.019 27.5562 162.68 27.7797L163.639 28.1079C163.802 28.1604 163.95 28.2138 164.1 28.2673C164.25 28.3207 164.397 28.3883 164.545 28.4548C165.759 29.0474 166.861 29.8296 167.808 30.7697C167.05 29.5976 166.048 28.5887 164.865 27.8064C164.717 27.7084 164.561 27.6235 164.405 27.5368C164.249 27.45 164.086 27.3736 163.935 27.3023L163.021 26.8714C162.425 26.5957 161.846 26.2869 161.288 25.9468C161.019 25.7783 160.76 25.5944 160.514 25.3959C160.392 25.2979 160.275 25.1957 160.161 25.0916C160.054 24.9896 159.953 24.8824 159.858 24.7704C159.668 24.5502 159.509 24.3077 159.383 24.0488C159.316 23.9222 159.267 23.7839 159.212 23.6493C159.17 23.5087 159.122 23.368 159.091 23.2184C158.961 22.5855 158.898 21.9413 158.905 21.296L158.883 19.1894C158.876 18.8325 158.864 18.4743 158.845 18.1109C158.835 17.9296 158.822 17.7479 158.808 17.5656L158.784 17.2918L158.771 17.1544L158.765 17.086L158.754 17.0049C158.693 16.6092 158.593 16.2203 158.454 15.8434L158.283 15.3544C158.259 15.2808 158.229 15.1922 158.214 15.1368C158.197 15.0849 158.185 15.0319 158.176 14.9784C158.157 14.8996 158.154 14.8179 158.168 14.738C158.181 14.6582 158.212 14.5817 158.256 14.5132C158.375 14.3581 158.541 14.2419 158.73 14.1803C158.955 14.1187 159.192 14.1187 159.417 14.1803C159.657 14.2358 159.877 14.352 160.055 14.517C160.261 14.7117 160.432 14.9374 160.562 15.1851C160.71 15.4715 160.834 15.7682 160.935 16.0727C161.157 16.7527 161.423 17.4183 161.733 18.0655C161.901 18.3918 162.102 18.7015 162.333 18.9901C162.564 19.2714 162.788 19.5223 163.029 19.7759C163.497 20.2825 163.997 20.7602 164.527 21.206C164.318 20.9284 164.113 20.6513 163.917 20.3648C163.722 20.0783 163.522 19.7984 163.332 19.5105C163.143 19.2226 162.949 18.9301 162.778 18.6478C162.612 18.3642 162.474 18.0659 162.367 17.7569C162.153 17.1065 161.973 16.4459 161.828 15.7778C161.687 15.0027 161.342 14.2753 160.825 13.665C160.531 13.3477 160.155 13.109 159.736 12.972C159.422 12.868 159.089 12.8272 158.758 12.852C157.816 11.9766 156.781 11.0234 155.758 10.0814C154.909 9.29978 148.185 4.32264 147.413 3.60667C147.087 3.33259 146.868 2.95996 146.793 2.55028C146.79 2.49159 146.801 2.43305 146.823 2.37851C146.846 2.32396 146.88 2.27465 146.924 2.23379C147.168 1.97825 147.614 1.79727 148.929 2.66188L149.485 3.02807C150.571 3.74405 157.539 8.66117 158.627 9.37152L158.63 9.36589C158.874 9.52531 159.112 9.68613 159.355 9.84462L161.354 11.1298L162.363 11.7665C162.715 11.9832 163.065 12.1792 163.401 12.3709C164.052 12.7126 164.65 13.1401 165.178 13.6411C165.299 13.7625 165.409 13.8919 165.511 14.0284C165.611 14.1693 165.703 14.3157 165.786 14.4668C165.962 14.7997 166.112 15.1444 166.235 15.4983L166.637 16.648C166.712 16.8529 166.778 17.0274 166.842 17.2154C166.907 17.4034 166.97 17.5905 167.03 17.7827C167.274 18.5493 167.508 19.3511 167.842 20.1271C168.009 20.517 168.21 20.8924 168.443 21.2491C168.673 21.6048 168.962 21.9216 169.299 22.1869C169.941 22.6673 170.677 23.019 171.463 23.2212C171.112 23.0408 170.773 22.841 170.447 22.6229Z" fill="url(#paint1_linear_2500_67845)"/>
<path d="M144.955 18.4603L144.199 17.9511C143.957 17.7936 143.771 17.5696 143.664 17.3084C143.558 17.0472 143.536 16.7611 143.602 16.4877C143.668 16.2218 143.815 15.9811 144.025 15.7966C144.231 15.6152 144.49 15.4982 144.767 15.4609C144.902 15.4427 145.04 15.4446 145.175 15.4665C145.241 15.4775 145.307 15.4932 145.37 15.5134C145.432 15.5326 145.501 15.5603 145.575 15.5889L145.682 15.6287L145.769 15.5514C145.839 15.4872 145.917 15.432 146.001 15.3873C146.08 15.3454 146.163 15.3112 146.248 15.285C146.332 15.2601 146.418 15.2434 146.505 15.2353C146.59 15.2207 146.675 15.2127 146.761 15.2114C146.932 15.2109 147.102 15.2439 147.26 15.3085C147.417 15.3731 147.559 15.4679 147.678 15.5872C147.796 15.7064 147.888 15.8475 147.947 16.0019C148.007 16.1564 148.033 16.3209 148.025 16.4854C148.015 16.6495 147.971 16.8101 147.896 16.9575C147.829 17.0893 147.687 17.2675 147.576 17.4325L146.876 18.4307L146.701 18.6807C146.646 18.7618 146.585 18.8382 146.524 18.9217C146.427 19.0534 146.326 19.1847 146.229 19.3193L144.955 18.4603Z" fill="#239EA0"/>
</g>
<defs>
<linearGradient id="paint0_linear_2500_67845" x1="146.069" y1="-2.79496" x2="146.842" y2="43.6053" gradientUnits="userSpaceOnUse">
<stop stop-color="#008B62"/>
<stop offset="0.0001" stop-color="#139684"/>
<stop offset="0.0002" stop-color="#1F9C99"/>
<stop offset="1" stop-color="#239EA0"/>
</linearGradient>
<linearGradient id="paint1_linear_2500_67845" x1="145.898" y1="-2.792" x2="145.952" y2="43.62" gradientUnits="userSpaceOnUse">
<stop stop-color="#008B62"/>
<stop offset="1" stop-color="#239EA0"/>
</linearGradient>
<clipPath id="clip0_2500_67845">
<rect width="111.48" height="31.082" fill="white" transform="translate(0.519531 9.70898)"/>
</clipPath>
<clipPath id="clip1_2500_67845">
<rect width="52" height="50" fill="white" transform="translate(120 0.25)"/>
</clipPath>
</defs>
</svg>
